<?xml version="1.0"?>
<svg xmlns="http://www.w3.org/2000/svg" viewBox="0 0 420 130" width="420" height="130"><rect x="0" y="0" width="420" height="130" fill="#0B080B"></rect><path d="M22.9 1.0L22.9 1.0Q16.9 1.0 12.3-1.1Q7.7-3.3 5.1-7.3Q2.5-11.2 2.5-16.9L2.5-16.9L2.5-18.9L12.1-18.9L12.1-16.9Q12.1-12.2 15.0-9.9Q17.9-7.5 22.9-7.5L22.9-7.5Q27.9-7.5 30.4-9.5Q32.9-11.5 32.9-14.7L32.9-14.7Q32.9-16.8 31.6-18.1Q30.4-19.5 28.1-20.3Q25.8-21.2 22.4-21.9L22.4-21.9L20.7-22.3Q15.4-23.5 11.6-25.3Q7.8-27.1 5.7-30.0Q3.7-33.0 3.7-37.7L3.7-37.7Q3.7-42.5 6.0-45.8Q8.2-49.2 12.3-51.0Q16.4-52.8 22.0-52.8L22.0-52.8Q27.5-52.8 31.9-50.9Q36.2-49.1 38.7-45.3Q41.1-41.6 41.1-36.0L41.1-36.0L41.1-33.7L31.5-33.7L31.5-36.0Q31.5-38.9 30.4-40.7Q29.2-42.5 27.1-43.4Q24.9-44.3 22.0-44.3L22.0-44.3Q17.5-44.3 15.4-42.6Q13.3-40.9 13.3-38.0L13.3-38.0Q13.3-36.1 14.3-34.8Q15.3-33.4 17.3-32.6Q19.3-31.7 22.4-31.0L22.4-31.0L24.1-30.6Q29.7-29.5 33.8-27.6Q37.9-25.8 40.2-22.7Q42.5-19.7 42.5-14.9L42.5-14.9Q42.5-10.2 40.1-6.6Q37.7-3.0 33.3-1.0Q28.9 1.0 22.9 1.0Z" transform="translate(34,91)" fill="#F2EFE9"></path><path d="M26.9-14.7L5.0-14.7L5.0-23.1L26.9-23.1L26.9-14.7Z" transform="translate(79.34,91)" fill="#FF5A00"></path><path d="M30.3 0L3.4 0L3.4-8.6L10.2-8.6L10.2-43.2L3.4-43.2L3.4-51.8L30.0-51.8Q34.8-51.8 38.3-50.2Q41.8-48.6 43.8-45.7Q45.7-42.8 45.7-38.7L45.7-38.7L45.7-38.0Q45.7-34.4 44.4-32.2Q43.1-29.9 41.3-28.7Q39.4-27.5 37.8-26.9L37.8-26.9L37.8-25.6Q39.4-25.2 41.4-23.9Q43.3-22.7 44.7-20.4Q46.0-18.1 46.0-14.4L46.0-14.4L46.0-13.7Q46.0-9.4 44.0-6.3Q42.0-3.3 38.5-1.6Q35.0 0 30.3 0L30.3 0ZM20.0-21.6L20.0-8.9L29.2-8.9Q32.3-8.9 34.3-10.4Q36.3-12.0 36.3-14.9L36.3-14.9L36.3-15.6Q36.3-18.5 34.3-20.1Q32.4-21.6 29.2-21.6L29.2-21.6L20.0-21.6ZM20.0-42.9L20.0-30.5L29.0-30.5Q32.0-30.5 34.0-32.0Q36.0-33.6 36.0-36.3L36.0-36.3L36.0-37.1Q36.0-39.9 34.0-41.4Q32.1-42.9 29.0-42.9L29.0-42.9L20.0-42.9ZM60.1 0L50.0 0L63.6-51.8L80.7-51.8L94.3 0L84.2 0L81.4-11.4L62.9-11.4L60.1 0ZM71.5-45.7L65.2-20.4L79.1-20.4L72.8-45.7L71.5-45.7ZM110.1 0L100.5 0L100.5-51.8L119.1-51.8L129.4-6.7L130.7-6.7L130.7-51.8L140.3-51.8L140.3 0L121.7 0L111.4-45.1L110.1-45.1L110.1 0ZM159.8 0L150.1 0L150.1-51.8L159.8-51.8L159.8-31.2L161.2-31.2L178.0-51.8L190.5-51.8L168.9-26.3L191.2 0L178.3 0L161.2-21.0L159.8-21.0L159.8 0Z" transform="translate(111.81,91)" fill="#F2EFE9"></path><path d="M2.4 0L0.8 0L0.8-8.8L3.9-8.8L5.4-1.1L5.6-1.1L7.1-8.8L10.2-8.8L10.2 0L8.6 0L8.6-7.5L8.4-7.5L6.9 0L4.2 0L2.7-7.5L2.4-7.5L2.4 0Z M19.5 0.2L19.5 0.2Q17.8 0.2 16.8-0.7Q15.9-1.6 15.9-3.3L15.9-3.3L15.9-5.4Q15.9-7.1 16.8-8.0Q17.8-8.9 19.5-8.9L19.5-8.9Q21.1-8.9 22.1-8.0Q23.1-7.1 23.1-5.4L23.1-5.4L23.1-3.3Q23.1-1.6 22.1-0.7Q21.1 0.2 19.5 0.2ZM19.5-1.3L19.5-1.3Q20.4-1.3 20.9-1.8Q21.4-2.4 21.4-3.3L21.4-3.3L21.4-5.5Q21.4-6.4 20.9-6.9Q20.4-7.5 19.5-7.5L19.5-7.5Q18.5-7.5 18.0-6.9Q17.5-6.4 17.5-5.5L17.5-5.5L17.5-3.3Q17.5-2.4 18.0-1.8Q18.5-1.3 19.5-1.3Z M32.1 0L28.5 0L28.5-1.5L29.6-1.5L29.6-7.3L28.5-7.3L28.5-8.8L32.1-8.8Q33.8-8.8 34.7-7.9Q35.7-7.0 35.7-5.2L35.7-5.2L35.7-3.6Q35.7-1.8 34.7-0.9Q33.8 0 32.1 0L32.1 0ZM31.3-7.3L31.3-1.5L32.1-1.5Q33.1-1.5 33.5-2.0Q34-2.6 34-3.5L34-3.5L34-5.3Q34-6.2 33.5-6.7Q33.1-7.3 32.1-7.3L32.1-7.3L31.3-7.3Z M44.6 0.2L44.6 0.2Q43.5 0.2 42.8-0.2Q42.0-0.6 41.6-1.3Q41.2-2.1 41.2-3.1L41.2-3.1L41.2-8.8L42.8-8.8L42.8-3.0Q42.8-2.2 43.3-1.8Q43.7-1.3 44.6-1.3L44.6-1.3Q45.5-1.3 45.9-1.8Q46.4-2.2 46.4-3.0L46.4-3.0L46.4-8.8L48.0-8.8L48.0-3.1Q48.0-2.1 47.6-1.3Q47.2-0.6 46.4-0.2Q45.7 0.2 44.6 0.2Z M59.5 0L53.8 0L53.8-8.8L55.5-8.8L55.5-1.5L59.5-1.5L59.5 0Z M65.9 0L64.2 0L66.5-8.8L69.4-8.8L71.7 0L70.0 0L69.5-1.9L66.4-1.9L65.9 0ZM67.8-7.7L66.8-3.5L69.1-3.5L68.1-7.7L67.8-7.7Z M78.6 0L76.9 0L76.9-8.8L80.7-8.8Q81.6-8.8 82.2-8.5Q82.8-8.2 83.1-7.7Q83.5-7.1 83.5-6.4L83.5-6.4L83.5-6.3Q83.5-5.5 83.1-5.0Q82.7-4.5 82.2-4.3L82.2-4.3L82.2-4.0Q82.7-4.0 82.9-3.7Q83.2-3.4 83.2-2.9L83.2-2.9L83.2 0L81.6 0L81.6-2.6Q81.6-2.9 81.4-3.1Q81.2-3.3 80.9-3.3L80.9-3.3L78.6-3.3L78.6 0ZM78.6-7.3L78.6-4.8L80.6-4.8Q81.1-4.8 81.5-5.1Q81.8-5.4 81.8-6.0L81.8-6.0L81.8-6.1Q81.8-6.6 81.5-6.9Q81.2-7.3 80.6-7.3L80.6-7.3L78.6-7.3Z M99.4 0.2L99.4 0.2Q98.4 0.2 97.7-0.2Q96.9-0.6 96.4-1.2Q96.0-1.9 96.0-2.9L96.0-2.9L96.0-3.2L97.6-3.2L97.6-2.9Q97.6-2.1 98.1-1.7Q98.6-1.3 99.4-1.3L99.4-1.3Q100.3-1.3 100.7-1.6Q101.1-2.0 101.1-2.5L101.1-2.5Q101.1-2.8 100.9-3.1Q100.7-3.3 100.3-3.4Q99.9-3.6 99.4-3.7L99.4-3.7L99.1-3.8Q98.2-4.0 97.5-4.3Q96.9-4.6 96.5-5.1Q96.2-5.6 96.2-6.4L96.2-6.4Q96.2-7.2 96.6-7.7Q97.0-8.3 97.7-8.6Q98.4-8.9 99.3-8.9L99.3-8.9Q100.2-8.9 101.0-8.6Q101.7-8.3 102.1-7.7Q102.5-7.0 102.5-6.1L102.5-6.1L102.5-5.7L100.9-5.7L100.9-6.1Q100.9-6.6 100.7-6.9Q100.5-7.2 100.2-7.3Q99.8-7.5 99.3-7.5L99.3-7.5Q98.5-7.5 98.2-7.2Q97.8-6.9 97.8-6.4L97.8-6.4Q97.8-6.1 98.0-5.9Q98.2-5.7 98.5-5.5Q98.8-5.4 99.4-5.2L99.4-5.2L99.7-5.2Q100.6-5.0 101.3-4.7Q102.0-4.4 102.4-3.8Q102.8-3.3 102.8-2.5L102.8-2.5Q102.8-1.7 102.3-1.1Q101.9-0.5 101.2-0.2Q100.5 0.2 99.4 0.2Z M109.8 0L108.2 0L108.2-8.8L109.8-8.8L109.8 0Z M118.7 0.2L118.7 0.2Q117.8 0.2 117.1-0.2Q116.3-0.6 115.9-1.4Q115.5-2.2 115.5-3.3L115.5-3.3L115.5-5.4Q115.5-7.1 116.4-8.0Q117.4-8.9 119.0-8.9L119.0-8.9Q120.6-8.9 121.5-8.1Q122.4-7.2 122.4-5.8L122.4-5.8L122.4-5.7L120.8-5.7L120.8-5.8Q120.8-6.3 120.6-6.6Q120.4-7.0 120.0-7.2Q119.6-7.5 119.0-7.5L119.0-7.5Q118.1-7.5 117.6-6.9Q117.1-6.4 117.1-5.5L117.1-5.5L117.1-3.3Q117.1-2.4 117.6-1.8Q118.1-1.3 119.0-1.3L119.0-1.3Q119.9-1.3 120.3-1.8Q120.8-2.2 120.8-3.0L120.8-3.0L120.8-3.1L118.7-3.1L118.7-4.5L122.4-4.5L122.4 0L120.9 0L120.9-0.8L120.6-0.8Q120.5-0.6 120.3-0.4Q120.2-0.2 119.8 0.0Q119.4 0.2 118.7 0.2Z M129.8 0L128.2 0L128.2-8.8L131.3-8.8L133.0-1.1L133.3-1.1L133.3-8.8L134.9-8.8L134.9 0L131.7 0L130.0-7.6L129.8-7.6L129.8 0Z M141.8 0L140.1 0L142.4-8.8L145.3-8.8L147.6 0L145.9 0L145.4-1.9L142.3-1.9L141.8 0ZM143.8-7.7L142.7-3.5L145.0-3.5L144.0-7.7L143.8-7.7Z M158.5 0L152.8 0L152.8-8.8L154.5-8.8L154.5-1.5L158.5-1.5L158.5 0Z M174.2 0.2L174.2 0.2Q173.2 0.2 172.4-0.2Q171.7-0.6 171.2-1.2Q170.8-1.9 170.8-2.9L170.8-2.9L170.8-3.2L172.4-3.2L172.4-2.9Q172.4-2.1 172.9-1.7Q173.4-1.3 174.2-1.3L174.2-1.3Q175.1-1.3 175.5-1.6Q175.9-2.0 175.9-2.5L175.9-2.5Q175.9-2.8 175.7-3.1Q175.5-3.3 175.1-3.4Q174.7-3.6 174.2-3.7L174.2-3.7L173.9-3.8Q173.0-4.0 172.3-4.3Q171.7-4.6 171.3-5.1Q171-5.6 171-6.4L171-6.4Q171-7.2 171.4-7.7Q171.8-8.3 172.5-8.6Q173.2-8.9 174.1-8.9L174.1-8.9Q175.0-8.9 175.8-8.6Q176.5-8.3 176.9-7.7Q177.3-7.0 177.3-6.1L177.3-6.1L177.3-5.7L175.7-5.7L175.7-6.1Q175.7-6.6 175.5-6.9Q175.3-7.2 174.9-7.3Q174.6-7.5 174.1-7.5L174.1-7.5Q173.3-7.5 173.0-7.2Q172.6-6.9 172.6-6.4L172.6-6.4Q172.6-6.1 172.8-5.9Q173.0-5.7 173.3-5.5Q173.6-5.4 174.2-5.2L174.2-5.2L174.4-5.2Q175.4-5.0 176.1-4.7Q176.8-4.4 177.2-3.8Q177.6-3.3 177.6-2.5L177.6-2.5Q177.6-1.7 177.1-1.1Q176.7-0.5 176.0-0.2Q175.3 0.2 174.2 0.2Z M186.9 0L185.2 0L185.2-3.0L182.3-8.8L184.1-8.8L185.9-5L186.2-5L188.0-8.8L189.8-8.8L186.9-3.0L186.9 0Z M198.0 0.2L198.0 0.2Q197 0.2 196.2-0.2Q195.5-0.6 195.0-1.2Q194.6-1.9 194.6-2.9L194.6-2.9L194.6-3.2L196.2-3.2L196.2-2.9Q196.2-2.1 196.7-1.7Q197.2-1.3 198.0-1.3L198.0-1.3Q198.9-1.3 199.3-1.6Q199.7-2.0 199.7-2.5L199.7-2.5Q199.7-2.8 199.5-3.1Q199.3-3.3 198.9-3.4Q198.5-3.6 197.9-3.7L197.9-3.7L197.7-3.8Q196.8-4.0 196.1-4.3Q195.5-4.6 195.1-5.1Q194.8-5.6 194.8-6.4L194.8-6.4Q194.8-7.2 195.2-7.7Q195.5-8.3 196.2-8.6Q196.9-8.9 197.9-8.9L197.9-8.9Q198.8-8.9 199.5-8.6Q200.3-8.3 200.7-7.7Q201.1-7.0 201.1-6.1L201.1-6.1L201.1-5.7L199.5-5.7L199.5-6.1Q199.5-6.6 199.3-6.9Q199.1-7.2 198.7-7.3Q198.4-7.5 197.9-7.5L197.9-7.5Q197.1-7.5 196.8-7.2Q196.4-6.9 196.4-6.4L196.4-6.4Q196.4-6.1 196.6-5.9Q196.7-5.7 197.1-5.5Q197.4-5.4 197.9-5.2L197.9-5.2L198.2-5.2Q199.2-5.0 199.9-4.7Q200.6-4.4 200.9-3.8Q201.3-3.3 201.3-2.5L201.3-2.5Q201.3-1.7 200.9-1.1Q200.5-0.5 199.8-0.2Q199.0 0.2 198.0 0.2Z M210.4 0L208.8 0L208.8-7.3L206.2-7.3L206.2-8.8L213.0-8.8L213.0-7.3L210.4-7.3L210.4 0Z M224.0 0L218.3 0L218.3-8.8L223.9-8.8L223.9-7.3L220.0-7.3L220.0-5.2L223.6-5.2L223.6-3.7L220.0-3.7L220.0-1.5L224.0-1.5L224.0 0Z M231.0 0L229.4 0L229.4-8.8L232.5-8.8L234.0-1.1L234.2-1.1L235.7-8.8L238.8-8.8L238.8 0L237.2 0L237.2-7.5L237.0-7.5L235.5 0L232.8 0L231.3-7.5L231.0-7.5L231.0 0Z" transform="translate(36,115)" fill="#8C8A93"></path></svg>