<?xml version="1.0" encoding="UTF-8"?>
<!-- Generated by tools/panelgen (Sam-e system v0.4). Edit the spec, not this file. -->
<svg xmlns="http://www.w3.org/2000/svg" version="1.1" width="81.28mm" height="128.5mm" viewBox="0 0 81.28 128.5">
<defs><linearGradient id="bg" x1="0" y1="0" x2="0" y2="128.5" gradientUnits="userSpaceOnUse"><stop offset="0" stop-color="#e2e3e6"/><stop offset="0.5" stop-color="#d2d3d7"/><stop offset="1" stop-color="#bfc0c5"/></linearGradient></defs>
<rect x="0" y="0" width="81.28" height="128.5" fill="url(#bg)"/>
<line x1="40.64" y1="15.50" x2="40.64" y2="102.00" stroke="#2b2733" stroke-width="0.18" stroke-opacity="0.16" stroke-linecap="round"/>
<line x1="39.94" y1="20.00" x2="41.34" y2="20.00" stroke="#2b2733" stroke-width="0.18" stroke-opacity="0.16" stroke-linecap="round"/>
<line x1="39.94" y1="30.00" x2="41.34" y2="30.00" stroke="#2b2733" stroke-width="0.18" stroke-opacity="0.16" stroke-linecap="round"/>
<line x1="39.94" y1="40.00" x2="41.34" y2="40.00" stroke="#2b2733" stroke-width="0.18" stroke-opacity="0.16" stroke-linecap="round"/>
<line x1="39.94" y1="50.00" x2="41.34" y2="50.00" stroke="#2b2733" stroke-width="0.18" stroke-opacity="0.16" stroke-linecap="round"/>
<line x1="39.94" y1="60.00" x2="41.34" y2="60.00" stroke="#2b2733" stroke-width="0.18" stroke-opacity="0.16" stroke-linecap="round"/>
<line x1="39.94" y1="70.00" x2="41.34" y2="70.00" stroke="#2b2733" stroke-width="0.18" stroke-opacity="0.16" stroke-linecap="round"/>
<line x1="39.94" y1="80.00" x2="41.34" y2="80.00" stroke="#2b2733" stroke-width="0.18" stroke-opacity="0.16" stroke-linecap="round"/>
<line x1="39.94" y1="90.00" x2="41.34" y2="90.00" stroke="#2b2733" stroke-width="0.18" stroke-opacity="0.16" stroke-linecap="round"/>
<line x1="39.94" y1="100.00" x2="41.34" y2="100.00" stroke="#2b2733" stroke-width="0.18" stroke-opacity="0.16" stroke-linecap="round"/>
<circle cx="40.64" cy="58.00" r="0.50" fill="#2b2733" fill-opacity="0.2" stroke="none" stroke-width="0.25" stroke-opacity="1.0"/>
<line x1="8.36" y1="16.43" x2="11.16" y2="16.43" stroke="#2b2733" stroke-width="0.22" stroke-opacity="0.42" stroke-linecap="round"/><line x1="8.36" y1="16.43" x2="8.36" y2="19.23" stroke="#2b2733" stroke-width="0.22" stroke-opacity="0.42" stroke-linecap="round"/><line x1="32.28" y1="16.43" x2="29.48" y2="16.43" stroke="#2b2733" stroke-width="0.22" stroke-opacity="0.42" stroke-linecap="round"/><line x1="32.28" y1="16.43" x2="32.28" y2="19.23" stroke="#2b2733" stroke-width="0.22" stroke-opacity="0.42" stroke-linecap="round"/><line x1="8.36" y1="49.57" x2="11.16" y2="49.57" stroke="#2b2733" stroke-width="0.22" stroke-opacity="0.42" stroke-linecap="round"/><line x1="8.36" y1="49.57" x2="8.36" y2="46.77" stroke="#2b2733" stroke-width="0.22" stroke-opacity="0.42" stroke-linecap="round"/><line x1="32.28" y1="49.57" x2="29.48" y2="49.57" stroke="#2b2733" stroke-width="0.22" stroke-opacity="0.42" stroke-linecap="round"/><line x1="32.28" y1="49.57" x2="32.28" y2="46.77" stroke="#2b2733" stroke-width="0.22" stroke-opacity="0.42" stroke-linecap="round"/>
<line x1="49.00" y1="16.43" x2="51.80" y2="16.43" stroke="#2b2733" stroke-width="0.22" stroke-opacity="0.42" stroke-linecap="round"/><line x1="49.00" y1="16.43" x2="49.00" y2="19.23" stroke="#2b2733" stroke-width="0.22" stroke-opacity="0.42" stroke-linecap="round"/><line x1="72.92" y1="16.43" x2="70.12" y2="16.43" stroke="#2b2733" stroke-width="0.22" stroke-opacity="0.42" stroke-linecap="round"/><line x1="72.92" y1="16.43" x2="72.92" y2="19.23" stroke="#2b2733" stroke-width="0.22" stroke-opacity="0.42" stroke-linecap="round"/><line x1="49.00" y1="49.57" x2="51.80" y2="49.57" stroke="#2b2733" stroke-width="0.22" stroke-opacity="0.42" stroke-linecap="round"/><line x1="49.00" y1="49.57" x2="49.00" y2="46.77" stroke="#2b2733" stroke-width="0.22" stroke-opacity="0.42" stroke-linecap="round"/><line x1="72.92" y1="49.57" x2="70.12" y2="49.57" stroke="#2b2733" stroke-width="0.22" stroke-opacity="0.42" stroke-linecap="round"/><line x1="72.92" y1="49.57" x2="72.92" y2="46.77" stroke="#2b2733" stroke-width="0.22" stroke-opacity="0.42" stroke-linecap="round"/>
<path d="M 12.427 5.442 Q 12.184 5.442 11.998 5.355 Q 11.812 5.268 11.707 5.106 Q 11.602 4.944 11.602 4.716 V 4.632 H 11.992 V 4.716 Q 11.992 4.905 12.109 5.000 Q 12.226 5.094 12.427 5.094 Q 12.631 5.094 12.732 5.013 Q 12.832 4.932 12.832 4.806 Q 12.832 4.719 12.783 4.665 Q 12.733 4.611 12.639 4.577 Q 12.544 4.542 12.409 4.512 L 12.340 4.497 Q 12.124 4.449 11.970 4.376 Q 11.815 4.302 11.732 4.182 Q 11.650 4.062 11.650 3.870 Q 11.650 3.678 11.742 3.542 Q 11.833 3.405 11.999 3.332 Q 12.166 3.258 12.391 3.258 Q 12.616 3.258 12.791 3.335 Q 12.967 3.411 13.068 3.562 Q 13.168 3.714 13.168 3.942 V 4.032 H 12.778 V 3.942 Q 12.778 3.822 12.732 3.748 Q 12.685 3.675 12.598 3.641 Q 12.511 3.606 12.391 3.606 Q 12.211 3.606 12.126 3.674 Q 12.040 3.741 12.040 3.858 Q 12.040 3.936 12.081 3.990 Q 12.121 4.044 12.202 4.080 Q 12.283 4.116 12.409 4.143 L 12.478 4.158 Q 12.703 4.206 12.870 4.281 Q 13.036 4.356 13.129 4.479 Q 13.222 4.602 13.222 4.794 Q 13.222 4.986 13.124 5.131 Q 13.027 5.277 12.848 5.360 Q 12.670 5.442 12.427 5.442 Z M 13.522 4.806 V 4.464 H 14.410 V 4.806 Z" fill="#E8500A" fill-rule="nonzero"/>
<path d="M 15.352 5.400 V 5.052 H 15.628 V 3.648 H 15.352 V 3.300 H 16.432 Q 16.624 3.300 16.766 3.365 Q 16.909 3.429 16.988 3.548 Q 17.068 3.666 17.068 3.831 V 3.861 Q 17.068 4.005 17.014 4.097 Q 16.960 4.188 16.886 4.238 Q 16.813 4.287 16.747 4.308 V 4.362 Q 16.813 4.380 16.891 4.429 Q 16.969 4.479 17.024 4.572 Q 17.080 4.665 17.080 4.815 V 4.845 Q 17.080 5.019 16.999 5.144 Q 16.918 5.268 16.775 5.334 Q 16.633 5.400 16.444 5.400 Z M 16.024 5.040 H 16.396 Q 16.525 5.040 16.604 4.977 Q 16.684 4.914 16.684 4.797 V 4.767 Q 16.684 4.650 16.606 4.587 Q 16.528 4.524 16.396 4.524 H 16.024 Z M 16.024 4.164 H 16.390 Q 16.513 4.164 16.592 4.101 Q 16.672 4.038 16.672 3.927 V 3.897 Q 16.672 3.783 16.594 3.721 Q 16.516 3.660 16.390 3.660 H 16.024 Z M 17.260 5.400 17.812 3.300 H 18.502 L 19.054 5.400 H 18.646 L 18.532 4.938 H 17.782 L 17.668 5.400 Z M 17.875 4.572 H 18.439 L 18.184 3.549 H 18.130 Z M 19.306 5.400 V 3.300 H 20.059 L 20.476 5.130 H 20.530 V 3.300 H 20.920 V 5.400 H 20.167 L 19.750 3.570 H 19.696 V 5.400 Z M 21.316 5.400 V 3.300 H 21.712 V 4.134 H 21.766 L 22.447 3.300 H 22.954 L 22.078 4.335 L 22.984 5.400 H 22.462 L 21.766 4.548 H 21.712 V 5.400 Z" fill="#17141c" fill-rule="nonzero"/>
<path d="M 13.089 10.672 Q 12.673 10.672 12.354 10.523 Q 12.035 10.374 11.855 10.096 Q 11.675 9.818 11.675 9.427 V 9.283 H 12.343 V 9.427 Q 12.343 9.751 12.544 9.913 Q 12.745 10.075 13.089 10.075 Q 13.439 10.075 13.611 9.937 Q 13.783 9.798 13.783 9.582 Q 13.783 9.433 13.699 9.340 Q 13.614 9.247 13.452 9.188 Q 13.290 9.129 13.058 9.078 L 12.940 9.052 Q 12.570 8.970 12.305 8.844 Q 12.040 8.718 11.899 8.512 Q 11.757 8.306 11.757 7.977 Q 11.757 7.648 11.914 7.414 Q 12.071 7.180 12.356 7.054 Q 12.642 6.928 13.027 6.928 Q 13.413 6.928 13.714 7.059 Q 14.015 7.190 14.187 7.450 Q 14.359 7.710 14.359 8.101 V 8.255 H 13.691 V 8.101 Q 13.691 7.895 13.611 7.769 Q 13.531 7.643 13.382 7.584 Q 13.233 7.525 13.027 7.525 Q 12.719 7.525 12.572 7.640 Q 12.426 7.756 12.426 7.957 Q 12.426 8.090 12.495 8.183 Q 12.565 8.275 12.703 8.337 Q 12.842 8.399 13.058 8.445 L 13.177 8.471 Q 13.562 8.553 13.848 8.682 Q 14.133 8.810 14.293 9.021 Q 14.452 9.232 14.452 9.561 Q 14.452 9.890 14.285 10.140 Q 14.118 10.389 13.812 10.531 Q 13.506 10.672 13.089 10.672 Z M 15.789 10.600 V 7.617 H 14.740 V 7.000 H 17.517 V 7.617 H 16.468 V 10.600 Z M 17.980 10.600 V 7.000 H 19.543 Q 19.883 7.000 20.135 7.118 Q 20.387 7.237 20.526 7.453 Q 20.665 7.669 20.665 7.962 V 8.023 Q 20.665 8.347 20.510 8.548 Q 20.356 8.749 20.130 8.841 V 8.934 Q 20.335 8.944 20.449 9.075 Q 20.562 9.206 20.562 9.422 V 10.600 H 19.883 V 9.520 Q 19.883 9.397 19.819 9.319 Q 19.754 9.242 19.605 9.242 H 18.659 V 10.600 Z M 18.659 8.625 H 19.471 Q 19.713 8.625 19.849 8.494 Q 19.986 8.363 19.986 8.147 V 8.095 Q 19.986 7.879 19.852 7.748 Q 19.718 7.617 19.471 7.617 H 18.659 Z M 21.230 10.600 V 7.000 H 21.909 V 10.600 Z M 22.588 10.600 V 7.000 H 23.267 V 8.430 H 23.359 L 24.527 7.000 H 25.396 L 23.894 8.774 L 25.447 10.600 H 24.553 L 23.359 9.139 H 23.267 V 10.600 Z M 25.807 10.600 V 7.000 H 28.122 V 7.617 H 26.486 V 8.476 H 27.978 V 9.093 H 26.486 V 9.983 H 28.153 V 10.600 Z" fill="#17141c" fill-rule="nonzero"/>
<path d="M 55.039 3.900 V 5.180 H 55.331 V 5.400 H 54.395 V 5.180 H 54.758 V 4.189 L 54.438 4.387 L 54.315 4.189 L 54.786 3.900 Z M 56.211 3.867 Q 56.307 3.867 56.385 3.892 Q 56.464 3.916 56.527 3.961 L 56.417 4.139 Q 56.372 4.107 56.320 4.092 Q 56.268 4.077 56.215 4.077 Q 56.117 4.077 56.044 4.141 Q 55.971 4.205 55.930 4.324 Q 55.896 4.426 55.889 4.563 Q 55.952 4.488 56.029 4.450 Q 56.121 4.404 56.221 4.404 Q 56.337 4.404 56.433 4.460 Q 56.528 4.516 56.585 4.625 Q 56.642 4.733 56.642 4.892 Q 56.642 5.049 56.578 5.171 Q 56.514 5.293 56.398 5.363 Q 56.283 5.433 56.131 5.433 Q 55.986 5.433 55.884 5.378 Q 55.782 5.323 55.718 5.225 Q 55.654 5.127 55.624 4.995 Q 55.594 4.863 55.594 4.711 Q 55.594 4.460 55.668 4.269 Q 55.742 4.079 55.880 3.973 Q 56.018 3.867 56.211 3.867 Z M 55.890 4.758 Q 55.895 4.981 55.943 5.095 Q 55.997 5.222 56.133 5.222 Q 56.246 5.222 56.300 5.133 Q 56.354 5.044 56.354 4.908 Q 56.354 4.797 56.330 4.732 Q 56.305 4.668 56.260 4.639 Q 56.216 4.610 56.153 4.610 Q 56.068 4.610 55.994 4.659 Q 55.936 4.698 55.890 4.758 Z M 57.632 5.400 V 4.741 H 57.198 V 5.400 H 56.901 V 3.900 H 57.198 V 4.497 H 57.632 V 3.900 H 57.929 V 5.400 Z M 58.993 4.380 Q 58.993 4.287 58.958 4.229 Q 58.923 4.171 58.856 4.144 Q 58.788 4.117 58.694 4.117 H 58.539 V 4.660 H 58.703 Q 58.792 4.660 58.856 4.633 Q 58.921 4.605 58.957 4.543 Q 58.993 4.481 58.993 4.380 Z M 59.301 4.378 Q 59.301 4.553 59.227 4.664 Q 59.153 4.775 59.019 4.828 Q 58.886 4.880 58.711 4.880 H 58.539 V 5.400 H 58.242 V 3.900 H 58.683 Q 58.975 3.900 59.138 4.018 Q 59.301 4.136 59.301 4.378 Z M 60.975 5.636 60.749 5.533 61.667 3.633 61.890 3.738 Z M 64.480 4.969 Q 64.480 5.106 64.411 5.210 Q 64.341 5.314 64.209 5.373 Q 64.078 5.433 63.892 5.433 Q 63.696 5.433 63.556 5.375 Q 63.417 5.316 63.322 5.225 L 63.478 5.051 Q 63.560 5.123 63.661 5.165 Q 63.761 5.206 63.887 5.206 Q 63.967 5.206 64.032 5.181 Q 64.097 5.156 64.134 5.108 Q 64.171 5.059 64.171 4.989 Q 64.171 4.927 64.145 4.885 Q 64.119 4.843 64.056 4.809 Q 63.992 4.775 63.880 4.742 Q 63.714 4.691 63.606 4.629 Q 63.499 4.568 63.447 4.484 Q 63.395 4.400 63.395 4.285 Q 63.395 4.156 63.466 4.062 Q 63.538 3.968 63.660 3.918 Q 63.782 3.867 63.933 3.867 Q 64.100 3.867 64.227 3.916 Q 64.354 3.964 64.450 4.053 L 64.302 4.221 Q 64.225 4.155 64.135 4.123 Q 64.046 4.092 63.953 4.092 Q 63.881 4.092 63.824 4.111 Q 63.767 4.131 63.734 4.169 Q 63.702 4.207 63.702 4.266 Q 63.702 4.319 63.732 4.356 Q 63.761 4.393 63.834 4.425 Q 63.907 4.457 64.034 4.498 Q 64.167 4.538 64.267 4.594 Q 64.368 4.651 64.424 4.740 Q 64.480 4.830 64.480 4.969 Z M 64.767 4.835 V 4.607 H 65.682 V 4.835 Z M 66.526 3.867 Q 66.785 3.867 66.918 4.072 Q 67.050 4.276 67.050 4.647 Q 67.050 5.019 66.918 5.226 Q 66.785 5.433 66.526 5.433 Q 66.266 5.433 66.134 5.226 Q 66.002 5.019 66.002 4.647 Q 66.002 4.276 66.134 4.072 Q 66.266 3.867 66.526 3.867 Z M 66.526 4.080 Q 66.404 4.080 66.341 4.211 Q 66.279 4.341 66.279 4.647 Q 66.279 4.816 66.292 4.927 Q 66.295 4.956 66.299 4.982 L 66.699 4.160 Q 66.687 4.143 66.673 4.129 Q 66.618 4.080 66.526 4.080 Z M 66.371 5.161 Q 66.388 5.181 66.410 5.193 Q 66.457 5.220 66.526 5.220 Q 66.609 5.220 66.663 5.164 Q 66.718 5.108 66.745 4.982 Q 66.772 4.856 66.772 4.647 Q 66.772 4.478 66.758 4.366 Z M 67.828 3.867 Q 68.087 3.867 68.219 4.072 Q 68.352 4.276 68.352 4.647 Q 68.352 5.019 68.219 5.226 Q 68.087 5.433 67.828 5.433 Q 67.567 5.433 67.436 5.226 Q 67.304 5.019 67.304 4.647 Q 67.304 4.276 67.436 4.072 Q 67.567 3.867 67.828 3.867 Z M 67.828 4.080 Q 67.705 4.080 67.643 4.211 Q 67.580 4.341 67.580 4.647 Q 67.580 4.816 67.593 4.927 Q 67.597 4.956 67.601 4.982 L 68.000 4.160 Q 67.988 4.143 67.974 4.129 Q 67.920 4.080 67.828 4.080 Z M 67.673 5.161 Q 67.690 5.181 67.712 5.193 Q 67.758 5.220 67.828 5.220 Q 67.910 5.220 67.965 5.164 Q 68.020 5.108 68.047 4.982 Q 68.074 4.856 68.074 4.647 Q 68.074 4.478 68.060 4.366 Z M 69.072 3.867 Q 69.233 3.867 69.343 3.925 Q 69.454 3.982 69.510 4.080 Q 69.566 4.177 69.566 4.293 Q 69.566 4.388 69.534 4.479 Q 69.501 4.570 69.428 4.671 Q 69.355 4.772 69.234 4.895 Q 69.114 5.018 68.937 5.175 H 69.601 L 69.570 5.400 H 68.610 V 5.191 Q 68.765 5.041 68.878 4.927 Q 68.990 4.812 69.067 4.724 Q 69.143 4.636 69.188 4.566 Q 69.233 4.497 69.253 4.436 Q 69.272 4.375 69.272 4.314 Q 69.272 4.211 69.213 4.152 Q 69.154 4.092 69.048 4.092 Q 68.954 4.092 68.888 4.128 Q 68.822 4.165 68.759 4.246 L 68.579 4.109 Q 68.665 3.994 68.783 3.931 Q 68.901 3.867 69.072 3.867 Z" fill="#6c6d72" fill-rule="nonzero"/>
<path d="M 48.772 7.293 Q 48.772 7.138 48.744 7.041 Q 48.715 6.945 48.665 6.894 Q 48.615 6.843 48.553 6.825 Q 48.490 6.807 48.422 6.807 H 48.319 V 7.795 H 48.423 Q 48.494 7.795 48.557 7.772 Q 48.621 7.750 48.669 7.695 Q 48.718 7.640 48.745 7.542 Q 48.772 7.444 48.772 7.293 Z M 49.062 7.293 Q 49.062 7.466 49.025 7.588 Q 48.988 7.710 48.923 7.791 Q 48.858 7.871 48.774 7.917 Q 48.689 7.963 48.594 7.981 Q 48.498 8.000 48.400 8.000 H 48.042 V 6.600 H 48.376 Q 48.506 6.600 48.629 6.628 Q 48.751 6.656 48.849 6.730 Q 48.946 6.803 49.004 6.940 Q 49.062 7.076 49.062 7.293 Z M 50.237 6.600 V 7.536 Q 50.237 7.679 50.179 7.791 Q 50.121 7.903 50.009 7.967 Q 49.898 8.030 49.735 8.030 Q 49.571 8.030 49.460 7.968 Q 49.348 7.906 49.292 7.795 Q 49.235 7.683 49.235 7.536 V 6.600 H 49.512 V 7.458 Q 49.512 7.638 49.561 7.727 Q 49.610 7.817 49.735 7.817 Q 49.862 7.817 49.910 7.727 Q 49.959 7.638 49.959 7.458 V 6.600 Z M 51.178 7.679 H 50.717 L 50.630 8.000 H 50.344 L 50.782 6.600 H 51.122 L 51.559 8.000 H 51.265 Z M 50.767 7.472 H 51.126 L 50.947 6.808 Z M 51.777 8.000 V 6.600 H 52.054 V 7.775 H 52.672 L 52.642 8.000 Z M 54.207 8.000 V 6.600 H 54.484 V 7.775 H 55.101 L 55.072 8.000 Z M 56.355 7.299 Q 56.355 7.518 56.293 7.683 Q 56.232 7.847 56.111 7.939 Q 55.989 8.030 55.810 8.030 Q 55.632 8.030 55.510 7.941 Q 55.388 7.851 55.327 7.688 Q 55.265 7.524 55.265 7.301 Q 55.265 7.082 55.327 6.917 Q 55.388 6.753 55.510 6.661 Q 55.632 6.570 55.810 6.570 Q 55.989 6.570 56.111 6.659 Q 56.232 6.748 56.293 6.912 Q 56.355 7.076 56.355 7.299 Z M 56.069 7.299 Q 56.069 7.034 56.009 6.906 Q 55.949 6.778 55.810 6.778 Q 55.671 6.778 55.611 6.907 Q 55.551 7.035 55.551 7.301 Q 55.551 7.567 55.613 7.694 Q 55.674 7.821 55.810 7.821 Q 55.951 7.821 56.010 7.692 Q 56.069 7.564 56.069 7.299 Z M 57.633 6.600 57.452 8.000 H 57.147 L 57.025 6.980 L 56.895 8.000 H 56.584 L 56.416 6.600 H 56.681 L 56.764 7.748 L 56.897 6.762 H 57.158 L 57.285 7.748 L 57.388 6.600 Z M 57.812 7.473 V 7.260 H 58.667 V 7.473 Z M 59.712 7.048 Q 59.712 6.961 59.680 6.907 Q 59.647 6.853 59.584 6.828 Q 59.521 6.802 59.433 6.802 H 59.288 V 7.310 H 59.441 Q 59.524 7.310 59.584 7.284 Q 59.645 7.258 59.679 7.200 Q 59.712 7.143 59.712 7.048 Z M 60.000 7.046 Q 60.000 7.209 59.931 7.313 Q 59.861 7.417 59.737 7.466 Q 59.612 7.515 59.449 7.515 H 59.288 V 8.000 H 59.011 V 6.600 H 59.423 Q 59.695 6.600 59.848 6.710 Q 60.000 6.821 60.000 7.046 Z M 60.896 7.679 H 60.435 L 60.348 8.000 H 60.062 L 60.500 6.600 H 60.840 L 61.278 8.000 H 60.983 Z M 60.485 7.472 H 60.844 L 60.665 6.808 Z M 62.404 7.598 Q 62.404 7.726 62.339 7.823 Q 62.274 7.920 62.151 7.975 Q 62.029 8.030 61.855 8.030 Q 61.672 8.030 61.542 7.976 Q 61.411 7.922 61.323 7.837 L 61.469 7.674 Q 61.545 7.742 61.639 7.780 Q 61.733 7.819 61.851 7.819 Q 61.925 7.819 61.986 7.796 Q 62.046 7.772 62.081 7.727 Q 62.116 7.682 62.116 7.616 Q 62.116 7.559 62.091 7.519 Q 62.067 7.480 62.008 7.448 Q 61.949 7.417 61.843 7.386 Q 61.689 7.338 61.588 7.281 Q 61.488 7.224 61.440 7.145 Q 61.391 7.067 61.391 6.959 Q 61.391 6.839 61.458 6.751 Q 61.525 6.664 61.638 6.617 Q 61.752 6.570 61.893 6.570 Q 62.049 6.570 62.167 6.615 Q 62.286 6.660 62.376 6.743 L 62.237 6.900 Q 62.165 6.838 62.082 6.809 Q 61.998 6.779 61.912 6.779 Q 61.844 6.779 61.791 6.797 Q 61.738 6.816 61.708 6.851 Q 61.677 6.886 61.677 6.941 Q 61.677 6.991 61.705 7.026 Q 61.733 7.061 61.801 7.090 Q 61.869 7.120 61.987 7.158 Q 62.112 7.195 62.205 7.248 Q 62.299 7.301 62.352 7.384 Q 62.404 7.468 62.404 7.598 Z M 63.619 7.598 Q 63.619 7.726 63.554 7.823 Q 63.488 7.920 63.366 7.975 Q 63.243 8.030 63.069 8.030 Q 62.887 8.030 62.757 7.976 Q 62.626 7.922 62.538 7.837 L 62.684 7.674 Q 62.760 7.742 62.854 7.780 Q 62.948 7.819 63.065 7.819 Q 63.140 7.819 63.200 7.796 Q 63.261 7.772 63.296 7.727 Q 63.331 7.682 63.331 7.616 Q 63.331 7.559 63.306 7.519 Q 63.282 7.480 63.223 7.448 Q 63.163 7.417 63.058 7.386 Q 62.903 7.338 62.803 7.281 Q 62.703 7.224 62.654 7.145 Q 62.606 7.067 62.606 6.959 Q 62.606 6.839 62.673 6.751 Q 62.739 6.664 62.853 6.617 Q 62.967 6.570 63.108 6.570 Q 63.264 6.570 63.382 6.615 Q 63.501 6.660 63.591 6.743 L 63.452 6.900 Q 63.380 6.838 63.297 6.809 Q 63.213 6.779 63.127 6.779 Q 63.059 6.779 63.006 6.797 Q 62.953 6.816 62.923 6.851 Q 62.892 6.886 62.892 6.941 Q 62.892 6.991 62.920 7.026 Q 62.948 7.061 63.016 7.090 Q 63.084 7.120 63.202 7.158 Q 63.326 7.195 63.420 7.248 Q 63.514 7.301 63.566 7.384 Q 63.619 7.468 63.619 7.598 Z M 65.572 8.030 Q 65.385 8.030 65.253 7.947 Q 65.121 7.864 65.052 7.701 Q 64.983 7.538 64.983 7.297 Q 64.983 7.118 65.032 6.982 Q 65.082 6.846 65.168 6.754 Q 65.255 6.663 65.369 6.616 Q 65.483 6.570 65.610 6.570 Q 65.758 6.570 65.858 6.614 Q 65.958 6.659 66.040 6.736 L 65.890 6.891 Q 65.826 6.833 65.763 6.805 Q 65.700 6.778 65.621 6.778 Q 65.549 6.778 65.485 6.807 Q 65.422 6.835 65.374 6.897 Q 65.326 6.958 65.298 7.058 Q 65.271 7.157 65.271 7.299 Q 65.271 7.489 65.305 7.604 Q 65.339 7.719 65.407 7.770 Q 65.476 7.821 65.579 7.821 Q 65.637 7.821 65.688 7.807 Q 65.739 7.793 65.785 7.770 V 7.413 H 65.575 L 65.546 7.210 H 66.050 V 7.896 Q 65.948 7.955 65.832 7.993 Q 65.717 8.030 65.572 8.030 Z M 66.970 7.679 H 66.509 L 66.422 8.000 H 66.136 L 66.574 6.600 H 66.914 L 67.351 8.000 H 67.057 Z M 66.559 7.472 H 66.918 L 66.739 6.808 Z M 68.093 6.818 V 8.000 H 67.817 V 6.818 H 67.408 V 6.600 H 68.515 L 68.486 6.818 Z M 69.054 6.804 V 7.188 H 69.550 V 7.390 H 69.054 V 7.797 H 69.656 V 8.000 H 68.777 V 6.600 H 69.649 L 69.621 6.804 Z" fill="#6c6d72" fill-rule="nonzero"/>
<path d="M 58.055 10.175 H 58.746 L 58.715 10.400 H 57.734 V 10.189 L 58.425 9.219 H 57.807 V 9.000 H 58.737 V 9.213 Z M 59.336 9.204 V 9.588 H 59.832 V 9.790 H 59.336 V 10.197 H 59.938 V 10.400 H 59.059 V 9.000 H 59.931 L 59.903 9.204 Z M 61.181 9.414 Q 61.181 9.515 61.141 9.591 Q 61.101 9.667 61.033 9.719 Q 60.965 9.770 60.880 9.799 L 61.263 10.400 H 60.945 L 60.614 9.842 H 60.487 V 10.400 H 60.211 V 9.000 H 60.623 Q 60.899 9.000 61.040 9.102 Q 61.181 9.204 61.181 9.414 Z M 60.894 9.414 Q 60.894 9.301 60.828 9.251 Q 60.762 9.200 60.630 9.200 H 60.487 V 9.646 H 60.639 Q 60.761 9.646 60.828 9.591 Q 60.894 9.537 60.894 9.414 Z M 62.429 9.699 Q 62.429 9.918 62.367 10.083 Q 62.306 10.247 62.185 10.339 Q 62.063 10.430 61.884 10.430 Q 61.706 10.430 61.584 10.341 Q 61.462 10.251 61.401 10.088 Q 61.339 9.924 61.339 9.701 Q 61.339 9.482 61.401 9.317 Q 61.462 9.153 61.584 9.061 Q 61.706 8.970 61.884 8.970 Q 62.063 8.970 62.185 9.059 Q 62.306 9.148 62.367 9.312 Q 62.429 9.476 62.429 9.699 Z M 62.143 9.699 Q 62.143 9.434 62.083 9.306 Q 62.023 9.178 61.884 9.178 Q 61.745 9.178 61.685 9.307 Q 61.625 9.435 61.625 9.701 Q 61.625 9.967 61.687 10.094 Q 61.748 10.221 61.884 10.221 Q 62.025 10.221 62.084 10.092 Q 62.143 9.964 62.143 9.699 Z M 64.552 9.987 Q 64.552 9.902 64.519 9.854 Q 64.487 9.807 64.429 9.787 Q 64.371 9.767 64.297 9.767 H 64.125 V 10.192 H 64.285 Q 64.335 10.192 64.382 10.184 Q 64.430 10.176 64.469 10.155 Q 64.508 10.133 64.530 10.092 Q 64.552 10.052 64.552 9.987 Z M 64.499 9.381 Q 64.499 9.285 64.440 9.244 Q 64.380 9.202 64.265 9.202 H 64.125 V 9.572 H 64.277 Q 64.390 9.572 64.445 9.527 Q 64.499 9.482 64.499 9.381 Z M 64.840 9.994 Q 64.840 10.113 64.794 10.191 Q 64.748 10.270 64.669 10.316 Q 64.590 10.362 64.490 10.381 Q 64.390 10.400 64.282 10.400 H 63.848 V 9.000 H 64.257 Q 64.360 9.000 64.453 9.017 Q 64.546 9.034 64.620 9.075 Q 64.693 9.116 64.736 9.185 Q 64.779 9.254 64.779 9.356 Q 64.779 9.442 64.743 9.504 Q 64.707 9.566 64.648 9.604 Q 64.589 9.642 64.521 9.659 Q 64.597 9.671 64.670 9.706 Q 64.744 9.741 64.792 9.810 Q 64.840 9.880 64.840 9.994 Z M 65.140 10.400 V 9.000 H 65.417 V 10.175 H 66.034 L 66.005 10.400 Z M 66.625 9.204 V 9.588 H 67.121 V 9.790 H 66.625 V 10.197 H 67.227 V 10.400 H 66.347 V 9.000 H 67.220 L 67.191 9.204 Z M 67.839 9.204 V 9.588 H 68.335 V 9.790 H 67.839 V 10.197 H 68.442 V 10.400 H 67.562 V 9.000 H 68.435 L 68.406 9.204 Z M 69.424 9.693 Q 69.424 9.538 69.395 9.441 Q 69.366 9.345 69.316 9.294 Q 69.267 9.243 69.204 9.225 Q 69.141 9.207 69.073 9.207 H 68.970 V 10.195 H 69.074 Q 69.145 10.195 69.209 10.172 Q 69.272 10.150 69.320 10.095 Q 69.369 10.040 69.396 9.942 Q 69.424 9.844 69.424 9.693 Z M 69.713 9.693 Q 69.713 9.866 69.676 9.988 Q 69.639 10.110 69.574 10.191 Q 69.510 10.271 69.425 10.317 Q 69.341 10.363 69.245 10.381 Q 69.149 10.400 69.051 10.400 H 68.693 V 9.000 H 69.027 Q 69.157 9.000 69.280 9.028 Q 69.402 9.056 69.500 9.130 Q 69.598 9.203 69.655 9.340 Q 69.713 9.476 69.713 9.693 Z" fill="#6c6d72" fill-rule="nonzero"/>
<line x1="7.00" y1="12.20" x2="74.28" y2="12.20" stroke="#2b2733" stroke-width="0.25" stroke-opacity="0.34" stroke-linecap="round"/>
<line x1="11.32" y1="80.40" x2="11.32" y2="86.60" stroke="#0E93A6" stroke-width="0.18" stroke-opacity="0.4" stroke-linecap="round"/>
<line x1="29.32" y1="80.40" x2="29.32" y2="86.60" stroke="#0E93A6" stroke-width="0.18" stroke-opacity="0.4" stroke-linecap="round"/>
<line x1="51.96" y1="80.40" x2="51.96" y2="86.60" stroke="#0E93A6" stroke-width="0.18" stroke-opacity="0.4" stroke-linecap="round"/>
<line x1="69.96" y1="80.40" x2="69.96" y2="86.60" stroke="#0E93A6" stroke-width="0.18" stroke-opacity="0.4" stroke-linecap="round"/>
<rect x="9.36" y="17.43" width="7.92" height="27.13" rx="1.30" fill="#b4b5ba" fill-opacity="0.9" stroke="#2b2733" stroke-width="0.2" stroke-opacity="0.5"/>
<line x1="9.46" y1="19.63" x2="7.96" y2="19.63" stroke="#2b2733" stroke-width="0.18" stroke-opacity="0.4" stroke-linecap="round"/>
<line x1="17.18" y1="19.63" x2="18.68" y2="19.63" stroke="#2b2733" stroke-width="0.18" stroke-opacity="0.4" stroke-linecap="round"/>
<line x1="9.46" y1="22.48" x2="8.56" y2="22.48" stroke="#2b2733" stroke-width="0.12" stroke-opacity="0.22" stroke-linecap="round"/>
<line x1="17.18" y1="22.48" x2="18.08" y2="22.48" stroke="#2b2733" stroke-width="0.12" stroke-opacity="0.22" stroke-linecap="round"/>
<line x1="9.46" y1="25.32" x2="8.56" y2="25.32" stroke="#2b2733" stroke-width="0.12" stroke-opacity="0.22" stroke-linecap="round"/>
<line x1="17.18" y1="25.32" x2="18.08" y2="25.32" stroke="#2b2733" stroke-width="0.12" stroke-opacity="0.22" stroke-linecap="round"/>
<line x1="9.46" y1="28.16" x2="8.56" y2="28.16" stroke="#2b2733" stroke-width="0.12" stroke-opacity="0.22" stroke-linecap="round"/>
<line x1="17.18" y1="28.16" x2="18.08" y2="28.16" stroke="#2b2733" stroke-width="0.12" stroke-opacity="0.22" stroke-linecap="round"/>
<line x1="9.46" y1="31.00" x2="7.96" y2="31.00" stroke="#2b2733" stroke-width="0.18" stroke-opacity="0.4" stroke-linecap="round"/>
<line x1="17.18" y1="31.00" x2="18.68" y2="31.00" stroke="#2b2733" stroke-width="0.18" stroke-opacity="0.4" stroke-linecap="round"/>
<line x1="9.46" y1="33.84" x2="8.56" y2="33.84" stroke="#2b2733" stroke-width="0.12" stroke-opacity="0.22" stroke-linecap="round"/>
<line x1="17.18" y1="33.84" x2="18.08" y2="33.84" stroke="#2b2733" stroke-width="0.12" stroke-opacity="0.22" stroke-linecap="round"/>
<line x1="9.46" y1="36.68" x2="8.56" y2="36.68" stroke="#2b2733" stroke-width="0.12" stroke-opacity="0.22" stroke-linecap="round"/>
<line x1="17.18" y1="36.68" x2="18.08" y2="36.68" stroke="#2b2733" stroke-width="0.12" stroke-opacity="0.22" stroke-linecap="round"/>
<line x1="9.46" y1="39.52" x2="8.56" y2="39.52" stroke="#2b2733" stroke-width="0.12" stroke-opacity="0.22" stroke-linecap="round"/>
<line x1="17.18" y1="39.52" x2="18.08" y2="39.52" stroke="#2b2733" stroke-width="0.12" stroke-opacity="0.22" stroke-linecap="round"/>
<line x1="9.46" y1="42.36" x2="7.96" y2="42.36" stroke="#2b2733" stroke-width="0.18" stroke-opacity="0.4" stroke-linecap="round"/>
<line x1="17.18" y1="42.36" x2="18.68" y2="42.36" stroke="#2b2733" stroke-width="0.18" stroke-opacity="0.4" stroke-linecap="round"/>
<rect x="23.36" y="17.43" width="7.92" height="27.13" rx="1.30" fill="#b4b5ba" fill-opacity="0.9" stroke="#2b2733" stroke-width="0.2" stroke-opacity="0.5"/>
<line x1="23.46" y1="19.63" x2="21.96" y2="19.63" stroke="#2b2733" stroke-width="0.18" stroke-opacity="0.4" stroke-linecap="round"/>
<line x1="31.18" y1="19.63" x2="32.68" y2="19.63" stroke="#2b2733" stroke-width="0.18" stroke-opacity="0.4" stroke-linecap="round"/>
<line x1="23.46" y1="22.48" x2="22.56" y2="22.48" stroke="#2b2733" stroke-width="0.12" stroke-opacity="0.22" stroke-linecap="round"/>
<line x1="31.18" y1="22.48" x2="32.08" y2="22.48" stroke="#2b2733" stroke-width="0.12" stroke-opacity="0.22" stroke-linecap="round"/>
<line x1="23.46" y1="25.32" x2="22.56" y2="25.32" stroke="#2b2733" stroke-width="0.12" stroke-opacity="0.22" stroke-linecap="round"/>
<line x1="31.18" y1="25.32" x2="32.08" y2="25.32" stroke="#2b2733" stroke-width="0.12" stroke-opacity="0.22" stroke-linecap="round"/>
<line x1="23.46" y1="28.16" x2="22.56" y2="28.16" stroke="#2b2733" stroke-width="0.12" stroke-opacity="0.22" stroke-linecap="round"/>
<line x1="31.18" y1="28.16" x2="32.08" y2="28.16" stroke="#2b2733" stroke-width="0.12" stroke-opacity="0.22" stroke-linecap="round"/>
<line x1="23.46" y1="31.00" x2="21.96" y2="31.00" stroke="#2b2733" stroke-width="0.18" stroke-opacity="0.4" stroke-linecap="round"/>
<line x1="31.18" y1="31.00" x2="32.68" y2="31.00" stroke="#2b2733" stroke-width="0.18" stroke-opacity="0.4" stroke-linecap="round"/>
<line x1="23.46" y1="33.84" x2="22.56" y2="33.84" stroke="#2b2733" stroke-width="0.12" stroke-opacity="0.22" stroke-linecap="round"/>
<line x1="31.18" y1="33.84" x2="32.08" y2="33.84" stroke="#2b2733" stroke-width="0.12" stroke-opacity="0.22" stroke-linecap="round"/>
<line x1="23.46" y1="36.68" x2="22.56" y2="36.68" stroke="#2b2733" stroke-width="0.12" stroke-opacity="0.22" stroke-linecap="round"/>
<line x1="31.18" y1="36.68" x2="32.08" y2="36.68" stroke="#2b2733" stroke-width="0.12" stroke-opacity="0.22" stroke-linecap="round"/>
<line x1="23.46" y1="39.52" x2="22.56" y2="39.52" stroke="#2b2733" stroke-width="0.12" stroke-opacity="0.22" stroke-linecap="round"/>
<line x1="31.18" y1="39.52" x2="32.08" y2="39.52" stroke="#2b2733" stroke-width="0.12" stroke-opacity="0.22" stroke-linecap="round"/>
<line x1="23.46" y1="42.36" x2="21.96" y2="42.36" stroke="#2b2733" stroke-width="0.18" stroke-opacity="0.4" stroke-linecap="round"/>
<line x1="31.18" y1="42.36" x2="32.68" y2="42.36" stroke="#2b2733" stroke-width="0.18" stroke-opacity="0.4" stroke-linecap="round"/>
<circle cx="20.32" cy="43.00" r="1.45" fill="#b4b5ba" fill-opacity="0.9" stroke="#2b2733" stroke-width="0.16" stroke-opacity="0.5"/>
<circle cx="20.32" cy="39.50" r="1.45" fill="#b4b5ba" fill-opacity="0.9" stroke="#2b2733" stroke-width="0.16" stroke-opacity="0.5"/>
<circle cx="20.32" cy="36.00" r="1.45" fill="#b4b5ba" fill-opacity="0.9" stroke="#2b2733" stroke-width="0.16" stroke-opacity="0.5"/>
<circle cx="20.32" cy="32.50" r="1.45" fill="#b4b5ba" fill-opacity="0.9" stroke="#2b2733" stroke-width="0.16" stroke-opacity="0.5"/>
<circle cx="20.32" cy="29.00" r="1.45" fill="#b4b5ba" fill-opacity="0.9" stroke="#2b2733" stroke-width="0.16" stroke-opacity="0.5"/>
<circle cx="20.32" cy="25.50" r="1.45" fill="#b4b5ba" fill-opacity="0.9" stroke="#2b2733" stroke-width="0.16" stroke-opacity="0.5"/>
<circle cx="20.32" cy="22.00" r="1.45" fill="#b4b5ba" fill-opacity="0.9" stroke="#2b2733" stroke-width="0.16" stroke-opacity="0.5"/>
<circle cx="20.32" cy="62.00" r="5.80" fill="#b4b5ba" fill-opacity="0.9" stroke="#2b2733" stroke-width="0.2" stroke-opacity="0.5"/>
<path d="M15.16,67.16 A7.30,7.30 0 1 1 25.48,67.16" fill="none" stroke="#2b2733" stroke-width="0.36" stroke-opacity="0.5" stroke-linecap="round"/><line x1="16.01" y1="66.31" x2="15.09" y2="67.23" stroke="#2b2733" stroke-width="0.2" stroke-opacity="0.38" stroke-linecap="round"/><line x1="14.13" y1="59.44" x2="13.48" y2="59.17" stroke="#2b2733" stroke-width="0.12" stroke-opacity="0.28" stroke-linecap="round"/><line x1="20.32" y1="55.90" x2="20.32" y2="54.60" stroke="#2b2733" stroke-width="0.2" stroke-opacity="0.38" stroke-linecap="round"/><line x1="26.51" y1="59.44" x2="27.16" y2="59.17" stroke="#2b2733" stroke-width="0.12" stroke-opacity="0.28" stroke-linecap="round"/><line x1="24.63" y1="66.31" x2="25.55" y2="67.23" stroke="#2b2733" stroke-width="0.2" stroke-opacity="0.38" stroke-linecap="round"/><line x1="20.32" y1="56.60" x2="20.32" y2="54.10" stroke="#2b2733" stroke-width="0.28" stroke-opacity="0.5800000000000001" stroke-linecap="round"/>
<circle cx="20.32" cy="62.00" r="8.30" fill="none" fill-opacity="1.0" stroke="#2b2733" stroke-width="0.3" stroke-opacity="0.4"/>
<path d="M 10.999 68.361 V 67.790 H 10.623 V 68.361 H 10.365 V 67.061 H 10.623 V 67.578 H 10.999 V 67.061 H 11.256 V 68.361 Z M 12.149 68.063 H 11.722 L 11.641 68.361 H 11.375 L 11.782 67.061 H 12.098 L 12.504 68.361 H 12.230 Z M 11.768 67.870 H 12.101 L 11.935 67.254 Z M 13.543 67.446 Q 13.543 67.540 13.505 67.610 Q 13.468 67.681 13.405 67.728 Q 13.341 67.776 13.262 67.803 L 13.619 68.361 H 13.323 L 13.016 67.843 H 12.898 V 68.361 H 12.641 V 67.061 H 13.024 Q 13.280 67.061 13.411 67.156 Q 13.543 67.251 13.543 67.446 Z M 13.276 67.446 Q 13.276 67.340 13.214 67.294 Q 13.153 67.247 13.030 67.247 H 12.898 V 67.661 H 13.039 Q 13.152 67.661 13.214 67.610 Q 13.276 67.559 13.276 67.446 Z M 14.428 67.705 Q 14.428 67.560 14.401 67.471 Q 14.374 67.382 14.328 67.334 Q 14.282 67.287 14.224 67.270 Q 14.166 67.253 14.103 67.253 H 14.007 V 68.170 H 14.104 Q 14.170 68.170 14.228 68.150 Q 14.287 68.129 14.332 68.078 Q 14.377 68.026 14.403 67.936 Q 14.428 67.845 14.428 67.705 Z M 14.697 67.705 Q 14.697 67.865 14.663 67.979 Q 14.628 68.092 14.568 68.167 Q 14.508 68.242 14.429 68.284 Q 14.351 68.326 14.262 68.344 Q 14.173 68.361 14.082 68.361 H 13.749 V 67.061 H 14.060 Q 14.181 67.061 14.295 67.087 Q 14.408 67.113 14.499 67.181 Q 14.590 67.250 14.643 67.376 Q 14.697 67.503 14.697 67.705 Z" fill="#6c6d72" fill-rule="nonzero"/>
<path d="M 26.928 67.988 Q 26.928 68.106 26.868 68.197 Q 26.807 68.287 26.693 68.338 Q 26.580 68.389 26.418 68.389 Q 26.249 68.389 26.127 68.339 Q 26.006 68.289 25.924 68.210 L 26.060 68.058 Q 26.130 68.121 26.218 68.157 Q 26.305 68.193 26.414 68.193 Q 26.484 68.193 26.540 68.171 Q 26.595 68.150 26.628 68.108 Q 26.660 68.066 26.660 68.005 Q 26.660 67.951 26.638 67.915 Q 26.615 67.878 26.560 67.849 Q 26.505 67.820 26.407 67.791 Q 26.264 67.746 26.171 67.693 Q 26.078 67.640 26.032 67.567 Q 25.987 67.494 25.987 67.395 Q 25.987 67.283 26.049 67.202 Q 26.111 67.120 26.217 67.077 Q 26.323 67.033 26.454 67.033 Q 26.598 67.033 26.708 67.075 Q 26.818 67.117 26.902 67.194 L 26.773 67.339 Q 26.706 67.282 26.629 67.255 Q 26.551 67.227 26.471 67.227 Q 26.408 67.227 26.359 67.244 Q 26.310 67.261 26.282 67.294 Q 26.253 67.327 26.253 67.378 Q 26.253 67.424 26.279 67.456 Q 26.305 67.489 26.368 67.517 Q 26.431 67.544 26.541 67.579 Q 26.657 67.614 26.744 67.663 Q 26.830 67.712 26.879 67.789 Q 26.928 67.867 26.928 67.988 Z M 28.079 67.711 Q 28.079 67.914 28.022 68.066 Q 27.965 68.219 27.852 68.304 Q 27.739 68.389 27.573 68.389 Q 27.408 68.389 27.294 68.306 Q 27.181 68.223 27.124 68.071 Q 27.067 67.919 27.067 67.712 Q 27.067 67.509 27.124 67.356 Q 27.181 67.203 27.294 67.118 Q 27.408 67.033 27.573 67.033 Q 27.739 67.033 27.852 67.116 Q 27.965 67.198 28.022 67.351 Q 28.079 67.503 28.079 67.711 Z M 27.814 67.711 Q 27.814 67.464 27.758 67.345 Q 27.702 67.227 27.573 67.227 Q 27.444 67.227 27.388 67.346 Q 27.332 67.465 27.332 67.712 Q 27.332 67.959 27.390 68.077 Q 27.447 68.195 27.573 68.195 Q 27.704 68.195 27.759 68.075 Q 27.814 67.956 27.814 67.711 Z M 28.617 67.251 V 67.634 H 29.092 V 67.823 H 28.617 V 68.361 H 28.360 V 67.061 H 29.183 L 29.156 67.251 Z M 29.955 67.263 V 68.361 H 29.698 V 67.263 H 29.319 V 67.061 H 30.346 L 30.320 67.263 Z" fill="#6c6d72" fill-rule="nonzero"/>
<circle cx="11.32" cy="78.00" r="2.90" fill="#b4b5ba" fill-opacity="0.9" stroke="#2b2733" stroke-width="0.2" stroke-opacity="0.5"/>
<circle cx="11.32" cy="78.00" r="3.10" fill="none" fill-opacity="1.0" stroke="#0E93A6" stroke-width="0.16" stroke-opacity="0.3"/>
<line x1="11.32" y1="75.00" x2="11.32" y2="74.10" stroke="#2b2733" stroke-width="0.2" stroke-opacity="0.55" stroke-linecap="round"/>
<circle cx="29.32" cy="78.00" r="2.90" fill="#b4b5ba" fill-opacity="0.9" stroke="#2b2733" stroke-width="0.2" stroke-opacity="0.5"/>
<circle cx="29.32" cy="78.00" r="3.10" fill="none" fill-opacity="1.0" stroke="#0E93A6" stroke-width="0.16" stroke-opacity="0.3"/>
<line x1="29.32" y1="75.00" x2="29.32" y2="74.10" stroke="#2b2733" stroke-width="0.2" stroke-opacity="0.55" stroke-linecap="round"/>
<circle cx="11.32" cy="90.00" r="3.65" fill="#b4b5ba" fill-opacity="0.9" stroke="#2b2733" stroke-width="0.2" stroke-opacity="0.5"/>
<circle cx="11.32" cy="90.00" r="3.85" fill="none" fill-opacity="1.0" stroke="#0E93A6" stroke-width="0.22" stroke-opacity="0.4"/>
<circle cx="29.32" cy="90.00" r="3.65" fill="#b4b5ba" fill-opacity="0.9" stroke="#2b2733" stroke-width="0.2" stroke-opacity="0.5"/>
<circle cx="29.32" cy="90.00" r="3.85" fill="none" fill-opacity="1.0" stroke="#0E93A6" stroke-width="0.22" stroke-opacity="0.4"/>
<circle cx="11.32" cy="102.00" r="3.65" fill="#b4b5ba" fill-opacity="0.9" stroke="#2b2733" stroke-width="0.2" stroke-opacity="0.5"/>
<circle cx="29.32" cy="102.00" r="3.65" fill="#b4b5ba" fill-opacity="0.9" stroke="#2b2733" stroke-width="0.2" stroke-opacity="0.5"/>
<circle cx="29.32" cy="102.00" r="3.85" fill="none" fill-opacity="1.0" stroke="#A87400" stroke-width="0.22" stroke-opacity="0.4"/>
<circle cx="20.32" cy="114.00" r="3.65" fill="#b4b5ba" fill-opacity="0.9" stroke="#2b2733" stroke-width="0.2" stroke-opacity="0.5"/>
<circle cx="20.32" cy="114.00" r="3.90" fill="none" fill-opacity="1.0" stroke="#E8500A" stroke-width="0.28" stroke-opacity="0.55"/>
<rect x="50.00" y="17.43" width="7.92" height="27.13" rx="1.30" fill="#b4b5ba" fill-opacity="0.9" stroke="#2b2733" stroke-width="0.2" stroke-opacity="0.5"/>
<line x1="50.10" y1="19.63" x2="48.60" y2="19.63" stroke="#2b2733" stroke-width="0.18" stroke-opacity="0.4" stroke-linecap="round"/>
<line x1="57.82" y1="19.63" x2="59.32" y2="19.63" stroke="#2b2733" stroke-width="0.18" stroke-opacity="0.4" stroke-linecap="round"/>
<line x1="50.10" y1="22.48" x2="49.20" y2="22.48" stroke="#2b2733" stroke-width="0.12" stroke-opacity="0.22" stroke-linecap="round"/>
<line x1="57.82" y1="22.48" x2="58.72" y2="22.48" stroke="#2b2733" stroke-width="0.12" stroke-opacity="0.22" stroke-linecap="round"/>
<line x1="50.10" y1="25.32" x2="49.20" y2="25.32" stroke="#2b2733" stroke-width="0.12" stroke-opacity="0.22" stroke-linecap="round"/>
<line x1="57.82" y1="25.32" x2="58.72" y2="25.32" stroke="#2b2733" stroke-width="0.12" stroke-opacity="0.22" stroke-linecap="round"/>
<line x1="50.10" y1="28.16" x2="49.20" y2="28.16" stroke="#2b2733" stroke-width="0.12" stroke-opacity="0.22" stroke-linecap="round"/>
<line x1="57.82" y1="28.16" x2="58.72" y2="28.16" stroke="#2b2733" stroke-width="0.12" stroke-opacity="0.22" stroke-linecap="round"/>
<line x1="50.10" y1="31.00" x2="48.60" y2="31.00" stroke="#2b2733" stroke-width="0.18" stroke-opacity="0.4" stroke-linecap="round"/>
<line x1="57.82" y1="31.00" x2="59.32" y2="31.00" stroke="#2b2733" stroke-width="0.18" stroke-opacity="0.4" stroke-linecap="round"/>
<line x1="50.10" y1="33.84" x2="49.20" y2="33.84" stroke="#2b2733" stroke-width="0.12" stroke-opacity="0.22" stroke-linecap="round"/>
<line x1="57.82" y1="33.84" x2="58.72" y2="33.84" stroke="#2b2733" stroke-width="0.12" stroke-opacity="0.22" stroke-linecap="round"/>
<line x1="50.10" y1="36.68" x2="49.20" y2="36.68" stroke="#2b2733" stroke-width="0.12" stroke-opacity="0.22" stroke-linecap="round"/>
<line x1="57.82" y1="36.68" x2="58.72" y2="36.68" stroke="#2b2733" stroke-width="0.12" stroke-opacity="0.22" stroke-linecap="round"/>
<line x1="50.10" y1="39.52" x2="49.20" y2="39.52" stroke="#2b2733" stroke-width="0.12" stroke-opacity="0.22" stroke-linecap="round"/>
<line x1="57.82" y1="39.52" x2="58.72" y2="39.52" stroke="#2b2733" stroke-width="0.12" stroke-opacity="0.22" stroke-linecap="round"/>
<line x1="50.10" y1="42.36" x2="48.60" y2="42.36" stroke="#2b2733" stroke-width="0.18" stroke-opacity="0.4" stroke-linecap="round"/>
<line x1="57.82" y1="42.36" x2="59.32" y2="42.36" stroke="#2b2733" stroke-width="0.18" stroke-opacity="0.4" stroke-linecap="round"/>
<rect x="64.00" y="17.43" width="7.92" height="27.13" rx="1.30" fill="#b4b5ba" fill-opacity="0.9" stroke="#2b2733" stroke-width="0.2" stroke-opacity="0.5"/>
<line x1="64.10" y1="19.63" x2="62.60" y2="19.63" stroke="#2b2733" stroke-width="0.18" stroke-opacity="0.4" stroke-linecap="round"/>
<line x1="71.82" y1="19.63" x2="73.32" y2="19.63" stroke="#2b2733" stroke-width="0.18" stroke-opacity="0.4" stroke-linecap="round"/>
<line x1="64.10" y1="22.48" x2="63.20" y2="22.48" stroke="#2b2733" stroke-width="0.12" stroke-opacity="0.22" stroke-linecap="round"/>
<line x1="71.82" y1="22.48" x2="72.72" y2="22.48" stroke="#2b2733" stroke-width="0.12" stroke-opacity="0.22" stroke-linecap="round"/>
<line x1="64.10" y1="25.32" x2="63.20" y2="25.32" stroke="#2b2733" stroke-width="0.12" stroke-opacity="0.22" stroke-linecap="round"/>
<line x1="71.82" y1="25.32" x2="72.72" y2="25.32" stroke="#2b2733" stroke-width="0.12" stroke-opacity="0.22" stroke-linecap="round"/>
<line x1="64.10" y1="28.16" x2="63.20" y2="28.16" stroke="#2b2733" stroke-width="0.12" stroke-opacity="0.22" stroke-linecap="round"/>
<line x1="71.82" y1="28.16" x2="72.72" y2="28.16" stroke="#2b2733" stroke-width="0.12" stroke-opacity="0.22" stroke-linecap="round"/>
<line x1="64.10" y1="31.00" x2="62.60" y2="31.00" stroke="#2b2733" stroke-width="0.18" stroke-opacity="0.4" stroke-linecap="round"/>
<line x1="71.82" y1="31.00" x2="73.32" y2="31.00" stroke="#2b2733" stroke-width="0.18" stroke-opacity="0.4" stroke-linecap="round"/>
<line x1="64.10" y1="33.84" x2="63.20" y2="33.84" stroke="#2b2733" stroke-width="0.12" stroke-opacity="0.22" stroke-linecap="round"/>
<line x1="71.82" y1="33.84" x2="72.72" y2="33.84" stroke="#2b2733" stroke-width="0.12" stroke-opacity="0.22" stroke-linecap="round"/>
<line x1="64.10" y1="36.68" x2="63.20" y2="36.68" stroke="#2b2733" stroke-width="0.12" stroke-opacity="0.22" stroke-linecap="round"/>
<line x1="71.82" y1="36.68" x2="72.72" y2="36.68" stroke="#2b2733" stroke-width="0.12" stroke-opacity="0.22" stroke-linecap="round"/>
<line x1="64.10" y1="39.52" x2="63.20" y2="39.52" stroke="#2b2733" stroke-width="0.12" stroke-opacity="0.22" stroke-linecap="round"/>
<line x1="71.82" y1="39.52" x2="72.72" y2="39.52" stroke="#2b2733" stroke-width="0.12" stroke-opacity="0.22" stroke-linecap="round"/>
<line x1="64.10" y1="42.36" x2="62.60" y2="42.36" stroke="#2b2733" stroke-width="0.18" stroke-opacity="0.4" stroke-linecap="round"/>
<line x1="71.82" y1="42.36" x2="73.32" y2="42.36" stroke="#2b2733" stroke-width="0.18" stroke-opacity="0.4" stroke-linecap="round"/>
<circle cx="60.96" cy="43.00" r="1.45" fill="#b4b5ba" fill-opacity="0.9" stroke="#2b2733" stroke-width="0.16" stroke-opacity="0.5"/>
<circle cx="60.96" cy="39.50" r="1.45" fill="#b4b5ba" fill-opacity="0.9" stroke="#2b2733" stroke-width="0.16" stroke-opacity="0.5"/>
<circle cx="60.96" cy="36.00" r="1.45" fill="#b4b5ba" fill-opacity="0.9" stroke="#2b2733" stroke-width="0.16" stroke-opacity="0.5"/>
<circle cx="60.96" cy="32.50" r="1.45" fill="#b4b5ba" fill-opacity="0.9" stroke="#2b2733" stroke-width="0.16" stroke-opacity="0.5"/>
<circle cx="60.96" cy="29.00" r="1.45" fill="#b4b5ba" fill-opacity="0.9" stroke="#2b2733" stroke-width="0.16" stroke-opacity="0.5"/>
<circle cx="60.96" cy="25.50" r="1.45" fill="#b4b5ba" fill-opacity="0.9" stroke="#2b2733" stroke-width="0.16" stroke-opacity="0.5"/>
<circle cx="60.96" cy="22.00" r="1.45" fill="#b4b5ba" fill-opacity="0.9" stroke="#2b2733" stroke-width="0.16" stroke-opacity="0.5"/>
<circle cx="60.96" cy="62.00" r="5.80" fill="#b4b5ba" fill-opacity="0.9" stroke="#2b2733" stroke-width="0.2" stroke-opacity="0.5"/>
<path d="M55.80,67.16 A7.30,7.30 0 1 1 66.12,67.16" fill="none" stroke="#2b2733" stroke-width="0.36" stroke-opacity="0.5" stroke-linecap="round"/><line x1="56.65" y1="66.31" x2="55.73" y2="67.23" stroke="#2b2733" stroke-width="0.2" stroke-opacity="0.38" stroke-linecap="round"/><line x1="54.77" y1="59.44" x2="54.12" y2="59.17" stroke="#2b2733" stroke-width="0.12" stroke-opacity="0.28" stroke-linecap="round"/><line x1="60.96" y1="55.90" x2="60.96" y2="54.60" stroke="#2b2733" stroke-width="0.2" stroke-opacity="0.38" stroke-linecap="round"/><line x1="67.15" y1="59.44" x2="67.80" y2="59.17" stroke="#2b2733" stroke-width="0.12" stroke-opacity="0.28" stroke-linecap="round"/><line x1="65.27" y1="66.31" x2="66.19" y2="67.23" stroke="#2b2733" stroke-width="0.2" stroke-opacity="0.38" stroke-linecap="round"/><line x1="60.96" y1="56.60" x2="60.96" y2="54.10" stroke="#2b2733" stroke-width="0.28" stroke-opacity="0.5800000000000001" stroke-linecap="round"/>
<circle cx="60.96" cy="62.00" r="8.30" fill="none" fill-opacity="1.0" stroke="#2b2733" stroke-width="0.3" stroke-opacity="0.4"/>
<path d="M 51.639 68.361 V 67.790 H 51.263 V 68.361 H 51.005 V 67.061 H 51.263 V 67.578 H 51.639 V 67.061 H 51.896 V 68.361 Z M 52.789 68.063 H 52.362 L 52.281 68.361 H 52.015 L 52.422 67.061 H 52.738 L 53.144 68.361 H 52.870 Z M 52.408 67.870 H 52.741 L 52.575 67.254 Z M 54.183 67.446 Q 54.183 67.540 54.145 67.610 Q 54.108 67.681 54.045 67.728 Q 53.981 67.776 53.902 67.803 L 54.259 68.361 H 53.963 L 53.656 67.843 H 53.538 V 68.361 H 53.281 V 67.061 H 53.664 Q 53.920 67.061 54.051 67.156 Q 54.183 67.251 54.183 67.446 Z M 53.916 67.446 Q 53.916 67.340 53.854 67.294 Q 53.793 67.247 53.670 67.247 H 53.538 V 67.661 H 53.679 Q 53.792 67.661 53.854 67.610 Q 53.916 67.559 53.916 67.446 Z M 55.068 67.705 Q 55.068 67.560 55.041 67.471 Q 55.014 67.382 54.968 67.334 Q 54.922 67.287 54.864 67.270 Q 54.806 67.253 54.743 67.253 H 54.647 V 68.170 H 54.744 Q 54.810 68.170 54.868 68.150 Q 54.927 68.129 54.972 68.078 Q 55.017 68.026 55.043 67.936 Q 55.068 67.845 55.068 67.705 Z M 55.337 67.705 Q 55.337 67.865 55.303 67.979 Q 55.268 68.092 55.208 68.167 Q 55.148 68.242 55.069 68.284 Q 54.991 68.326 54.902 68.344 Q 54.813 68.361 54.722 68.361 H 54.389 V 67.061 H 54.700 Q 54.821 67.061 54.935 67.087 Q 55.048 67.113 55.139 67.181 Q 55.230 67.250 55.283 67.376 Q 55.337 67.503 55.337 67.705 Z" fill="#6c6d72" fill-rule="nonzero"/>
<path d="M 67.568 67.988 Q 67.568 68.106 67.508 68.197 Q 67.447 68.287 67.333 68.338 Q 67.220 68.389 67.058 68.389 Q 66.889 68.389 66.767 68.339 Q 66.646 68.289 66.564 68.210 L 66.700 68.058 Q 66.770 68.121 66.858 68.157 Q 66.945 68.193 67.054 68.193 Q 67.124 68.193 67.180 68.171 Q 67.235 68.150 67.268 68.108 Q 67.300 68.066 67.300 68.005 Q 67.300 67.951 67.278 67.915 Q 67.255 67.878 67.200 67.849 Q 67.145 67.820 67.047 67.791 Q 66.904 67.746 66.811 67.693 Q 66.718 67.640 66.672 67.567 Q 66.627 67.494 66.627 67.395 Q 66.627 67.283 66.689 67.202 Q 66.751 67.120 66.857 67.077 Q 66.963 67.033 67.094 67.033 Q 67.238 67.033 67.348 67.075 Q 67.458 67.117 67.542 67.194 L 67.413 67.339 Q 67.346 67.282 67.269 67.255 Q 67.191 67.227 67.111 67.227 Q 67.048 67.227 66.999 67.244 Q 66.950 67.261 66.922 67.294 Q 66.893 67.327 66.893 67.378 Q 66.893 67.424 66.919 67.456 Q 66.945 67.489 67.008 67.517 Q 67.071 67.544 67.181 67.579 Q 67.297 67.614 67.384 67.663 Q 67.470 67.712 67.519 67.789 Q 67.568 67.867 67.568 67.988 Z M 68.719 67.711 Q 68.719 67.914 68.662 68.066 Q 68.605 68.219 68.492 68.304 Q 68.379 68.389 68.213 68.389 Q 68.048 68.389 67.934 68.306 Q 67.821 68.223 67.764 68.071 Q 67.707 67.919 67.707 67.712 Q 67.707 67.509 67.764 67.356 Q 67.821 67.203 67.934 67.118 Q 68.048 67.033 68.213 67.033 Q 68.379 67.033 68.492 67.116 Q 68.605 67.198 68.662 67.351 Q 68.719 67.503 68.719 67.711 Z M 68.454 67.711 Q 68.454 67.464 68.398 67.345 Q 68.342 67.227 68.213 67.227 Q 68.084 67.227 68.028 67.346 Q 67.972 67.465 67.972 67.712 Q 67.972 67.959 68.030 68.077 Q 68.087 68.195 68.213 68.195 Q 68.344 68.195 68.399 68.075 Q 68.454 67.956 68.454 67.711 Z M 69.257 67.251 V 67.634 H 69.732 V 67.823 H 69.257 V 68.361 H 69.000 V 67.061 H 69.823 L 69.796 67.251 Z M 70.595 67.263 V 68.361 H 70.338 V 67.263 H 69.959 V 67.061 H 70.986 L 70.960 67.263 Z" fill="#6c6d72" fill-rule="nonzero"/>
<circle cx="51.96" cy="78.00" r="2.90" fill="#b4b5ba" fill-opacity="0.9" stroke="#2b2733" stroke-width="0.2" stroke-opacity="0.5"/>
<circle cx="51.96" cy="78.00" r="3.10" fill="none" fill-opacity="1.0" stroke="#0E93A6" stroke-width="0.16" stroke-opacity="0.3"/>
<line x1="51.96" y1="75.00" x2="51.96" y2="74.10" stroke="#2b2733" stroke-width="0.2" stroke-opacity="0.55" stroke-linecap="round"/>
<circle cx="69.96" cy="78.00" r="2.90" fill="#b4b5ba" fill-opacity="0.9" stroke="#2b2733" stroke-width="0.2" stroke-opacity="0.5"/>
<circle cx="69.96" cy="78.00" r="3.10" fill="none" fill-opacity="1.0" stroke="#0E93A6" stroke-width="0.16" stroke-opacity="0.3"/>
<line x1="69.96" y1="75.00" x2="69.96" y2="74.10" stroke="#2b2733" stroke-width="0.2" stroke-opacity="0.55" stroke-linecap="round"/>
<circle cx="51.96" cy="90.00" r="3.65" fill="#b4b5ba" fill-opacity="0.9" stroke="#2b2733" stroke-width="0.2" stroke-opacity="0.5"/>
<circle cx="51.96" cy="90.00" r="3.85" fill="none" fill-opacity="1.0" stroke="#0E93A6" stroke-width="0.22" stroke-opacity="0.4"/>
<circle cx="69.96" cy="90.00" r="3.65" fill="#b4b5ba" fill-opacity="0.9" stroke="#2b2733" stroke-width="0.2" stroke-opacity="0.5"/>
<circle cx="69.96" cy="90.00" r="3.85" fill="none" fill-opacity="1.0" stroke="#0E93A6" stroke-width="0.22" stroke-opacity="0.4"/>
<circle cx="51.96" cy="102.00" r="3.65" fill="#b4b5ba" fill-opacity="0.9" stroke="#2b2733" stroke-width="0.2" stroke-opacity="0.5"/>
<circle cx="69.96" cy="102.00" r="3.65" fill="#b4b5ba" fill-opacity="0.9" stroke="#2b2733" stroke-width="0.2" stroke-opacity="0.5"/>
<circle cx="69.96" cy="102.00" r="3.85" fill="none" fill-opacity="1.0" stroke="#A87400" stroke-width="0.22" stroke-opacity="0.4"/>
<circle cx="60.96" cy="114.00" r="3.65" fill="#b4b5ba" fill-opacity="0.9" stroke="#2b2733" stroke-width="0.2" stroke-opacity="0.5"/>
<circle cx="60.96" cy="114.00" r="3.90" fill="none" fill-opacity="1.0" stroke="#E8500A" stroke-width="0.28" stroke-opacity="0.55"/>
<path d="M 11.677 46.864 Q 11.677 47.145 11.599 47.357 Q 11.520 47.568 11.364 47.686 Q 11.208 47.804 10.977 47.804 Q 10.748 47.804 10.591 47.689 Q 10.434 47.574 10.356 47.363 Q 10.277 47.153 10.277 46.866 Q 10.277 46.585 10.356 46.373 Q 10.434 46.162 10.591 46.044 Q 10.748 45.926 10.977 45.926 Q 11.208 45.926 11.364 46.040 Q 11.520 46.155 11.599 46.366 Q 11.677 46.577 11.677 46.864 Z M 11.310 46.864 Q 11.310 46.523 11.233 46.359 Q 11.155 46.194 10.977 46.194 Q 10.799 46.194 10.721 46.359 Q 10.644 46.525 10.644 46.866 Q 10.644 47.208 10.723 47.371 Q 10.803 47.535 10.977 47.535 Q 11.158 47.535 11.234 47.369 Q 11.310 47.204 11.310 46.864 Z M 12.871 46.542 Q 12.871 46.430 12.829 46.360 Q 12.786 46.290 12.706 46.258 Q 12.625 46.225 12.512 46.225 H 12.326 V 46.877 H 12.522 Q 12.629 46.877 12.706 46.844 Q 12.784 46.811 12.827 46.737 Q 12.871 46.663 12.871 46.542 Z M 13.241 46.539 Q 13.241 46.749 13.151 46.882 Q 13.062 47.015 12.902 47.078 Q 12.742 47.142 12.533 47.142 H 12.326 V 47.765 H 11.969 V 45.965 H 12.499 Q 12.849 45.965 13.045 46.107 Q 13.241 46.249 13.241 46.539 Z M 13.949 46.228 V 46.721 H 14.586 V 46.980 H 13.949 V 47.503 H 14.723 V 47.765 H 13.592 V 45.965 H 14.714 L 14.677 46.228 Z M 15.832 47.765 15.302 46.270 Q 15.309 46.319 15.318 46.397 Q 15.327 46.475 15.335 46.574 Q 15.344 46.673 15.350 46.784 Q 15.356 46.894 15.356 47.008 V 47.765 H 15.046 V 45.965 H 15.499 L 16.023 47.458 Q 16.013 47.391 16.001 47.282 Q 15.988 47.173 15.979 47.031 Q 15.970 46.889 15.970 46.729 V 45.965 H 16.280 V 47.765 Z" fill="#17141c" fill-rule="nonzero"/>
<path d="M 24.519 46.857 Q 24.519 46.656 24.482 46.532 Q 24.445 46.409 24.381 46.343 Q 24.317 46.277 24.237 46.254 Q 24.156 46.231 24.069 46.231 H 23.936 V 47.501 H 24.070 Q 24.161 47.501 24.242 47.472 Q 24.324 47.444 24.386 47.373 Q 24.449 47.302 24.484 47.176 Q 24.519 47.050 24.519 46.857 Z M 24.891 46.857 Q 24.891 47.078 24.844 47.235 Q 24.796 47.393 24.713 47.496 Q 24.630 47.600 24.521 47.658 Q 24.412 47.717 24.289 47.741 Q 24.166 47.765 24.040 47.765 H 23.579 V 45.965 H 24.009 Q 24.177 45.965 24.334 46.001 Q 24.492 46.037 24.617 46.132 Q 24.743 46.227 24.817 46.402 Q 24.891 46.577 24.891 46.857 Z M 25.606 46.228 V 46.721 H 26.244 V 46.980 H 25.606 V 47.503 H 26.380 V 47.765 H 25.249 V 45.965 H 26.371 L 26.335 46.228 Z M 27.471 45.926 Q 27.658 45.926 27.789 45.975 Q 27.919 46.024 28.029 46.115 L 27.848 46.329 Q 27.772 46.264 27.680 46.231 Q 27.588 46.197 27.484 46.197 Q 27.359 46.197 27.254 46.263 Q 27.149 46.329 27.086 46.476 Q 27.023 46.622 27.023 46.862 Q 27.023 47.097 27.084 47.243 Q 27.144 47.389 27.249 47.456 Q 27.354 47.523 27.487 47.523 Q 27.627 47.523 27.720 47.473 Q 27.812 47.424 27.886 47.365 L 28.054 47.578 Q 27.959 47.671 27.817 47.738 Q 27.674 47.804 27.471 47.804 Q 27.235 47.804 27.051 47.696 Q 26.866 47.588 26.760 47.378 Q 26.655 47.169 26.655 46.862 Q 26.655 46.560 26.764 46.351 Q 26.872 46.142 27.058 46.034 Q 27.243 45.926 27.471 45.926 Z M 29.173 47.352 H 28.581 L 28.469 47.765 H 28.101 L 28.664 45.965 H 29.102 L 29.664 47.765 H 29.285 Z M 28.645 47.086 H 29.107 L 28.877 46.232 Z M 30.622 47.083 V 47.765 H 30.265 V 47.086 L 29.671 45.965 H 30.061 L 30.450 46.785 L 30.843 45.965 H 31.217 Z" fill="#17141c" fill-rule="nonzero"/>
<path d="M 14.130 50.000 14.260 52.300 H 13.854 L 13.811 51.241 Q 13.806 51.108 13.805 50.994 Q 13.804 50.880 13.806 50.777 Q 13.807 50.675 13.811 50.580 Q 13.816 50.486 13.822 50.394 L 13.518 51.901 H 13.149 L 12.823 50.394 Q 12.829 50.482 12.834 50.579 Q 12.839 50.675 12.842 50.780 Q 12.844 50.885 12.845 51.001 Q 12.846 51.118 12.841 51.244 L 12.809 52.300 H 12.410 L 12.540 50.000 H 13.046 L 13.342 51.518 L 13.624 50.000 Z M 15.703 51.773 H 14.947 L 14.804 52.300 H 14.333 L 15.053 50.000 H 15.612 L 16.330 52.300 H 15.846 Z M 15.028 51.432 H 15.618 L 15.324 50.341 Z M 17.549 50.358 V 52.300 H 17.095 V 50.358 H 16.423 V 50.000 H 18.241 L 18.195 50.358 Z M 19.128 50.336 V 50.966 H 19.942 V 51.297 H 19.128 V 51.966 H 20.117 V 52.300 H 18.672 V 50.000 H 20.105 L 20.059 50.336 Z M 22.159 50.680 Q 22.159 50.846 22.094 50.971 Q 22.028 51.096 21.916 51.181 Q 21.803 51.266 21.664 51.312 L 22.294 52.300 H 21.772 L 21.228 51.384 H 21.018 V 52.300 H 20.564 V 50.000 H 21.241 Q 21.695 50.000 21.927 50.168 Q 22.159 50.336 22.159 50.680 Z M 21.687 50.680 Q 21.687 50.494 21.579 50.412 Q 21.471 50.329 21.253 50.329 H 21.018 V 51.061 H 21.268 Q 21.469 51.061 21.578 50.971 Q 21.687 50.881 21.687 50.680 Z M 24.029 50.000 V 50.341 H 23.541 V 51.959 H 24.029 V 52.300 H 22.598 V 51.959 H 23.086 V 50.341 H 22.598 V 50.000 Z M 25.682 51.773 H 24.925 L 24.782 52.300 H 24.311 L 25.032 50.000 H 25.590 L 26.309 52.300 H 25.825 Z M 25.007 51.432 H 25.597 L 25.303 50.341 Z M 26.666 52.300 V 50.000 H 27.122 V 51.931 H 28.136 L 28.088 52.300 Z" fill="#17141c" fill-rule="nonzero"/>
<path d="M 10.219 84.642 Q 10.219 84.464 10.186 84.354 Q 10.153 84.245 10.096 84.186 Q 10.039 84.128 9.968 84.107 Q 9.896 84.086 9.818 84.086 H 9.700 V 85.215 H 9.819 Q 9.900 85.215 9.973 85.190 Q 10.045 85.164 10.101 85.101 Q 10.156 85.038 10.187 84.927 Q 10.219 84.815 10.219 84.642 Z M 10.549 84.642 Q 10.549 84.839 10.507 84.979 Q 10.465 85.119 10.391 85.211 Q 10.317 85.303 10.220 85.355 Q 10.124 85.407 10.014 85.429 Q 9.905 85.450 9.793 85.450 H 9.383 V 83.850 H 9.765 Q 9.914 83.850 10.054 83.882 Q 10.194 83.914 10.306 83.998 Q 10.418 84.083 10.484 84.238 Q 10.549 84.394 10.549 84.642 Z M 11.185 84.084 V 84.522 H 11.752 V 84.752 H 11.185 V 85.217 H 11.873 V 85.450 H 10.868 V 83.850 H 11.865 L 11.832 84.084 Z M 12.843 83.815 Q 13.009 83.815 13.125 83.859 Q 13.240 83.902 13.339 83.983 L 13.178 84.174 Q 13.110 84.116 13.028 84.086 Q 12.947 84.056 12.854 84.056 Q 12.743 84.056 12.650 84.115 Q 12.557 84.174 12.501 84.304 Q 12.445 84.434 12.445 84.647 Q 12.445 84.857 12.498 84.986 Q 12.552 85.116 12.645 85.175 Q 12.738 85.235 12.856 85.235 Q 12.981 85.235 13.063 85.191 Q 13.146 85.147 13.212 85.095 L 13.361 85.283 Q 13.276 85.367 13.150 85.426 Q 13.023 85.485 12.843 85.485 Q 12.633 85.485 12.469 85.389 Q 12.305 85.293 12.211 85.106 Q 12.117 84.920 12.117 84.647 Q 12.117 84.379 12.214 84.193 Q 12.310 84.007 12.475 83.911 Q 12.640 83.815 12.843 83.815 Z" fill="#0E93A6" fill-rule="nonzero"/>
<path d="M 27.372 83.815 Q 27.538 83.815 27.654 83.859 Q 27.770 83.902 27.868 83.983 L 27.707 84.174 Q 27.639 84.116 27.557 84.086 Q 27.476 84.056 27.383 84.056 Q 27.272 84.056 27.179 84.115 Q 27.086 84.174 27.030 84.304 Q 26.974 84.434 26.974 84.647 Q 26.974 84.857 27.028 84.986 Q 27.081 85.116 27.174 85.175 Q 27.268 85.235 27.386 85.235 Q 27.511 85.235 27.593 85.191 Q 27.675 85.147 27.741 85.095 L 27.890 85.283 Q 27.806 85.367 27.679 85.426 Q 27.552 85.485 27.372 85.485 Q 27.162 85.485 26.998 85.389 Q 26.834 85.293 26.740 85.106 Q 26.646 84.920 26.646 84.647 Q 26.646 84.379 26.743 84.193 Q 26.840 84.007 27.004 83.911 Q 27.169 83.815 27.372 83.815 Z M 28.781 84.099 V 85.450 H 28.465 V 84.099 H 27.998 V 83.850 H 29.262 L 29.230 84.099 Z M 30.600 84.323 Q 30.600 84.439 30.554 84.526 Q 30.508 84.612 30.430 84.671 Q 30.352 84.730 30.255 84.763 L 30.693 85.450 H 30.330 L 29.952 84.813 H 29.806 V 85.450 H 29.490 V 83.850 H 29.961 Q 30.277 83.850 30.438 83.967 Q 30.600 84.084 30.600 84.323 Z M 30.271 84.323 Q 30.271 84.194 30.196 84.136 Q 30.121 84.079 29.969 84.079 H 29.806 V 84.588 H 29.979 Q 30.119 84.588 30.195 84.526 Q 30.271 84.463 30.271 84.323 Z M 30.958 85.450 V 83.850 H 31.275 V 85.193 H 31.981 L 31.947 85.450 Z" fill="#0E93A6" fill-rule="nonzero"/>
<path d="M 11.123 95.850 V 96.087 H 10.784 V 97.213 H 11.123 V 97.450 H 10.128 V 97.213 H 10.467 V 96.087 H 10.128 V 95.850 Z M 12.165 97.450 11.694 96.121 Q 11.699 96.165 11.708 96.234 Q 11.716 96.304 11.723 96.391 Q 11.731 96.479 11.736 96.578 Q 11.741 96.676 11.741 96.777 V 97.450 H 11.466 V 95.850 H 11.868 L 12.335 97.177 Q 12.325 97.118 12.314 97.021 Q 12.303 96.924 12.295 96.798 Q 12.287 96.671 12.287 96.529 V 95.850 H 12.563 V 97.450 Z" fill="#17141c" fill-rule="nonzero"/>
<path d="M 28.163 97.450 V 96.747 H 27.700 V 97.450 H 27.383 V 95.850 H 27.700 V 96.486 H 28.163 V 95.850 H 28.480 V 97.450 Z M 29.817 95.850 V 96.087 H 29.478 V 97.213 H 29.817 V 97.450 H 28.823 V 97.213 H 29.161 V 96.087 H 28.823 V 95.850 Z M 30.863 96.099 V 97.450 H 30.547 V 96.099 H 30.080 V 95.850 H 31.345 L 31.312 96.099 Z" fill="#A87400" fill-rule="nonzero"/>
<path d="M 19.554 108.649 Q 19.554 108.899 19.484 109.087 Q 19.414 109.275 19.275 109.380 Q 19.136 109.485 18.932 109.485 Q 18.728 109.485 18.589 109.382 Q 18.449 109.280 18.379 109.093 Q 18.309 108.906 18.309 108.651 Q 18.309 108.401 18.379 108.213 Q 18.449 108.025 18.589 107.920 Q 18.728 107.815 18.932 107.815 Q 19.136 107.815 19.275 107.917 Q 19.414 108.019 19.484 108.206 Q 19.554 108.394 19.554 108.649 Z M 19.228 108.649 Q 19.228 108.346 19.159 108.200 Q 19.090 108.054 18.932 108.054 Q 18.773 108.054 18.704 108.201 Q 18.635 108.347 18.635 108.651 Q 18.635 108.955 18.706 109.100 Q 18.777 109.245 18.932 109.245 Q 19.092 109.245 19.160 109.098 Q 19.228 108.951 19.228 108.649 Z M 20.893 107.850 V 108.920 Q 20.893 109.083 20.826 109.211 Q 20.760 109.339 20.632 109.412 Q 20.505 109.485 20.319 109.485 Q 20.131 109.485 20.004 109.414 Q 19.877 109.342 19.812 109.215 Q 19.747 109.088 19.747 108.920 V 107.850 H 20.064 V 108.831 Q 20.064 109.036 20.120 109.138 Q 20.175 109.241 20.319 109.241 Q 20.463 109.241 20.519 109.138 Q 20.575 109.036 20.575 108.831 V 107.850 Z M 21.863 108.099 V 109.450 H 21.547 V 108.099 H 21.080 V 107.850 H 22.345 L 22.312 108.099 Z" fill="#E8500A" fill-rule="nonzero"/>
<path d="M 52.317 46.864 Q 52.317 47.145 52.239 47.357 Q 52.160 47.568 52.004 47.686 Q 51.848 47.804 51.617 47.804 Q 51.388 47.804 51.231 47.689 Q 51.074 47.574 50.996 47.363 Q 50.917 47.153 50.917 46.866 Q 50.917 46.585 50.996 46.373 Q 51.074 46.162 51.231 46.044 Q 51.388 45.926 51.617 45.926 Q 51.848 45.926 52.004 46.040 Q 52.160 46.155 52.239 46.366 Q 52.317 46.577 52.317 46.864 Z M 51.950 46.864 Q 51.950 46.523 51.873 46.359 Q 51.795 46.194 51.617 46.194 Q 51.439 46.194 51.361 46.359 Q 51.284 46.525 51.284 46.866 Q 51.284 47.208 51.363 47.371 Q 51.443 47.535 51.617 47.535 Q 51.798 47.535 51.874 47.369 Q 51.950 47.204 51.950 46.864 Z M 53.511 46.542 Q 53.511 46.430 53.469 46.360 Q 53.426 46.290 53.346 46.258 Q 53.265 46.225 53.152 46.225 H 52.966 V 46.877 H 53.162 Q 53.269 46.877 53.346 46.844 Q 53.424 46.811 53.467 46.737 Q 53.511 46.663 53.511 46.542 Z M 53.881 46.539 Q 53.881 46.749 53.791 46.882 Q 53.702 47.015 53.542 47.078 Q 53.382 47.142 53.173 47.142 H 52.966 V 47.765 H 52.609 V 45.965 H 53.139 Q 53.489 45.965 53.685 46.107 Q 53.881 46.249 53.881 46.539 Z M 54.589 46.228 V 46.721 H 55.226 V 46.980 H 54.589 V 47.503 H 55.363 V 47.765 H 54.232 V 45.965 H 55.354 L 55.317 46.228 Z M 56.472 47.765 55.942 46.270 Q 55.949 46.319 55.958 46.397 Q 55.967 46.475 55.975 46.574 Q 55.984 46.673 55.990 46.784 Q 55.996 46.894 55.996 47.008 V 47.765 H 55.686 V 45.965 H 56.139 L 56.663 47.458 Q 56.653 47.391 56.641 47.282 Q 56.628 47.173 56.619 47.031 Q 56.610 46.889 56.610 46.729 V 45.965 H 56.920 V 47.765 Z" fill="#17141c" fill-rule="nonzero"/>
<path d="M 65.159 46.857 Q 65.159 46.656 65.122 46.532 Q 65.085 46.409 65.021 46.343 Q 64.957 46.277 64.877 46.254 Q 64.796 46.231 64.709 46.231 H 64.576 V 47.501 H 64.710 Q 64.801 47.501 64.882 47.472 Q 64.964 47.444 65.026 47.373 Q 65.089 47.302 65.124 47.176 Q 65.159 47.050 65.159 46.857 Z M 65.531 46.857 Q 65.531 47.078 65.484 47.235 Q 65.436 47.393 65.353 47.496 Q 65.270 47.600 65.161 47.658 Q 65.052 47.717 64.929 47.741 Q 64.806 47.765 64.680 47.765 H 64.219 V 45.965 H 64.649 Q 64.817 45.965 64.974 46.001 Q 65.132 46.037 65.257 46.132 Q 65.383 46.227 65.457 46.402 Q 65.531 46.577 65.531 46.857 Z M 66.246 46.228 V 46.721 H 66.884 V 46.980 H 66.246 V 47.503 H 67.020 V 47.765 H 65.889 V 45.965 H 67.011 L 66.975 46.228 Z M 68.111 45.926 Q 68.298 45.926 68.429 45.975 Q 68.559 46.024 68.669 46.115 L 68.488 46.329 Q 68.412 46.264 68.320 46.231 Q 68.228 46.197 68.124 46.197 Q 67.999 46.197 67.894 46.263 Q 67.789 46.329 67.726 46.476 Q 67.663 46.622 67.663 46.862 Q 67.663 47.097 67.724 47.243 Q 67.784 47.389 67.889 47.456 Q 67.994 47.523 68.127 47.523 Q 68.267 47.523 68.360 47.473 Q 68.452 47.424 68.526 47.365 L 68.694 47.578 Q 68.599 47.671 68.457 47.738 Q 68.314 47.804 68.111 47.804 Q 67.875 47.804 67.691 47.696 Q 67.506 47.588 67.400 47.378 Q 67.295 47.169 67.295 46.862 Q 67.295 46.560 67.404 46.351 Q 67.512 46.142 67.698 46.034 Q 67.883 45.926 68.111 45.926 Z M 69.813 47.352 H 69.221 L 69.109 47.765 H 68.741 L 69.304 45.965 H 69.742 L 70.304 47.765 H 69.925 Z M 69.285 47.086 H 69.747 L 69.517 46.232 Z M 71.262 47.083 V 47.765 H 70.905 V 47.086 L 70.311 45.965 H 70.701 L 71.090 46.785 L 71.483 45.965 H 71.857 Z" fill="#17141c" fill-rule="nonzero"/>
<path d="M 54.770 50.000 54.900 52.300 H 54.494 L 54.451 51.241 Q 54.446 51.108 54.445 50.994 Q 54.444 50.880 54.446 50.777 Q 54.447 50.675 54.451 50.580 Q 54.456 50.486 54.462 50.394 L 54.158 51.901 H 53.789 L 53.463 50.394 Q 53.469 50.482 53.474 50.579 Q 53.479 50.675 53.482 50.780 Q 53.484 50.885 53.485 51.001 Q 53.486 51.118 53.481 51.244 L 53.449 52.300 H 53.050 L 53.180 50.000 H 53.686 L 53.982 51.518 L 54.264 50.000 Z M 56.343 51.773 H 55.587 L 55.444 52.300 H 54.973 L 55.693 50.000 H 56.252 L 56.970 52.300 H 56.486 Z M 55.668 51.432 H 56.258 L 55.964 50.341 Z M 58.189 50.358 V 52.300 H 57.735 V 50.358 H 57.063 V 50.000 H 58.881 L 58.835 50.358 Z M 59.768 50.336 V 50.966 H 60.582 V 51.297 H 59.768 V 51.966 H 60.757 V 52.300 H 59.312 V 50.000 H 60.745 L 60.699 50.336 Z M 62.799 50.680 Q 62.799 50.846 62.734 50.971 Q 62.668 51.096 62.556 51.181 Q 62.443 51.266 62.304 51.312 L 62.934 52.300 H 62.412 L 61.868 51.384 H 61.658 V 52.300 H 61.204 V 50.000 H 61.881 Q 62.335 50.000 62.567 50.168 Q 62.799 50.336 62.799 50.680 Z M 62.327 50.680 Q 62.327 50.494 62.219 50.412 Q 62.111 50.329 61.893 50.329 H 61.658 V 51.061 H 61.908 Q 62.109 51.061 62.218 50.971 Q 62.327 50.881 62.327 50.680 Z M 64.669 50.000 V 50.341 H 64.181 V 51.959 H 64.669 V 52.300 H 63.238 V 51.959 H 63.726 V 50.341 H 63.238 V 50.000 Z M 66.322 51.773 H 65.565 L 65.422 52.300 H 64.951 L 65.672 50.000 H 66.230 L 66.949 52.300 H 66.465 Z M 65.647 51.432 H 66.237 L 65.943 50.341 Z M 67.306 52.300 V 50.000 H 67.762 V 51.931 H 68.776 L 68.728 52.300 Z" fill="#17141c" fill-rule="nonzero"/>
<path d="M 50.859 84.642 Q 50.859 84.464 50.826 84.354 Q 50.793 84.245 50.736 84.186 Q 50.679 84.128 50.608 84.107 Q 50.536 84.086 50.458 84.086 H 50.340 V 85.215 H 50.459 Q 50.540 85.215 50.613 85.190 Q 50.685 85.164 50.741 85.101 Q 50.796 85.038 50.827 84.927 Q 50.859 84.815 50.859 84.642 Z M 51.189 84.642 Q 51.189 84.839 51.147 84.979 Q 51.105 85.119 51.031 85.211 Q 50.957 85.303 50.860 85.355 Q 50.764 85.407 50.654 85.429 Q 50.545 85.450 50.433 85.450 H 50.023 V 83.850 H 50.405 Q 50.554 83.850 50.694 83.882 Q 50.834 83.914 50.946 83.998 Q 51.058 84.083 51.124 84.238 Q 51.189 84.394 51.189 84.642 Z M 51.825 84.084 V 84.522 H 52.392 V 84.752 H 51.825 V 85.217 H 52.513 V 85.450 H 51.508 V 83.850 H 52.505 L 52.472 84.084 Z M 53.483 83.815 Q 53.649 83.815 53.765 83.859 Q 53.880 83.902 53.979 83.983 L 53.818 84.174 Q 53.750 84.116 53.668 84.086 Q 53.587 84.056 53.494 84.056 Q 53.383 84.056 53.290 84.115 Q 53.197 84.174 53.141 84.304 Q 53.085 84.434 53.085 84.647 Q 53.085 84.857 53.138 84.986 Q 53.192 85.116 53.285 85.175 Q 53.378 85.235 53.496 85.235 Q 53.621 85.235 53.703 85.191 Q 53.786 85.147 53.852 85.095 L 54.001 85.283 Q 53.916 85.367 53.790 85.426 Q 53.663 85.485 53.483 85.485 Q 53.273 85.485 53.109 85.389 Q 52.945 85.293 52.851 85.106 Q 52.757 84.920 52.757 84.647 Q 52.757 84.379 52.854 84.193 Q 52.950 84.007 53.115 83.911 Q 53.280 83.815 53.483 83.815 Z" fill="#0E93A6" fill-rule="nonzero"/>
<path d="M 68.012 83.815 Q 68.178 83.815 68.294 83.859 Q 68.410 83.902 68.508 83.983 L 68.347 84.174 Q 68.279 84.116 68.197 84.086 Q 68.116 84.056 68.023 84.056 Q 67.912 84.056 67.819 84.115 Q 67.726 84.174 67.670 84.304 Q 67.614 84.434 67.614 84.647 Q 67.614 84.857 67.668 84.986 Q 67.721 85.116 67.814 85.175 Q 67.908 85.235 68.026 85.235 Q 68.151 85.235 68.233 85.191 Q 68.315 85.147 68.381 85.095 L 68.530 85.283 Q 68.446 85.367 68.319 85.426 Q 68.192 85.485 68.012 85.485 Q 67.802 85.485 67.638 85.389 Q 67.474 85.293 67.380 85.106 Q 67.286 84.920 67.286 84.647 Q 67.286 84.379 67.383 84.193 Q 67.480 84.007 67.644 83.911 Q 67.809 83.815 68.012 83.815 Z M 69.421 84.099 V 85.450 H 69.105 V 84.099 H 68.638 V 83.850 H 69.902 L 69.870 84.099 Z M 71.240 84.323 Q 71.240 84.439 71.194 84.526 Q 71.148 84.612 71.070 84.671 Q 70.992 84.730 70.895 84.763 L 71.333 85.450 H 70.970 L 70.592 84.813 H 70.446 V 85.450 H 70.130 V 83.850 H 70.601 Q 70.917 83.850 71.078 83.967 Q 71.240 84.084 71.240 84.323 Z M 70.911 84.323 Q 70.911 84.194 70.836 84.136 Q 70.761 84.079 70.609 84.079 H 70.446 V 84.588 H 70.619 Q 70.759 84.588 70.835 84.526 Q 70.911 84.463 70.911 84.323 Z M 71.598 85.450 V 83.850 H 71.915 V 85.193 H 72.621 L 72.587 85.450 Z" fill="#0E93A6" fill-rule="nonzero"/>
<path d="M 51.763 95.850 V 96.087 H 51.424 V 97.213 H 51.763 V 97.450 H 50.768 V 97.213 H 51.107 V 96.087 H 50.768 V 95.850 Z M 52.805 97.450 52.334 96.121 Q 52.339 96.165 52.348 96.234 Q 52.356 96.304 52.363 96.391 Q 52.371 96.479 52.376 96.578 Q 52.381 96.676 52.381 96.777 V 97.450 H 52.106 V 95.850 H 52.508 L 52.975 97.177 Q 52.965 97.118 52.954 97.021 Q 52.943 96.924 52.935 96.798 Q 52.927 96.671 52.927 96.529 V 95.850 H 53.203 V 97.450 Z" fill="#17141c" fill-rule="nonzero"/>
<path d="M 68.803 97.450 V 96.747 H 68.340 V 97.450 H 68.023 V 95.850 H 68.340 V 96.486 H 68.803 V 95.850 H 69.120 V 97.450 Z M 70.457 95.850 V 96.087 H 70.118 V 97.213 H 70.457 V 97.450 H 69.463 V 97.213 H 69.801 V 96.087 H 69.463 V 95.850 Z M 71.503 96.099 V 97.450 H 71.187 V 96.099 H 70.720 V 95.850 H 71.985 L 71.952 96.099 Z" fill="#A87400" fill-rule="nonzero"/>
<path d="M 60.194 108.649 Q 60.194 108.899 60.124 109.087 Q 60.054 109.275 59.915 109.380 Q 59.776 109.485 59.572 109.485 Q 59.368 109.485 59.229 109.382 Q 59.089 109.280 59.019 109.093 Q 58.949 108.906 58.949 108.651 Q 58.949 108.401 59.019 108.213 Q 59.089 108.025 59.229 107.920 Q 59.368 107.815 59.572 107.815 Q 59.776 107.815 59.915 107.917 Q 60.054 108.019 60.124 108.206 Q 60.194 108.394 60.194 108.649 Z M 59.868 108.649 Q 59.868 108.346 59.799 108.200 Q 59.730 108.054 59.572 108.054 Q 59.413 108.054 59.344 108.201 Q 59.275 108.347 59.275 108.651 Q 59.275 108.955 59.346 109.100 Q 59.417 109.245 59.572 109.245 Q 59.732 109.245 59.800 109.098 Q 59.868 108.951 59.868 108.649 Z M 61.533 107.850 V 108.920 Q 61.533 109.083 61.466 109.211 Q 61.400 109.339 61.272 109.412 Q 61.145 109.485 60.959 109.485 Q 60.771 109.485 60.644 109.414 Q 60.517 109.342 60.452 109.215 Q 60.387 109.088 60.387 108.920 V 107.850 H 60.704 V 108.831 Q 60.704 109.036 60.760 109.138 Q 60.815 109.241 60.959 109.241 Q 61.103 109.241 61.159 109.138 Q 61.215 109.036 61.215 108.831 V 107.850 Z M 62.503 108.099 V 109.450 H 62.187 V 108.099 H 61.720 V 107.850 H 62.985 L 62.952 108.099 Z" fill="#E8500A" fill-rule="nonzero"/>
<path d="M 10.563 13.048 Q 10.812 13.048 10.986 13.113 Q 11.159 13.178 11.307 13.300 L 11.066 13.586 Q 10.963 13.499 10.841 13.454 Q 10.719 13.409 10.580 13.409 Q 10.413 13.409 10.274 13.497 Q 10.134 13.586 10.050 13.781 Q 9.966 13.976 9.966 14.296 Q 9.966 14.610 10.046 14.804 Q 10.127 14.998 10.267 15.088 Q 10.406 15.177 10.583 15.177 Q 10.771 15.177 10.894 15.111 Q 11.017 15.045 11.116 14.967 L 11.340 15.250 Q 11.213 15.375 11.023 15.464 Q 10.833 15.552 10.563 15.552 Q 10.248 15.552 10.002 15.408 Q 9.756 15.264 9.615 14.985 Q 9.474 14.705 9.474 14.296 Q 9.474 13.893 9.619 13.615 Q 9.764 13.336 10.012 13.192 Q 10.259 13.048 10.563 13.048 Z M 12.791 15.500 V 14.445 H 12.097 V 15.500 H 11.621 V 13.100 H 12.097 V 14.054 H 12.791 V 13.100 H 13.266 V 15.500 Z M 16.997 14.950 H 16.208 L 16.059 15.500 H 15.567 L 16.319 13.100 H 16.902 L 17.652 15.500 H 17.147 Z M 16.293 14.594 H 16.909 L 16.602 13.456 Z" fill="#17141c" fill-rule="nonzero"/>
<path d="M 64.873 13.048 Q 65.122 13.048 65.296 13.113 Q 65.470 13.178 65.617 13.300 L 65.376 13.586 Q 65.273 13.499 65.151 13.454 Q 65.029 13.409 64.890 13.409 Q 64.723 13.409 64.584 13.497 Q 64.444 13.586 64.360 13.781 Q 64.276 13.976 64.276 14.296 Q 64.276 14.610 64.356 14.804 Q 64.437 14.998 64.577 15.088 Q 64.716 15.177 64.893 15.177 Q 65.081 15.177 65.204 15.111 Q 65.327 15.045 65.426 14.967 L 65.650 15.250 Q 65.523 15.375 65.333 15.464 Q 65.143 15.552 64.873 15.552 Q 64.558 15.552 64.312 15.408 Q 64.066 15.264 63.925 14.985 Q 63.785 14.705 63.785 14.296 Q 63.785 13.893 63.929 13.615 Q 64.074 13.336 64.322 13.192 Q 64.569 13.048 64.873 13.048 Z M 67.101 15.500 V 14.445 H 66.407 V 15.500 H 65.931 V 13.100 H 66.407 V 14.054 H 67.101 V 13.100 H 67.576 V 15.500 Z M 71.328 14.792 Q 71.328 14.646 71.272 14.565 Q 71.215 14.483 71.117 14.449 Q 71.018 14.415 70.891 14.415 H 70.596 V 15.144 H 70.870 Q 70.955 15.144 71.037 15.130 Q 71.118 15.116 71.185 15.079 Q 71.252 15.042 71.290 14.972 Q 71.328 14.903 71.328 14.792 Z M 71.236 13.752 Q 71.236 13.589 71.135 13.518 Q 71.033 13.447 70.835 13.447 H 70.596 V 14.080 H 70.856 Q 71.051 14.080 71.143 14.003 Q 71.236 13.926 71.236 13.752 Z M 71.821 14.804 Q 71.821 15.007 71.742 15.143 Q 71.663 15.278 71.528 15.356 Q 71.392 15.434 71.222 15.467 Q 71.051 15.500 70.865 15.500 H 70.120 V 13.100 H 70.822 Q 70.999 13.100 71.158 13.130 Q 71.318 13.159 71.444 13.229 Q 71.569 13.300 71.643 13.418 Q 71.717 13.536 71.717 13.711 Q 71.717 13.858 71.655 13.964 Q 71.594 14.070 71.492 14.135 Q 71.391 14.200 71.274 14.230 Q 71.405 14.251 71.530 14.310 Q 71.656 14.370 71.739 14.489 Q 71.821 14.608 71.821 14.804 Z" fill="#17141c" fill-rule="nonzero"/>
<line x1="7.00" y1="122.30" x2="74.28" y2="122.30" stroke="#2b2733" stroke-width="0.25" stroke-opacity="0.34" stroke-linecap="round"/>
<path d="M 12.668 124.084 Q 12.668 124.216 12.600 124.317 Q 12.533 124.417 12.406 124.474 Q 12.279 124.531 12.099 124.531 Q 11.910 124.531 11.775 124.475 Q 11.639 124.419 11.548 124.331 L 11.699 124.162 Q 11.778 124.233 11.875 124.272 Q 11.973 124.312 12.094 124.312 Q 12.172 124.312 12.234 124.288 Q 12.297 124.264 12.333 124.217 Q 12.369 124.171 12.369 124.103 Q 12.369 124.043 12.344 124.002 Q 12.319 123.961 12.258 123.929 Q 12.196 123.896 12.087 123.864 Q 11.927 123.814 11.823 123.755 Q 11.719 123.696 11.669 123.615 Q 11.618 123.533 11.618 123.422 Q 11.618 123.297 11.688 123.207 Q 11.757 123.116 11.875 123.067 Q 11.993 123.019 12.139 123.019 Q 12.300 123.019 12.423 123.065 Q 12.545 123.112 12.639 123.198 L 12.495 123.360 Q 12.421 123.296 12.334 123.266 Q 12.248 123.236 12.158 123.236 Q 12.088 123.236 12.033 123.254 Q 11.978 123.273 11.947 123.310 Q 11.915 123.347 11.915 123.403 Q 11.915 123.455 11.944 123.491 Q 11.973 123.527 12.043 123.558 Q 12.113 123.589 12.236 123.628 Q 12.365 123.666 12.462 123.721 Q 12.559 123.776 12.613 123.862 Q 12.668 123.949 12.668 124.084 Z M 12.945 123.954 V 123.734 H 13.830 V 123.954 Z M 16.123 123.050 V 124.287 H 16.405 V 124.500 H 15.500 V 124.287 H 15.851 V 123.329 L 15.542 123.521 L 15.423 123.329 L 15.878 123.050 Z M 17.256 123.019 Q 17.348 123.019 17.424 123.042 Q 17.500 123.066 17.561 123.109 L 17.455 123.281 Q 17.411 123.250 17.361 123.236 Q 17.311 123.221 17.259 123.221 Q 17.165 123.221 17.094 123.283 Q 17.023 123.345 16.985 123.460 Q 16.951 123.558 16.945 123.691 Q 17.006 123.618 17.080 123.582 Q 17.169 123.538 17.266 123.538 Q 17.378 123.538 17.470 123.592 Q 17.562 123.646 17.617 123.750 Q 17.672 123.855 17.672 124.009 Q 17.672 124.160 17.610 124.278 Q 17.549 124.396 17.437 124.464 Q 17.325 124.531 17.179 124.531 Q 17.038 124.531 16.939 124.479 Q 16.841 124.426 16.779 124.331 Q 16.717 124.236 16.688 124.108 Q 16.660 123.981 16.660 123.834 Q 16.660 123.591 16.731 123.407 Q 16.802 123.223 16.936 123.121 Q 17.069 123.019 17.256 123.019 Z M 16.946 123.879 Q 16.950 124.095 16.997 124.205 Q 17.048 124.328 17.181 124.328 Q 17.290 124.328 17.342 124.242 Q 17.394 124.156 17.394 124.024 Q 17.394 123.917 17.370 123.855 Q 17.346 123.792 17.303 123.765 Q 17.260 123.737 17.199 123.737 Q 17.118 123.737 17.046 123.784 Q 16.990 123.822 16.946 123.879 Z M 18.630 124.500 V 123.863 H 18.210 V 124.500 H 17.923 V 123.050 H 18.210 V 123.627 H 18.630 V 123.050 H 18.917 V 124.500 Z M 19.945 123.514 Q 19.945 123.424 19.911 123.368 Q 19.877 123.312 19.812 123.286 Q 19.747 123.260 19.656 123.260 H 19.506 V 123.785 H 19.664 Q 19.750 123.785 19.813 123.758 Q 19.875 123.731 19.910 123.672 Q 19.945 123.612 19.945 123.514 Z M 20.243 123.512 Q 20.243 123.681 20.171 123.789 Q 20.100 123.896 19.971 123.947 Q 19.842 123.998 19.673 123.998 H 19.506 V 124.500 H 19.219 V 123.050 H 19.646 Q 19.928 123.050 20.085 123.164 Q 20.243 123.279 20.243 123.512 Z" fill="#6c6d72" fill-rule="nonzero"/>
<path d="M 37.794 124.532 Q 37.609 124.532 37.468 124.466 Q 37.326 124.399 37.246 124.276 Q 37.166 124.153 37.166 123.979 V 123.915 H 37.463 V 123.979 Q 37.463 124.123 37.552 124.195 Q 37.641 124.267 37.794 124.267 Q 37.950 124.267 38.026 124.205 Q 38.103 124.143 38.103 124.047 Q 38.103 123.981 38.065 123.940 Q 38.028 123.899 37.956 123.873 Q 37.884 123.846 37.781 123.823 L 37.728 123.812 Q 37.564 123.775 37.446 123.719 Q 37.328 123.663 37.265 123.572 Q 37.202 123.481 37.202 123.334 Q 37.202 123.188 37.272 123.084 Q 37.342 122.980 37.469 122.924 Q 37.596 122.868 37.767 122.868 Q 37.938 122.868 38.072 122.926 Q 38.206 122.985 38.282 123.100 Q 38.359 123.215 38.359 123.389 V 123.458 H 38.062 V 123.389 Q 38.062 123.298 38.026 123.242 Q 37.991 123.186 37.925 123.159 Q 37.858 123.133 37.767 123.133 Q 37.630 123.133 37.565 123.185 Q 37.500 123.236 37.500 123.325 Q 37.500 123.385 37.530 123.426 Q 37.561 123.467 37.623 123.494 Q 37.685 123.522 37.781 123.542 L 37.833 123.554 Q 38.005 123.590 38.132 123.647 Q 38.258 123.705 38.329 123.798 Q 38.400 123.892 38.400 124.038 Q 38.400 124.185 38.326 124.295 Q 38.252 124.406 38.116 124.469 Q 37.980 124.532 37.794 124.532 Z M 38.514 124.500 38.935 122.900 H 39.461 L 39.881 124.500 H 39.570 L 39.483 124.148 H 38.912 L 38.825 124.500 Z M 38.983 123.869 H 39.413 L 39.218 123.090 H 39.177 Z M 40.073 124.500 V 122.900 H 40.633 L 40.910 124.294 H 40.951 L 41.227 122.900 H 41.787 V 124.500 H 41.495 V 123.122 H 41.454 L 41.179 124.500 H 40.681 L 40.407 123.122 H 40.366 V 124.500 Z M 42.094 124.047 V 123.787 H 42.770 V 124.047 Z M 43.077 124.500 V 122.900 H 44.105 V 123.174 H 43.378 V 123.556 H 44.041 V 123.830 H 43.378 V 124.226 H 44.119 V 124.500 Z" fill="#17141c" fill-rule="nonzero"/>
<circle cx="51.99" cy="123.95" r="0.70" fill="#6c6d72" fill-opacity="0.7" stroke="none" stroke-width="0.25" stroke-opacity="1.0"/>
<path d="M 55.116 124.098 Q 55.116 124.226 55.050 124.323 Q 54.985 124.420 54.862 124.475 Q 54.740 124.530 54.566 124.530 Q 54.384 124.530 54.253 124.476 Q 54.122 124.422 54.034 124.337 L 54.180 124.174 Q 54.256 124.242 54.350 124.280 Q 54.444 124.319 54.562 124.319 Q 54.637 124.319 54.697 124.296 Q 54.757 124.272 54.792 124.227 Q 54.827 124.182 54.827 124.116 Q 54.827 124.059 54.803 124.019 Q 54.778 123.980 54.719 123.948 Q 54.660 123.917 54.555 123.886 Q 54.400 123.838 54.300 123.781 Q 54.199 123.724 54.151 123.645 Q 54.102 123.567 54.102 123.459 Q 54.102 123.339 54.169 123.251 Q 54.236 123.164 54.350 123.117 Q 54.464 123.070 54.604 123.070 Q 54.760 123.070 54.879 123.115 Q 54.997 123.160 55.087 123.243 L 54.949 123.400 Q 54.877 123.338 54.793 123.309 Q 54.710 123.279 54.624 123.279 Q 54.556 123.279 54.503 123.297 Q 54.449 123.316 54.419 123.351 Q 54.389 123.386 54.389 123.441 Q 54.389 123.491 54.417 123.526 Q 54.444 123.561 54.512 123.590 Q 54.580 123.620 54.698 123.658 Q 54.823 123.695 54.917 123.748 Q 55.010 123.801 55.063 123.884 Q 55.116 123.968 55.116 124.098 Z M 56.245 123.100 V 123.308 H 55.949 V 124.292 H 56.245 V 124.500 H 55.375 V 124.292 H 55.671 V 123.308 H 55.375 V 123.100 Z M 57.068 124.530 Q 56.881 124.530 56.749 124.447 Q 56.618 124.364 56.549 124.201 Q 56.479 124.038 56.479 123.797 Q 56.479 123.618 56.529 123.482 Q 56.578 123.346 56.665 123.254 Q 56.751 123.163 56.865 123.116 Q 56.979 123.070 57.107 123.070 Q 57.255 123.070 57.355 123.114 Q 57.455 123.159 57.537 123.236 L 57.386 123.391 Q 57.322 123.333 57.260 123.305 Q 57.197 123.278 57.118 123.278 Q 57.045 123.278 56.982 123.307 Q 56.919 123.335 56.870 123.397 Q 56.822 123.458 56.795 123.558 Q 56.768 123.657 56.768 123.799 Q 56.768 123.989 56.802 124.104 Q 56.835 124.219 56.904 124.270 Q 56.972 124.321 57.075 124.321 Q 57.133 124.321 57.184 124.307 Q 57.235 124.293 57.282 124.270 V 123.913 H 57.071 L 57.043 123.710 H 57.546 V 124.396 Q 57.445 124.455 57.329 124.493 Q 57.213 124.530 57.068 124.530 Z M 58.371 124.500 57.959 123.337 Q 57.964 123.375 57.971 123.436 Q 57.978 123.497 57.985 123.574 Q 57.992 123.651 57.996 123.737 Q 58.001 123.823 58.001 123.911 V 124.500 H 57.760 V 123.100 H 58.112 L 58.520 124.261 Q 58.512 124.209 58.502 124.124 Q 58.493 124.039 58.486 123.929 Q 58.478 123.819 58.478 123.694 V 123.100 H 58.719 V 124.500 Z M 59.681 124.179 H 59.221 L 59.133 124.500 H 58.847 L 59.285 123.100 H 59.625 L 60.063 124.500 H 59.768 Z M 59.270 123.972 H 59.629 L 59.450 123.308 Z M 60.280 124.500 V 123.100 H 60.558 V 124.275 H 61.175 L 61.146 124.500 Z M 63.619 124.098 Q 63.619 124.226 63.554 124.323 Q 63.488 124.420 63.366 124.475 Q 63.243 124.530 63.069 124.530 Q 62.887 124.530 62.757 124.476 Q 62.626 124.422 62.538 124.337 L 62.684 124.174 Q 62.760 124.242 62.854 124.280 Q 62.948 124.319 63.065 124.319 Q 63.140 124.319 63.200 124.296 Q 63.261 124.272 63.296 124.227 Q 63.331 124.182 63.331 124.116 Q 63.331 124.059 63.306 124.019 Q 63.282 123.980 63.223 123.948 Q 63.163 123.917 63.058 123.886 Q 62.903 123.838 62.803 123.781 Q 62.703 123.724 62.654 123.645 Q 62.606 123.567 62.606 123.459 Q 62.606 123.339 62.673 123.251 Q 62.739 123.164 62.853 123.117 Q 62.967 123.070 63.108 123.070 Q 63.264 123.070 63.382 123.115 Q 63.501 123.160 63.591 123.243 L 63.452 123.400 Q 63.380 123.338 63.297 123.309 Q 63.213 123.279 63.127 123.279 Q 63.059 123.279 63.006 123.297 Q 62.953 123.316 62.923 123.351 Q 62.892 123.386 62.892 123.441 Q 62.892 123.491 62.920 123.526 Q 62.948 123.561 63.016 123.590 Q 63.084 123.620 63.202 123.658 Q 63.326 123.695 63.420 123.748 Q 63.514 123.801 63.566 123.884 Q 63.619 123.968 63.619 124.098 Z M 64.449 123.318 V 124.500 H 64.173 V 123.318 H 63.764 V 123.100 H 64.870 L 64.842 123.318 Z M 65.755 124.179 H 65.294 L 65.207 124.500 H 64.921 L 65.359 123.100 H 65.699 L 66.137 124.500 H 65.842 Z M 65.344 123.972 H 65.703 L 65.524 123.308 Z M 66.982 124.087 Q 66.982 124.002 66.949 123.954 Q 66.916 123.907 66.858 123.887 Q 66.801 123.867 66.727 123.867 H 66.555 V 124.292 H 66.715 Q 66.764 124.292 66.812 124.284 Q 66.859 124.276 66.898 124.255 Q 66.937 124.233 66.960 124.192 Q 66.982 124.152 66.982 124.087 Z M 66.928 123.481 Q 66.928 123.385 66.869 123.344 Q 66.810 123.302 66.694 123.302 H 66.555 V 123.672 H 66.707 Q 66.820 123.672 66.874 123.627 Q 66.928 123.582 66.928 123.481 Z M 67.269 124.094 Q 67.269 124.213 67.223 124.291 Q 67.177 124.370 67.098 124.416 Q 67.019 124.462 66.920 124.481 Q 66.820 124.500 66.712 124.500 H 66.277 V 123.100 H 66.686 Q 66.790 123.100 66.883 123.117 Q 66.976 123.134 67.049 123.175 Q 67.123 123.216 67.166 123.285 Q 67.209 123.354 67.209 123.456 Q 67.209 123.542 67.173 123.604 Q 67.137 123.666 67.078 123.704 Q 67.018 123.742 66.951 123.759 Q 67.026 123.771 67.100 123.806 Q 67.173 123.841 67.221 123.910 Q 67.269 123.980 67.269 124.094 Z M 67.569 124.500 V 123.100 H 67.846 V 124.275 H 68.464 L 68.435 124.500 Z M 69.054 123.304 V 123.688 H 69.550 V 123.890 H 69.054 V 124.297 H 69.656 V 124.500 H 68.777 V 123.100 H 69.649 L 69.621 123.304 Z" fill="#6c6d72" fill-rule="nonzero"/>
</svg>
