<?xml version="1.0" encoding="UTF-8"?>
<!-- Generated by tools/panelgen from the Sam-e panel system. Do not edit by hand; edit the spec and regenerate. -->
<svg xmlns="http://www.w3.org/2000/svg" version="1.1" width="81.28mm" height="128.5mm" viewBox="0 0 81.28 128.5">
<defs><linearGradient id="bg" x1="0" y1="0" x2="0" y2="128.5" gradientUnits="userSpaceOnUse"><stop offset="0" stop-color="#211d3a"/><stop offset="1" stop-color="#15131f"/></linearGradient><style>text{font-family:Fira Code, 'IBM Plex Mono', monospace;fill:#c8c2f0;}.disp{font-family:Space Grotesk, Helvetica, Arial, sans-serif;}.lbl{font-size:1.9px;letter-spacing:.1px;}.sm{font-size:1.6px;fill:#9b93d6;letter-spacing:.08px;}.tag{font-size:2.4px;letter-spacing:.14px;}</style></defs>
<rect x="0" y="0" width="81.28" height="128.5" fill="url(#bg)"/>
<rect x="0.4" y="0.4" width="80.48" height="127.7" fill="none" stroke="#3a3560" stroke-width="0.3" rx="1.2"/>
<path d="M2.60,4.0 h2.8 M4.00,2.6 v2.8" stroke="#3a3560" stroke-width="0.25"/>
<path d="M75.88,4.0 h2.8 M77.28,2.6 v2.8" stroke="#3a3560" stroke-width="0.25"/>
<path d="M8.60,5.00 L8.00,4.60 L7.40,4.76 L7.20,5.24 L7.56,5.68 L8.16,5.88 L8.44,6.28 L8.24,6.84 L7.60,7.00 L7.00,6.60 M9.32,5.80 L10.44,5.80 M11.16,4.60 L11.16,7.00 M11.16,4.60 L12.28,4.68 L12.52,5.16 L12.20,5.72 L11.16,5.72 M11.16,5.72 L12.36,5.84 L12.56,6.36 L12.24,6.92 L11.16,7.00 M13.32,7.00 L14.12,4.60 L14.92,7.00 M13.64,6.16 L14.60,6.16 M15.48,7.00 L15.48,4.60 L17.08,7.00 L17.08,4.60 M17.64,4.60 L17.64,7.00 M17.64,5.96 L19.24,4.60 M18.20,5.56 L19.24,7.00" fill="none" stroke="#e8e4ff" stroke-width="0.22" stroke-linecap="round" stroke-linejoin="round"/>
<path d="M64.12,5.00 L63.52,4.60 L62.92,4.76 L62.72,5.24 L63.08,5.68 L63.68,5.88 L63.96,6.28 L63.76,6.84 L63.12,7.00 L62.52,6.60 M64.60,4.60 L66.20,4.60 M65.40,4.60 L65.40,7.00 M66.68,7.00 L66.68,4.60 L67.88,4.68 L68.12,5.16 L67.88,5.68 L66.68,5.76 M67.32,5.76 L68.28,7.00 M69.24,4.60 L70.04,4.60 M69.64,4.60 L69.64,7.00 M69.24,7.00 L70.04,7.00 M70.04,4.60 L70.04,7.00 M70.04,5.96 L71.64,4.60 M70.60,5.56 L71.64,7.00 M73.80,4.60 L72.20,4.60 L72.20,7.00 L73.80,7.00 M72.20,5.80 L73.40,5.80" fill="none" stroke="#e8e4ff" stroke-width="0.22" stroke-linecap="round" stroke-linejoin="round"/>
<line x1="7" y1="9" x2="74.28" y2="9" stroke="#3a3560" stroke-width="0.25"/>
<path d="M8.00,124.25 L7.62,124.00 L7.25,124.10 L7.12,124.40 L7.35,124.67 L7.72,124.80 L7.90,125.05 L7.78,125.40 L7.38,125.50 L7.00,125.25 M9.30,124.00 L8.30,124.00 L8.30,125.50 L9.30,125.50 M8.30,124.75 L9.05,124.75 M9.60,125.50 L9.60,124.00 L10.35,124.05 L10.50,124.35 L10.35,124.67 L9.60,124.72 M10.00,124.72 L10.60,125.50 M12.35,124.00 L12.00,124.15 L11.85,124.50 L11.85,125.00 L12.00,125.35 L12.35,125.50 L12.70,125.35 L12.85,125.00 L12.85,124.50 L12.70,124.15 L12.35,124.00 M12.00,125.35 L12.70,124.15 M13.75,124.00 L13.40,124.15 L13.25,124.50 L13.25,125.00 L13.40,125.35 L13.75,125.50 L14.10,125.35 L14.25,125.00 L14.25,124.50 L14.10,124.15 L13.75,124.00 M13.40,125.35 L14.10,124.15 M14.73,124.30 L15.15,124.00 L15.55,124.25 L15.50,124.65 L14.65,125.50 L15.65,125.50" fill="none" stroke="#9b93d6" stroke-width="0.18" stroke-linecap="round" stroke-linejoin="round"/>
<circle cx="73.28" cy="124.8" r="0.9" fill="#FF5A00"/>
<path d="M75.78,124.25 L75.41,124.00 L75.03,124.10 L74.91,124.40 L75.13,124.67 L75.50,124.80 L75.68,125.05 L75.56,125.40 L75.16,125.50 L74.78,125.25 M76.33,124.00 L76.83,124.00 M76.58,124.00 L76.58,125.50 M76.33,125.50 L76.83,125.50 M77.83,124.28 L77.45,124.00 L77.08,124.10 L76.83,124.50 L76.83,125.00 L77.08,125.40 L77.45,125.50 L77.83,125.40 L77.83,124.90 L77.43,124.90 M78.23,125.50 L78.23,124.00 L79.23,125.50 L79.23,124.00 M79.58,125.50 L80.08,124.00 L80.58,125.50 M79.78,124.97 L80.38,124.97 M80.93,124.00 L80.93,125.50 L81.93,125.50 M84.08,124.25 L83.70,124.00 L83.33,124.10 L83.20,124.40 L83.43,124.67 L83.80,124.80 L83.98,125.05 L83.86,125.40 L83.45,125.50 L83.08,125.25 M84.38,124.00 L85.38,124.00 M84.88,124.00 L84.88,125.50 M85.68,125.50 L86.18,124.00 L86.68,125.50 M85.88,124.97 L86.48,124.97 M87.03,124.00 L87.03,125.50 M87.03,124.00 L87.73,124.05 L87.88,124.35 L87.68,124.70 L87.03,124.70 M87.03,124.70 L87.78,124.78 L87.90,125.10 L87.70,125.45 L87.03,125.50 M88.38,124.00 L88.38,125.50 L89.38,125.50 M90.63,124.00 L89.63,124.00 L89.63,125.50 L90.63,125.50 M89.63,124.75 L90.38,124.75" fill="none" stroke="#9b93d6" stroke-width="0.18" stroke-linecap="round" stroke-linejoin="round"/>
<path d="M38.29,124.25 L37.91,124.00 L37.54,124.10 L37.41,124.40 L37.64,124.67 L38.02,124.80 L38.19,125.05 L38.06,125.40 L37.66,125.50 L37.29,125.25 M38.59,125.50 L39.09,124.00 L39.59,125.50 M38.79,124.97 L39.39,124.97 M39.94,125.50 L39.94,124.00 L40.56,124.80 L41.19,124.00 L41.19,125.50 M41.54,124.75 L42.24,124.75 M43.69,124.00 L42.69,124.00 L42.69,125.50 L43.69,125.50 M42.69,124.75 L43.44,124.75" fill="none" stroke="#9b93d6" stroke-width="0.18" stroke-linecap="round" stroke-linejoin="round"/>
<line x1="7" y1="87.0" x2="74.28" y2="87.0" stroke="#2c2748" stroke-width="0.25"/>
<path d="M18.75,11.69 L18.35,11.40 L17.95,11.51 L17.68,11.93 L17.68,12.47 L17.95,12.89 L18.35,13.00 L18.75,12.71 M19.12,11.40 L19.12,13.00 M20.19,11.40 L20.19,13.00 M19.12,12.20 L20.19,12.20 M21.52,13.00 L22.05,11.40 L22.59,13.00 M21.73,12.44 L22.37,12.44" fill="none" stroke="#9b93d6" stroke-width="0.18" stroke-linecap="round" stroke-linejoin="round"/>
<path d="M59.39,11.69 L58.99,11.40 L58.59,11.51 L58.32,11.93 L58.32,12.47 L58.59,12.89 L58.99,13.00 L59.39,12.71 M59.76,11.40 L59.76,13.00 M60.83,11.40 L60.83,13.00 M59.76,12.20 L60.83,12.20 M62.16,11.40 L62.16,13.00 M62.16,11.40 L62.91,11.45 L63.07,11.77 L62.85,12.15 L62.16,12.15 M62.16,12.15 L62.96,12.23 L63.09,12.57 L62.88,12.95 L62.16,13.00" fill="none" stroke="#9b93d6" stroke-width="0.18" stroke-linecap="round" stroke-linejoin="round"/>
<path d="M36.96,108.90 L37.49,108.90 M37.23,108.90 L37.23,110.50 M36.96,110.50 L37.49,110.50 M37.49,110.50 L37.49,108.90 L38.16,109.75 L38.83,108.90 L38.83,110.50 M39.04,110.50 L39.04,108.90 L39.84,108.95 L40.00,109.27 L39.84,109.62 L39.04,109.67 M41.49,108.90 L40.43,108.90 L40.43,110.50 L41.49,110.50 M40.43,109.70 L41.23,109.70 M41.81,110.50 L41.81,108.90 L42.61,108.95 L42.77,109.27 L42.61,109.62 L41.81,109.67 M42.24,109.67 L42.88,110.50 M44.32,108.90 L43.25,108.90 L43.25,110.50 M43.25,109.70 L44.05,109.70" fill="none" stroke="#9b93d6" stroke-width="0.18" stroke-linecap="round" stroke-linejoin="round"/>
<path d="M17.57,14.10 L17.12,14.29 L16.93,14.73 L16.93,15.37 L17.12,15.81 L17.57,16.00 L18.01,15.81 L18.20,15.37 L18.20,14.73 L18.01,14.29 L17.57,14.10 M18.71,16.00 L18.71,14.10 L19.66,14.16 L19.85,14.54 L19.66,14.96 L18.71,15.02 M21.62,14.10 L20.35,14.10 L20.35,16.00 L21.62,16.00 M20.35,15.05 L21.30,15.05 M22.00,16.00 L22.00,14.10 L23.26,16.00 L23.26,14.10" fill="none" stroke="#c8c2f0" stroke-width="0.18" stroke-linecap="round" stroke-linejoin="round"/>
<path d="M16.08,32.10 L16.08,34.00 M16.08,32.10 L16.84,32.20 L17.28,32.73 L17.28,33.37 L16.84,33.91 L16.08,34.00 M19.05,32.10 L17.79,32.10 L17.79,34.00 L19.05,34.00 M17.79,33.05 L18.74,33.05 M20.70,32.45 L20.23,32.10 L19.75,32.23 L19.43,32.73 L19.43,33.37 L19.75,33.87 L20.23,34.00 L20.70,33.65 M21.14,34.00 L21.78,32.10 L22.41,34.00 M21.40,33.34 L22.16,33.34 M22.85,32.10 L23.49,33.11 L24.12,32.10 M23.49,33.11 L23.49,34.00" fill="none" stroke="#c8c2f0" stroke-width="0.18" stroke-linecap="round" stroke-linejoin="round"/>
<path d="M13.92,52.00 L13.92,50.10 L14.72,51.11 L15.51,50.10 L15.51,52.00 M15.76,52.00 L16.39,50.10 L17.03,52.00 M16.01,51.34 L16.77,51.34 M17.47,50.10 L18.74,50.10 M18.10,50.10 L18.10,52.00 M20.38,50.10 L19.12,50.10 L19.12,52.00 L20.38,52.00 M19.12,51.05 L20.07,51.05 M20.76,52.00 L20.76,50.10 L21.71,50.16 L21.90,50.54 L21.71,50.95 L20.76,51.02 M21.27,51.02 L22.03,52.00 M22.79,50.10 L23.42,50.10 M23.11,50.10 L23.11,52.00 M22.79,52.00 L23.42,52.00 M23.42,52.00 L24.06,50.10 L24.69,52.00 M23.68,51.34 L24.44,51.34 M25.13,50.10 L25.13,52.00 L26.40,52.00" fill="none" stroke="#c8c2f0" stroke-width="0.18" stroke-linecap="round" stroke-linejoin="round"/>
<path d="M9.69,66.40 L9.69,68.00 M9.69,66.40 L10.33,66.48 L10.70,66.93 L10.70,67.47 L10.33,67.92 L9.69,68.00 M12.19,66.40 L11.13,66.40 L11.13,68.00 L12.19,68.00 M11.13,67.20 L11.93,67.20 M13.58,66.69 L13.18,66.40 L12.78,66.51 L12.51,66.93 L12.51,67.47 L12.78,67.89 L13.18,68.00 L13.58,67.71" fill="none" stroke="#c8c2f0" stroke-width="0.18" stroke-linecap="round" stroke-linejoin="round"/>
<path d="M27.81,66.69 L27.41,66.40 L27.01,66.51 L26.74,66.93 L26.74,67.47 L27.01,67.89 L27.41,68.00 L27.81,67.71 M28.18,66.40 L29.25,66.40 M28.71,66.40 L28.71,68.00 M29.57,66.40 L29.57,68.00 L30.63,68.00" fill="none" stroke="#c8c2f0" stroke-width="0.18" stroke-linecap="round" stroke-linejoin="round"/>
<path d="M10.47,84.90 L11.00,84.90 M10.73,84.90 L10.73,86.50 M10.47,86.50 L11.00,86.50 M11.00,86.50 L11.00,84.90 L12.07,86.50 L12.07,84.90" fill="none" stroke="#c8c2f0" stroke-width="0.18" stroke-linecap="round" stroke-linejoin="round"/>
<path d="M27.51,84.90 L27.51,86.50 M28.57,84.90 L28.57,86.50 M27.51,85.70 L28.57,85.70 M29.21,84.90 L29.75,84.90 M29.48,84.90 L29.48,86.50 M29.21,86.50 L29.75,86.50 M29.75,84.90 L30.81,84.90 M30.28,84.90 L30.28,86.50" fill="none" stroke="#c8c2f0" stroke-width="0.18" stroke-linecap="round" stroke-linejoin="round"/>
<path d="M9.19,96.90 L9.19,98.50 M9.19,96.90 L9.83,96.98 L10.20,97.43 L10.20,97.97 L9.83,98.42 L9.19,98.50 M11.69,96.90 L10.63,96.90 L10.63,98.50 L11.69,98.50 M10.63,97.70 L11.43,97.70 M13.08,97.19 L12.68,96.90 L12.28,97.01 L12.01,97.43 L12.01,97.97 L12.28,98.39 L12.68,98.50 L13.08,98.21" fill="none" stroke="#c8c2f0" stroke-width="0.18" stroke-linecap="round" stroke-linejoin="round"/>
<path d="M28.31,97.19 L27.91,96.90 L27.51,97.01 L27.24,97.43 L27.24,97.97 L27.51,98.39 L27.91,98.50 L28.31,98.21 M28.68,96.90 L29.75,96.90 M29.21,96.90 L29.21,98.50 M30.07,96.90 L30.07,98.50 L31.13,98.50" fill="none" stroke="#c8c2f0" stroke-width="0.18" stroke-linecap="round" stroke-linejoin="round"/>
<path d="M18.69,108.90 L18.32,109.06 L18.16,109.43 L18.16,109.97 L18.32,110.34 L18.69,110.50 L19.07,110.34 L19.23,109.97 L19.23,109.43 L19.07,109.06 L18.69,108.90 M19.65,108.90 L19.65,110.07 L19.92,110.42 L20.19,110.50 L20.45,110.42 L20.72,110.07 L20.72,108.90 M21.09,108.90 L22.16,108.90 M21.63,108.90 L21.63,110.50" fill="none" stroke="#FF5A00" stroke-width="0.18" stroke-linecap="round" stroke-linejoin="round"/>
<path d="M58.20,14.10 L57.76,14.29 L57.57,14.73 L57.57,15.37 L57.76,15.81 L58.20,16.00 L58.65,15.81 L58.84,15.37 L58.84,14.73 L58.65,14.29 L58.20,14.10 M59.34,16.00 L59.34,14.10 L60.30,14.16 L60.48,14.54 L60.30,14.96 L59.34,15.02 M62.26,14.10 L60.99,14.10 L60.99,16.00 L62.26,16.00 M60.99,15.05 L61.94,15.05 M62.64,16.00 L62.64,14.10 L63.91,16.00 L63.91,14.10" fill="none" stroke="#c8c2f0" stroke-width="0.18" stroke-linecap="round" stroke-linejoin="round"/>
<path d="M56.72,32.10 L56.72,34.00 M56.72,32.10 L57.48,32.20 L57.92,32.73 L57.92,33.37 L57.48,33.91 L56.72,34.00 M59.69,32.10 L58.43,32.10 L58.43,34.00 L59.69,34.00 M58.43,33.05 L59.38,33.05 M61.34,32.45 L60.87,32.10 L60.39,32.23 L60.07,32.73 L60.07,33.37 L60.39,33.87 L60.87,34.00 L61.34,33.65 M61.78,34.00 L62.42,32.10 L63.05,34.00 M62.04,33.34 L62.80,33.34 M63.49,32.10 L64.13,33.11 L64.76,32.10 M64.13,33.11 L64.13,34.00" fill="none" stroke="#c8c2f0" stroke-width="0.18" stroke-linecap="round" stroke-linejoin="round"/>
<path d="M54.56,52.00 L54.56,50.10 L55.35,51.11 L56.15,50.10 L56.15,52.00 M56.40,52.00 L57.03,50.10 L57.67,52.00 M56.65,51.34 L57.41,51.34 M58.11,50.10 L59.38,50.10 M58.74,50.10 L58.74,52.00 M61.02,50.10 L59.76,50.10 L59.76,52.00 L61.02,52.00 M59.76,51.05 L60.71,51.05 M61.40,52.00 L61.40,50.10 L62.35,50.16 L62.54,50.54 L62.35,50.95 L61.40,51.02 M61.91,51.02 L62.67,52.00 M63.43,50.10 L64.06,50.10 M63.75,50.10 L63.75,52.00 M63.43,52.00 L64.06,52.00 M64.06,52.00 L64.70,50.10 L65.33,52.00 M64.32,51.34 L65.08,51.34 M65.77,50.10 L65.77,52.00 L67.04,52.00" fill="none" stroke="#c8c2f0" stroke-width="0.18" stroke-linecap="round" stroke-linejoin="round"/>
<path d="M50.33,66.40 L50.33,68.00 M50.33,66.40 L50.97,66.48 L51.34,66.93 L51.34,67.47 L50.97,67.92 L50.33,68.00 M52.83,66.40 L51.77,66.40 L51.77,68.00 L52.83,68.00 M51.77,67.20 L52.57,67.20 M54.22,66.69 L53.82,66.40 L53.42,66.51 L53.15,66.93 L53.15,67.47 L53.42,67.89 L53.82,68.00 L54.22,67.71" fill="none" stroke="#c8c2f0" stroke-width="0.18" stroke-linecap="round" stroke-linejoin="round"/>
<path d="M68.45,66.69 L68.05,66.40 L67.65,66.51 L67.38,66.93 L67.38,67.47 L67.65,67.89 L68.05,68.00 L68.45,67.71 M68.82,66.40 L69.89,66.40 M69.35,66.40 L69.35,68.00 M70.21,66.40 L70.21,68.00 L71.27,68.00" fill="none" stroke="#c8c2f0" stroke-width="0.18" stroke-linecap="round" stroke-linejoin="round"/>
<path d="M51.11,84.90 L51.64,84.90 M51.37,84.90 L51.37,86.50 M51.11,86.50 L51.64,86.50 M51.64,86.50 L51.64,84.90 L52.71,86.50 L52.71,84.90" fill="none" stroke="#c8c2f0" stroke-width="0.18" stroke-linecap="round" stroke-linejoin="round"/>
<path d="M68.15,84.90 L68.15,86.50 M69.21,84.90 L69.21,86.50 M68.15,85.70 L69.21,85.70 M69.85,84.90 L70.39,84.90 M70.12,84.90 L70.12,86.50 M69.85,86.50 L70.39,86.50 M70.39,84.90 L71.45,84.90 M70.92,84.90 L70.92,86.50" fill="none" stroke="#c8c2f0" stroke-width="0.18" stroke-linecap="round" stroke-linejoin="round"/>
<path d="M49.83,96.90 L49.83,98.50 M49.83,96.90 L50.47,96.98 L50.84,97.43 L50.84,97.97 L50.47,98.42 L49.83,98.50 M52.33,96.90 L51.27,96.90 L51.27,98.50 L52.33,98.50 M51.27,97.70 L52.07,97.70 M53.72,97.19 L53.32,96.90 L52.92,97.01 L52.65,97.43 L52.65,97.97 L52.92,98.39 L53.32,98.50 L53.72,98.21" fill="none" stroke="#c8c2f0" stroke-width="0.18" stroke-linecap="round" stroke-linejoin="round"/>
<path d="M68.95,97.19 L68.55,96.90 L68.15,97.01 L67.88,97.43 L67.88,97.97 L68.15,98.39 L68.55,98.50 L68.95,98.21 M69.32,96.90 L70.39,96.90 M69.85,96.90 L69.85,98.50 M70.71,96.90 L70.71,98.50 L71.77,98.50" fill="none" stroke="#c8c2f0" stroke-width="0.18" stroke-linecap="round" stroke-linejoin="round"/>
<path d="M59.33,108.90 L58.96,109.06 L58.80,109.43 L58.80,109.97 L58.96,110.34 L59.33,110.50 L59.71,110.34 L59.87,109.97 L59.87,109.43 L59.71,109.06 L59.33,108.90 M60.29,108.90 L60.29,110.07 L60.56,110.42 L60.83,110.50 L61.09,110.42 L61.36,110.07 L61.36,108.90 M61.73,108.90 L62.80,108.90 M62.27,108.90 L62.27,110.50" fill="none" stroke="#FF5A00" stroke-width="0.18" stroke-linecap="round" stroke-linejoin="round"/>
</svg>
