<?xml version="1.0" encoding="UTF-8"?>
<!-- Generated by tools/panelgen from the Sam-e panel system. Do not edit by hand; edit the spec and regenerate. -->
<svg xmlns="http://www.w3.org/2000/svg" version="1.1" width="81.28mm" height="128.5mm" viewBox="0 0 81.28 128.5">
<defs><linearGradient id="bg" x1="0" y1="0" x2="0" y2="128.5" gradientUnits="userSpaceOnUse"><stop offset="0" stop-color="#211d3a"/><stop offset="1" stop-color="#15131f"/></linearGradient><style>text{font-family:Fira Code, 'IBM Plex Mono', monospace;fill:#c8c2f0;}.disp{font-family:Space Grotesk, Helvetica, Arial, sans-serif;}.lbl{font-size:1.9px;letter-spacing:.1px;}.sm{font-size:1.6px;fill:#9b93d6;letter-spacing:.08px;}.tag{font-size:2.4px;letter-spacing:.14px;}</style></defs>
<rect x="0" y="0" width="81.28" height="128.5" fill="url(#bg)"/>
<rect x="0.4" y="0.4" width="80.48" height="127.7" fill="none" stroke="#3a3560" stroke-width="0.3" rx="1.2"/>
<path d="M2.60,4.0 h2.8 M4.00,2.6 v2.8" stroke="#3a3560" stroke-width="0.25"/>
<path d="M75.88,4.0 h2.8 M77.28,2.6 v2.8" stroke="#3a3560" stroke-width="0.25"/>
<text x="7" y="7" class="disp tag" font-weight="700" fill="#e8e4ff">S<tspan fill="#FF5A00">-</tspan>BANK</text>
<text x="74.28" y="7" class="disp tag" font-weight="700" text-anchor="end" fill="#e8e4ff">STRIKE</text>
<line x1="7" y1="9" x2="74.28" y2="9" stroke="#3a3560" stroke-width="0.25"/>
<text x="7" y="125.5" class="sm">SER 002</text>
<circle cx="73.28" cy="125.0" r="0.9" fill="#FF5A00"/>
<text x="74.78" y="125.5" class="sm">SIGNAL STABLE</text>
<text x="40.64" y="125.5" class="disp sm" text-anchor="middle" font-weight="600">SAM-e</text>
<line x1="7" y1="87.0" x2="74.28" y2="87.0" stroke="#2c2748" stroke-width="0.25"/>
<text x="20.32" y="13.00" class="sm" text-anchor="middle">CH A</text>
<text x="60.96" y="13.00" class="sm" text-anchor="middle">CH B</text>
<text x="40.64" y="110.50" class="sm" text-anchor="middle">IMPERF</text>
<text x="20.32" y="16.00" class="lbl" text-anchor="middle">OPEN</text>
<text x="20.32" y="34.00" class="lbl" text-anchor="middle">DECAY</text>
<text x="20.32" y="52.00" class="lbl" text-anchor="middle">MATERIAL</text>
<text x="11.82" y="68.00" class="sm" text-anchor="middle">DEC</text>
<text x="28.82" y="68.00" class="sm" text-anchor="middle">CTL</text>
<text x="11.32" y="86.50" class="sm" text-anchor="middle">IN</text>
<text x="29.32" y="86.50" class="sm" text-anchor="middle">HIT</text>
<text x="11.32" y="98.50" class="sm" text-anchor="middle">DEC</text>
<text x="29.32" y="98.50" class="sm" text-anchor="middle">CTL</text>
<text x="20.32" y="110.50" class="sm" fill="#FF5A00" text-anchor="middle">OUT</text>
<text x="60.96" y="16.00" class="lbl" text-anchor="middle">OPEN</text>
<text x="60.96" y="34.00" class="lbl" text-anchor="middle">DECAY</text>
<text x="60.96" y="52.00" class="lbl" text-anchor="middle">MATERIAL</text>
<text x="52.46" y="68.00" class="sm" text-anchor="middle">DEC</text>
<text x="69.46" y="68.00" class="sm" text-anchor="middle">CTL</text>
<text x="51.96" y="86.50" class="sm" text-anchor="middle">IN</text>
<text x="69.96" y="86.50" class="sm" text-anchor="middle">HIT</text>
<text x="51.96" y="98.50" class="sm" text-anchor="middle">DEC</text>
<text x="69.96" y="98.50" class="sm" text-anchor="middle">CTL</text>
<text x="60.96" y="110.50" class="sm" fill="#FF5A00" text-anchor="middle">OUT</text>
</svg>
