<?xml version="1.0" encoding="UTF-8"?>
<!-- Generated by tools/panelgen (Sam-e system v0.4). Edit the spec, not this file. -->
<svg xmlns="http://www.w3.org/2000/svg" version="1.1" width="81.28mm" height="128.5mm" viewBox="0 0 81.28 128.5">
<defs><linearGradient id="bg" x1="0" y1="0" x2="0" y2="128.5" gradientUnits="userSpaceOnUse"><stop offset="0" stop-color="#e2e3e6"/><stop offset="0.5" stop-color="#d2d3d7"/><stop offset="1" stop-color="#bfc0c5"/></linearGradient></defs>
<rect x="0" y="0" width="81.28" height="128.5" fill="url(#bg)"/>
<line x1="2.50" y1="4.00" x2="5.50" y2="4.00" stroke="#2b2733" stroke-width="0.22" stroke-opacity="0.42" stroke-linecap="round"/>
<line x1="4.00" y1="2.50" x2="4.00" y2="5.50" stroke="#2b2733" stroke-width="0.22" stroke-opacity="0.42" stroke-linecap="round"/>
<line x1="75.78" y1="4.00" x2="78.78" y2="4.00" stroke="#2b2733" stroke-width="0.22" stroke-opacity="0.42" stroke-linecap="round"/>
<line x1="77.28" y1="2.50" x2="77.28" y2="5.50" stroke="#2b2733" stroke-width="0.22" stroke-opacity="0.42" stroke-linecap="round"/>
<line x1="2.50" y1="124.50" x2="5.50" y2="124.50" stroke="#2b2733" stroke-width="0.22" stroke-opacity="0.42" stroke-linecap="round"/>
<line x1="4.00" y1="123.00" x2="4.00" y2="126.00" stroke="#2b2733" stroke-width="0.22" stroke-opacity="0.42" stroke-linecap="round"/>
<line x1="75.78" y1="124.50" x2="78.78" y2="124.50" stroke="#2b2733" stroke-width="0.22" stroke-opacity="0.42" stroke-linecap="round"/>
<line x1="77.28" y1="123.00" x2="77.28" y2="126.00" stroke="#2b2733" stroke-width="0.22" stroke-opacity="0.42" stroke-linecap="round"/>
<line x1="40.64" y1="15.50" x2="40.64" y2="102.00" stroke="#2b2733" stroke-width="0.18" stroke-opacity="0.16" stroke-linecap="round"/>
<line x1="39.94" y1="20.00" x2="41.34" y2="20.00" stroke="#2b2733" stroke-width="0.18" stroke-opacity="0.16" stroke-linecap="round"/>
<line x1="39.94" y1="30.00" x2="41.34" y2="30.00" stroke="#2b2733" stroke-width="0.18" stroke-opacity="0.16" stroke-linecap="round"/>
<line x1="39.94" y1="40.00" x2="41.34" y2="40.00" stroke="#2b2733" stroke-width="0.18" stroke-opacity="0.16" stroke-linecap="round"/>
<line x1="39.94" y1="50.00" x2="41.34" y2="50.00" stroke="#2b2733" stroke-width="0.18" stroke-opacity="0.16" stroke-linecap="round"/>
<line x1="39.94" y1="60.00" x2="41.34" y2="60.00" stroke="#2b2733" stroke-width="0.18" stroke-opacity="0.16" stroke-linecap="round"/>
<line x1="39.94" y1="70.00" x2="41.34" y2="70.00" stroke="#2b2733" stroke-width="0.18" stroke-opacity="0.16" stroke-linecap="round"/>
<line x1="39.94" y1="80.00" x2="41.34" y2="80.00" stroke="#2b2733" stroke-width="0.18" stroke-opacity="0.16" stroke-linecap="round"/>
<line x1="39.94" y1="90.00" x2="41.34" y2="90.00" stroke="#2b2733" stroke-width="0.18" stroke-opacity="0.16" stroke-linecap="round"/>
<line x1="39.94" y1="100.00" x2="41.34" y2="100.00" stroke="#2b2733" stroke-width="0.18" stroke-opacity="0.16" stroke-linecap="round"/>
<path d="M40.64,56.90 L41.74,58.00 L40.64,59.10 L39.54,58.00 Z" fill="none" stroke="#2b2733" stroke-width="0.18" stroke-opacity="0.22"/>
<line x1="9.32" y1="15.50" x2="11.72" y2="15.50" stroke="#2b2733" stroke-width="0.22" stroke-opacity="0.3" stroke-linecap="round"/><line x1="9.32" y1="15.50" x2="9.32" y2="17.90" stroke="#2b2733" stroke-width="0.22" stroke-opacity="0.3" stroke-linecap="round"/><line x1="31.32" y1="15.50" x2="28.92" y2="15.50" stroke="#2b2733" stroke-width="0.22" stroke-opacity="0.3" stroke-linecap="round"/><line x1="31.32" y1="15.50" x2="31.32" y2="17.90" stroke="#2b2733" stroke-width="0.22" stroke-opacity="0.3" stroke-linecap="round"/><line x1="9.32" y1="121.00" x2="11.72" y2="121.00" stroke="#2b2733" stroke-width="0.22" stroke-opacity="0.3" stroke-linecap="round"/><line x1="9.32" y1="121.00" x2="9.32" y2="118.60" stroke="#2b2733" stroke-width="0.22" stroke-opacity="0.3" stroke-linecap="round"/><line x1="31.32" y1="121.00" x2="28.92" y2="121.00" stroke="#2b2733" stroke-width="0.22" stroke-opacity="0.3" stroke-linecap="round"/><line x1="31.32" y1="121.00" x2="31.32" y2="118.60" stroke="#2b2733" stroke-width="0.22" stroke-opacity="0.3" stroke-linecap="round"/>
<line x1="49.96" y1="15.50" x2="52.36" y2="15.50" stroke="#2b2733" stroke-width="0.22" stroke-opacity="0.3" stroke-linecap="round"/><line x1="49.96" y1="15.50" x2="49.96" y2="17.90" stroke="#2b2733" stroke-width="0.22" stroke-opacity="0.3" stroke-linecap="round"/><line x1="71.96" y1="15.50" x2="69.56" y2="15.50" stroke="#2b2733" stroke-width="0.22" stroke-opacity="0.3" stroke-linecap="round"/><line x1="71.96" y1="15.50" x2="71.96" y2="17.90" stroke="#2b2733" stroke-width="0.22" stroke-opacity="0.3" stroke-linecap="round"/><line x1="49.96" y1="121.00" x2="52.36" y2="121.00" stroke="#2b2733" stroke-width="0.22" stroke-opacity="0.3" stroke-linecap="round"/><line x1="49.96" y1="121.00" x2="49.96" y2="118.60" stroke="#2b2733" stroke-width="0.22" stroke-opacity="0.3" stroke-linecap="round"/><line x1="71.96" y1="121.00" x2="69.56" y2="121.00" stroke="#2b2733" stroke-width="0.22" stroke-opacity="0.3" stroke-linecap="round"/><line x1="71.96" y1="121.00" x2="71.96" y2="118.60" stroke="#2b2733" stroke-width="0.22" stroke-opacity="0.3" stroke-linecap="round"/>
<path d="M 7.927 5.442 Q 7.684 5.442 7.498 5.355 Q 7.312 5.268 7.207 5.106 Q 7.102 4.944 7.102 4.716 V 6.232 H 5.892 V 6.316 Q 5.892 6.505 6.009 6.599 Q 6.126 6.694 6.327 6.694 Q 6.531 6.694 6.632 6.613 Q 6.732 6.532 6.732 6.406 Q 6.732 6.319 6.683 6.265 Q 6.633 6.211 6.539 6.176 Q 6.444 6.142 6.309 6.112 L 6.240 6.097 Q 6.024 6.049 5.870 5.976 Q 5.715 5.902 5.633 5.782 Q 5.550 5.662 5.550 5.470 Q 5.550 5.278 5.642 5.141 Q 5.733 5.005 5.900 4.931 Q 6.066 4.858 6.291 4.858 Q 6.516 4.858 6.692 4.934 Q 6.867 5.011 6.968 5.162 Q 7.068 5.314 7.068 5.542 V 4.032 H 8.278 V 3.942 Q 8.278 3.822 8.232 3.748 Q 8.185 3.675 8.098 3.641 Q 8.011 3.606 7.891 3.606 Q 7.711 3.606 7.625 3.674 Q 7.540 3.741 7.540 3.858 Q 7.540 3.936 7.580 3.990 Q 7.621 4.044 7.702 4.080 Q 7.783 4.116 7.909 4.143 L 7.978 4.158 Q 8.203 4.206 8.370 4.281 Q 8.536 4.356 8.629 4.479 Q 8.722 4.602 8.722 4.794 Q 8.722 4.986 8.624 5.131 Q 8.527 5.277 8.348 5.360 Q 8.170 5.442 7.927 5.442 Z M 9.022 4.806 V 7.882 H 6.492 V 8.224 Z" fill="#E8500A" fill-rule="nonzero"/>
<path d="M 10.852 5.400 V 10.366 H 5.814 V 8.962 H 5.538 V 8.614 H 6.618 Q 12.124 3.300 12.266 3.365 Q 12.409 3.429 12.488 3.548 Q 12.568 3.666 12.568 3.831 V 9.175 Q 7.254 9.319 7.200 9.410 Q 7.146 9.502 7.073 9.551 Q 6.999 9.601 6.933 9.622 V 4.362 Q 12.313 4.380 12.391 4.429 Q 12.469 4.479 12.524 4.572 Q 12.580 4.665 12.580 4.815 V 10.159 Q 7.266 10.333 7.185 10.457 Q 7.104 10.582 6.962 10.648 Q 6.819 10.714 6.630 10.714 Z M 6.210 10.354 H 6.582 Q 12.025 5.040 12.104 4.977 Q 12.184 4.914 12.184 4.797 V 10.081 Q 6.870 9.964 6.792 9.901 Q 6.714 9.838 6.582 9.838 H 6.210 Z M 11.524 4.164 H 11.890 Q 6.699 9.478 6.779 9.415 Q 6.858 9.352 6.858 9.241 V 3.897 Q 12.172 3.783 12.094 3.721 Q 12.016 3.660 11.890 3.660 H 11.524 Z M 12.760 5.400 13.312 3.300 H 14.002 L 7.248 12.706 H 6.840 L 14.032 4.938 H 13.282 L 5.862 12.706 Z M 6.069 11.878 H 6.633 L 13.684 3.549 H 13.630 Z M 14.806 5.400 V 12.508 H 6.351 L 15.976 5.130 H 16.030 V 3.300 H 16.420 V 5.400 H 15.667 L 6.042 12.778 H 5.988 V 14.608 Z M 16.816 5.400 V 14.518 H 5.994 V 15.352 H 6.048 L 17.947 3.300 H 18.454 L 6.360 15.553 L 7.266 16.618 H 6.744 L 17.266 4.548 H 17.212 V 5.400 Z" fill="#17141c" fill-rule="nonzero"/>
<path d="M 8.589 10.672 Q 8.173 10.672 7.854 10.523 Q 7.535 10.374 7.355 10.096 Q 7.175 9.818 7.175 9.427 V 5.683 H 11.443 V 5.827 Q 11.443 6.151 11.644 6.313 Q 11.845 6.475 12.189 6.475 Q 12.539 6.475 12.711 6.337 Q 12.883 6.198 12.883 5.982 Q 12.883 5.833 12.799 5.740 Q 12.714 5.647 12.552 5.588 Q 12.390 5.529 12.158 5.478 L 12.040 5.452 Q 11.670 5.370 11.405 5.244 Q 11.140 5.118 10.999 4.912 Q 10.857 4.706 10.857 4.377 Q 10.857 4.048 11.014 3.814 Q 11.171 3.580 11.456 3.454 Q 11.742 3.328 12.127 3.328 Q 12.513 3.328 12.814 3.459 Q 13.115 3.590 13.287 3.850 Q 13.459 4.110 13.459 4.501 V 8.255 H 9.191 V 8.101 Q 9.191 7.895 9.111 7.769 Q 9.031 7.643 8.882 7.584 Q 8.733 7.525 8.527 7.525 Q 8.219 7.525 8.072 7.640 Q 7.926 7.756 7.926 7.957 Q 7.926 8.090 7.995 8.183 Q 8.065 8.275 8.203 8.337 Q 8.342 8.399 8.558 8.445 L 8.677 8.471 Q 9.062 8.553 9.348 8.682 Q 9.633 8.810 9.793 9.021 Q 9.952 9.232 9.952 9.561 Q 9.952 9.890 9.785 10.140 Q 9.618 10.389 9.312 10.531 Q 9.006 10.672 8.589 10.672 Z M 11.289 10.600 V 7.134 H 10.723 V 6.517 H 13.501 V 7.134 H 12.451 V 10.117 Z M 13.480 10.600 V 9.541 H 12.503 Q 15.383 7.000 15.635 7.118 Q 15.887 7.237 16.026 7.453 Q 16.165 7.669 16.165 7.962 V 10.564 Q 13.624 10.888 13.470 11.089 Q 13.315 11.289 13.089 11.382 V 8.934 Q 15.835 8.944 15.949 9.075 Q 16.062 9.206 16.062 9.422 V 13.141 H 12.842 V 12.061 Q 12.842 11.937 12.778 11.860 Q 12.714 11.783 12.565 11.783 H 11.618 V 13.141 Z M 11.618 11.166 H 12.431 Q 15.213 8.625 15.349 8.494 Q 15.486 8.363 15.486 8.147 V 10.636 Q 12.945 10.420 12.811 10.289 Q 12.678 10.158 12.431 10.158 H 11.618 Z M 16.730 10.600 V 12.791 H 11.618 V 16.391 Z M 18.088 10.600 V 14.149 H 11.618 V 15.578 H 11.711 L 20.027 7.000 H 20.896 L 12.246 15.923 L 13.799 17.749 H 12.904 L 18.859 9.139 H 18.767 V 10.600 Z M 21.307 10.600 V 17.368 H 13.254 V 17.985 H 11.618 V 18.844 H 13.110 V 19.461 H 11.618 V 20.351 H 13.285 V 20.968 Z" fill="#17141c" fill-rule="nonzero"/>
<path d="M 59.539 3.900 V 58.441 H 6.569 V 58.661 H 5.633 V 58.441 H 5.997 V 57.450 L 5.677 57.648 L 5.554 57.450 L 6.025 57.161 Z M 60.711 3.867 Q 60.807 3.867 60.885 3.892 Q 60.964 3.916 61.027 3.961 L 60.917 4.139 Q 60.872 4.107 60.820 4.092 Q 60.768 4.077 60.715 4.077 Q 60.617 4.077 60.544 4.141 Q 60.471 4.205 60.430 4.324 Q 60.396 4.426 60.389 4.563 Q 60.452 4.488 60.529 4.450 Q 60.621 4.404 60.721 4.404 Q 60.837 4.404 60.933 4.460 Q 61.028 4.516 61.085 4.625 Q 61.142 4.733 61.142 4.892 Q 61.142 5.049 61.078 5.171 Q 61.014 5.293 60.898 5.363 Q 60.783 5.433 60.631 5.433 Q 60.486 5.433 60.384 5.378 Q 60.282 5.323 60.218 5.225 Q 60.154 5.127 60.124 4.995 Q 60.094 4.863 60.094 4.711 Q 60.094 4.460 60.168 4.269 Q 60.242 4.079 60.380 3.973 Q 60.518 3.867 60.711 3.867 Z M 60.390 4.758 Q 60.395 4.981 60.443 5.095 Q 60.497 5.222 60.633 5.222 Q 60.746 5.222 60.800 5.133 Q 60.854 5.044 60.854 4.908 Q 60.854 4.797 60.830 4.732 Q 60.805 4.668 60.760 4.639 Q 60.716 4.610 60.653 4.610 Q 60.568 4.610 60.494 4.659 Q 60.436 4.698 60.390 4.758 Z M 62.132 5.400 V 60.605 H 5.834 V 61.264 H 5.537 V 59.764 H 5.834 V 60.361 H 6.268 V 59.764 H 6.565 V 61.264 Z M 63.493 4.380 Q 63.493 4.287 63.458 4.229 Q 63.423 4.171 63.356 4.144 Q 63.288 4.117 63.194 4.117 H 63.039 V 4.660 H 63.203 Q 6.126 61.826 6.190 61.799 Q 6.255 61.771 6.291 61.709 Q 6.327 61.647 6.327 61.547 Z M 6.635 61.544 Q 6.635 61.719 6.561 61.830 Q 6.487 61.941 6.353 61.994 Q 6.220 62.047 6.045 62.047 H 5.873 V 62.566 H 5.576 V 61.066 H 6.017 Q 63.475 3.900 63.638 4.018 Q 63.801 4.136 63.801 4.378 Z M 65.475 5.636 65.249 5.533 66.167 3.633 66.390 3.738 Z M 68.980 4.969 Q 68.980 5.106 68.911 5.210 Q 68.841 5.314 68.709 5.373 Q 68.578 5.433 68.392 5.433 Q 68.196 5.433 68.056 5.375 Q 67.917 5.316 67.822 5.225 L 67.978 5.051 Q 68.060 5.123 68.161 5.165 Q 68.261 5.206 68.387 5.206 Q 68.467 5.206 68.532 5.181 Q 68.597 5.156 68.634 5.108 Q 68.671 5.059 68.671 4.989 Q 68.671 4.927 68.645 4.885 Q 68.619 4.843 68.556 4.809 Q 68.492 4.775 68.380 4.742 Q 68.214 4.691 68.106 4.629 Q 67.999 4.568 67.947 4.484 Q 67.895 4.400 67.895 4.285 Q 67.895 4.156 67.966 4.062 Q 68.038 3.968 68.160 3.918 Q 68.282 3.867 68.433 3.867 Q 68.600 3.867 68.727 3.916 Q 68.854 3.964 68.950 4.053 L 68.802 4.221 Q 68.725 4.155 68.635 4.123 Q 68.546 4.092 68.453 4.092 Q 68.381 4.092 68.324 4.111 Q 68.267 4.131 68.234 4.169 Q 68.202 4.207 68.202 4.266 Q 68.202 4.319 68.232 4.356 Q 68.261 4.393 68.334 4.425 Q 68.407 4.457 68.534 4.498 Q 68.667 4.538 68.767 4.594 Q 68.868 4.651 68.924 4.740 Q 68.980 4.830 68.980 4.969 Z M 69.267 4.835 V 68.281 H 6.508 V 68.509 Z M 71.026 3.867 Q 71.285 3.867 71.418 4.072 Q 71.550 4.276 71.550 4.647 Q 71.550 5.019 71.418 5.226 Q 71.285 5.433 71.026 5.433 Q 70.766 5.433 70.634 5.226 Q 70.502 5.019 70.502 4.647 Q 70.502 4.276 70.634 4.072 Q 70.766 3.867 71.026 3.867 Z M 71.026 4.080 Q 70.904 4.080 70.841 4.211 Q 70.779 4.341 70.779 4.647 Q 70.779 4.816 70.792 4.927 Q 70.795 4.956 70.799 4.982 L 71.199 4.160 Q 71.187 4.143 71.173 4.129 Q 71.118 4.080 71.026 4.080 Z M 70.871 5.161 Q 70.888 5.181 70.910 5.193 Q 70.957 5.220 71.026 5.220 Q 71.109 5.220 71.163 5.164 Q 71.218 5.108 71.245 4.982 Q 71.272 4.856 71.272 4.647 Q 71.272 4.478 71.258 4.366 Z M 72.328 3.867 Q 72.587 3.867 72.719 4.072 Q 72.852 4.276 72.852 4.647 Q 72.852 5.019 72.719 5.226 Q 72.587 5.433 72.328 5.433 Q 72.067 5.433 71.936 5.226 Q 71.804 5.019 71.804 4.647 Q 71.804 4.276 71.936 4.072 Q 72.067 3.867 72.328 3.867 Z M 72.328 4.080 Q 72.205 4.080 72.143 4.211 Q 72.080 4.341 72.080 4.647 Q 72.080 4.816 72.093 4.927 Q 72.097 4.956 72.101 4.982 L 72.500 4.160 Q 72.488 4.143 72.474 4.129 Q 72.420 4.080 72.328 4.080 Z M 72.173 5.161 Q 72.190 5.181 72.212 5.193 Q 72.258 5.220 72.328 5.220 Q 72.410 5.220 72.465 5.164 Q 72.520 5.108 72.547 4.982 Q 72.574 4.856 72.574 4.647 Q 72.574 4.478 72.560 4.366 Z M 73.572 3.867 Q 73.733 3.867 73.843 3.925 Q 73.954 3.982 74.010 4.080 Q 74.066 4.177 74.066 4.293 Q 74.066 4.388 74.034 4.479 Q 74.001 4.570 73.928 4.671 Q 73.855 4.772 73.734 4.895 Q 73.614 5.018 73.437 5.175 H 74.101 L 6.491 72.978 H 5.531 V 72.769 Q 5.686 72.619 5.799 72.505 Q 5.912 72.391 5.988 72.303 Q 6.065 72.215 6.110 72.145 Q 6.155 72.075 6.174 72.014 Q 6.194 71.954 6.194 71.893 Q 6.194 71.790 6.135 71.730 Q 6.076 71.670 5.969 71.670 Q 5.875 71.670 5.809 71.707 Q 5.744 71.743 5.681 71.824 L 5.501 71.688 Q 5.587 71.573 5.705 71.509 Q 5.823 71.446 5.993 71.446 Z" fill="#6c6d72" fill-rule="nonzero"/>
<path d="M 53.272 7.293 Q 53.272 7.138 53.244 7.041 Q 53.215 6.945 53.165 6.894 Q 53.115 6.843 53.053 6.825 Q 52.990 6.807 52.922 6.807 H 52.819 V 7.795 H 52.923 Q 8.580 52.208 8.643 52.186 Q 8.707 52.164 8.755 52.109 Q 8.804 52.054 8.831 51.956 Q 8.858 51.858 8.858 51.707 Z M 9.148 51.707 Q 9.148 51.879 9.111 52.002 Q 9.074 52.124 9.009 52.205 Q 8.944 52.285 8.860 52.331 Q 8.775 52.377 8.680 52.395 Q 8.584 52.414 8.486 52.414 H 8.128 V 51.014 H 8.462 Q 53.006 6.600 53.129 6.628 Q 53.251 6.656 53.349 6.730 Q 53.446 6.803 53.504 6.940 Q 53.562 7.076 53.562 7.293 Z M 54.737 6.600 V 53.165 Q 9.108 53.308 9.050 53.420 Q 8.992 53.532 8.881 53.595 Q 8.769 53.659 8.606 53.659 Q 8.442 53.659 8.331 53.597 Q 8.220 53.535 8.163 53.423 Q 8.106 53.312 8.106 53.165 V 6.600 H 54.012 V 7.458 Q 54.012 7.638 54.061 7.727 Q 54.110 7.817 54.235 7.817 Q 54.362 7.817 54.410 7.727 Q 54.459 7.638 54.459 7.458 V 52.229 Z M 55.678 7.679 H 55.217 L 8.286 54.844 H 8.000 L 55.282 6.600 H 55.622 L 9.216 54.844 H 8.921 Z M 55.267 7.472 H 55.626 L 8.603 53.651 Z M 56.277 8.000 V 54.658 H 8.496 V 55.834 H 9.114 L 57.142 8.000 Z M 58.707 8.000 V 57.088 H 8.496 V 58.263 H 9.114 L 59.572 8.000 Z M 60.855 7.299 Q 60.855 7.518 60.793 7.683 Q 60.732 7.847 60.611 7.939 Q 60.489 8.030 60.310 8.030 Q 60.132 8.030 60.010 7.941 Q 59.888 7.851 59.827 7.688 Q 59.765 7.524 59.765 7.301 Q 59.765 7.082 59.827 6.917 Q 59.888 6.753 60.010 6.661 Q 60.132 6.570 60.310 6.570 Q 60.489 6.570 60.611 6.659 Q 60.732 6.748 60.793 6.912 Q 60.855 7.076 60.855 7.299 Z M 60.569 7.299 Q 60.569 7.034 60.509 6.906 Q 60.449 6.778 60.310 6.778 Q 60.171 6.778 60.111 6.907 Q 60.051 7.035 60.051 7.301 Q 60.051 7.567 60.113 7.694 Q 60.174 7.821 60.310 7.821 Q 60.451 7.821 60.510 7.692 Q 60.569 7.564 60.569 7.299 Z M 62.133 6.600 61.952 8.000 H 61.647 L 8.607 59.897 L 8.478 60.917 H 8.167 L 60.916 6.600 H 61.181 L 8.346 60.665 L 8.480 59.679 H 8.741 L 61.785 7.748 L 61.888 6.600 Z M 62.312 7.473 V 61.392 H 9.035 V 61.605 Z M 64.212 7.048 Q 64.212 6.961 64.180 6.907 Q 64.147 6.853 64.084 6.828 Q 64.021 6.802 63.933 6.802 H 63.788 V 7.310 H 63.941 Q 8.677 62.657 8.737 62.631 Q 8.798 62.605 8.832 62.547 Q 8.866 62.490 8.866 62.395 Z M 9.153 62.393 Q 9.153 62.556 9.084 62.660 Q 9.014 62.764 8.890 62.813 Q 8.765 62.862 8.602 62.862 H 8.441 V 63.347 H 8.164 V 61.947 H 8.576 Q 64.195 6.600 64.348 6.710 Q 64.500 6.821 64.500 7.046 Z M 65.396 7.679 H 64.935 L 8.286 64.562 H 8.000 L 65.000 6.600 H 65.340 L 9.216 64.562 H 8.921 Z M 64.985 7.472 H 65.344 L 8.603 63.369 Z M 66.904 7.598 Q 66.904 7.726 66.839 7.823 Q 66.774 7.920 66.651 7.975 Q 66.529 8.030 66.355 8.030 Q 66.172 8.030 66.042 7.976 Q 65.911 7.922 65.823 7.837 L 65.969 7.674 Q 66.045 7.742 66.139 7.780 Q 66.233 7.819 66.351 7.819 Q 66.425 7.819 66.486 7.796 Q 66.546 7.772 66.581 7.727 Q 66.616 7.682 66.616 7.616 Q 66.616 7.559 66.591 7.519 Q 66.567 7.480 66.508 7.448 Q 66.449 7.417 66.343 7.386 Q 66.189 7.338 66.088 7.281 Q 65.988 7.224 65.940 7.145 Q 65.891 7.067 65.891 6.959 Q 65.891 6.839 65.958 6.751 Q 66.025 6.664 66.138 6.617 Q 66.252 6.570 66.393 6.570 Q 66.549 6.570 66.667 6.615 Q 66.786 6.660 66.876 6.743 L 66.737 6.900 Q 66.665 6.838 66.582 6.809 Q 66.498 6.779 66.412 6.779 Q 66.344 6.779 66.291 6.797 Q 66.238 6.816 66.208 6.851 Q 66.177 6.886 66.177 6.941 Q 66.177 6.991 66.205 7.026 Q 66.233 7.061 66.301 7.090 Q 66.369 7.120 66.487 7.158 Q 66.612 7.195 66.705 7.248 Q 66.799 7.301 66.852 7.384 Q 66.904 7.468 66.904 7.598 Z M 68.119 7.598 Q 68.119 7.726 68.054 7.823 Q 67.988 7.920 67.866 7.975 Q 67.743 8.030 67.569 8.030 Q 67.387 8.030 67.257 7.976 Q 67.126 7.922 67.038 7.837 L 67.184 7.674 Q 67.260 7.742 67.354 7.780 Q 67.448 7.819 67.565 7.819 Q 67.640 7.819 67.700 7.796 Q 67.761 7.772 67.796 7.727 Q 67.831 7.682 67.831 7.616 Q 67.831 7.559 67.806 7.519 Q 67.782 7.480 67.723 7.448 Q 67.663 7.417 67.558 7.386 Q 67.403 7.338 67.303 7.281 Q 67.203 7.224 67.154 7.145 Q 67.106 7.067 67.106 6.959 Q 67.106 6.839 67.173 6.751 Q 67.239 6.664 67.353 6.617 Q 67.467 6.570 67.608 6.570 Q 67.764 6.570 67.882 6.615 Q 68.001 6.660 68.091 6.743 L 67.952 6.900 Q 67.880 6.838 67.797 6.809 Q 67.713 6.779 67.627 6.779 Q 67.559 6.779 67.506 6.797 Q 67.453 6.816 67.423 6.851 Q 67.392 6.886 67.392 6.941 Q 67.392 6.991 67.420 7.026 Q 67.448 7.061 67.516 7.090 Q 67.584 7.120 67.702 7.158 Q 67.826 7.195 67.920 7.248 Q 68.014 7.301 68.066 7.384 Q 68.119 7.468 68.119 7.598 Z M 70.072 8.030 Q 69.885 8.030 69.753 7.947 Q 69.621 7.864 69.552 7.701 Q 69.483 7.538 69.483 7.297 Q 69.483 7.118 69.532 6.982 Q 69.582 6.846 69.668 6.754 Q 69.755 6.663 69.869 6.616 Q 69.983 6.570 70.110 6.570 Q 70.258 6.570 70.358 6.614 Q 70.458 6.659 70.540 6.736 L 70.390 6.891 Q 70.326 6.833 70.263 6.805 Q 70.200 6.778 70.121 6.778 Q 70.049 6.778 69.985 6.807 Q 69.922 6.835 69.874 6.897 Q 69.826 6.958 69.798 7.058 Q 69.771 7.157 69.771 7.299 Q 69.771 7.489 69.805 7.604 Q 69.839 7.719 69.907 7.770 Q 69.976 7.821 70.079 7.821 Q 70.137 7.821 70.188 7.807 Q 70.239 7.793 70.285 7.770 V 68.834 H 8.654 L 70.046 7.210 H 70.550 V 7.896 Q 70.448 7.955 70.332 7.993 Q 70.217 8.030 70.072 8.030 Z M 71.470 7.679 H 71.009 L 8.286 70.636 H 8.000 L 71.074 6.600 H 71.414 L 9.216 70.636 H 8.921 Z M 71.059 7.472 H 71.418 L 8.603 69.443 Z M 72.593 6.818 V 71.850 H 8.467 V 70.668 H 8.058 V 70.450 H 9.164 L 72.986 6.818 Z M 73.554 6.804 V 72.253 H 8.985 V 72.455 H 8.489 V 72.862 H 9.091 V 73.065 H 8.212 V 71.665 H 9.084 L 74.121 6.804 Z" fill="#6c6d72" fill-rule="nonzero"/>
<path d="M 62.555 10.175 H 63.246 L 11.483 62.132 H 10.502 V 61.922 L 11.193 60.951 H 10.575 V 60.732 H 11.504 V 60.945 Z M 63.836 9.204 V 62.535 H 11.385 V 62.737 H 10.889 V 63.144 H 11.491 V 63.347 H 10.612 V 61.947 H 11.484 L 64.403 9.204 Z M 65.681 9.414 Q 65.681 9.515 65.641 9.591 Q 65.601 9.667 65.533 9.719 Q 65.465 9.770 65.380 9.799 L 65.763 10.400 H 65.445 L 10.953 64.004 H 10.825 V 64.562 H 10.549 V 63.162 H 10.961 Q 65.399 9.000 65.540 9.102 Q 65.681 9.204 65.681 9.414 Z M 65.394 9.414 Q 65.394 9.301 65.328 9.251 Q 65.262 9.200 65.130 9.200 H 64.987 V 9.646 H 65.139 Q 11.099 63.808 11.166 63.753 Q 11.232 63.698 11.232 63.576 Z M 66.929 9.699 Q 66.929 9.918 66.867 10.083 Q 66.806 10.247 66.685 10.339 Q 66.563 10.430 66.384 10.430 Q 66.206 10.430 66.084 10.341 Q 65.962 10.251 65.901 10.088 Q 65.839 9.924 65.839 9.701 Q 65.839 9.482 65.901 9.317 Q 65.962 9.153 66.084 9.061 Q 66.206 8.970 66.384 8.970 Q 66.563 8.970 66.685 9.059 Q 66.806 9.148 66.867 9.312 Q 66.929 9.476 66.929 9.699 Z M 66.643 9.699 Q 66.643 9.434 66.583 9.306 Q 66.523 9.178 66.384 9.178 Q 66.245 9.178 66.185 9.307 Q 66.125 9.435 66.125 9.701 Q 66.125 9.967 66.187 10.094 Q 66.248 10.221 66.384 10.221 Q 66.525 10.221 66.584 10.092 Q 66.643 9.964 66.643 9.699 Z M 69.052 9.987 Q 69.052 9.902 69.019 9.854 Q 68.987 9.807 68.929 9.787 Q 68.871 9.767 68.797 9.767 H 68.625 V 10.192 H 68.785 Q 11.029 67.999 11.076 67.990 Q 11.124 67.982 11.163 67.961 Q 11.202 67.939 11.224 67.898 Q 11.246 67.858 11.246 67.793 Z M 11.193 67.187 Q 11.193 67.092 11.133 67.050 Q 11.074 67.009 10.959 67.009 H 10.819 V 67.378 H 10.971 Q 68.890 9.572 68.945 9.527 Q 68.999 9.482 68.999 9.381 Z M 69.340 9.994 Q 69.340 10.113 69.294 10.191 Q 69.248 10.270 69.169 10.316 Q 69.090 10.362 68.990 10.381 Q 68.890 10.400 68.782 10.400 H 68.348 V 9.000 H 68.757 Q 11.054 66.806 11.147 66.823 Q 11.240 66.841 11.314 66.882 Q 11.387 66.923 11.430 66.991 Q 11.473 67.060 11.473 67.162 Q 11.473 67.248 11.437 67.310 Q 11.401 67.372 11.342 67.410 Q 11.283 67.448 11.215 67.465 Q 11.291 67.477 11.364 67.512 Q 11.438 67.547 11.486 67.616 Q 11.534 67.686 11.534 67.800 Z M 69.640 10.400 V 68.021 H 10.896 V 69.196 H 11.514 L 70.505 10.400 Z M 71.125 9.204 V 69.824 H 11.385 V 70.025 H 10.889 V 70.432 H 11.491 V 70.636 H 10.612 V 69.236 H 11.484 L 71.691 9.204 Z M 72.339 9.204 V 71.039 H 11.385 V 71.240 H 10.889 V 71.647 H 11.491 V 71.850 H 10.612 V 70.450 H 11.484 L 72.906 9.204 Z M 73.924 9.693 Q 73.924 9.538 73.895 9.441 Q 73.866 9.345 73.816 9.294 Q 73.767 9.243 73.704 9.225 Q 73.641 9.207 73.573 9.207 H 73.470 V 10.195 H 73.574 Q 10.980 72.860 11.043 72.837 Q 11.107 72.815 11.155 72.760 Q 11.204 72.705 11.231 72.607 Q 11.258 72.509 11.258 72.359 Z M 11.548 72.359 Q 11.548 72.531 11.511 72.653 Q 11.474 72.776 11.409 72.856 Q 11.344 72.937 11.260 72.982 Q 11.175 73.028 11.080 73.046 Q 10.984 73.065 10.886 73.065 H 10.528 V 71.665 H 10.862 Q 73.657 9.000 73.780 9.028 Q 73.902 9.056 74.000 9.130 Q 74.098 9.203 74.155 9.340 Q 74.213 9.476 74.213 9.693 Z" fill="#6c6d72" fill-rule="nonzero"/>
<line x1="7.00" y1="12.20" x2="74.28" y2="12.20" stroke="#2b2733" stroke-width="0.25" stroke-opacity="0.34" stroke-linecap="round"/>
<line x1="11.82" y1="73.00" x2="28.82" y2="73.00" stroke="#0E93A6" stroke-width="0.18" stroke-opacity="0.32" stroke-linecap="round"/>
<path d="M 19.830 67.970 Q 19.976 67.970 20.077 68.008 Q 20.178 68.046 20.264 68.116 L 20.124 68.283 Q 20.064 68.233 19.992 68.207 Q 19.921 68.180 19.840 68.180 Q 19.743 68.180 19.661 68.232 Q 19.580 68.283 19.531 68.397 Q 19.482 68.511 19.482 68.697 Q 19.482 68.881 19.529 68.994 Q 19.576 69.107 19.657 69.160 Q 19.739 69.212 19.842 69.212 Q 19.951 69.212 20.023 69.173 Q 20.095 69.135 20.153 69.089 L 20.284 69.254 Q 20.210 69.327 20.099 69.379 Q 19.988 69.430 19.830 69.430 Q 19.647 69.430 19.503 69.346 Q 19.359 69.262 19.277 69.099 Q 19.195 68.936 19.195 68.697 Q 19.195 68.463 19.280 68.300 Q 19.364 68.138 19.509 68.054 Q 19.653 67.970 19.830 67.970 Z M 20.932 69.162 21.236 68.000 H 21.520 L 70.172 20.320 H 69.842 L 20.337 68.000 H 20.632 Z" fill="#0E93A6" fill-rule="nonzero"/>
<line x1="52.46" y1="73.00" x2="69.46" y2="73.00" stroke="#0E93A6" stroke-width="0.18" stroke-opacity="0.32" stroke-linecap="round"/>
<path d="M 60.470 67.970 Q 60.616 67.970 60.717 68.008 Q 60.818 68.046 60.904 68.116 L 60.764 68.283 Q 60.704 68.233 60.632 68.207 Q 60.561 68.180 60.480 68.180 Q 60.383 68.180 60.301 68.232 Q 60.220 68.283 60.171 68.397 Q 60.122 68.511 60.122 68.697 Q 60.122 68.881 60.169 68.994 Q 60.216 69.107 60.297 69.160 Q 60.379 69.212 60.482 69.212 Q 60.591 69.212 60.663 69.173 Q 60.735 69.135 60.793 69.089 L 60.924 69.254 Q 60.850 69.327 60.739 69.379 Q 60.628 69.430 60.470 69.430 Q 60.287 69.430 60.143 69.346 Q 59.999 69.262 59.917 69.099 Q 59.835 68.936 59.835 68.697 Q 59.835 68.463 59.920 68.300 Q 60.004 68.138 60.149 68.054 Q 60.293 67.970 60.470 67.970 Z M 61.572 69.162 61.876 68.000 H 62.160 L 70.172 60.960 H 69.842 L 60.977 68.000 H 61.272 Z" fill="#0E93A6" fill-rule="nonzero"/>
<circle cx="20.32" cy="24.00" r="5.80" fill="#b4b5ba" fill-opacity="0.9" stroke="#2b2733" stroke-width="0.2" stroke-opacity="0.5"/>
<path d="M14.45,29.87 A8.30,8.30 0 1 1 26.19,29.87" fill="none" stroke="#2b2733" stroke-width="0.16" stroke-opacity="0.14" stroke-linecap="round"/><path d="M15.16,29.16 A7.30,7.30 0 1 1 25.48,29.16" fill="none" stroke="#2b2733" stroke-width="0.22" stroke-opacity="0.28" stroke-linecap="round"/><line x1="16.15" y1="28.17" x2="15.07" y2="29.25" stroke="#2b2733" stroke-width="0.26" stroke-opacity="0.46" stroke-linecap="round"/><line x1="14.04" y1="26.04" x2="13.26" y2="26.29" stroke="#2b2733" stroke-width="0.15" stroke-opacity="0.32" stroke-linecap="round"/><line x1="13.80" y1="22.97" x2="12.99" y2="22.84" stroke="#2b2733" stroke-width="0.15" stroke-opacity="0.32" stroke-linecap="round"/><line x1="14.98" y1="20.12" x2="14.32" y2="19.64" stroke="#2b2733" stroke-width="0.15" stroke-opacity="0.32" stroke-linecap="round"/><line x1="17.32" y1="18.12" x2="16.95" y2="17.39" stroke="#2b2733" stroke-width="0.15" stroke-opacity="0.32" stroke-linecap="round"/><line x1="20.32" y1="18.10" x2="20.32" y2="16.58" stroke="#2b2733" stroke-width="0.26" stroke-opacity="0.46" stroke-linecap="round"/><line x1="23.32" y1="18.12" x2="23.69" y2="17.39" stroke="#2b2733" stroke-width="0.15" stroke-opacity="0.32" stroke-linecap="round"/><line x1="25.66" y1="20.12" x2="26.32" y2="19.64" stroke="#2b2733" stroke-width="0.15" stroke-opacity="0.32" stroke-linecap="round"/><line x1="26.84" y1="22.97" x2="27.65" y2="22.84" stroke="#2b2733" stroke-width="0.15" stroke-opacity="0.32" stroke-linecap="round"/><line x1="26.60" y1="26.04" x2="27.38" y2="26.29" stroke="#2b2733" stroke-width="0.15" stroke-opacity="0.32" stroke-linecap="round"/><line x1="24.49" y1="28.17" x2="25.57" y2="29.25" stroke="#2b2733" stroke-width="0.26" stroke-opacity="0.46" stroke-linecap="round"/><line x1="20.32" y1="18.80" x2="20.32" y2="16.00" stroke="#2b2733" stroke-width="0.3" stroke-opacity="0.6000000000000001" stroke-linecap="round"/>
<path d="M 11.827 30.045 Q 11.827 30.146 11.776 30.222 Q 11.724 30.298 11.628 30.342 Q 11.532 30.385 11.395 30.385 Q 11.252 30.385 11.149 30.342 Q 11.047 30.300 10.978 30.233 L 11.092 30.105 Q 11.152 30.158 11.226 30.189 Q 11.300 30.219 11.392 30.219 Q 11.451 30.219 11.498 30.200 Q 11.546 30.182 11.573 30.147 Q 11.600 30.111 11.600 30.060 Q 11.600 30.014 11.581 29.983 Q 11.562 29.952 11.516 29.928 Q 11.469 29.903 11.386 29.878 Q 11.265 29.841 11.186 29.796 Q 11.107 29.751 11.069 29.689 Q 11.031 29.628 11.031 29.543 Q 11.031 29.449 11.083 29.380 Q 11.136 29.311 11.225 29.274 Q 11.315 29.237 11.425 29.237 Q 11.548 29.237 11.641 29.273 Q 11.734 29.308 11.805 29.373 L 11.696 29.497 Q 11.639 29.448 11.574 29.425 Q 11.508 29.402 11.441 29.402 Q 11.387 29.402 11.345 29.416 Q 11.304 29.431 11.280 29.458 Q 11.256 29.486 11.256 29.529 Q 11.256 29.568 11.278 29.596 Q 11.300 29.623 11.353 29.646 Q 11.406 29.670 11.499 29.699 Q 11.597 29.729 11.671 29.770 Q 11.744 29.811 11.786 29.877 Q 11.827 29.943 11.827 30.045 Z M 12.532 30.361 V 11.412 H 30.679 V 11.895 H 30.461 V 10.795 H 30.679 V 11.233 H 30.997 V 10.795 H 31.215 V 11.895 Z M 13.721 29.261 V 12.486 Q 31.232 12.598 31.186 12.686 Q 31.141 12.774 31.053 12.824 Q 30.966 12.874 30.838 12.874 Q 30.709 12.874 30.621 12.825 Q 30.534 12.776 30.489 12.688 Q 30.445 12.601 30.445 12.486 V 29.261 H 13.151 V 29.936 Q 13.151 30.076 13.190 30.147 Q 13.228 30.217 13.326 30.217 Q 13.426 30.217 13.464 30.147 Q 13.502 30.076 13.502 29.936 V 11.750 Z M 14.388 29.432 V 13.804 H 30.728 V 12.875 H 30.406 V 12.704 H 31.276 L 14.697 29.432 Z" fill="#6c6d72" fill-rule="nonzero"/>
<path d="M 26.786 29.811 Q 26.786 29.983 26.738 30.112 Q 26.690 30.241 26.595 30.313 Q 26.499 30.385 26.358 30.385 Q 26.218 30.385 26.122 30.315 Q 26.027 30.244 25.979 30.116 Q 25.930 29.987 25.930 29.811 Q 25.930 29.640 25.979 29.510 Q 26.027 29.381 26.122 29.309 Q 26.218 29.237 26.358 29.237 Q 26.499 29.237 26.595 29.307 Q 26.690 29.377 26.738 29.506 Q 26.786 29.635 26.786 29.811 Z M 26.562 29.811 Q 26.562 29.602 26.515 29.502 Q 26.467 29.401 26.358 29.401 Q 26.249 29.401 26.202 29.502 Q 26.155 29.603 26.155 29.811 Q 26.155 30.021 26.203 30.120 Q 26.252 30.220 26.358 30.220 Q 26.469 30.220 26.515 30.119 Q 26.562 30.018 26.562 29.811 Z M 27.516 29.613 Q 27.516 29.545 27.490 29.502 Q 27.464 29.460 27.415 29.440 Q 27.365 29.420 27.296 29.420 H 27.182 V 29.819 H 27.302 Q 30.893 26.293 30.941 26.273 Q 30.988 26.253 31.014 26.207 Q 31.041 26.162 31.041 26.088 Z M 31.267 26.086 Q 31.267 26.214 31.213 26.296 Q 31.158 26.377 31.060 26.416 Q 30.962 26.455 30.834 26.455 H 30.708 V 26.836 H 30.490 V 25.736 H 30.814 Q 27.502 29.261 27.622 29.348 Q 27.741 29.434 27.741 29.612 Z M 28.174 29.422 V 27.152 H 31.135 V 27.310 H 30.745 V 27.630 H 31.219 V 27.790 H 30.527 V 26.690 H 31.213 L 28.620 29.422 Z M 29.325 30.361 29.001 29.447 Q 29.005 29.477 29.011 29.525 Q 29.017 29.573 29.022 29.633 Q 29.027 29.694 29.030 29.761 Q 29.034 29.829 29.034 29.898 V 28.745 H 30.461 V 27.645 H 30.738 L 29.442 30.173 Q 29.436 30.133 29.428 30.066 Q 29.421 29.999 29.415 29.913 Q 29.409 29.826 29.409 29.728 V 27.645 H 31.215 V 28.745 Z" fill="#6c6d72" fill-rule="nonzero"/>
<circle cx="20.32" cy="42.00" r="5.80" fill="#b4b5ba" fill-opacity="0.9" stroke="#2b2733" stroke-width="0.2" stroke-opacity="0.5"/>
<path d="M14.45,47.87 A8.30,8.30 0 1 1 26.19,47.87" fill="none" stroke="#2b2733" stroke-width="0.16" stroke-opacity="0.14" stroke-linecap="round"/><path d="M15.16,47.16 A7.30,7.30 0 1 1 25.48,47.16" fill="none" stroke="#2b2733" stroke-width="0.22" stroke-opacity="0.28" stroke-linecap="round"/><line x1="16.15" y1="46.17" x2="15.07" y2="47.25" stroke="#2b2733" stroke-width="0.26" stroke-opacity="0.46" stroke-linecap="round"/><line x1="14.04" y1="44.04" x2="13.26" y2="44.29" stroke="#2b2733" stroke-width="0.15" stroke-opacity="0.32" stroke-linecap="round"/><line x1="13.80" y1="40.97" x2="12.99" y2="40.84" stroke="#2b2733" stroke-width="0.15" stroke-opacity="0.32" stroke-linecap="round"/><line x1="14.98" y1="38.12" x2="14.32" y2="37.64" stroke="#2b2733" stroke-width="0.15" stroke-opacity="0.32" stroke-linecap="round"/><line x1="17.32" y1="36.12" x2="16.95" y2="35.39" stroke="#2b2733" stroke-width="0.15" stroke-opacity="0.32" stroke-linecap="round"/><line x1="20.32" y1="36.10" x2="20.32" y2="34.58" stroke="#2b2733" stroke-width="0.26" stroke-opacity="0.46" stroke-linecap="round"/><line x1="23.32" y1="36.12" x2="23.69" y2="35.39" stroke="#2b2733" stroke-width="0.15" stroke-opacity="0.32" stroke-linecap="round"/><line x1="25.66" y1="38.12" x2="26.32" y2="37.64" stroke="#2b2733" stroke-width="0.15" stroke-opacity="0.32" stroke-linecap="round"/><line x1="26.84" y1="40.97" x2="27.65" y2="40.84" stroke="#2b2733" stroke-width="0.15" stroke-opacity="0.32" stroke-linecap="round"/><line x1="26.60" y1="44.04" x2="27.38" y2="44.29" stroke="#2b2733" stroke-width="0.15" stroke-opacity="0.32" stroke-linecap="round"/><line x1="24.49" y1="46.17" x2="25.57" y2="47.25" stroke="#2b2733" stroke-width="0.26" stroke-opacity="0.46" stroke-linecap="round"/><line x1="20.32" y1="36.80" x2="20.32" y2="34.00" stroke="#2b2733" stroke-width="0.3" stroke-opacity="0.6000000000000001" stroke-linecap="round"/>
<path d="M 11.347 47.422 V 10.325 H 49.169 V 10.486 H 48.768 V 10.941 H 48.550 V 9.841 H 49.246 L 11.803 47.422 Z M 12.551 48.109 H 12.189 L 48.586 11.895 H 48.361 L 12.240 47.261 H 12.507 L 49.316 11.895 H 49.085 Z M 12.228 47.946 H 12.510 L 48.835 10.959 Z M 13.736 48.045 Q 13.736 48.146 13.685 48.222 Q 13.633 48.298 13.537 48.342 Q 13.441 48.385 13.304 48.385 Q 13.161 48.385 13.058 48.342 Q 12.956 48.300 12.887 48.233 L 13.001 48.105 Q 13.061 48.158 13.135 48.189 Q 13.209 48.219 13.301 48.219 Q 13.360 48.219 13.407 48.200 Q 13.454 48.182 13.482 48.147 Q 13.509 48.111 13.509 48.060 Q 13.509 48.014 13.490 47.983 Q 13.471 47.952 13.425 47.928 Q 13.378 47.903 13.295 47.878 Q 13.174 47.841 13.095 47.796 Q 13.016 47.751 12.978 47.689 Q 12.940 47.628 12.940 47.543 Q 12.940 47.449 12.992 47.380 Q 13.045 47.311 13.134 47.274 Q 13.224 47.237 13.334 47.237 Q 13.457 47.237 13.550 47.273 Q 13.643 47.308 13.714 47.373 L 13.605 47.497 Q 13.548 47.448 13.483 47.425 Q 13.417 47.402 13.349 47.402 Q 13.296 47.402 13.254 47.416 Q 13.213 47.431 13.189 47.458 Q 13.165 47.486 13.165 47.529 Q 13.165 47.568 13.187 47.596 Q 13.209 47.623 13.262 47.646 Q 13.315 47.670 13.408 47.699 Q 13.506 47.729 13.580 47.770 Q 13.653 47.811 13.695 47.877 Q 13.736 47.943 13.736 48.045 Z M 14.388 47.432 V 13.804 H 48.728 V 12.875 H 48.406 V 12.704 H 49.276 L 14.697 47.432 Z" fill="#6c6d72" fill-rule="nonzero"/>
<path d="M 26.767 48.045 Q 26.767 48.146 26.716 48.222 Q 26.665 48.298 26.568 48.342 Q 26.472 48.385 26.335 48.385 Q 26.192 48.385 26.089 48.342 Q 25.987 48.300 25.918 48.233 L 26.032 48.105 Q 26.092 48.158 26.166 48.189 Q 26.240 48.219 26.332 48.219 Q 26.391 48.219 26.438 48.200 Q 26.486 48.182 26.513 48.147 Q 26.540 48.111 26.540 48.060 Q 26.540 48.014 26.521 47.983 Q 26.502 47.952 26.456 47.928 Q 26.409 47.903 26.327 47.878 Q 26.205 47.841 26.126 47.796 Q 26.047 47.751 26.009 47.689 Q 25.971 47.628 25.971 47.543 Q 25.971 47.449 26.023 47.380 Q 26.076 47.311 26.165 47.274 Q 26.255 47.237 26.365 47.237 Q 26.488 47.237 26.581 47.273 Q 26.674 47.308 26.745 47.373 L 26.636 47.497 Q 26.579 47.448 26.514 47.425 Q 26.448 47.402 26.381 47.402 Q 26.327 47.402 26.286 47.416 Q 26.244 47.431 26.220 47.458 Q 26.196 47.486 26.196 47.529 Q 26.196 47.568 26.218 47.596 Q 26.240 47.623 26.293 47.646 Q 26.346 47.670 26.439 47.699 Q 26.537 47.729 26.611 47.770 Q 26.684 47.811 26.726 47.877 Q 26.767 47.943 26.767 48.045 Z M 27.007 48.361 V 25.736 H 48.751 V 26.659 H 49.236 L 27.687 48.361 Z M 28.695 47.811 Q 28.695 47.983 28.647 48.112 Q 28.599 48.241 28.503 48.313 Q 28.408 48.385 28.267 48.385 Q 28.127 48.385 28.031 48.315 Q 27.936 48.244 27.887 48.116 Q 27.839 47.987 27.839 47.811 Q 27.839 47.640 27.887 47.510 Q 27.936 47.381 28.031 47.309 Q 28.127 47.237 28.267 47.237 Q 28.408 47.237 28.503 47.307 Q 28.599 47.377 28.647 47.506 Q 28.695 47.635 28.695 47.811 Z M 28.471 47.811 Q 28.471 47.602 28.424 47.502 Q 28.376 47.401 28.267 47.401 Q 28.158 47.401 28.111 47.502 Q 28.064 47.603 28.064 47.811 Q 28.064 48.021 28.112 48.120 Q 28.161 48.220 28.267 48.220 Q 28.378 48.220 28.424 48.119 Q 28.471 48.018 28.471 47.811 Z M 29.700 47.261 29.557 48.361 H 29.318 L 48.838 27.943 L 48.737 28.745 H 48.492 L 28.744 47.261 H 28.951 L 48.633 28.546 L 48.738 27.772 H 48.943 L 29.426 48.163 L 29.507 47.261 Z" fill="#6c6d72" fill-rule="nonzero"/>
<circle cx="20.32" cy="60.00" r="5.80" fill="#b4b5ba" fill-opacity="0.9" stroke="#2b2733" stroke-width="0.2" stroke-opacity="0.5"/>
<path d="M14.45,65.87 A8.30,8.30 0 1 1 26.19,65.87" fill="none" stroke="#2b2733" stroke-width="0.16" stroke-opacity="0.14" stroke-linecap="round"/><path d="M15.16,65.16 A7.30,7.30 0 1 1 25.48,65.16" fill="none" stroke="#2b2733" stroke-width="0.22" stroke-opacity="0.28" stroke-linecap="round"/><line x1="16.15" y1="64.17" x2="15.07" y2="65.25" stroke="#2b2733" stroke-width="0.26" stroke-opacity="0.46" stroke-linecap="round"/><line x1="14.04" y1="62.04" x2="13.26" y2="62.29" stroke="#2b2733" stroke-width="0.15" stroke-opacity="0.32" stroke-linecap="round"/><line x1="13.80" y1="58.97" x2="12.99" y2="58.84" stroke="#2b2733" stroke-width="0.15" stroke-opacity="0.32" stroke-linecap="round"/><line x1="14.98" y1="56.12" x2="14.32" y2="55.64" stroke="#2b2733" stroke-width="0.15" stroke-opacity="0.32" stroke-linecap="round"/><line x1="17.32" y1="54.12" x2="16.95" y2="53.39" stroke="#2b2733" stroke-width="0.15" stroke-opacity="0.32" stroke-linecap="round"/><line x1="20.32" y1="54.10" x2="20.32" y2="52.58" stroke="#2b2733" stroke-width="0.26" stroke-opacity="0.46" stroke-linecap="round"/><line x1="23.32" y1="54.12" x2="23.69" y2="53.39" stroke="#2b2733" stroke-width="0.15" stroke-opacity="0.32" stroke-linecap="round"/><line x1="25.66" y1="56.12" x2="26.32" y2="55.64" stroke="#2b2733" stroke-width="0.15" stroke-opacity="0.32" stroke-linecap="round"/><line x1="26.84" y1="58.97" x2="27.65" y2="58.84" stroke="#2b2733" stroke-width="0.15" stroke-opacity="0.32" stroke-linecap="round"/><line x1="26.60" y1="62.04" x2="27.38" y2="62.29" stroke="#2b2733" stroke-width="0.15" stroke-opacity="0.32" stroke-linecap="round"/><line x1="24.49" y1="64.17" x2="25.57" y2="65.25" stroke="#2b2733" stroke-width="0.26" stroke-opacity="0.46" stroke-linecap="round"/><line x1="20.32" y1="54.80" x2="20.32" y2="52.00" stroke="#2b2733" stroke-width="0.3" stroke-opacity="0.6000000000000001" stroke-linecap="round"/>
<path d="M 11.577 66.361 V 10.457 H 66.679 V 10.941 H 66.461 V 9.841 H 66.679 V 10.278 H 66.997 V 9.841 H 67.215 V 10.941 Z M 12.551 66.109 H 12.189 L 66.586 11.895 H 66.361 L 12.240 65.261 H 12.507 L 67.316 11.895 H 67.085 Z M 12.228 65.946 H 12.510 L 66.835 10.959 Z M 13.730 65.586 Q 13.730 65.666 13.698 65.726 Q 13.667 65.785 13.613 65.826 Q 13.559 65.866 13.493 65.889 L 13.794 66.361 H 13.544 L 66.795 12.412 H 66.695 V 12.850 H 66.478 V 11.750 H 66.802 Q 13.508 65.261 13.619 65.341 Q 13.730 65.422 13.730 65.586 Z M 13.504 65.586 Q 13.504 65.497 13.452 65.458 Q 13.400 65.419 13.296 65.419 H 13.184 V 65.769 H 13.303 Q 66.911 12.257 66.963 12.214 Q 67.015 12.172 67.015 12.075 Z M 14.479 65.806 Q 14.479 65.683 14.456 65.608 Q 14.434 65.532 14.395 65.492 Q 14.356 65.452 14.306 65.438 Q 14.257 65.423 14.204 65.423 H 14.123 V 66.200 H 14.205 Q 66.817 13.643 66.867 13.625 Q 66.916 13.608 66.954 13.565 Q 66.993 13.521 67.014 13.445 Q 67.036 13.368 67.036 13.249 Z M 67.263 13.249 Q 67.263 13.384 67.234 13.481 Q 67.205 13.577 67.154 13.640 Q 67.103 13.703 67.037 13.739 Q 66.970 13.775 66.895 13.790 Q 66.820 13.804 66.743 13.804 H 66.461 V 12.704 H 66.724 Q 14.270 65.261 14.366 65.283 Q 14.462 65.305 14.539 65.363 Q 14.616 65.421 14.661 65.528 Q 14.706 65.635 14.706 65.806 Z" fill="#6c6d72" fill-rule="nonzero"/>
<path d="M 26.767 66.045 Q 26.767 66.146 26.716 66.222 Q 26.665 66.298 26.568 66.342 Q 26.472 66.385 26.335 66.385 Q 26.192 66.385 26.089 66.342 Q 25.987 66.300 25.918 66.233 L 26.032 66.105 Q 26.092 66.158 26.166 66.189 Q 26.240 66.219 26.332 66.219 Q 26.391 66.219 26.438 66.200 Q 26.486 66.182 26.513 66.147 Q 26.540 66.111 26.540 66.060 Q 26.540 66.014 26.521 65.983 Q 26.502 65.952 26.456 65.928 Q 26.409 65.903 26.327 65.878 Q 26.205 65.841 26.126 65.796 Q 26.047 65.751 26.009 65.689 Q 25.971 65.628 25.971 65.543 Q 25.971 65.449 26.023 65.380 Q 26.076 65.311 26.165 65.274 Q 26.255 65.237 26.365 65.237 Q 26.488 65.237 26.581 65.273 Q 26.674 65.308 26.745 65.373 L 26.636 65.497 Q 26.579 65.448 26.514 65.425 Q 26.448 65.402 26.381 65.402 Q 26.327 65.402 26.286 65.416 Q 26.244 65.431 26.220 65.458 Q 26.196 65.486 26.196 65.529 Q 26.196 65.568 26.218 65.596 Q 26.240 65.623 26.293 65.646 Q 26.346 65.670 26.439 65.699 Q 26.537 65.729 26.611 65.770 Q 26.684 65.811 26.726 65.877 Q 26.767 65.943 26.767 66.045 Z M 27.741 65.811 Q 27.741 65.983 27.693 66.112 Q 27.644 66.241 27.549 66.313 Q 27.454 66.385 27.313 66.385 Q 27.173 66.385 27.077 66.315 Q 26.981 66.244 26.933 66.116 Q 26.885 65.987 26.885 65.811 Q 26.885 65.640 26.933 65.510 Q 26.981 65.381 27.077 65.309 Q 27.173 65.237 27.313 65.237 Q 27.454 65.237 27.549 65.307 Q 27.644 65.377 27.693 65.506 Q 27.741 65.635 27.741 65.811 Z M 27.516 65.811 Q 27.516 65.602 27.469 65.502 Q 27.422 65.401 27.313 65.401 Q 27.204 65.401 27.157 65.502 Q 27.109 65.603 27.109 65.811 Q 27.109 66.021 27.158 66.120 Q 27.206 66.220 27.313 66.220 Q 27.423 66.220 27.470 66.119 Q 27.516 66.018 27.516 65.811 Z M 28.196 65.422 V 27.174 H 67.169 V 27.335 H 66.768 V 27.790 H 66.550 V 26.690 H 67.246 L 28.652 65.422 Z M 29.328 65.432 V 28.745 H 66.728 V 27.816 H 66.406 V 27.645 H 67.276 L 29.637 65.432 Z" fill="#6c6d72" fill-rule="nonzero"/>
<circle cx="11.82" cy="73.00" r="3.10" fill="#b4b5ba" fill-opacity="0.9" stroke="#2b2733" stroke-width="0.2" stroke-opacity="0.5"/>
<circle cx="28.82" cy="73.00" r="3.10" fill="#b4b5ba" fill-opacity="0.9" stroke="#2b2733" stroke-width="0.2" stroke-opacity="0.5"/>
<circle cx="20.32" cy="82.00" r="1.95" fill="none" fill-opacity="1.0" stroke="#A87400" stroke-width="0.22" stroke-opacity="0.5"/><circle cx="20.32" cy="82.00" r="3.31" fill="none" fill-opacity="1.0" stroke="#A87400" stroke-width="0.22" stroke-opacity="0.3"/><circle cx="20.32" cy="82.00" r="4.50" fill="none" fill-opacity="1.0" stroke="#A87400" stroke-width="0.22" stroke-opacity="0.17"/><circle cx="20.32" cy="82.00" r="1.25" fill="#A87400" fill-opacity="0.85" stroke="none" stroke-width="0.25" stroke-opacity="1.0"/>
<circle cx="11.32" cy="93.00" r="3.65" fill="#b4b5ba" fill-opacity="0.9" stroke="#2b2733" stroke-width="0.2" stroke-opacity="0.5"/>
<circle cx="29.32" cy="93.00" r="3.65" fill="#b4b5ba" fill-opacity="0.9" stroke="#2b2733" stroke-width="0.2" stroke-opacity="0.5"/>
<circle cx="29.32" cy="93.00" r="3.85" fill="none" fill-opacity="1.0" stroke="#A87400" stroke-width="0.22" stroke-opacity="0.4"/>
<circle cx="11.32" cy="105.00" r="3.65" fill="#b4b5ba" fill-opacity="0.9" stroke="#2b2733" stroke-width="0.2" stroke-opacity="0.5"/>
<circle cx="11.32" cy="105.00" r="3.85" fill="none" fill-opacity="1.0" stroke="#0E93A6" stroke-width="0.22" stroke-opacity="0.4"/>
<circle cx="29.32" cy="105.00" r="3.65" fill="#b4b5ba" fill-opacity="0.9" stroke="#2b2733" stroke-width="0.2" stroke-opacity="0.5"/>
<circle cx="20.32" cy="117.00" r="3.65" fill="#b4b5ba" fill-opacity="0.9" stroke="#2b2733" stroke-width="0.2" stroke-opacity="0.5"/>
<circle cx="20.32" cy="117.00" r="3.90" fill="none" fill-opacity="1.0" stroke="#E8500A" stroke-width="0.28" stroke-opacity="0.55"/>
<circle cx="60.96" cy="24.00" r="5.80" fill="#b4b5ba" fill-opacity="0.9" stroke="#2b2733" stroke-width="0.2" stroke-opacity="0.5"/>
<path d="M55.09,29.87 A8.30,8.30 0 1 1 66.83,29.87" fill="none" stroke="#2b2733" stroke-width="0.16" stroke-opacity="0.14" stroke-linecap="round"/><path d="M55.80,29.16 A7.30,7.30 0 1 1 66.12,29.16" fill="none" stroke="#2b2733" stroke-width="0.22" stroke-opacity="0.28" stroke-linecap="round"/><line x1="56.79" y1="28.17" x2="55.71" y2="29.25" stroke="#2b2733" stroke-width="0.26" stroke-opacity="0.46" stroke-linecap="round"/><line x1="54.68" y1="26.04" x2="53.90" y2="26.29" stroke="#2b2733" stroke-width="0.15" stroke-opacity="0.32" stroke-linecap="round"/><line x1="54.44" y1="22.97" x2="53.63" y2="22.84" stroke="#2b2733" stroke-width="0.15" stroke-opacity="0.32" stroke-linecap="round"/><line x1="55.62" y1="20.12" x2="54.96" y2="19.64" stroke="#2b2733" stroke-width="0.15" stroke-opacity="0.32" stroke-linecap="round"/><line x1="57.96" y1="18.12" x2="57.59" y2="17.39" stroke="#2b2733" stroke-width="0.15" stroke-opacity="0.32" stroke-linecap="round"/><line x1="60.96" y1="18.10" x2="60.96" y2="16.58" stroke="#2b2733" stroke-width="0.26" stroke-opacity="0.46" stroke-linecap="round"/><line x1="63.96" y1="18.12" x2="64.33" y2="17.39" stroke="#2b2733" stroke-width="0.15" stroke-opacity="0.32" stroke-linecap="round"/><line x1="66.30" y1="20.12" x2="66.96" y2="19.64" stroke="#2b2733" stroke-width="0.15" stroke-opacity="0.32" stroke-linecap="round"/><line x1="67.48" y1="22.97" x2="68.29" y2="22.84" stroke="#2b2733" stroke-width="0.15" stroke-opacity="0.32" stroke-linecap="round"/><line x1="67.24" y1="26.04" x2="68.02" y2="26.29" stroke="#2b2733" stroke-width="0.15" stroke-opacity="0.32" stroke-linecap="round"/><line x1="65.13" y1="28.17" x2="66.21" y2="29.25" stroke="#2b2733" stroke-width="0.26" stroke-opacity="0.46" stroke-linecap="round"/><line x1="60.96" y1="18.80" x2="60.96" y2="16.00" stroke="#2b2733" stroke-width="0.3" stroke-opacity="0.6000000000000001" stroke-linecap="round"/>
<path d="M 52.467 30.045 Q 52.467 30.146 52.416 30.222 Q 52.364 30.298 52.268 30.342 Q 52.172 30.385 52.035 30.385 Q 51.892 30.385 51.789 30.342 Q 51.687 30.300 51.618 30.233 L 51.732 30.105 Q 51.792 30.158 51.866 30.189 Q 51.940 30.219 52.032 30.219 Q 52.091 30.219 52.138 30.200 Q 52.186 30.182 52.213 30.147 Q 52.240 30.111 52.240 30.060 Q 52.240 30.014 52.221 29.983 Q 52.202 29.952 52.156 29.928 Q 52.109 29.903 52.026 29.878 Q 51.905 29.841 51.826 29.796 Q 51.747 29.751 51.709 29.689 Q 51.671 29.628 51.671 29.543 Q 51.671 29.449 51.723 29.380 Q 51.776 29.311 51.865 29.274 Q 51.955 29.237 52.065 29.237 Q 52.188 29.237 52.281 29.273 Q 52.374 29.308 52.445 29.373 L 52.336 29.497 Q 52.279 29.448 52.214 29.425 Q 52.148 29.402 52.081 29.402 Q 52.027 29.402 51.985 29.416 Q 51.944 29.431 51.920 29.458 Q 51.896 29.486 51.896 29.529 Q 51.896 29.568 51.918 29.596 Q 51.940 29.623 51.993 29.646 Q 52.046 29.670 52.139 29.699 Q 52.237 29.729 52.311 29.770 Q 52.384 29.811 52.426 29.877 Q 52.467 29.943 52.467 30.045 Z M 53.172 30.361 V 52.052 H 30.679 V 52.535 H 30.461 V 51.435 H 30.679 V 51.873 H 30.997 V 51.435 H 31.215 V 52.535 Z M 54.361 29.261 V 53.126 Q 31.232 53.238 31.186 53.326 Q 31.141 53.414 31.053 53.464 Q 30.966 53.514 30.838 53.514 Q 30.709 53.514 30.621 53.465 Q 30.534 53.416 30.489 53.328 Q 30.445 53.241 30.445 53.126 V 29.261 H 53.791 V 29.936 Q 53.791 30.076 53.830 30.147 Q 53.868 30.217 53.966 30.217 Q 54.066 30.217 54.104 30.147 Q 54.142 30.076 54.142 29.936 V 52.390 Z M 55.028 29.432 V 54.444 H 30.728 V 53.515 H 30.406 V 53.344 H 31.276 L 55.337 29.432 Z" fill="#6c6d72" fill-rule="nonzero"/>
<path d="M 67.426 29.811 Q 67.426 29.983 67.378 30.112 Q 67.330 30.241 67.235 30.313 Q 67.139 30.385 66.998 30.385 Q 66.858 30.385 66.762 30.315 Q 66.667 30.244 66.619 30.116 Q 66.570 29.987 66.570 29.811 Q 66.570 29.640 66.619 29.510 Q 66.667 29.381 66.762 29.309 Q 66.858 29.237 66.998 29.237 Q 67.139 29.237 67.235 29.307 Q 67.330 29.377 67.378 29.506 Q 67.426 29.635 67.426 29.811 Z M 67.202 29.811 Q 67.202 29.602 67.155 29.502 Q 67.107 29.401 66.998 29.401 Q 66.889 29.401 66.842 29.502 Q 66.795 29.603 66.795 29.811 Q 66.795 30.021 66.843 30.120 Q 66.892 30.220 66.998 30.220 Q 67.109 30.220 67.155 30.119 Q 67.202 30.018 67.202 29.811 Z M 68.156 29.613 Q 68.156 29.545 68.130 29.502 Q 68.104 29.460 68.055 29.440 Q 68.005 29.420 67.936 29.420 H 67.822 V 29.819 H 67.942 Q 30.893 66.933 30.941 66.913 Q 30.988 66.893 31.014 66.847 Q 31.041 66.802 31.041 66.728 Z M 31.267 66.726 Q 31.267 66.854 31.213 66.936 Q 31.158 67.017 31.060 67.056 Q 30.962 67.095 30.834 67.095 H 30.708 V 67.476 H 30.490 V 66.376 H 30.814 Q 68.142 29.261 68.262 29.348 Q 68.381 29.434 68.381 29.612 Z M 68.814 29.422 V 67.792 H 31.135 V 67.950 H 30.745 V 68.270 H 31.219 V 68.430 H 30.527 V 67.330 H 31.213 L 69.260 29.422 Z M 69.965 30.361 69.641 29.447 Q 69.645 29.477 69.651 29.525 Q 69.657 29.573 69.662 29.633 Q 69.667 29.694 69.670 29.761 Q 69.674 29.829 69.674 29.898 V 69.385 H 30.461 V 68.285 H 30.738 L 70.082 30.173 Q 70.076 30.133 70.068 30.066 Q 70.061 29.999 70.055 29.913 Q 70.049 29.826 70.049 29.728 V 68.285 H 31.215 V 69.385 Z" fill="#6c6d72" fill-rule="nonzero"/>
<circle cx="60.96" cy="42.00" r="5.80" fill="#b4b5ba" fill-opacity="0.9" stroke="#2b2733" stroke-width="0.2" stroke-opacity="0.5"/>
<path d="M55.09,47.87 A8.30,8.30 0 1 1 66.83,47.87" fill="none" stroke="#2b2733" stroke-width="0.16" stroke-opacity="0.14" stroke-linecap="round"/><path d="M55.80,47.16 A7.30,7.30 0 1 1 66.12,47.16" fill="none" stroke="#2b2733" stroke-width="0.22" stroke-opacity="0.28" stroke-linecap="round"/><line x1="56.79" y1="46.17" x2="55.71" y2="47.25" stroke="#2b2733" stroke-width="0.26" stroke-opacity="0.46" stroke-linecap="round"/><line x1="54.68" y1="44.04" x2="53.90" y2="44.29" stroke="#2b2733" stroke-width="0.15" stroke-opacity="0.32" stroke-linecap="round"/><line x1="54.44" y1="40.97" x2="53.63" y2="40.84" stroke="#2b2733" stroke-width="0.15" stroke-opacity="0.32" stroke-linecap="round"/><line x1="55.62" y1="38.12" x2="54.96" y2="37.64" stroke="#2b2733" stroke-width="0.15" stroke-opacity="0.32" stroke-linecap="round"/><line x1="57.96" y1="36.12" x2="57.59" y2="35.39" stroke="#2b2733" stroke-width="0.15" stroke-opacity="0.32" stroke-linecap="round"/><line x1="60.96" y1="36.10" x2="60.96" y2="34.58" stroke="#2b2733" stroke-width="0.26" stroke-opacity="0.46" stroke-linecap="round"/><line x1="63.96" y1="36.12" x2="64.33" y2="35.39" stroke="#2b2733" stroke-width="0.15" stroke-opacity="0.32" stroke-linecap="round"/><line x1="66.30" y1="38.12" x2="66.96" y2="37.64" stroke="#2b2733" stroke-width="0.15" stroke-opacity="0.32" stroke-linecap="round"/><line x1="67.48" y1="40.97" x2="68.29" y2="40.84" stroke="#2b2733" stroke-width="0.15" stroke-opacity="0.32" stroke-linecap="round"/><line x1="67.24" y1="44.04" x2="68.02" y2="44.29" stroke="#2b2733" stroke-width="0.15" stroke-opacity="0.32" stroke-linecap="round"/><line x1="65.13" y1="46.17" x2="66.21" y2="47.25" stroke="#2b2733" stroke-width="0.26" stroke-opacity="0.46" stroke-linecap="round"/><line x1="60.96" y1="36.80" x2="60.96" y2="34.00" stroke="#2b2733" stroke-width="0.3" stroke-opacity="0.6000000000000001" stroke-linecap="round"/>
<path d="M 51.987 47.422 V 50.965 H 49.169 V 51.126 H 48.768 V 51.581 H 48.550 V 50.481 H 49.246 L 52.443 47.422 Z M 53.191 48.109 H 52.829 L 48.586 52.535 H 48.361 L 52.880 47.261 H 53.147 L 49.316 52.535 H 49.085 Z M 52.868 47.946 H 53.150 L 48.835 51.599 Z M 54.376 48.045 Q 54.376 48.146 54.325 48.222 Q 54.273 48.298 54.177 48.342 Q 54.081 48.385 53.944 48.385 Q 53.801 48.385 53.698 48.342 Q 53.596 48.300 53.527 48.233 L 53.641 48.105 Q 53.701 48.158 53.775 48.189 Q 53.849 48.219 53.941 48.219 Q 54.000 48.219 54.047 48.200 Q 54.094 48.182 54.122 48.147 Q 54.149 48.111 54.149 48.060 Q 54.149 48.014 54.130 47.983 Q 54.111 47.952 54.065 47.928 Q 54.018 47.903 53.935 47.878 Q 53.814 47.841 53.735 47.796 Q 53.656 47.751 53.618 47.689 Q 53.580 47.628 53.580 47.543 Q 53.580 47.449 53.632 47.380 Q 53.685 47.311 53.774 47.274 Q 53.864 47.237 53.974 47.237 Q 54.097 47.237 54.190 47.273 Q 54.283 47.308 54.354 47.373 L 54.245 47.497 Q 54.188 47.448 54.123 47.425 Q 54.057 47.402 53.989 47.402 Q 53.936 47.402 53.894 47.416 Q 53.853 47.431 53.829 47.458 Q 53.805 47.486 53.805 47.529 Q 53.805 47.568 53.827 47.596 Q 53.849 47.623 53.902 47.646 Q 53.955 47.670 54.048 47.699 Q 54.146 47.729 54.220 47.770 Q 54.293 47.811 54.335 47.877 Q 54.376 47.943 54.376 48.045 Z M 55.028 47.432 V 54.444 H 48.728 V 53.515 H 48.406 V 53.344 H 49.276 L 55.337 47.432 Z" fill="#6c6d72" fill-rule="nonzero"/>
<path d="M 67.407 48.045 Q 67.407 48.146 67.356 48.222 Q 67.305 48.298 67.208 48.342 Q 67.112 48.385 66.975 48.385 Q 66.832 48.385 66.729 48.342 Q 66.627 48.300 66.558 48.233 L 66.672 48.105 Q 66.732 48.158 66.806 48.189 Q 66.880 48.219 66.972 48.219 Q 67.031 48.219 67.078 48.200 Q 67.126 48.182 67.153 48.147 Q 67.180 48.111 67.180 48.060 Q 67.180 48.014 67.161 47.983 Q 67.142 47.952 67.096 47.928 Q 67.049 47.903 66.967 47.878 Q 66.845 47.841 66.766 47.796 Q 66.687 47.751 66.649 47.689 Q 66.611 47.628 66.611 47.543 Q 66.611 47.449 66.663 47.380 Q 66.716 47.311 66.805 47.274 Q 66.895 47.237 67.005 47.237 Q 67.128 47.237 67.221 47.273 Q 67.314 47.308 67.385 47.373 L 67.276 47.497 Q 67.219 47.448 67.154 47.425 Q 67.088 47.402 67.021 47.402 Q 66.967 47.402 66.926 47.416 Q 66.884 47.431 66.860 47.458 Q 66.836 47.486 66.836 47.529 Q 66.836 47.568 66.858 47.596 Q 66.880 47.623 66.933 47.646 Q 66.986 47.670 67.079 47.699 Q 67.177 47.729 67.251 47.770 Q 67.324 47.811 67.366 47.877 Q 67.407 47.943 67.407 48.045 Z M 67.647 48.361 V 66.376 H 48.751 V 67.299 H 49.236 L 68.327 48.361 Z M 69.335 47.811 Q 69.335 47.983 69.287 48.112 Q 69.239 48.241 69.143 48.313 Q 69.048 48.385 68.907 48.385 Q 68.767 48.385 68.671 48.315 Q 68.576 48.244 68.527 48.116 Q 68.479 47.987 68.479 47.811 Q 68.479 47.640 68.527 47.510 Q 68.576 47.381 68.671 47.309 Q 68.767 47.237 68.907 47.237 Q 69.048 47.237 69.143 47.307 Q 69.239 47.377 69.287 47.506 Q 69.335 47.635 69.335 47.811 Z M 69.111 47.811 Q 69.111 47.602 69.064 47.502 Q 69.016 47.401 68.907 47.401 Q 68.798 47.401 68.751 47.502 Q 68.704 47.603 68.704 47.811 Q 68.704 48.021 68.752 48.120 Q 68.801 48.220 68.907 48.220 Q 69.018 48.220 69.064 48.119 Q 69.111 48.018 69.111 47.811 Z M 70.340 47.261 70.197 48.361 H 69.958 L 48.838 68.583 L 48.737 69.385 H 48.492 L 69.384 47.261 H 69.591 L 48.633 69.186 L 48.738 68.412 H 48.943 L 70.066 48.163 L 70.147 47.261 Z" fill="#6c6d72" fill-rule="nonzero"/>
<circle cx="60.96" cy="60.00" r="5.80" fill="#b4b5ba" fill-opacity="0.9" stroke="#2b2733" stroke-width="0.2" stroke-opacity="0.5"/>
<path d="M55.09,65.87 A8.30,8.30 0 1 1 66.83,65.87" fill="none" stroke="#2b2733" stroke-width="0.16" stroke-opacity="0.14" stroke-linecap="round"/><path d="M55.80,65.16 A7.30,7.30 0 1 1 66.12,65.16" fill="none" stroke="#2b2733" stroke-width="0.22" stroke-opacity="0.28" stroke-linecap="round"/><line x1="56.79" y1="64.17" x2="55.71" y2="65.25" stroke="#2b2733" stroke-width="0.26" stroke-opacity="0.46" stroke-linecap="round"/><line x1="54.68" y1="62.04" x2="53.90" y2="62.29" stroke="#2b2733" stroke-width="0.15" stroke-opacity="0.32" stroke-linecap="round"/><line x1="54.44" y1="58.97" x2="53.63" y2="58.84" stroke="#2b2733" stroke-width="0.15" stroke-opacity="0.32" stroke-linecap="round"/><line x1="55.62" y1="56.12" x2="54.96" y2="55.64" stroke="#2b2733" stroke-width="0.15" stroke-opacity="0.32" stroke-linecap="round"/><line x1="57.96" y1="54.12" x2="57.59" y2="53.39" stroke="#2b2733" stroke-width="0.15" stroke-opacity="0.32" stroke-linecap="round"/><line x1="60.96" y1="54.10" x2="60.96" y2="52.58" stroke="#2b2733" stroke-width="0.26" stroke-opacity="0.46" stroke-linecap="round"/><line x1="63.96" y1="54.12" x2="64.33" y2="53.39" stroke="#2b2733" stroke-width="0.15" stroke-opacity="0.32" stroke-linecap="round"/><line x1="66.30" y1="56.12" x2="66.96" y2="55.64" stroke="#2b2733" stroke-width="0.15" stroke-opacity="0.32" stroke-linecap="round"/><line x1="67.48" y1="58.97" x2="68.29" y2="58.84" stroke="#2b2733" stroke-width="0.15" stroke-opacity="0.32" stroke-linecap="round"/><line x1="67.24" y1="62.04" x2="68.02" y2="62.29" stroke="#2b2733" stroke-width="0.15" stroke-opacity="0.32" stroke-linecap="round"/><line x1="65.13" y1="64.17" x2="66.21" y2="65.25" stroke="#2b2733" stroke-width="0.26" stroke-opacity="0.46" stroke-linecap="round"/><line x1="60.96" y1="54.80" x2="60.96" y2="52.00" stroke="#2b2733" stroke-width="0.3" stroke-opacity="0.6000000000000001" stroke-linecap="round"/>
<path d="M 52.217 66.361 V 51.097 H 66.679 V 51.581 H 66.461 V 50.481 H 66.679 V 50.918 H 66.997 V 50.481 H 67.215 V 51.581 Z M 53.191 66.109 H 52.829 L 66.586 52.535 H 66.361 L 52.880 65.261 H 53.147 L 67.316 52.535 H 67.085 Z M 52.868 65.946 H 53.150 L 66.835 51.599 Z M 54.370 65.586 Q 54.370 65.666 54.338 65.726 Q 54.307 65.785 54.253 65.826 Q 54.199 65.866 54.133 65.889 L 54.434 66.361 H 54.184 L 66.795 53.052 H 66.695 V 53.490 H 66.478 V 52.390 H 66.802 Q 54.148 65.261 54.259 65.341 Q 54.370 65.422 54.370 65.586 Z M 54.144 65.586 Q 54.144 65.497 54.092 65.458 Q 54.040 65.419 53.936 65.419 H 53.824 V 65.769 H 53.943 Q 66.911 52.897 66.963 52.854 Q 67.015 52.812 67.015 52.715 Z M 55.119 65.806 Q 55.119 65.683 55.096 65.608 Q 55.074 65.532 55.035 65.492 Q 54.996 65.452 54.946 65.438 Q 54.897 65.423 54.844 65.423 H 54.763 V 66.200 H 54.845 Q 66.817 54.283 66.867 54.265 Q 66.916 54.248 66.954 54.205 Q 66.993 54.161 67.014 54.085 Q 67.036 54.008 67.036 53.889 Z M 67.263 53.889 Q 67.263 54.024 67.234 54.121 Q 67.205 54.217 67.154 54.280 Q 67.103 54.343 67.037 54.379 Q 66.970 54.415 66.895 54.430 Q 66.820 54.444 66.743 54.444 H 66.461 V 53.344 H 66.724 Q 54.910 65.261 55.006 65.283 Q 55.102 65.305 55.179 65.363 Q 55.256 65.421 55.301 65.528 Q 55.346 65.635 55.346 65.806 Z" fill="#6c6d72" fill-rule="nonzero"/>
<path d="M 67.407 66.045 Q 67.407 66.146 67.356 66.222 Q 67.305 66.298 67.208 66.342 Q 67.112 66.385 66.975 66.385 Q 66.832 66.385 66.729 66.342 Q 66.627 66.300 66.558 66.233 L 66.672 66.105 Q 66.732 66.158 66.806 66.189 Q 66.880 66.219 66.972 66.219 Q 67.031 66.219 67.078 66.200 Q 67.126 66.182 67.153 66.147 Q 67.180 66.111 67.180 66.060 Q 67.180 66.014 67.161 65.983 Q 67.142 65.952 67.096 65.928 Q 67.049 65.903 66.967 65.878 Q 66.845 65.841 66.766 65.796 Q 66.687 65.751 66.649 65.689 Q 66.611 65.628 66.611 65.543 Q 66.611 65.449 66.663 65.380 Q 66.716 65.311 66.805 65.274 Q 66.895 65.237 67.005 65.237 Q 67.128 65.237 67.221 65.273 Q 67.314 65.308 67.385 65.373 L 67.276 65.497 Q 67.219 65.448 67.154 65.425 Q 67.088 65.402 67.021 65.402 Q 66.967 65.402 66.926 65.416 Q 66.884 65.431 66.860 65.458 Q 66.836 65.486 66.836 65.529 Q 66.836 65.568 66.858 65.596 Q 66.880 65.623 66.933 65.646 Q 66.986 65.670 67.079 65.699 Q 67.177 65.729 67.251 65.770 Q 67.324 65.811 67.366 65.877 Q 67.407 65.943 67.407 66.045 Z M 68.381 65.811 Q 68.381 65.983 68.333 66.112 Q 68.284 66.241 68.189 66.313 Q 68.094 66.385 67.953 66.385 Q 67.813 66.385 67.717 66.315 Q 67.621 66.244 67.573 66.116 Q 67.525 65.987 67.525 65.811 Q 67.525 65.640 67.573 65.510 Q 67.621 65.381 67.717 65.309 Q 67.813 65.237 67.953 65.237 Q 68.094 65.237 68.189 65.307 Q 68.284 65.377 68.333 65.506 Q 68.381 65.635 68.381 65.811 Z M 68.156 65.811 Q 68.156 65.602 68.109 65.502 Q 68.062 65.401 67.953 65.401 Q 67.844 65.401 67.797 65.502 Q 67.749 65.603 67.749 65.811 Q 67.749 66.021 67.798 66.120 Q 67.846 66.220 67.953 66.220 Q 68.063 66.220 68.110 66.119 Q 68.156 66.018 68.156 65.811 Z M 68.836 65.422 V 67.814 H 67.169 V 67.975 H 66.768 V 68.430 H 66.550 V 67.330 H 67.246 L 69.292 65.422 Z M 69.968 65.432 V 69.385 H 66.728 V 68.456 H 66.406 V 68.285 H 67.276 L 70.277 65.432 Z" fill="#6c6d72" fill-rule="nonzero"/>
<circle cx="52.46" cy="73.00" r="3.10" fill="#b4b5ba" fill-opacity="0.9" stroke="#2b2733" stroke-width="0.2" stroke-opacity="0.5"/>
<circle cx="69.46" cy="73.00" r="3.10" fill="#b4b5ba" fill-opacity="0.9" stroke="#2b2733" stroke-width="0.2" stroke-opacity="0.5"/>
<circle cx="60.96" cy="82.00" r="1.95" fill="none" fill-opacity="1.0" stroke="#A87400" stroke-width="0.22" stroke-opacity="0.5"/><circle cx="60.96" cy="82.00" r="3.31" fill="none" fill-opacity="1.0" stroke="#A87400" stroke-width="0.22" stroke-opacity="0.3"/><circle cx="60.96" cy="82.00" r="4.50" fill="none" fill-opacity="1.0" stroke="#A87400" stroke-width="0.22" stroke-opacity="0.17"/><circle cx="60.96" cy="82.00" r="1.25" fill="#A87400" fill-opacity="0.85" stroke="none" stroke-width="0.25" stroke-opacity="1.0"/>
<circle cx="51.96" cy="93.00" r="3.65" fill="#b4b5ba" fill-opacity="0.9" stroke="#2b2733" stroke-width="0.2" stroke-opacity="0.5"/>
<circle cx="69.96" cy="93.00" r="3.65" fill="#b4b5ba" fill-opacity="0.9" stroke="#2b2733" stroke-width="0.2" stroke-opacity="0.5"/>
<circle cx="69.96" cy="93.00" r="3.85" fill="none" fill-opacity="1.0" stroke="#A87400" stroke-width="0.22" stroke-opacity="0.4"/>
<circle cx="51.96" cy="105.00" r="3.65" fill="#b4b5ba" fill-opacity="0.9" stroke="#2b2733" stroke-width="0.2" stroke-opacity="0.5"/>
<circle cx="51.96" cy="105.00" r="3.85" fill="none" fill-opacity="1.0" stroke="#0E93A6" stroke-width="0.22" stroke-opacity="0.4"/>
<circle cx="69.96" cy="105.00" r="3.65" fill="#b4b5ba" fill-opacity="0.9" stroke="#2b2733" stroke-width="0.2" stroke-opacity="0.5"/>
<circle cx="60.96" cy="117.00" r="3.65" fill="#b4b5ba" fill-opacity="0.9" stroke="#2b2733" stroke-width="0.2" stroke-opacity="0.5"/>
<circle cx="60.96" cy="117.00" r="3.90" fill="none" fill-opacity="1.0" stroke="#E8500A" stroke-width="0.28" stroke-opacity="0.55"/>
<rect x="39.34" y="114.30" width="2.60" height="5.40" rx="0.80" fill="#b4b5ba" fill-opacity="0.9" stroke="#1C46FF" stroke-width="0.22" stroke-opacity="0.5"/>
<circle cx="37.44" cy="116.00" r="0.26" fill="#1C46FF" fill-opacity="0.7" stroke="none" stroke-width="0.25" stroke-opacity="1.0"/>
<circle cx="36.94" cy="117.80" r="0.26" fill="#1C46FF" fill-opacity="0.5" stroke="none" stroke-width="0.25" stroke-opacity="1.0"/>
<circle cx="44.04" cy="117.40" r="0.26" fill="#1C46FF" fill-opacity="0.6" stroke="none" stroke-width="0.25" stroke-opacity="1.0"/>
<path d="M 18.586 15.249 Q 18.586 15.546 18.503 15.769 Q 18.420 15.993 18.255 16.117 Q 18.090 16.241 17.847 16.241 Q 17.605 16.241 17.440 16.120 Q 17.274 15.998 17.191 15.776 Q 17.108 15.554 17.108 15.251 Q 17.108 14.954 17.191 14.731 Q 17.274 14.507 17.440 14.383 Q 17.605 14.259 17.847 14.259 Q 18.090 14.259 18.255 14.380 Q 18.420 14.501 18.503 14.723 Q 18.586 14.946 18.586 15.249 Z M 18.199 15.249 Q 18.199 14.889 18.117 14.716 Q 18.035 14.542 17.847 14.542 Q 17.659 14.542 17.577 14.716 Q 17.495 14.891 17.495 15.251 Q 17.495 15.612 17.579 15.784 Q 17.663 15.957 17.847 15.957 Q 18.038 15.957 18.118 15.782 Q 18.199 15.608 18.199 15.249 Z M 19.846 14.909 Q 19.846 14.790 19.801 14.717 Q 19.757 14.643 19.672 14.609 Q 19.586 14.575 19.467 14.575 H 19.270 V 15.263 H 19.478 Q 17.119 17.734 17.201 17.699 Q 17.283 17.664 17.329 17.586 Q 17.375 17.508 17.375 17.380 Z M 17.765 17.377 Q 17.765 17.598 17.671 17.739 Q 17.577 17.880 17.408 17.947 Q 17.239 18.013 17.017 18.013 H 16.799 V 18.671 H 16.423 V 16.771 H 16.982 Q 19.823 14.300 20.029 14.450 Q 20.236 14.599 20.236 14.906 Z M 20.984 14.578 V 19.218 H 17.537 V 19.492 H 16.864 V 20.044 H 17.681 V 20.320 H 16.487 V 18.420 H 17.671 L 21.753 14.578 Z M 22.972 16.200 22.412 14.621 Q 22.419 14.674 22.429 14.756 Q 22.438 14.839 22.447 14.943 Q 22.456 15.047 22.463 15.164 Q 22.469 15.281 22.469 15.400 V 21.969 H 16.373 V 20.069 H 16.851 L 23.173 15.876 Q 23.162 15.806 23.149 15.690 Q 23.136 15.575 23.127 15.425 Q 23.117 15.275 23.117 15.106 V 20.069 H 17.675 V 21.969 Z" fill="#17141c" fill-rule="nonzero"/>
<path d="M 17.363 33.241 Q 17.363 33.030 17.324 32.899 Q 17.285 32.768 17.218 32.699 Q 17.150 32.630 17.065 32.605 Q 16.980 32.580 16.888 32.580 H 16.748 V 33.921 H 16.889 Q 34.987 15.920 35.073 15.889 Q 35.159 15.859 35.225 15.784 Q 35.291 15.709 35.328 15.577 Q 35.365 15.444 35.365 15.239 Z M 35.758 15.239 Q 35.758 15.473 35.708 15.639 Q 35.658 15.806 35.570 15.915 Q 35.482 16.024 35.367 16.086 Q 35.252 16.148 35.123 16.173 Q 34.993 16.198 34.859 16.198 H 34.373 V 14.298 H 34.826 Q 17.002 32.300 17.168 32.338 Q 17.335 32.376 17.467 32.476 Q 17.600 32.576 17.678 32.761 Q 17.756 32.946 17.756 33.241 Z M 18.511 32.578 V 16.745 H 35.537 V 17.019 H 34.864 V 17.571 H 35.681 V 17.847 H 34.487 V 15.947 H 35.671 L 19.280 32.578 Z M 20.479 32.259 Q 20.677 32.259 20.815 32.310 Q 20.952 32.362 21.069 32.458 L 20.878 32.685 Q 20.797 32.616 20.700 32.580 Q 20.603 32.545 20.493 32.545 Q 20.361 32.545 20.251 32.615 Q 20.140 32.685 20.073 32.839 Q 20.007 32.994 20.007 33.247 Q 20.007 33.495 20.071 33.649 Q 20.135 33.803 20.245 33.874 Q 20.356 33.944 20.496 33.944 Q 20.644 33.944 20.742 33.892 Q 20.839 33.840 20.918 33.778 L 21.095 34.002 Q 20.995 34.101 20.844 34.171 Q 20.694 34.241 20.479 34.241 Q 20.231 34.241 20.036 34.127 Q 19.841 34.013 19.729 33.792 Q 19.618 33.571 19.618 33.247 Q 19.618 32.928 19.733 32.707 Q 19.847 32.487 20.043 32.373 Q 20.239 32.259 20.479 32.259 Z M 22.276 33.764 H 21.651 L 34.589 21.144 H 34.200 L 21.739 32.300 H 22.201 L 35.850 21.144 H 35.450 Z M 21.719 33.483 H 22.206 L 35.019 19.526 Z M 23.805 33.480 V 22.793 H 34.836 V 22.076 L 34.208 20.893 H 34.620 L 23.624 33.166 L 24.039 32.300 H 24.433 Z" fill="#17141c" fill-rule="nonzero"/>
<path d="M 15.206 50.300 15.314 52.200 H 14.978 L 53.417 12.850 Q 53.413 12.740 53.412 12.646 Q 53.412 12.552 53.413 12.468 Q 53.414 12.383 53.418 12.305 Q 53.421 12.227 53.427 12.151 L 53.175 13.396 H 52.870 L 14.127 50.626 Q 14.132 50.698 14.136 50.778 Q 14.140 50.858 14.142 50.944 Q 14.144 51.031 14.145 51.127 Q 14.146 51.223 14.142 51.328 L 14.116 52.200 H 13.786 L 52.368 11.825 H 52.785 L 14.555 51.554 L 14.789 50.300 Z M 16.506 51.764 H 15.881 L 52.589 15.374 H 52.200 L 15.969 50.300 H 16.431 L 53.850 15.374 H 53.450 Z M 15.948 51.483 H 16.436 L 53.019 13.756 Z M 18.031 50.595 V 17.023 H 52.833 V 15.418 H 52.278 V 15.123 H 53.780 L 18.564 50.595 Z M 19.335 50.578 V 17.570 H 53.537 V 17.843 H 52.864 V 18.395 H 53.681 V 18.671 H 52.487 V 16.771 H 53.671 L 20.104 50.578 Z M 21.839 50.862 Q 21.839 50.999 21.785 51.102 Q 21.731 51.205 21.638 51.275 Q 21.545 51.345 21.430 51.384 L 21.951 52.200 H 21.519 L 52.950 19.563 H 52.777 V 20.320 H 52.402 V 18.420 H 52.961 Q 21.456 50.300 21.648 50.439 Q 21.839 50.578 21.839 50.862 Z M 21.449 50.862 Q 21.449 50.708 21.360 50.640 Q 21.271 50.572 21.091 50.572 H 20.897 V 51.177 H 21.103 Q 53.149 19.297 53.239 19.222 Q 53.329 19.148 53.329 18.982 Z M 23.384 50.300 V 20.350 H 53.213 V 21.687 H 53.615 V 21.969 H 52.434 V 21.687 H 52.836 V 20.350 H 52.434 V 20.069 Z M 24.749 51.764 H 24.124 L 52.589 23.617 H 52.200 L 24.212 50.300 H 24.674 L 53.850 23.617 H 53.450 Z M 24.192 51.483 H 24.679 L 53.019 21.999 Z M 25.563 52.200 V 23.366 H 52.873 V 24.961 H 53.711 L 26.737 52.200 Z" fill="#17141c" fill-rule="nonzero"/>
<path d="M 10.719 68.192 Q 10.719 68.014 10.686 67.904 Q 10.653 67.795 10.596 67.736 Q 10.539 67.678 10.468 67.657 Q 10.396 67.636 10.318 67.636 H 10.200 V 68.765 H 10.319 Q 69.663 9.503 69.735 9.477 Q 69.808 9.452 69.863 9.389 Q 69.919 9.326 69.950 9.214 Q 69.981 9.102 69.981 8.930 Z M 70.312 8.930 Q 70.312 9.127 70.270 9.267 Q 70.227 9.407 70.153 9.499 Q 70.079 9.591 69.983 9.643 Q 69.886 9.695 69.777 9.716 Q 69.668 9.738 69.555 9.738 H 69.146 V 8.138 H 69.528 Q 10.414 67.400 10.554 67.432 Q 10.694 67.464 10.806 67.548 Q 10.918 67.633 10.984 67.788 Q 11.049 67.944 11.049 68.192 Z M 11.685 67.634 V 10.198 H 70.126 V 10.428 H 69.559 V 10.893 H 70.247 V 11.126 H 69.242 V 9.526 H 70.239 L 12.332 67.634 Z M 13.343 67.365 Q 13.509 67.365 13.625 67.409 Q 13.740 67.452 13.839 67.533 L 13.678 67.724 Q 13.610 67.666 13.528 67.636 Q 13.447 67.606 13.354 67.606 Q 13.243 67.606 13.150 67.665 Q 13.057 67.724 13.001 67.854 Q 12.945 67.984 12.945 68.197 Q 12.945 68.407 12.998 68.536 Q 13.052 68.666 13.145 68.725 Q 13.238 68.785 13.356 68.785 Q 13.481 68.785 13.563 68.741 Q 13.646 68.697 13.712 68.645 L 13.861 68.833 Q 13.776 68.917 13.650 68.976 Q 13.523 69.035 13.343 69.035 Q 13.133 69.035 12.969 68.939 Q 12.805 68.843 12.711 68.656 Q 12.617 68.470 12.617 68.197 Q 12.617 67.929 12.714 67.743 Q 12.810 67.557 12.975 67.461 Q 13.140 67.365 13.343 67.365 Z" fill="#0E93A6" fill-rule="nonzero"/>
<path d="M 26.872 67.365 Q 27.038 67.365 27.154 67.409 Q 27.270 67.452 27.368 67.533 L 27.207 67.724 Q 27.139 67.666 27.057 67.636 Q 26.976 67.606 26.883 67.606 Q 26.772 67.606 26.679 67.665 Q 26.586 67.724 26.530 67.854 Q 26.474 67.984 26.474 68.197 Q 26.474 68.407 26.528 68.536 Q 26.581 68.666 26.674 68.725 Q 26.768 68.785 26.886 68.785 Q 27.011 68.785 27.093 68.741 Q 27.175 68.697 27.241 68.645 L 27.390 68.833 Q 27.306 68.917 27.179 68.976 Q 27.052 69.035 26.872 69.035 Q 26.662 69.035 26.498 68.939 Q 26.334 68.843 26.240 68.656 Q 26.146 68.470 26.146 68.197 Q 26.146 67.929 26.243 67.743 Q 26.340 67.557 26.504 67.461 Q 26.669 67.365 26.872 67.365 Z M 28.281 67.649 V 27.432 H 69.533 V 26.080 H 69.066 V 25.832 H 70.330 L 28.730 67.649 Z M 30.100 67.873 Q 30.100 67.989 30.054 68.076 Q 30.008 68.162 29.930 68.221 Q 29.852 68.280 29.755 68.313 L 30.193 69.000 H 29.830 L 69.632 28.183 H 69.486 V 28.820 H 69.170 V 27.220 H 69.641 Q 29.777 67.400 29.938 67.517 Q 30.100 67.634 30.100 67.873 Z M 29.771 67.873 Q 29.771 67.744 29.696 67.686 Q 29.621 67.629 29.469 67.629 H 29.306 V 68.138 H 29.479 Q 69.799 27.958 69.875 27.896 Q 69.951 27.833 69.951 27.693 Z M 30.458 69.000 V 28.608 H 69.567 V 29.951 H 70.273 L 31.447 69.000 Z" fill="#0E93A6" fill-rule="nonzero"/>
<path d="M 11.123 86.850 V 8.569 H 89.303 V 9.695 H 89.642 V 9.932 H 88.647 V 9.695 H 88.986 V 8.569 H 88.647 V 8.332 Z M 12.165 88.450 11.694 87.121 Q 11.699 87.165 11.708 87.234 Q 11.716 87.304 11.723 87.391 Q 11.731 87.479 11.736 87.578 Q 11.741 87.676 11.741 87.777 V 11.320 H 88.596 V 9.720 H 88.998 L 12.335 88.177 Q 12.325 88.118 12.314 88.021 Q 12.303 87.924 12.295 87.798 Q 12.287 87.671 12.287 87.529 V 9.720 H 89.693 V 11.320 Z" fill="#17141c" fill-rule="nonzero"/>
<path d="M 28.163 88.450 V 26.534 H 88.913 V 27.238 H 88.596 V 25.638 H 88.913 V 26.274 H 89.376 V 25.638 H 89.693 V 27.238 Z M 29.817 86.850 V 27.263 H 89.303 V 28.389 H 89.642 V 28.626 H 88.647 V 28.389 H 88.986 V 27.263 H 88.647 V 27.026 Z M 30.863 87.099 V 30.014 H 88.983 V 28.663 H 88.516 V 28.414 H 89.780 L 31.312 87.099 Z" fill="#A87400" fill-rule="nonzero"/>
<path d="M 10.219 99.642 Q 10.219 99.464 10.186 99.354 Q 10.153 99.245 10.096 99.186 Q 10.039 99.128 9.968 99.107 Q 9.896 99.086 9.818 99.086 H 9.700 V 100.215 H 9.819 Q 101.113 9.003 101.185 8.977 Q 101.258 8.952 101.313 8.889 Q 101.369 8.826 101.400 8.714 Q 101.431 8.602 101.431 8.430 Z M 101.762 8.430 Q 101.762 8.627 101.720 8.767 Q 101.677 8.907 101.603 8.999 Q 101.529 9.091 101.433 9.143 Q 101.336 9.195 101.227 9.216 Q 101.118 9.238 101.005 9.238 H 100.596 V 7.638 H 100.978 Q 9.914 98.850 10.054 98.882 Q 10.194 98.914 10.306 98.998 Q 10.418 99.083 10.484 99.238 Q 10.549 99.394 10.549 99.642 Z M 11.185 99.084 V 9.698 H 101.576 V 9.928 H 101.009 V 10.393 H 101.697 V 10.626 H 100.692 V 9.026 H 101.689 L 11.832 99.084 Z M 12.843 98.815 Q 13.009 98.815 13.125 98.859 Q 13.240 98.902 13.339 98.983 L 13.178 99.174 Q 13.110 99.116 13.028 99.086 Q 12.947 99.056 12.854 99.056 Q 12.743 99.056 12.650 99.115 Q 12.557 99.174 12.501 99.304 Q 12.445 99.434 12.445 99.647 Q 12.445 99.857 12.498 99.986 Q 12.552 100.116 12.645 100.175 Q 12.738 100.235 12.856 100.235 Q 12.981 100.235 13.063 100.191 Q 13.146 100.147 13.212 100.095 L 13.361 100.283 Q 13.276 100.367 13.150 100.426 Q 13.023 100.485 12.843 100.485 Q 12.633 100.485 12.469 100.389 Q 12.305 100.293 12.211 100.106 Q 12.117 99.920 12.117 99.647 Q 12.117 99.379 12.214 99.193 Q 12.310 99.007 12.475 98.911 Q 12.640 98.815 12.843 98.815 Z" fill="#0E93A6" fill-rule="nonzero"/>
<path d="M 27.372 98.815 Q 27.538 98.815 27.654 98.859 Q 27.770 98.902 27.868 98.983 L 27.707 99.174 Q 27.639 99.116 27.557 99.086 Q 27.476 99.056 27.383 99.056 Q 27.272 99.056 27.179 99.115 Q 27.086 99.174 27.030 99.304 Q 26.974 99.434 26.974 99.647 Q 26.974 99.857 27.028 99.986 Q 27.081 100.116 27.174 100.175 Q 27.268 100.235 27.386 100.235 Q 27.511 100.235 27.593 100.191 Q 27.675 100.147 27.741 100.095 L 27.890 100.283 Q 27.806 100.367 27.679 100.426 Q 27.552 100.485 27.372 100.485 Q 27.162 100.485 26.998 100.389 Q 26.834 100.293 26.740 100.106 Q 26.646 99.920 26.646 99.647 Q 26.646 99.379 26.743 99.193 Q 26.840 99.007 27.004 98.911 Q 27.169 98.815 27.372 98.815 Z M 28.781 99.099 V 27.932 H 100.983 V 26.580 H 100.516 V 26.332 H 101.780 L 29.230 99.099 Z M 30.600 99.323 Q 30.600 99.439 30.554 99.526 Q 30.508 99.612 30.430 99.671 Q 30.352 99.730 30.255 99.763 L 30.693 100.450 H 30.330 L 101.082 28.683 H 100.936 V 29.320 H 100.620 V 27.720 H 101.091 Q 30.277 98.850 30.438 98.967 Q 30.600 99.084 30.600 99.323 Z M 30.271 99.323 Q 30.271 99.194 30.196 99.136 Q 30.121 99.079 29.969 99.079 H 29.806 V 99.588 H 29.979 Q 101.249 28.458 101.325 28.396 Q 101.401 28.333 101.401 28.193 Z M 30.958 100.450 V 29.108 H 101.017 V 30.451 H 101.723 L 31.947 100.450 Z" fill="#17141c" fill-rule="nonzero"/>
<path d="M 19.554 111.649 Q 19.554 111.899 19.484 112.087 Q 19.414 112.275 19.275 112.380 Q 19.136 112.485 18.932 112.485 Q 18.728 112.485 18.589 112.382 Q 18.449 112.280 18.379 112.093 Q 18.309 111.906 18.309 111.651 Q 18.309 111.401 18.379 111.213 Q 18.449 111.025 18.589 110.920 Q 18.728 110.815 18.932 110.815 Q 19.136 110.815 19.275 110.917 Q 19.414 111.019 19.484 111.206 Q 19.554 111.394 19.554 111.649 Z M 19.228 111.649 Q 19.228 111.346 19.159 111.200 Q 19.090 111.054 18.932 111.054 Q 18.773 111.054 18.704 111.201 Q 18.635 111.347 18.635 111.651 Q 18.635 111.955 18.706 112.100 Q 18.777 112.245 18.932 112.245 Q 19.092 112.245 19.160 112.098 Q 19.228 111.951 19.228 111.649 Z M 20.893 110.850 V 19.096 Q 113.717 19.259 113.650 19.387 Q 113.584 19.515 113.457 19.588 Q 113.329 19.661 113.143 19.661 Q 112.956 19.661 112.828 19.589 Q 112.701 19.518 112.636 19.391 Q 112.571 19.264 112.571 19.096 V 110.850 H 20.064 V 111.831 Q 20.064 112.036 20.120 112.138 Q 20.175 112.241 20.319 112.241 Q 20.463 112.241 20.519 112.138 Q 20.575 112.036 20.575 111.831 V 18.026 Z M 21.863 111.099 V 21.014 H 112.983 V 19.663 H 112.516 V 19.414 H 113.780 L 22.312 111.099 Z" fill="#E8500A" fill-rule="nonzero"/>
<path d="M 59.226 15.249 Q 59.226 15.546 59.143 15.769 Q 59.060 15.993 58.895 16.117 Q 58.730 16.241 58.487 16.241 Q 58.245 16.241 58.080 16.120 Q 57.914 15.998 57.831 15.776 Q 57.748 15.554 57.748 15.251 Q 57.748 14.954 57.831 14.731 Q 57.914 14.507 58.080 14.383 Q 58.245 14.259 58.487 14.259 Q 58.730 14.259 58.895 14.380 Q 59.060 14.501 59.143 14.723 Q 59.226 14.946 59.226 15.249 Z M 58.839 15.249 Q 58.839 14.889 58.757 14.716 Q 58.675 14.542 58.487 14.542 Q 58.299 14.542 58.217 14.716 Q 58.135 14.891 58.135 15.251 Q 58.135 15.612 58.219 15.784 Q 58.303 15.957 58.487 15.957 Q 58.678 15.957 58.758 15.782 Q 58.839 15.608 58.839 15.249 Z M 60.486 14.909 Q 60.486 14.790 60.441 14.717 Q 60.397 14.643 60.312 14.609 Q 60.226 14.575 60.107 14.575 H 59.910 V 15.263 H 60.118 Q 17.119 58.374 17.201 58.339 Q 17.283 58.304 17.329 58.226 Q 17.375 58.148 17.375 58.020 Z M 17.765 58.017 Q 17.765 58.238 17.671 58.379 Q 17.577 58.520 17.408 58.587 Q 17.239 58.653 17.017 58.653 H 16.799 V 59.311 H 16.423 V 57.411 H 16.982 Q 60.463 14.300 60.669 14.450 Q 60.876 14.599 60.876 14.906 Z M 61.624 14.578 V 59.858 H 17.537 V 60.132 H 16.864 V 60.684 H 17.681 V 60.960 H 16.487 V 59.060 H 17.671 L 62.393 14.578 Z M 63.612 16.200 63.052 14.621 Q 63.059 14.674 63.069 14.756 Q 63.078 14.839 63.087 14.943 Q 63.096 15.047 63.103 15.164 Q 63.109 15.281 63.109 15.400 V 62.609 H 16.373 V 60.709 H 16.851 L 63.813 15.876 Q 63.802 15.806 63.789 15.690 Q 63.776 15.575 63.767 15.425 Q 63.757 15.275 63.757 15.106 V 60.709 H 17.675 V 62.609 Z" fill="#17141c" fill-rule="nonzero"/>
<path d="M 58.003 33.241 Q 58.003 33.030 57.964 32.899 Q 57.925 32.768 57.858 32.699 Q 57.790 32.630 57.705 32.605 Q 57.620 32.580 57.528 32.580 H 57.388 V 33.921 H 57.529 Q 34.987 56.560 35.073 56.529 Q 35.159 56.499 35.225 56.424 Q 35.291 56.349 35.328 56.217 Q 35.365 56.084 35.365 55.879 Z M 35.758 55.879 Q 35.758 56.113 35.708 56.279 Q 35.658 56.446 35.570 56.555 Q 35.482 56.664 35.367 56.726 Q 35.252 56.788 35.123 56.813 Q 34.993 56.838 34.859 56.838 H 34.373 V 54.938 H 34.826 Q 57.642 32.300 57.808 32.338 Q 57.975 32.376 58.107 32.476 Q 58.240 32.576 58.318 32.761 Q 58.396 32.946 58.396 33.241 Z M 59.151 32.578 V 57.385 H 35.537 V 57.659 H 34.864 V 58.211 H 35.681 V 58.487 H 34.487 V 56.587 H 35.671 L 59.920 32.578 Z M 61.119 32.259 Q 61.317 32.259 61.455 32.310 Q 61.592 32.362 61.709 32.458 L 61.518 32.685 Q 61.437 32.616 61.340 32.580 Q 61.243 32.545 61.133 32.545 Q 61.001 32.545 60.891 32.615 Q 60.780 32.685 60.713 32.839 Q 60.647 32.994 60.647 33.247 Q 60.647 33.495 60.711 33.649 Q 60.775 33.803 60.885 33.874 Q 60.996 33.944 61.136 33.944 Q 61.284 33.944 61.382 33.892 Q 61.479 33.840 61.558 33.778 L 61.735 34.002 Q 61.635 34.101 61.484 34.171 Q 61.334 34.241 61.119 34.241 Q 60.871 34.241 60.676 34.127 Q 60.481 34.013 60.369 33.792 Q 60.258 33.571 60.258 33.247 Q 60.258 32.928 60.373 32.707 Q 60.487 32.487 60.683 32.373 Q 60.879 32.259 61.119 32.259 Z M 62.916 33.764 H 62.291 L 34.589 61.784 H 34.200 L 62.379 32.300 H 62.841 L 35.850 61.784 H 35.450 Z M 62.359 33.483 H 62.846 L 35.019 60.166 Z M 64.445 33.480 V 63.433 H 34.836 V 62.716 L 34.208 61.533 H 34.620 L 64.264 33.166 L 64.679 32.300 H 65.073 Z" fill="#17141c" fill-rule="nonzero"/>
<path d="M 55.846 50.300 55.954 52.200 H 55.618 L 53.417 53.490 Q 53.413 53.380 53.412 53.286 Q 53.412 53.192 53.413 53.108 Q 53.414 53.023 53.418 52.945 Q 53.421 52.867 53.427 52.791 L 53.175 54.036 H 52.870 L 54.767 50.626 Q 54.772 50.698 54.776 50.778 Q 54.780 50.858 54.782 50.944 Q 54.784 51.031 54.785 51.127 Q 54.786 51.223 54.782 51.328 L 54.756 52.200 H 54.426 L 52.368 52.465 H 52.785 L 55.195 51.554 L 55.429 50.300 Z M 57.146 51.764 H 56.521 L 52.589 56.014 H 52.200 L 56.609 50.300 H 57.071 L 53.850 56.014 H 53.450 Z M 56.588 51.483 H 57.076 L 53.019 54.396 Z M 58.671 50.595 V 57.663 H 52.833 V 56.058 H 52.278 V 55.763 H 53.780 L 59.204 50.595 Z M 59.975 50.578 V 58.210 H 53.537 V 58.483 H 52.864 V 59.035 H 53.681 V 59.311 H 52.487 V 57.411 H 53.671 L 60.744 50.578 Z M 62.479 50.862 Q 62.479 50.999 62.425 51.102 Q 62.371 51.205 62.278 51.275 Q 62.185 51.345 62.070 51.384 L 62.591 52.200 H 62.159 L 52.950 60.203 H 52.777 V 60.960 H 52.402 V 59.060 H 52.961 Q 62.096 50.300 62.288 50.439 Q 62.479 50.578 62.479 50.862 Z M 62.089 50.862 Q 62.089 50.708 62.000 50.640 Q 61.911 50.572 61.731 50.572 H 61.537 V 51.177 H 61.743 Q 53.149 59.937 53.239 59.862 Q 53.329 59.788 53.329 59.622 Z M 64.024 50.300 V 60.990 H 53.213 V 62.327 H 53.615 V 62.609 H 52.434 V 62.327 H 52.836 V 60.990 H 52.434 V 60.709 Z M 65.389 51.764 H 64.764 L 52.589 64.257 H 52.200 L 64.852 50.300 H 65.314 L 53.850 64.257 H 53.450 Z M 64.832 51.483 H 65.319 L 53.019 62.639 Z M 66.203 52.200 V 64.006 H 52.873 V 65.601 H 53.711 L 67.377 52.200 Z" fill="#17141c" fill-rule="nonzero"/>
<path d="M 51.359 68.192 Q 51.359 68.014 51.326 67.904 Q 51.293 67.795 51.236 67.736 Q 51.179 67.678 51.108 67.657 Q 51.036 67.636 50.958 67.636 H 50.840 V 68.765 H 50.959 Q 69.663 50.143 69.735 50.117 Q 69.808 50.092 69.863 50.029 Q 69.919 49.966 69.950 49.854 Q 69.981 49.742 69.981 49.570 Z M 70.312 49.570 Q 70.312 49.767 70.270 49.907 Q 70.227 50.047 70.153 50.139 Q 70.079 50.231 69.983 50.283 Q 69.886 50.335 69.777 50.356 Q 69.668 50.378 69.555 50.378 H 69.146 V 48.778 H 69.528 Q 51.054 67.400 51.194 67.432 Q 51.334 67.464 51.446 67.548 Q 51.558 67.633 51.624 67.788 Q 51.689 67.944 51.689 68.192 Z M 52.325 67.634 V 50.838 H 70.126 V 51.068 H 69.559 V 51.533 H 70.247 V 51.766 H 69.242 V 50.166 H 70.239 L 52.972 67.634 Z M 53.983 67.365 Q 54.149 67.365 54.265 67.409 Q 54.380 67.452 54.479 67.533 L 54.318 67.724 Q 54.250 67.666 54.168 67.636 Q 54.087 67.606 53.994 67.606 Q 53.883 67.606 53.790 67.665 Q 53.697 67.724 53.641 67.854 Q 53.585 67.984 53.585 68.197 Q 53.585 68.407 53.638 68.536 Q 53.692 68.666 53.785 68.725 Q 53.878 68.785 53.996 68.785 Q 54.121 68.785 54.203 68.741 Q 54.286 68.697 54.352 68.645 L 54.501 68.833 Q 54.416 68.917 54.290 68.976 Q 54.163 69.035 53.983 69.035 Q 53.773 69.035 53.609 68.939 Q 53.445 68.843 53.351 68.656 Q 53.257 68.470 53.257 68.197 Q 53.257 67.929 53.354 67.743 Q 53.450 67.557 53.615 67.461 Q 53.780 67.365 53.983 67.365 Z" fill="#0E93A6" fill-rule="nonzero"/>
<path d="M 67.512 67.365 Q 67.678 67.365 67.794 67.409 Q 67.910 67.452 68.008 67.533 L 67.847 67.724 Q 67.779 67.666 67.697 67.636 Q 67.616 67.606 67.523 67.606 Q 67.412 67.606 67.319 67.665 Q 67.226 67.724 67.170 67.854 Q 67.114 67.984 67.114 68.197 Q 67.114 68.407 67.168 68.536 Q 67.221 68.666 67.314 68.725 Q 67.408 68.785 67.526 68.785 Q 67.651 68.785 67.733 68.741 Q 67.815 68.697 67.881 68.645 L 68.030 68.833 Q 67.946 68.917 67.819 68.976 Q 67.692 69.035 67.512 69.035 Q 67.302 69.035 67.138 68.939 Q 66.974 68.843 66.880 68.656 Q 66.786 68.470 66.786 68.197 Q 66.786 67.929 66.883 67.743 Q 66.980 67.557 67.144 67.461 Q 67.309 67.365 67.512 67.365 Z M 68.921 67.649 V 68.072 H 69.533 V 66.720 H 69.066 V 66.472 H 70.330 L 69.370 67.649 Z M 70.740 67.873 Q 70.740 67.989 70.694 68.076 Q 70.648 68.162 70.570 68.221 Q 70.492 68.280 70.395 68.313 L 70.833 69.000 H 70.470 L 69.632 68.823 H 69.486 V 69.460 H 69.170 V 67.860 H 69.641 Q 70.417 67.400 70.578 67.517 Q 70.740 67.634 70.740 67.873 Z M 70.411 67.873 Q 70.411 67.744 70.336 67.686 Q 70.261 67.629 70.109 67.629 H 69.946 V 68.138 H 70.119 Q 69.799 68.598 69.875 68.536 Q 69.951 68.473 69.951 68.333 Z M 71.098 69.000 V 69.248 H 69.567 V 70.591 H 70.273 L 72.087 69.000 Z" fill="#0E93A6" fill-rule="nonzero"/>
<path d="M 51.763 86.850 V 49.209 H 89.303 V 50.335 H 89.642 V 50.572 H 88.647 V 50.335 H 88.986 V 49.209 H 88.647 V 48.972 Z M 52.805 88.450 52.334 87.121 Q 52.339 87.165 52.348 87.234 Q 52.356 87.304 52.363 87.391 Q 52.371 87.479 52.376 87.578 Q 52.381 87.676 52.381 87.777 V 51.960 H 88.596 V 50.360 H 88.998 L 52.975 88.177 Q 52.965 88.118 52.954 88.021 Q 52.943 87.924 52.935 87.798 Q 52.927 87.671 52.927 87.529 V 50.360 H 89.693 V 51.960 Z" fill="#17141c" fill-rule="nonzero"/>
<path d="M 68.803 88.450 V 67.174 H 88.913 V 67.878 H 88.596 V 66.278 H 88.913 V 66.914 H 89.376 V 66.278 H 89.693 V 67.878 Z M 70.457 86.850 V 67.903 H 89.303 V 69.029 H 89.642 V 69.266 H 88.647 V 69.029 H 88.986 V 67.903 H 88.647 V 67.666 Z M 71.503 87.099 V 70.654 H 88.983 V 69.303 H 88.516 V 69.054 H 89.780 L 71.952 87.099 Z" fill="#A87400" fill-rule="nonzero"/>
<path d="M 50.859 99.642 Q 50.859 99.464 50.826 99.354 Q 50.793 99.245 50.736 99.186 Q 50.679 99.128 50.608 99.107 Q 50.536 99.086 50.458 99.086 H 50.340 V 100.215 H 50.459 Q 101.113 49.643 101.185 49.617 Q 101.258 49.592 101.313 49.529 Q 101.369 49.466 101.400 49.354 Q 101.431 49.242 101.431 49.070 Z M 101.762 49.070 Q 101.762 49.267 101.720 49.407 Q 101.677 49.547 101.603 49.639 Q 101.529 49.731 101.433 49.783 Q 101.336 49.835 101.227 49.856 Q 101.118 49.878 101.005 49.878 H 100.596 V 48.278 H 100.978 Q 50.554 98.850 50.694 98.882 Q 50.834 98.914 50.946 98.998 Q 51.058 99.083 51.124 99.238 Q 51.189 99.394 51.189 99.642 Z M 51.825 99.084 V 50.338 H 101.576 V 50.568 H 101.009 V 51.033 H 101.697 V 51.266 H 100.692 V 49.666 H 101.689 L 52.472 99.084 Z M 53.483 98.815 Q 53.649 98.815 53.765 98.859 Q 53.880 98.902 53.979 98.983 L 53.818 99.174 Q 53.750 99.116 53.668 99.086 Q 53.587 99.056 53.494 99.056 Q 53.383 99.056 53.290 99.115 Q 53.197 99.174 53.141 99.304 Q 53.085 99.434 53.085 99.647 Q 53.085 99.857 53.138 99.986 Q 53.192 100.116 53.285 100.175 Q 53.378 100.235 53.496 100.235 Q 53.621 100.235 53.703 100.191 Q 53.786 100.147 53.852 100.095 L 54.001 100.283 Q 53.916 100.367 53.790 100.426 Q 53.663 100.485 53.483 100.485 Q 53.273 100.485 53.109 100.389 Q 52.945 100.293 52.851 100.106 Q 52.757 99.920 52.757 99.647 Q 52.757 99.379 52.854 99.193 Q 52.950 99.007 53.115 98.911 Q 53.280 98.815 53.483 98.815 Z" fill="#0E93A6" fill-rule="nonzero"/>
<path d="M 68.012 98.815 Q 68.178 98.815 68.294 98.859 Q 68.410 98.902 68.508 98.983 L 68.347 99.174 Q 68.279 99.116 68.197 99.086 Q 68.116 99.056 68.023 99.056 Q 67.912 99.056 67.819 99.115 Q 67.726 99.174 67.670 99.304 Q 67.614 99.434 67.614 99.647 Q 67.614 99.857 67.668 99.986 Q 67.721 100.116 67.814 100.175 Q 67.908 100.235 68.026 100.235 Q 68.151 100.235 68.233 100.191 Q 68.315 100.147 68.381 100.095 L 68.530 100.283 Q 68.446 100.367 68.319 100.426 Q 68.192 100.485 68.012 100.485 Q 67.802 100.485 67.638 100.389 Q 67.474 100.293 67.380 100.106 Q 67.286 99.920 67.286 99.647 Q 67.286 99.379 67.383 99.193 Q 67.480 99.007 67.644 98.911 Q 67.809 98.815 68.012 98.815 Z M 69.421 99.099 V 68.572 H 100.983 V 67.220 H 100.516 V 66.972 H 101.780 L 69.870 99.099 Z M 71.240 99.323 Q 71.240 99.439 71.194 99.526 Q 71.148 99.612 71.070 99.671 Q 70.992 99.730 70.895 99.763 L 71.333 100.450 H 70.970 L 101.082 69.323 H 100.936 V 69.960 H 100.620 V 68.360 H 101.091 Q 70.917 98.850 71.078 98.967 Q 71.240 99.084 71.240 99.323 Z M 70.911 99.323 Q 70.911 99.194 70.836 99.136 Q 70.761 99.079 70.609 99.079 H 70.446 V 99.588 H 70.619 Q 101.249 69.098 101.325 69.036 Q 101.401 68.973 101.401 68.833 Z M 71.598 100.450 V 69.748 H 101.017 V 71.091 H 101.723 L 72.587 100.450 Z" fill="#17141c" fill-rule="nonzero"/>
<path d="M 60.194 111.649 Q 60.194 111.899 60.124 112.087 Q 60.054 112.275 59.915 112.380 Q 59.776 112.485 59.572 112.485 Q 59.368 112.485 59.229 112.382 Q 59.089 112.280 59.019 112.093 Q 58.949 111.906 58.949 111.651 Q 58.949 111.401 59.019 111.213 Q 59.089 111.025 59.229 110.920 Q 59.368 110.815 59.572 110.815 Q 59.776 110.815 59.915 110.917 Q 60.054 111.019 60.124 111.206 Q 60.194 111.394 60.194 111.649 Z M 59.868 111.649 Q 59.868 111.346 59.799 111.200 Q 59.730 111.054 59.572 111.054 Q 59.413 111.054 59.344 111.201 Q 59.275 111.347 59.275 111.651 Q 59.275 111.955 59.346 112.100 Q 59.417 112.245 59.572 112.245 Q 59.732 112.245 59.800 112.098 Q 59.868 111.951 59.868 111.649 Z M 61.533 110.850 V 59.736 Q 113.717 59.899 113.650 60.027 Q 113.584 60.155 113.457 60.228 Q 113.329 60.301 113.143 60.301 Q 112.956 60.301 112.828 60.229 Q 112.701 60.158 112.636 60.031 Q 112.571 59.904 112.571 59.736 V 110.850 H 60.704 V 111.831 Q 60.704 112.036 60.760 112.138 Q 60.815 112.241 60.959 112.241 Q 61.103 112.241 61.159 112.138 Q 61.215 112.036 61.215 111.831 V 58.666 Z M 62.503 111.099 V 61.654 H 112.983 V 60.303 H 112.516 V 60.054 H 113.780 L 62.952 111.099 Z" fill="#E8500A" fill-rule="nonzero"/>
<path d="M 10.148 12.965 Q 10.315 12.965 10.431 13.009 Q 10.546 13.052 10.645 13.133 L 10.484 13.324 Q 10.416 13.266 10.334 13.236 Q 10.252 13.206 10.160 13.206 Q 10.049 13.206 9.956 13.265 Q 9.863 13.324 9.806 13.454 Q 9.750 13.584 9.750 13.797 Q 9.750 14.007 9.804 14.136 Q 9.858 14.266 9.951 14.325 Q 10.044 14.385 10.162 14.385 Q 10.287 14.385 10.369 14.341 Q 10.451 14.297 10.517 14.245 L 10.667 14.433 Q 10.582 14.517 10.456 14.576 Q 10.329 14.635 10.148 14.635 Q 9.939 14.635 9.775 14.539 Q 9.610 14.443 9.517 14.256 Q 9.423 14.070 9.423 13.797 Q 9.423 13.529 9.520 13.343 Q 9.616 13.157 9.781 13.061 Q 9.946 12.965 10.148 12.965 Z M 11.634 14.600 V 10.005 H 15.063 V 10.708 H 14.746 V 9.108 H 15.063 V 9.745 H 15.526 V 9.108 H 15.843 V 10.708 Z M 14.438 14.233 H 13.912 L 14.927 13.485 H 14.600 L 13.986 13.000 H 14.375 L 15.989 13.485 H 15.653 Z M 13.969 13.996 H 14.379 L 15.290 12.122 Z" fill="#6c6d72" fill-rule="nonzero"/>
<path d="M 67.235 12.965 Q 67.402 12.965 67.517 13.009 Q 67.633 13.052 67.731 13.133 L 67.571 13.324 Q 67.502 13.266 67.421 13.236 Q 67.339 13.206 67.247 13.206 Q 67.136 13.206 67.042 13.265 Q 66.949 13.324 66.893 13.454 Q 66.837 13.584 66.837 13.797 Q 66.837 14.007 66.891 14.136 Q 66.945 14.266 67.038 14.325 Q 67.131 14.385 67.249 14.385 Q 67.374 14.385 67.456 14.341 Q 67.538 14.297 67.604 14.245 L 67.753 14.433 Q 67.669 14.517 67.542 14.576 Q 67.416 14.635 67.235 14.635 Q 67.026 14.635 66.861 14.539 Q 66.697 14.443 66.603 14.256 Q 66.510 14.070 66.510 13.797 Q 66.510 13.529 66.606 13.343 Q 66.703 13.157 66.868 13.061 Q 67.033 12.965 67.235 12.965 Z M 68.721 14.600 V 67.092 H 15.063 V 67.795 H 14.746 V 66.195 H 15.063 V 66.831 H 15.526 V 66.195 H 15.843 V 67.795 Z M 71.539 14.128 Q 71.539 14.031 71.501 13.976 Q 71.464 13.922 71.398 13.899 Q 71.332 13.877 71.247 13.877 H 71.051 V 14.363 H 71.233 Q 15.318 70.335 15.373 70.325 Q 15.427 70.316 15.472 70.291 Q 15.516 70.266 15.542 70.220 Q 15.567 70.174 15.567 70.100 Z M 15.506 69.407 Q 15.506 69.298 15.438 69.250 Q 15.370 69.203 15.239 69.203 H 15.079 V 69.625 H 15.252 Q 71.354 13.654 71.416 13.602 Q 71.478 13.551 71.478 13.435 Z M 71.867 14.136 Q 71.867 14.271 71.815 14.362 Q 71.762 14.452 71.672 14.504 Q 71.582 14.556 71.468 14.578 Q 71.354 14.600 71.230 14.600 H 70.734 V 13.000 H 71.201 Q 15.347 68.972 15.454 68.991 Q 15.560 69.011 15.644 69.058 Q 15.728 69.105 15.777 69.183 Q 15.826 69.262 15.826 69.379 Q 15.826 69.477 15.785 69.548 Q 15.744 69.618 15.677 69.662 Q 15.609 69.705 15.531 69.725 Q 15.618 69.739 15.702 69.779 Q 15.786 69.819 15.841 69.898 Q 15.896 69.977 15.896 70.108 Z" fill="#6c6d72" fill-rule="nonzero"/>
<path d="M 37.667 108.400 V 35.112 H 110.853 V 36.238 H 111.192 V 36.475 H 110.197 V 36.238 H 110.536 V 35.112 H 110.197 V 34.875 Z M 39.111 108.400 39.201 110.000 H 38.918 L 111.025 37.126 Q 111.022 37.034 111.021 36.955 Q 111.020 36.875 111.022 36.804 Q 111.023 36.733 111.026 36.667 Q 111.028 36.601 111.033 36.538 L 110.821 37.586 H 110.565 L 38.201 108.674 Q 38.206 108.736 38.209 108.803 Q 38.213 108.870 38.214 108.943 Q 38.216 109.015 38.217 109.096 Q 38.217 109.177 38.214 109.265 L 38.192 110.000 H 37.914 L 110.141 36.263 H 110.493 L 38.562 109.456 L 38.759 108.400 Z M 40.241 108.913 Q 40.241 108.813 40.203 108.751 Q 40.166 108.689 40.094 108.660 Q 40.022 108.631 39.922 108.631 H 39.756 V 109.211 H 39.931 Q 110.774 38.463 110.843 38.433 Q 110.912 38.404 110.950 38.338 Q 110.989 38.272 110.989 38.164 Z M 111.318 38.162 Q 111.318 38.348 111.238 38.467 Q 111.159 38.585 111.017 38.641 Q 110.875 38.698 110.688 38.698 H 110.504 V 39.252 H 110.187 V 37.652 H 110.658 Q 40.221 108.400 40.395 108.526 Q 40.569 108.652 40.569 108.910 Z M 41.199 108.634 V 39.712 H 111.126 V 39.942 H 110.559 V 40.407 H 111.247 V 40.640 H 110.242 V 39.040 H 111.239 L 41.847 108.634 Z M 43.308 108.873 Q 43.308 108.989 43.262 109.076 Q 43.216 109.162 43.138 109.221 Q 43.060 109.280 42.963 109.313 L 43.402 110.000 H 43.038 L 110.632 41.391 H 110.486 V 42.028 H 110.170 V 40.428 H 110.641 Q 42.985 108.400 43.146 108.517 Q 43.308 108.634 43.308 108.873 Z M 42.979 108.873 Q 42.979 108.744 42.904 108.686 Q 42.829 108.629 42.677 108.629 H 42.514 V 109.138 H 42.688 Q 110.799 41.166 110.875 41.104 Q 110.951 41.041 110.951 40.901 Z M 44.008 108.634 V 42.521 H 111.175 V 42.755 H 110.591 V 43.417 H 110.274 V 41.817 H 111.288 L 44.671 108.634 Z" fill="#1C46FF" fill-rule="nonzero"/>
<line x1="7.00" y1="122.30" x2="74.28" y2="122.30" stroke="#2b2733" stroke-width="0.25" stroke-opacity="0.34" stroke-linecap="round"/>
<path d="M 8.168 124.084 Q 8.168 124.216 8.100 124.317 Q 8.033 124.417 7.906 124.474 Q 7.779 124.531 7.599 124.531 Q 7.410 124.531 7.275 124.475 Q 7.139 124.419 7.048 124.331 L 7.199 124.162 Q 7.278 124.233 7.375 124.272 Q 7.473 124.312 7.594 124.312 Q 7.672 124.312 7.734 124.288 Q 7.797 124.264 7.833 124.217 Q 7.869 124.171 7.869 124.103 Q 7.869 124.043 7.844 124.002 Q 7.819 123.961 7.758 123.929 Q 7.696 123.896 7.587 123.864 Q 7.427 123.814 7.323 123.755 Q 7.219 123.696 7.169 123.615 Q 7.118 123.533 7.118 123.422 Q 7.118 123.297 7.188 123.207 Q 7.257 123.116 7.375 123.067 Q 7.493 123.019 7.639 123.019 Q 7.800 123.019 7.923 123.065 Q 8.045 123.112 8.139 123.198 L 7.995 123.360 Q 7.921 123.296 7.834 123.266 Q 7.748 123.236 7.658 123.236 Q 7.588 123.236 7.533 123.254 Q 7.478 123.273 7.447 123.310 Q 7.415 123.347 7.415 123.403 Q 7.415 123.455 7.444 123.491 Q 7.473 123.527 7.543 123.558 Q 7.613 123.589 7.736 123.628 Q 7.865 123.666 7.962 123.721 Q 8.059 123.776 8.113 123.862 Q 8.168 123.949 8.168 124.084 Z M 8.445 123.954 V 7.492 H 125.572 V 7.712 Z M 11.623 123.050 V 10.562 H 125.630 V 10.774 H 124.725 V 10.562 H 125.077 V 9.603 L 124.767 9.795 L 124.649 9.603 L 125.104 9.324 Z M 12.756 123.019 Q 12.848 123.019 12.924 123.042 Q 13.000 123.066 13.061 123.109 L 12.955 123.281 Q 12.911 123.250 12.861 123.236 Q 12.811 123.221 12.759 123.221 Q 12.665 123.221 12.594 123.283 Q 12.523 123.345 12.485 123.460 Q 12.451 123.558 12.445 123.691 Q 12.506 123.618 12.580 123.582 Q 12.669 123.538 12.766 123.538 Q 12.878 123.538 12.970 123.592 Q 13.062 123.646 13.117 123.750 Q 13.172 123.855 13.172 124.009 Q 13.172 124.160 13.110 124.278 Q 13.049 124.396 12.937 124.464 Q 12.825 124.531 12.679 124.531 Q 12.538 124.531 12.439 124.479 Q 12.341 124.426 12.279 124.331 Q 12.217 124.236 12.188 124.108 Q 12.160 123.981 12.160 123.834 Q 12.160 123.591 12.231 123.407 Q 12.302 123.223 12.436 123.121 Q 12.569 123.019 12.756 123.019 Z M 12.446 123.879 Q 12.450 124.095 12.497 124.205 Q 12.548 124.328 12.681 124.328 Q 12.790 124.328 12.842 124.242 Q 12.894 124.156 12.894 124.024 Q 12.894 123.917 12.870 123.855 Q 12.846 123.792 12.803 123.765 Q 12.760 123.737 12.699 123.737 Q 12.618 123.737 12.546 123.784 Q 12.490 123.822 12.446 123.879 Z M 14.130 124.500 V 12.653 H 124.919 V 13.291 H 124.632 V 11.841 H 124.919 V 12.417 H 125.339 V 11.841 H 125.626 V 13.291 Z M 15.445 123.514 Q 15.445 123.424 15.411 123.368 Q 15.377 123.312 15.312 123.286 Q 15.247 123.260 15.156 123.260 H 15.006 V 123.785 H 15.164 Q 125.201 13.834 125.264 13.807 Q 125.326 13.780 125.361 13.721 Q 125.396 13.661 125.396 13.563 Z M 125.694 13.561 Q 125.694 13.730 125.622 13.838 Q 125.551 13.945 125.422 13.996 Q 125.293 14.047 125.124 14.047 H 124.957 V 14.549 H 124.670 V 13.099 H 125.097 Q 15.428 123.050 15.585 123.164 Q 15.743 123.279 15.743 123.512 Z" fill="#6c6d72" fill-rule="nonzero"/>
<path d="M 37.794 124.532 Q 37.609 124.532 37.468 124.466 Q 37.326 124.399 37.246 124.276 Q 37.166 124.153 37.166 123.979 V 36.503 H 124.875 V 36.567 Q 124.875 36.711 124.964 36.783 Q 125.053 36.855 125.206 36.855 Q 125.362 36.855 125.438 36.793 Q 125.515 36.732 125.515 36.636 Q 125.515 36.569 125.477 36.528 Q 125.439 36.487 125.367 36.461 Q 125.295 36.434 125.193 36.412 L 125.140 36.400 Q 124.975 36.364 124.858 36.308 Q 124.740 36.252 124.677 36.160 Q 124.614 36.069 124.614 35.922 Q 124.614 35.776 124.684 35.672 Q 124.754 35.568 124.881 35.512 Q 125.007 35.456 125.179 35.456 Q 125.350 35.456 125.484 35.514 Q 125.618 35.573 125.694 35.688 Q 125.771 35.804 125.771 35.977 V 123.458 H 38.062 V 123.389 Q 38.062 123.298 38.026 123.242 Q 37.991 123.186 37.925 123.159 Q 37.858 123.133 37.767 123.133 Q 37.630 123.133 37.565 123.185 Q 37.500 123.236 37.500 123.325 Q 37.500 123.385 37.530 123.426 Q 37.561 123.467 37.623 123.494 Q 37.685 123.522 37.781 123.542 L 37.833 123.554 Q 38.005 123.590 38.132 123.647 Q 38.258 123.705 38.329 123.798 Q 38.400 123.892 38.400 124.038 Q 38.400 124.185 38.326 124.295 Q 38.252 124.406 38.116 124.469 Q 37.980 124.532 37.794 124.532 Z M 38.514 124.500 38.935 122.900 H 39.461 L 125.908 38.473 H 125.597 L 39.483 124.148 H 38.912 L 124.852 38.473 Z M 125.010 37.842 H 125.439 L 39.218 123.090 H 39.177 Z M 40.073 124.500 V 38.322 H 125.211 L 40.910 124.294 H 40.951 L 125.805 38.322 H 126.365 V 39.922 H 126.073 V 38.544 H 126.031 L 41.179 124.500 H 40.681 L 124.985 38.544 H 124.943 V 39.922 Z M 42.094 124.047 V 41.225 H 125.332 V 41.486 Z M 43.077 124.500 V 41.326 H 125.679 V 41.600 H 124.953 V 41.982 H 125.615 V 42.256 H 124.953 V 42.651 H 125.693 V 42.926 Z" fill="#17141c" fill-rule="nonzero"/>
<circle cx="56.49" cy="123.95" r="0.85" fill="#E8500A" fill-opacity="0.95" stroke="none" stroke-width="0.25" stroke-opacity="1.0"/>
<path d="M 59.616 124.098 Q 59.616 124.226 59.550 124.323 Q 59.485 124.420 59.362 124.475 Q 59.240 124.530 59.066 124.530 Q 58.884 124.530 58.753 124.476 Q 58.622 124.422 58.534 124.337 L 58.680 124.174 Q 58.756 124.242 58.850 124.280 Q 58.944 124.319 59.062 124.319 Q 59.137 124.319 59.197 124.296 Q 59.257 124.272 59.292 124.227 Q 59.327 124.182 59.327 124.116 Q 59.327 124.059 59.303 124.019 Q 59.278 123.980 59.219 123.948 Q 59.160 123.917 59.055 123.886 Q 58.900 123.838 58.800 123.781 Q 58.699 123.724 58.651 123.645 Q 58.602 123.567 58.602 123.459 Q 58.602 123.339 58.669 123.251 Q 58.736 123.164 58.850 123.117 Q 58.964 123.070 59.104 123.070 Q 59.260 123.070 59.379 123.115 Q 59.497 123.160 59.587 123.243 L 59.449 123.400 Q 59.377 123.338 59.293 123.309 Q 59.210 123.279 59.124 123.279 Q 59.056 123.279 59.003 123.297 Q 58.949 123.316 58.919 123.351 Q 58.889 123.386 58.889 123.441 Q 58.889 123.491 58.917 123.526 Q 58.944 123.561 59.012 123.590 Q 59.080 123.620 59.198 123.658 Q 59.323 123.695 59.417 123.748 Q 59.510 123.801 59.563 123.884 Q 59.616 123.968 59.616 124.098 Z M 60.745 123.100 V 58.510 H 125.246 V 59.495 H 125.543 V 59.703 H 124.672 V 59.495 H 124.969 V 58.510 H 124.672 V 58.303 Z M 61.568 124.530 Q 61.381 124.530 61.249 124.447 Q 61.118 124.364 61.049 124.201 Q 60.979 124.038 60.979 123.797 Q 60.979 123.618 61.029 123.482 Q 61.078 123.346 61.165 123.254 Q 61.251 123.163 61.365 123.116 Q 61.479 123.070 61.607 123.070 Q 61.755 123.070 61.855 123.114 Q 61.955 123.159 62.037 123.236 L 61.886 123.391 Q 61.822 123.333 61.760 123.305 Q 61.697 123.278 61.618 123.278 Q 61.545 123.278 61.482 123.307 Q 61.419 123.335 61.370 123.397 Q 61.322 123.458 61.295 123.558 Q 61.268 123.657 61.268 123.799 Q 61.268 123.989 61.302 124.104 Q 61.335 124.219 61.404 124.270 Q 61.472 124.321 61.575 124.321 Q 61.633 124.321 61.684 124.307 Q 61.735 124.293 61.782 124.270 V 60.330 H 125.154 L 61.543 123.710 H 62.046 V 124.396 Q 61.945 124.455 61.829 124.493 Q 61.713 124.530 61.568 124.530 Z M 62.871 124.500 62.459 123.337 Q 62.464 123.375 62.471 123.436 Q 62.478 123.497 62.485 123.574 Q 62.492 123.651 62.496 123.737 Q 62.501 123.823 62.501 123.911 V 62.132 H 124.628 V 60.732 H 124.980 L 63.020 124.261 Q 63.012 124.209 63.002 124.124 Q 62.993 124.039 62.986 123.929 Q 62.978 123.819 62.978 123.694 V 60.732 H 125.587 V 62.132 Z M 64.181 124.179 H 63.721 L 124.786 63.347 H 124.500 L 63.785 123.100 H 64.125 L 125.716 63.347 H 125.421 Z M 63.770 123.972 H 64.129 L 125.103 62.154 Z M 64.780 124.500 V 63.162 H 124.996 V 64.337 H 125.614 L 65.646 124.500 Z M 68.119 124.098 Q 68.119 124.226 68.054 124.323 Q 67.988 124.420 67.866 124.475 Q 67.743 124.530 67.569 124.530 Q 67.387 124.530 67.257 124.476 Q 67.126 124.422 67.038 124.337 L 67.184 124.174 Q 67.260 124.242 67.354 124.280 Q 67.448 124.319 67.565 124.319 Q 67.640 124.319 67.700 124.296 Q 67.761 124.272 67.796 124.227 Q 67.831 124.182 67.831 124.116 Q 67.831 124.059 67.806 124.019 Q 67.782 123.980 67.723 123.948 Q 67.663 123.917 67.558 123.886 Q 67.403 123.838 67.303 123.781 Q 67.203 123.724 67.154 123.645 Q 67.106 123.567 67.106 123.459 Q 67.106 123.339 67.173 123.251 Q 67.239 123.164 67.353 123.117 Q 67.467 123.070 67.608 123.070 Q 67.764 123.070 67.882 123.115 Q 68.001 123.160 68.091 123.243 L 67.952 123.400 Q 67.880 123.338 67.797 123.309 Q 67.713 123.279 67.627 123.279 Q 67.559 123.279 67.506 123.297 Q 67.453 123.316 67.423 123.351 Q 67.392 123.386 67.392 123.441 Q 67.392 123.491 67.420 123.526 Q 67.448 123.561 67.516 123.590 Q 67.584 123.620 67.702 123.658 Q 67.826 123.695 67.920 123.748 Q 68.014 123.801 68.066 123.884 Q 68.119 123.968 68.119 124.098 Z M 68.949 123.318 V 68.206 H 124.967 V 67.024 H 124.558 V 66.806 H 125.664 L 69.342 123.318 Z M 70.255 124.179 H 69.794 L 124.786 69.421 H 124.500 L 69.859 123.100 H 70.199 L 125.716 69.421 H 125.421 Z M 69.844 123.972 H 70.203 L 125.103 68.228 Z M 71.482 124.087 Q 71.482 124.002 71.449 123.954 Q 71.416 123.907 71.358 123.887 Q 71.301 123.867 71.227 123.867 H 71.055 V 124.292 H 71.215 Q 125.129 70.428 125.176 70.420 Q 125.224 70.412 125.263 70.390 Q 125.302 70.368 125.324 70.328 Q 125.346 70.287 125.346 70.223 Z M 125.293 69.616 Q 125.293 69.521 125.233 69.480 Q 125.174 69.438 125.059 69.438 H 124.919 V 69.808 H 125.071 Q 71.320 123.672 71.374 123.627 Q 71.428 123.582 71.428 123.481 Z M 71.769 124.094 Q 71.769 124.213 71.723 124.291 Q 71.677 124.370 71.598 124.416 Q 71.519 124.462 71.420 124.481 Q 71.320 124.500 71.212 124.500 H 70.777 V 123.100 H 71.186 Q 125.154 69.236 125.247 69.253 Q 125.340 69.270 125.414 69.311 Q 125.487 69.352 125.530 69.421 Q 125.573 69.490 125.573 69.592 Q 125.573 69.678 125.537 69.740 Q 125.501 69.802 125.442 69.839 Q 125.383 69.877 125.315 69.895 Q 125.391 69.907 125.464 69.942 Q 125.538 69.977 125.586 70.046 Q 125.634 70.115 125.634 70.230 Z M 72.069 124.500 V 70.450 H 124.996 V 71.626 H 125.614 L 72.935 124.500 Z M 73.554 123.304 V 72.253 H 125.485 V 72.455 H 124.989 V 72.862 H 125.591 V 73.065 H 124.712 V 71.665 H 125.584 L 74.121 123.304 Z" fill="#6c6d72" fill-rule="nonzero"/>
</svg>
