<?xml version="1.0" encoding="UTF-8"?>
<!-- Generated by tools/panelgen (Sam-e system v0.4). Edit the spec, not this file. -->
<svg xmlns="http://www.w3.org/2000/svg" version="1.1" width="81.28mm" height="128.5mm" viewBox="0 0 81.28 128.5">
<defs><linearGradient id="bg" x1="0" y1="0" x2="0" y2="128.5" gradientUnits="userSpaceOnUse"><stop offset="0" stop-color="#e2e3e6"/><stop offset="0.5" stop-color="#d2d3d7"/><stop offset="1" stop-color="#bfc0c5"/></linearGradient></defs>
<rect x="0" y="0" width="81.28" height="128.5" fill="url(#bg)"/>
<line x1="40.64" y1="15.50" x2="40.64" y2="102.00" stroke="#2b2733" stroke-width="0.18" stroke-opacity="0.16" stroke-linecap="round"/>
<line x1="39.94" y1="20.00" x2="41.34" y2="20.00" stroke="#2b2733" stroke-width="0.18" stroke-opacity="0.16" stroke-linecap="round"/>
<line x1="39.94" y1="30.00" x2="41.34" y2="30.00" stroke="#2b2733" stroke-width="0.18" stroke-opacity="0.16" stroke-linecap="round"/>
<line x1="39.94" y1="40.00" x2="41.34" y2="40.00" stroke="#2b2733" stroke-width="0.18" stroke-opacity="0.16" stroke-linecap="round"/>
<line x1="39.94" y1="50.00" x2="41.34" y2="50.00" stroke="#2b2733" stroke-width="0.18" stroke-opacity="0.16" stroke-linecap="round"/>
<line x1="39.94" y1="60.00" x2="41.34" y2="60.00" stroke="#2b2733" stroke-width="0.18" stroke-opacity="0.16" stroke-linecap="round"/>
<line x1="39.94" y1="70.00" x2="41.34" y2="70.00" stroke="#2b2733" stroke-width="0.18" stroke-opacity="0.16" stroke-linecap="round"/>
<line x1="39.94" y1="80.00" x2="41.34" y2="80.00" stroke="#2b2733" stroke-width="0.18" stroke-opacity="0.16" stroke-linecap="round"/>
<line x1="39.94" y1="90.00" x2="41.34" y2="90.00" stroke="#2b2733" stroke-width="0.18" stroke-opacity="0.16" stroke-linecap="round"/>
<line x1="39.94" y1="100.00" x2="41.34" y2="100.00" stroke="#2b2733" stroke-width="0.18" stroke-opacity="0.16" stroke-linecap="round"/>
<path d="M40.64,56.90 L41.74,58.00 L40.64,59.10 L39.54,58.00 Z" fill="none" stroke="#2b2733" stroke-width="0.18" stroke-opacity="0.22"/>
<line x1="9.32" y1="15.50" x2="11.72" y2="15.50" stroke="#2b2733" stroke-width="0.22" stroke-opacity="0.3" stroke-linecap="round"/><line x1="9.32" y1="15.50" x2="9.32" y2="17.90" stroke="#2b2733" stroke-width="0.22" stroke-opacity="0.3" stroke-linecap="round"/><line x1="31.32" y1="15.50" x2="28.92" y2="15.50" stroke="#2b2733" stroke-width="0.22" stroke-opacity="0.3" stroke-linecap="round"/><line x1="31.32" y1="15.50" x2="31.32" y2="17.90" stroke="#2b2733" stroke-width="0.22" stroke-opacity="0.3" stroke-linecap="round"/><line x1="9.32" y1="121.00" x2="11.72" y2="121.00" stroke="#2b2733" stroke-width="0.22" stroke-opacity="0.3" stroke-linecap="round"/><line x1="9.32" y1="121.00" x2="9.32" y2="118.60" stroke="#2b2733" stroke-width="0.22" stroke-opacity="0.3" stroke-linecap="round"/><line x1="31.32" y1="121.00" x2="28.92" y2="121.00" stroke="#2b2733" stroke-width="0.22" stroke-opacity="0.3" stroke-linecap="round"/><line x1="31.32" y1="121.00" x2="31.32" y2="118.60" stroke="#2b2733" stroke-width="0.22" stroke-opacity="0.3" stroke-linecap="round"/>
<line x1="49.96" y1="15.50" x2="52.36" y2="15.50" stroke="#2b2733" stroke-width="0.22" stroke-opacity="0.3" stroke-linecap="round"/><line x1="49.96" y1="15.50" x2="49.96" y2="17.90" stroke="#2b2733" stroke-width="0.22" stroke-opacity="0.3" stroke-linecap="round"/><line x1="71.96" y1="15.50" x2="69.56" y2="15.50" stroke="#2b2733" stroke-width="0.22" stroke-opacity="0.3" stroke-linecap="round"/><line x1="71.96" y1="15.50" x2="71.96" y2="17.90" stroke="#2b2733" stroke-width="0.22" stroke-opacity="0.3" stroke-linecap="round"/><line x1="49.96" y1="121.00" x2="52.36" y2="121.00" stroke="#2b2733" stroke-width="0.22" stroke-opacity="0.3" stroke-linecap="round"/><line x1="49.96" y1="121.00" x2="49.96" y2="118.60" stroke="#2b2733" stroke-width="0.22" stroke-opacity="0.3" stroke-linecap="round"/><line x1="71.96" y1="121.00" x2="69.56" y2="121.00" stroke="#2b2733" stroke-width="0.22" stroke-opacity="0.3" stroke-linecap="round"/><line x1="71.96" y1="121.00" x2="71.96" y2="118.60" stroke="#2b2733" stroke-width="0.22" stroke-opacity="0.3" stroke-linecap="round"/>
<path d="M 12.427 5.442 Q 12.184 5.442 11.998 5.355 Q 11.812 5.268 11.707 5.106 Q 11.602 4.944 11.602 4.716 V 4.632 H 11.992 V 4.716 Q 11.992 4.905 12.109 5.000 Q 12.226 5.094 12.427 5.094 Q 12.631 5.094 12.732 5.013 Q 12.832 4.932 12.832 4.806 Q 12.832 4.719 12.783 4.665 Q 12.733 4.611 12.639 4.577 Q 12.544 4.542 12.409 4.512 L 12.340 4.497 Q 12.124 4.449 11.970 4.376 Q 11.815 4.302 11.732 4.182 Q 11.650 4.062 11.650 3.870 Q 11.650 3.678 11.742 3.542 Q 11.833 3.405 11.999 3.332 Q 12.166 3.258 12.391 3.258 Q 12.616 3.258 12.791 3.335 Q 12.967 3.411 13.068 3.562 Q 13.168 3.714 13.168 3.942 V 4.032 H 12.778 V 3.942 Q 12.778 3.822 12.732 3.748 Q 12.685 3.675 12.598 3.641 Q 12.511 3.606 12.391 3.606 Q 12.211 3.606 12.126 3.674 Q 12.040 3.741 12.040 3.858 Q 12.040 3.936 12.081 3.990 Q 12.121 4.044 12.202 4.080 Q 12.283 4.116 12.409 4.143 L 12.478 4.158 Q 12.703 4.206 12.870 4.281 Q 13.036 4.356 13.129 4.479 Q 13.222 4.602 13.222 4.794 Q 13.222 4.986 13.124 5.131 Q 13.027 5.277 12.848 5.360 Q 12.670 5.442 12.427 5.442 Z M 13.522 4.806 V 4.464 H 14.410 V 4.806 Z" fill="#E8500A" fill-rule="nonzero"/>
<path d="M 15.352 5.400 V 5.052 H 15.628 V 3.648 H 15.352 V 3.300 H 16.432 Q 16.624 3.300 16.766 3.365 Q 16.909 3.429 16.988 3.548 Q 17.068 3.666 17.068 3.831 V 3.861 Q 17.068 4.005 17.014 4.097 Q 16.960 4.188 16.886 4.238 Q 16.813 4.287 16.747 4.308 V 4.362 Q 16.813 4.380 16.891 4.429 Q 16.969 4.479 17.024 4.572 Q 17.080 4.665 17.080 4.815 V 4.845 Q 17.080 5.019 16.999 5.144 Q 16.918 5.268 16.775 5.334 Q 16.633 5.400 16.444 5.400 Z M 16.024 5.040 H 16.396 Q 16.525 5.040 16.604 4.977 Q 16.684 4.914 16.684 4.797 V 4.767 Q 16.684 4.650 16.606 4.587 Q 16.528 4.524 16.396 4.524 H 16.024 Z M 16.024 4.164 H 16.390 Q 16.513 4.164 16.592 4.101 Q 16.672 4.038 16.672 3.927 V 3.897 Q 16.672 3.783 16.594 3.721 Q 16.516 3.660 16.390 3.660 H 16.024 Z M 17.260 5.400 17.812 3.300 H 18.502 L 19.054 5.400 H 18.646 L 18.532 4.938 H 17.782 L 17.668 5.400 Z M 17.875 4.572 H 18.439 L 18.184 3.549 H 18.130 Z M 19.306 5.400 V 3.300 H 20.059 L 20.476 5.130 H 20.530 V 3.300 H 20.920 V 5.400 H 20.167 L 19.750 3.570 H 19.696 V 5.400 Z M 21.316 5.400 V 3.300 H 21.712 V 4.134 H 21.766 L 22.447 3.300 H 22.954 L 22.078 4.335 L 22.984 5.400 H 22.462 L 21.766 4.548 H 21.712 V 5.400 Z" fill="#17141c" fill-rule="nonzero"/>
<path d="M 13.089 10.672 Q 12.673 10.672 12.354 10.523 Q 12.035 10.374 11.855 10.096 Q 11.675 9.818 11.675 9.427 V 9.283 H 12.343 V 9.427 Q 12.343 9.751 12.544 9.913 Q 12.745 10.075 13.089 10.075 Q 13.439 10.075 13.611 9.937 Q 13.783 9.798 13.783 9.582 Q 13.783 9.433 13.699 9.340 Q 13.614 9.247 13.452 9.188 Q 13.290 9.129 13.058 9.078 L 12.940 9.052 Q 12.570 8.970 12.305 8.844 Q 12.040 8.718 11.899 8.512 Q 11.757 8.306 11.757 7.977 Q 11.757 7.648 11.914 7.414 Q 12.071 7.180 12.356 7.054 Q 12.642 6.928 13.027 6.928 Q 13.413 6.928 13.714 7.059 Q 14.015 7.190 14.187 7.450 Q 14.359 7.710 14.359 8.101 V 8.255 H 13.691 V 8.101 Q 13.691 7.895 13.611 7.769 Q 13.531 7.643 13.382 7.584 Q 13.233 7.525 13.027 7.525 Q 12.719 7.525 12.572 7.640 Q 12.426 7.756 12.426 7.957 Q 12.426 8.090 12.495 8.183 Q 12.565 8.275 12.703 8.337 Q 12.842 8.399 13.058 8.445 L 13.177 8.471 Q 13.562 8.553 13.848 8.682 Q 14.133 8.810 14.293 9.021 Q 14.452 9.232 14.452 9.561 Q 14.452 9.890 14.285 10.140 Q 14.118 10.389 13.812 10.531 Q 13.506 10.672 13.089 10.672 Z M 15.789 10.600 V 7.617 H 14.740 V 7.000 H 17.517 V 7.617 H 16.468 V 10.600 Z M 17.980 10.600 V 7.000 H 19.543 Q 19.883 7.000 20.135 7.118 Q 20.387 7.237 20.526 7.453 Q 20.665 7.669 20.665 7.962 V 8.023 Q 20.665 8.347 20.510 8.548 Q 20.356 8.749 20.130 8.841 V 8.934 Q 20.335 8.944 20.449 9.075 Q 20.562 9.206 20.562 9.422 V 10.600 H 19.883 V 9.520 Q 19.883 9.397 19.819 9.319 Q 19.754 9.242 19.605 9.242 H 18.659 V 10.600 Z M 18.659 8.625 H 19.471 Q 19.713 8.625 19.849 8.494 Q 19.986 8.363 19.986 8.147 V 8.095 Q 19.986 7.879 19.852 7.748 Q 19.718 7.617 19.471 7.617 H 18.659 Z M 21.230 10.600 V 7.000 H 21.909 V 10.600 Z M 22.588 10.600 V 7.000 H 23.267 V 8.430 H 23.359 L 24.527 7.000 H 25.396 L 23.894 8.774 L 25.447 10.600 H 24.553 L 23.359 9.139 H 23.267 V 10.600 Z M 25.807 10.600 V 7.000 H 28.122 V 7.617 H 26.486 V 8.476 H 27.978 V 9.093 H 26.486 V 9.983 H 28.153 V 10.600 Z" fill="#17141c" fill-rule="nonzero"/>
<path d="M 55.039 3.900 V 5.180 H 55.331 V 5.400 H 54.395 V 5.180 H 54.758 V 4.189 L 54.438 4.387 L 54.315 4.189 L 54.786 3.900 Z M 56.211 3.867 Q 56.307 3.867 56.385 3.892 Q 56.464 3.916 56.527 3.961 L 56.417 4.139 Q 56.372 4.107 56.320 4.092 Q 56.268 4.077 56.215 4.077 Q 56.117 4.077 56.044 4.141 Q 55.971 4.205 55.930 4.324 Q 55.896 4.426 55.889 4.563 Q 55.952 4.488 56.029 4.450 Q 56.121 4.404 56.221 4.404 Q 56.337 4.404 56.433 4.460 Q 56.528 4.516 56.585 4.625 Q 56.642 4.733 56.642 4.892 Q 56.642 5.049 56.578 5.171 Q 56.514 5.293 56.398 5.363 Q 56.283 5.433 56.131 5.433 Q 55.986 5.433 55.884 5.378 Q 55.782 5.323 55.718 5.225 Q 55.654 5.127 55.624 4.995 Q 55.594 4.863 55.594 4.711 Q 55.594 4.460 55.668 4.269 Q 55.742 4.079 55.880 3.973 Q 56.018 3.867 56.211 3.867 Z M 55.890 4.758 Q 55.895 4.981 55.943 5.095 Q 55.997 5.222 56.133 5.222 Q 56.246 5.222 56.300 5.133 Q 56.354 5.044 56.354 4.908 Q 56.354 4.797 56.330 4.732 Q 56.305 4.668 56.260 4.639 Q 56.216 4.610 56.153 4.610 Q 56.068 4.610 55.994 4.659 Q 55.936 4.698 55.890 4.758 Z M 57.632 5.400 V 4.741 H 57.198 V 5.400 H 56.901 V 3.900 H 57.198 V 4.497 H 57.632 V 3.900 H 57.929 V 5.400 Z M 58.993 4.380 Q 58.993 4.287 58.958 4.229 Q 58.923 4.171 58.856 4.144 Q 58.788 4.117 58.694 4.117 H 58.539 V 4.660 H 58.703 Q 58.792 4.660 58.856 4.633 Q 58.921 4.605 58.957 4.543 Q 58.993 4.481 58.993 4.380 Z M 59.301 4.378 Q 59.301 4.553 59.227 4.664 Q 59.153 4.775 59.019 4.828 Q 58.886 4.880 58.711 4.880 H 58.539 V 5.400 H 58.242 V 3.900 H 58.683 Q 58.975 3.900 59.138 4.018 Q 59.301 4.136 59.301 4.378 Z M 60.975 5.636 60.749 5.533 61.667 3.633 61.890 3.738 Z M 64.480 4.969 Q 64.480 5.106 64.411 5.210 Q 64.341 5.314 64.209 5.373 Q 64.078 5.433 63.892 5.433 Q 63.696 5.433 63.556 5.375 Q 63.417 5.316 63.322 5.225 L 63.478 5.051 Q 63.560 5.123 63.661 5.165 Q 63.761 5.206 63.887 5.206 Q 63.967 5.206 64.032 5.181 Q 64.097 5.156 64.134 5.108 Q 64.171 5.059 64.171 4.989 Q 64.171 4.927 64.145 4.885 Q 64.119 4.843 64.056 4.809 Q 63.992 4.775 63.880 4.742 Q 63.714 4.691 63.606 4.629 Q 63.499 4.568 63.447 4.484 Q 63.395 4.400 63.395 4.285 Q 63.395 4.156 63.466 4.062 Q 63.538 3.968 63.660 3.918 Q 63.782 3.867 63.933 3.867 Q 64.100 3.867 64.227 3.916 Q 64.354 3.964 64.450 4.053 L 64.302 4.221 Q 64.225 4.155 64.135 4.123 Q 64.046 4.092 63.953 4.092 Q 63.881 4.092 63.824 4.111 Q 63.767 4.131 63.734 4.169 Q 63.702 4.207 63.702 4.266 Q 63.702 4.319 63.732 4.356 Q 63.761 4.393 63.834 4.425 Q 63.907 4.457 64.034 4.498 Q 64.167 4.538 64.267 4.594 Q 64.368 4.651 64.424 4.740 Q 64.480 4.830 64.480 4.969 Z M 64.767 4.835 V 4.607 H 65.682 V 4.835 Z M 66.526 3.867 Q 66.785 3.867 66.918 4.072 Q 67.050 4.276 67.050 4.647 Q 67.050 5.019 66.918 5.226 Q 66.785 5.433 66.526 5.433 Q 66.266 5.433 66.134 5.226 Q 66.002 5.019 66.002 4.647 Q 66.002 4.276 66.134 4.072 Q 66.266 3.867 66.526 3.867 Z M 66.526 4.080 Q 66.404 4.080 66.341 4.211 Q 66.279 4.341 66.279 4.647 Q 66.279 4.816 66.292 4.927 Q 66.295 4.956 66.299 4.982 L 66.699 4.160 Q 66.687 4.143 66.673 4.129 Q 66.618 4.080 66.526 4.080 Z M 66.371 5.161 Q 66.388 5.181 66.410 5.193 Q 66.457 5.220 66.526 5.220 Q 66.609 5.220 66.663 5.164 Q 66.718 5.108 66.745 4.982 Q 66.772 4.856 66.772 4.647 Q 66.772 4.478 66.758 4.366 Z M 67.828 3.867 Q 68.087 3.867 68.219 4.072 Q 68.352 4.276 68.352 4.647 Q 68.352 5.019 68.219 5.226 Q 68.087 5.433 67.828 5.433 Q 67.567 5.433 67.436 5.226 Q 67.304 5.019 67.304 4.647 Q 67.304 4.276 67.436 4.072 Q 67.567 3.867 67.828 3.867 Z M 67.828 4.080 Q 67.705 4.080 67.643 4.211 Q 67.580 4.341 67.580 4.647 Q 67.580 4.816 67.593 4.927 Q 67.597 4.956 67.601 4.982 L 68.000 4.160 Q 67.988 4.143 67.974 4.129 Q 67.920 4.080 67.828 4.080 Z M 67.673 5.161 Q 67.690 5.181 67.712 5.193 Q 67.758 5.220 67.828 5.220 Q 67.910 5.220 67.965 5.164 Q 68.020 5.108 68.047 4.982 Q 68.074 4.856 68.074 4.647 Q 68.074 4.478 68.060 4.366 Z M 69.072 3.867 Q 69.233 3.867 69.343 3.925 Q 69.454 3.982 69.510 4.080 Q 69.566 4.177 69.566 4.293 Q 69.566 4.388 69.534 4.479 Q 69.501 4.570 69.428 4.671 Q 69.355 4.772 69.234 4.895 Q 69.114 5.018 68.937 5.175 H 69.601 L 69.570 5.400 H 68.610 V 5.191 Q 68.765 5.041 68.878 4.927 Q 68.990 4.812 69.067 4.724 Q 69.143 4.636 69.188 4.566 Q 69.233 4.497 69.253 4.436 Q 69.272 4.375 69.272 4.314 Q 69.272 4.211 69.213 4.152 Q 69.154 4.092 69.048 4.092 Q 68.954 4.092 68.888 4.128 Q 68.822 4.165 68.759 4.246 L 68.579 4.109 Q 68.665 3.994 68.783 3.931 Q 68.901 3.867 69.072 3.867 Z" fill="#6c6d72" fill-rule="nonzero"/>
<path d="M 48.772 7.293 Q 48.772 7.138 48.744 7.041 Q 48.715 6.945 48.665 6.894 Q 48.615 6.843 48.553 6.825 Q 48.490 6.807 48.422 6.807 H 48.319 V 7.795 H 48.423 Q 48.494 7.795 48.557 7.772 Q 48.621 7.750 48.669 7.695 Q 48.718 7.640 48.745 7.542 Q 48.772 7.444 48.772 7.293 Z M 49.062 7.293 Q 49.062 7.466 49.025 7.588 Q 48.988 7.710 48.923 7.791 Q 48.858 7.871 48.774 7.917 Q 48.689 7.963 48.594 7.981 Q 48.498 8.000 48.400 8.000 H 48.042 V 6.600 H 48.376 Q 48.506 6.600 48.629 6.628 Q 48.751 6.656 48.849 6.730 Q 48.946 6.803 49.004 6.940 Q 49.062 7.076 49.062 7.293 Z M 50.237 6.600 V 7.536 Q 50.237 7.679 50.179 7.791 Q 50.121 7.903 50.009 7.967 Q 49.898 8.030 49.735 8.030 Q 49.571 8.030 49.460 7.968 Q 49.348 7.906 49.292 7.795 Q 49.235 7.683 49.235 7.536 V 6.600 H 49.512 V 7.458 Q 49.512 7.638 49.561 7.727 Q 49.610 7.817 49.735 7.817 Q 49.862 7.817 49.910 7.727 Q 49.959 7.638 49.959 7.458 V 6.600 Z M 51.178 7.679 H 50.717 L 50.630 8.000 H 50.344 L 50.782 6.600 H 51.122 L 51.559 8.000 H 51.265 Z M 50.767 7.472 H 51.126 L 50.947 6.808 Z M 51.777 8.000 V 6.600 H 52.054 V 7.775 H 52.672 L 52.642 8.000 Z M 54.207 8.000 V 6.600 H 54.484 V 7.775 H 55.101 L 55.072 8.000 Z M 56.355 7.299 Q 56.355 7.518 56.293 7.683 Q 56.232 7.847 56.111 7.939 Q 55.989 8.030 55.810 8.030 Q 55.632 8.030 55.510 7.941 Q 55.388 7.851 55.327 7.688 Q 55.265 7.524 55.265 7.301 Q 55.265 7.082 55.327 6.917 Q 55.388 6.753 55.510 6.661 Q 55.632 6.570 55.810 6.570 Q 55.989 6.570 56.111 6.659 Q 56.232 6.748 56.293 6.912 Q 56.355 7.076 56.355 7.299 Z M 56.069 7.299 Q 56.069 7.034 56.009 6.906 Q 55.949 6.778 55.810 6.778 Q 55.671 6.778 55.611 6.907 Q 55.551 7.035 55.551 7.301 Q 55.551 7.567 55.613 7.694 Q 55.674 7.821 55.810 7.821 Q 55.951 7.821 56.010 7.692 Q 56.069 7.564 56.069 7.299 Z M 57.633 6.600 57.452 8.000 H 57.147 L 57.025 6.980 L 56.895 8.000 H 56.584 L 56.416 6.600 H 56.681 L 56.764 7.748 L 56.897 6.762 H 57.158 L 57.285 7.748 L 57.388 6.600 Z M 57.812 7.473 V 7.260 H 58.667 V 7.473 Z M 59.712 7.048 Q 59.712 6.961 59.680 6.907 Q 59.647 6.853 59.584 6.828 Q 59.521 6.802 59.433 6.802 H 59.288 V 7.310 H 59.441 Q 59.524 7.310 59.584 7.284 Q 59.645 7.258 59.679 7.200 Q 59.712 7.143 59.712 7.048 Z M 60.000 7.046 Q 60.000 7.209 59.931 7.313 Q 59.861 7.417 59.737 7.466 Q 59.612 7.515 59.449 7.515 H 59.288 V 8.000 H 59.011 V 6.600 H 59.423 Q 59.695 6.600 59.848 6.710 Q 60.000 6.821 60.000 7.046 Z M 60.896 7.679 H 60.435 L 60.348 8.000 H 60.062 L 60.500 6.600 H 60.840 L 61.278 8.000 H 60.983 Z M 60.485 7.472 H 60.844 L 60.665 6.808 Z M 62.404 7.598 Q 62.404 7.726 62.339 7.823 Q 62.274 7.920 62.151 7.975 Q 62.029 8.030 61.855 8.030 Q 61.672 8.030 61.542 7.976 Q 61.411 7.922 61.323 7.837 L 61.469 7.674 Q 61.545 7.742 61.639 7.780 Q 61.733 7.819 61.851 7.819 Q 61.925 7.819 61.986 7.796 Q 62.046 7.772 62.081 7.727 Q 62.116 7.682 62.116 7.616 Q 62.116 7.559 62.091 7.519 Q 62.067 7.480 62.008 7.448 Q 61.949 7.417 61.843 7.386 Q 61.689 7.338 61.588 7.281 Q 61.488 7.224 61.440 7.145 Q 61.391 7.067 61.391 6.959 Q 61.391 6.839 61.458 6.751 Q 61.525 6.664 61.638 6.617 Q 61.752 6.570 61.893 6.570 Q 62.049 6.570 62.167 6.615 Q 62.286 6.660 62.376 6.743 L 62.237 6.900 Q 62.165 6.838 62.082 6.809 Q 61.998 6.779 61.912 6.779 Q 61.844 6.779 61.791 6.797 Q 61.738 6.816 61.708 6.851 Q 61.677 6.886 61.677 6.941 Q 61.677 6.991 61.705 7.026 Q 61.733 7.061 61.801 7.090 Q 61.869 7.120 61.987 7.158 Q 62.112 7.195 62.205 7.248 Q 62.299 7.301 62.352 7.384 Q 62.404 7.468 62.404 7.598 Z M 63.619 7.598 Q 63.619 7.726 63.554 7.823 Q 63.488 7.920 63.366 7.975 Q 63.243 8.030 63.069 8.030 Q 62.887 8.030 62.757 7.976 Q 62.626 7.922 62.538 7.837 L 62.684 7.674 Q 62.760 7.742 62.854 7.780 Q 62.948 7.819 63.065 7.819 Q 63.140 7.819 63.200 7.796 Q 63.261 7.772 63.296 7.727 Q 63.331 7.682 63.331 7.616 Q 63.331 7.559 63.306 7.519 Q 63.282 7.480 63.223 7.448 Q 63.163 7.417 63.058 7.386 Q 62.903 7.338 62.803 7.281 Q 62.703 7.224 62.654 7.145 Q 62.606 7.067 62.606 6.959 Q 62.606 6.839 62.673 6.751 Q 62.739 6.664 62.853 6.617 Q 62.967 6.570 63.108 6.570 Q 63.264 6.570 63.382 6.615 Q 63.501 6.660 63.591 6.743 L 63.452 6.900 Q 63.380 6.838 63.297 6.809 Q 63.213 6.779 63.127 6.779 Q 63.059 6.779 63.006 6.797 Q 62.953 6.816 62.923 6.851 Q 62.892 6.886 62.892 6.941 Q 62.892 6.991 62.920 7.026 Q 62.948 7.061 63.016 7.090 Q 63.084 7.120 63.202 7.158 Q 63.326 7.195 63.420 7.248 Q 63.514 7.301 63.566 7.384 Q 63.619 7.468 63.619 7.598 Z M 65.572 8.030 Q 65.385 8.030 65.253 7.947 Q 65.121 7.864 65.052 7.701 Q 64.983 7.538 64.983 7.297 Q 64.983 7.118 65.032 6.982 Q 65.082 6.846 65.168 6.754 Q 65.255 6.663 65.369 6.616 Q 65.483 6.570 65.610 6.570 Q 65.758 6.570 65.858 6.614 Q 65.958 6.659 66.040 6.736 L 65.890 6.891 Q 65.826 6.833 65.763 6.805 Q 65.700 6.778 65.621 6.778 Q 65.549 6.778 65.485 6.807 Q 65.422 6.835 65.374 6.897 Q 65.326 6.958 65.298 7.058 Q 65.271 7.157 65.271 7.299 Q 65.271 7.489 65.305 7.604 Q 65.339 7.719 65.407 7.770 Q 65.476 7.821 65.579 7.821 Q 65.637 7.821 65.688 7.807 Q 65.739 7.793 65.785 7.770 V 7.413 H 65.575 L 65.546 7.210 H 66.050 V 7.896 Q 65.948 7.955 65.832 7.993 Q 65.717 8.030 65.572 8.030 Z M 66.970 7.679 H 66.509 L 66.422 8.000 H 66.136 L 66.574 6.600 H 66.914 L 67.351 8.000 H 67.057 Z M 66.559 7.472 H 66.918 L 66.739 6.808 Z M 68.093 6.818 V 8.000 H 67.817 V 6.818 H 67.408 V 6.600 H 68.515 L 68.486 6.818 Z M 69.054 6.804 V 7.188 H 69.550 V 7.390 H 69.054 V 7.797 H 69.656 V 8.000 H 68.777 V 6.600 H 69.649 L 69.621 6.804 Z" fill="#6c6d72" fill-rule="nonzero"/>
<path d="M 58.055 10.175 H 58.746 L 58.715 10.400 H 57.734 V 10.189 L 58.425 9.219 H 57.807 V 9.000 H 58.737 V 9.213 Z M 59.336 9.204 V 9.588 H 59.832 V 9.790 H 59.336 V 10.197 H 59.938 V 10.400 H 59.059 V 9.000 H 59.931 L 59.903 9.204 Z M 61.181 9.414 Q 61.181 9.515 61.141 9.591 Q 61.101 9.667 61.033 9.719 Q 60.965 9.770 60.880 9.799 L 61.263 10.400 H 60.945 L 60.614 9.842 H 60.487 V 10.400 H 60.211 V 9.000 H 60.623 Q 60.899 9.000 61.040 9.102 Q 61.181 9.204 61.181 9.414 Z M 60.894 9.414 Q 60.894 9.301 60.828 9.251 Q 60.762 9.200 60.630 9.200 H 60.487 V 9.646 H 60.639 Q 60.761 9.646 60.828 9.591 Q 60.894 9.537 60.894 9.414 Z M 62.429 9.699 Q 62.429 9.918 62.367 10.083 Q 62.306 10.247 62.185 10.339 Q 62.063 10.430 61.884 10.430 Q 61.706 10.430 61.584 10.341 Q 61.462 10.251 61.401 10.088 Q 61.339 9.924 61.339 9.701 Q 61.339 9.482 61.401 9.317 Q 61.462 9.153 61.584 9.061 Q 61.706 8.970 61.884 8.970 Q 62.063 8.970 62.185 9.059 Q 62.306 9.148 62.367 9.312 Q 62.429 9.476 62.429 9.699 Z M 62.143 9.699 Q 62.143 9.434 62.083 9.306 Q 62.023 9.178 61.884 9.178 Q 61.745 9.178 61.685 9.307 Q 61.625 9.435 61.625 9.701 Q 61.625 9.967 61.687 10.094 Q 61.748 10.221 61.884 10.221 Q 62.025 10.221 62.084 10.092 Q 62.143 9.964 62.143 9.699 Z M 64.552 9.987 Q 64.552 9.902 64.519 9.854 Q 64.487 9.807 64.429 9.787 Q 64.371 9.767 64.297 9.767 H 64.125 V 10.192 H 64.285 Q 64.335 10.192 64.382 10.184 Q 64.430 10.176 64.469 10.155 Q 64.508 10.133 64.530 10.092 Q 64.552 10.052 64.552 9.987 Z M 64.499 9.381 Q 64.499 9.285 64.440 9.244 Q 64.380 9.202 64.265 9.202 H 64.125 V 9.572 H 64.277 Q 64.390 9.572 64.445 9.527 Q 64.499 9.482 64.499 9.381 Z M 64.840 9.994 Q 64.840 10.113 64.794 10.191 Q 64.748 10.270 64.669 10.316 Q 64.590 10.362 64.490 10.381 Q 64.390 10.400 64.282 10.400 H 63.848 V 9.000 H 64.257 Q 64.360 9.000 64.453 9.017 Q 64.546 9.034 64.620 9.075 Q 64.693 9.116 64.736 9.185 Q 64.779 9.254 64.779 9.356 Q 64.779 9.442 64.743 9.504 Q 64.707 9.566 64.648 9.604 Q 64.589 9.642 64.521 9.659 Q 64.597 9.671 64.670 9.706 Q 64.744 9.741 64.792 9.810 Q 64.840 9.880 64.840 9.994 Z M 65.140 10.400 V 9.000 H 65.417 V 10.175 H 66.034 L 66.005 10.400 Z M 66.625 9.204 V 9.588 H 67.121 V 9.790 H 66.625 V 10.197 H 67.227 V 10.400 H 66.347 V 9.000 H 67.220 L 67.191 9.204 Z M 67.839 9.204 V 9.588 H 68.335 V 9.790 H 67.839 V 10.197 H 68.442 V 10.400 H 67.562 V 9.000 H 68.435 L 68.406 9.204 Z M 69.424 9.693 Q 69.424 9.538 69.395 9.441 Q 69.366 9.345 69.316 9.294 Q 69.267 9.243 69.204 9.225 Q 69.141 9.207 69.073 9.207 H 68.970 V 10.195 H 69.074 Q 69.145 10.195 69.209 10.172 Q 69.272 10.150 69.320 10.095 Q 69.369 10.040 69.396 9.942 Q 69.424 9.844 69.424 9.693 Z M 69.713 9.693 Q 69.713 9.866 69.676 9.988 Q 69.639 10.110 69.574 10.191 Q 69.510 10.271 69.425 10.317 Q 69.341 10.363 69.245 10.381 Q 69.149 10.400 69.051 10.400 H 68.693 V 9.000 H 69.027 Q 69.157 9.000 69.280 9.028 Q 69.402 9.056 69.500 9.130 Q 69.598 9.203 69.655 9.340 Q 69.713 9.476 69.713 9.693 Z" fill="#6c6d72" fill-rule="nonzero"/>
<line x1="7.00" y1="12.20" x2="74.28" y2="12.20" stroke="#2b2733" stroke-width="0.25" stroke-opacity="0.34" stroke-linecap="round"/>
<line x1="11.82" y1="73.00" x2="28.82" y2="73.00" stroke="#0E93A6" stroke-width="0.18" stroke-opacity="0.32" stroke-linecap="round"/>
<path d="M 19.830 67.970 Q 19.976 67.970 20.077 68.008 Q 20.178 68.046 20.264 68.116 L 20.124 68.283 Q 20.064 68.233 19.992 68.207 Q 19.921 68.180 19.840 68.180 Q 19.743 68.180 19.661 68.232 Q 19.580 68.283 19.531 68.397 Q 19.482 68.511 19.482 68.697 Q 19.482 68.881 19.529 68.994 Q 19.576 69.107 19.657 69.160 Q 19.739 69.212 19.842 69.212 Q 19.951 69.212 20.023 69.173 Q 20.095 69.135 20.153 69.089 L 20.284 69.254 Q 20.210 69.327 20.099 69.379 Q 19.988 69.430 19.830 69.430 Q 19.647 69.430 19.503 69.346 Q 19.359 69.262 19.277 69.099 Q 19.195 68.936 19.195 68.697 Q 19.195 68.463 19.280 68.300 Q 19.364 68.138 19.509 68.054 Q 19.653 67.970 19.830 67.970 Z M 20.932 69.162 21.236 68.000 H 21.520 L 21.092 69.400 H 20.762 L 20.337 68.000 H 20.632 Z" fill="#0E93A6" fill-rule="nonzero"/>
<line x1="52.46" y1="73.00" x2="69.46" y2="73.00" stroke="#0E93A6" stroke-width="0.18" stroke-opacity="0.32" stroke-linecap="round"/>
<path d="M 60.470 67.970 Q 60.616 67.970 60.717 68.008 Q 60.818 68.046 60.904 68.116 L 60.764 68.283 Q 60.704 68.233 60.632 68.207 Q 60.561 68.180 60.480 68.180 Q 60.383 68.180 60.301 68.232 Q 60.220 68.283 60.171 68.397 Q 60.122 68.511 60.122 68.697 Q 60.122 68.881 60.169 68.994 Q 60.216 69.107 60.297 69.160 Q 60.379 69.212 60.482 69.212 Q 60.591 69.212 60.663 69.173 Q 60.735 69.135 60.793 69.089 L 60.924 69.254 Q 60.850 69.327 60.739 69.379 Q 60.628 69.430 60.470 69.430 Q 60.287 69.430 60.143 69.346 Q 59.999 69.262 59.917 69.099 Q 59.835 68.936 59.835 68.697 Q 59.835 68.463 59.920 68.300 Q 60.004 68.138 60.149 68.054 Q 60.293 67.970 60.470 67.970 Z M 61.572 69.162 61.876 68.000 H 62.160 L 61.732 69.400 H 61.402 L 60.977 68.000 H 61.272 Z" fill="#0E93A6" fill-rule="nonzero"/>
<circle cx="20.32" cy="24.00" r="5.80" fill="#b4b5ba" fill-opacity="0.9" stroke="#2b2733" stroke-width="0.2" stroke-opacity="0.5"/>
<path d="M14.45,29.87 A8.30,8.30 0 1 1 26.19,29.87" fill="none" stroke="#2b2733" stroke-width="0.16" stroke-opacity="0.14" stroke-linecap="round"/><path d="M15.16,29.16 A7.30,7.30 0 1 1 25.48,29.16" fill="none" stroke="#2b2733" stroke-width="0.22" stroke-opacity="0.28" stroke-linecap="round"/><line x1="16.15" y1="28.17" x2="15.07" y2="29.25" stroke="#2b2733" stroke-width="0.26" stroke-opacity="0.46" stroke-linecap="round"/><line x1="14.04" y1="26.04" x2="13.26" y2="26.29" stroke="#2b2733" stroke-width="0.15" stroke-opacity="0.32" stroke-linecap="round"/><line x1="13.80" y1="22.97" x2="12.99" y2="22.84" stroke="#2b2733" stroke-width="0.15" stroke-opacity="0.32" stroke-linecap="round"/><line x1="14.98" y1="20.12" x2="14.32" y2="19.64" stroke="#2b2733" stroke-width="0.15" stroke-opacity="0.32" stroke-linecap="round"/><line x1="17.32" y1="18.12" x2="16.95" y2="17.39" stroke="#2b2733" stroke-width="0.15" stroke-opacity="0.32" stroke-linecap="round"/><line x1="20.32" y1="18.10" x2="20.32" y2="16.58" stroke="#2b2733" stroke-width="0.26" stroke-opacity="0.46" stroke-linecap="round"/><line x1="23.32" y1="18.12" x2="23.69" y2="17.39" stroke="#2b2733" stroke-width="0.15" stroke-opacity="0.32" stroke-linecap="round"/><line x1="25.66" y1="20.12" x2="26.32" y2="19.64" stroke="#2b2733" stroke-width="0.15" stroke-opacity="0.32" stroke-linecap="round"/><line x1="26.84" y1="22.97" x2="27.65" y2="22.84" stroke="#2b2733" stroke-width="0.15" stroke-opacity="0.32" stroke-linecap="round"/><line x1="26.60" y1="26.04" x2="27.38" y2="26.29" stroke="#2b2733" stroke-width="0.15" stroke-opacity="0.32" stroke-linecap="round"/><line x1="24.49" y1="28.17" x2="25.57" y2="29.25" stroke="#2b2733" stroke-width="0.26" stroke-opacity="0.46" stroke-linecap="round"/><line x1="20.32" y1="18.80" x2="20.32" y2="16.00" stroke="#2b2733" stroke-width="0.3" stroke-opacity="0.6000000000000001" stroke-linecap="round"/>
<path d="M 11.827 30.045 Q 11.827 30.146 11.776 30.222 Q 11.724 30.298 11.628 30.342 Q 11.532 30.385 11.395 30.385 Q 11.252 30.385 11.149 30.342 Q 11.047 30.300 10.978 30.233 L 11.092 30.105 Q 11.152 30.158 11.226 30.189 Q 11.300 30.219 11.392 30.219 Q 11.451 30.219 11.498 30.200 Q 11.546 30.182 11.573 30.147 Q 11.600 30.111 11.600 30.060 Q 11.600 30.014 11.581 29.983 Q 11.562 29.952 11.516 29.928 Q 11.469 29.903 11.386 29.878 Q 11.265 29.841 11.186 29.796 Q 11.107 29.751 11.069 29.689 Q 11.031 29.628 11.031 29.543 Q 11.031 29.449 11.083 29.380 Q 11.136 29.311 11.225 29.274 Q 11.315 29.237 11.425 29.237 Q 11.548 29.237 11.641 29.273 Q 11.734 29.308 11.805 29.373 L 11.696 29.497 Q 11.639 29.448 11.574 29.425 Q 11.508 29.402 11.441 29.402 Q 11.387 29.402 11.345 29.416 Q 11.304 29.431 11.280 29.458 Q 11.256 29.486 11.256 29.529 Q 11.256 29.568 11.278 29.596 Q 11.300 29.623 11.353 29.646 Q 11.406 29.670 11.499 29.699 Q 11.597 29.729 11.671 29.770 Q 11.744 29.811 11.786 29.877 Q 11.827 29.943 11.827 30.045 Z M 12.532 30.361 V 29.878 H 12.214 V 30.361 H 11.996 V 29.261 H 12.214 V 29.699 H 12.532 V 29.261 H 12.750 V 30.361 Z M 13.721 29.261 V 29.997 Q 13.721 30.109 13.675 30.197 Q 13.629 30.285 13.542 30.335 Q 13.454 30.385 13.326 30.385 Q 13.198 30.385 13.110 30.336 Q 13.023 30.287 12.978 30.200 Q 12.933 30.112 12.933 29.997 V 29.261 H 13.151 V 29.936 Q 13.151 30.076 13.190 30.147 Q 13.228 30.217 13.326 30.217 Q 13.426 30.217 13.464 30.147 Q 13.502 30.076 13.502 29.936 V 29.261 Z M 14.388 29.432 V 30.361 H 14.171 V 29.432 H 13.850 V 29.261 H 14.719 L 14.697 29.432 Z" fill="#6c6d72" fill-rule="nonzero"/>
<path d="M 26.786 29.811 Q 26.786 29.983 26.738 30.112 Q 26.690 30.241 26.595 30.313 Q 26.499 30.385 26.358 30.385 Q 26.218 30.385 26.122 30.315 Q 26.027 30.244 25.979 30.116 Q 25.930 29.987 25.930 29.811 Q 25.930 29.640 25.979 29.510 Q 26.027 29.381 26.122 29.309 Q 26.218 29.237 26.358 29.237 Q 26.499 29.237 26.595 29.307 Q 26.690 29.377 26.738 29.506 Q 26.786 29.635 26.786 29.811 Z M 26.562 29.811 Q 26.562 29.602 26.515 29.502 Q 26.467 29.401 26.358 29.401 Q 26.249 29.401 26.202 29.502 Q 26.155 29.603 26.155 29.811 Q 26.155 30.021 26.203 30.120 Q 26.252 30.220 26.358 30.220 Q 26.469 30.220 26.515 30.119 Q 26.562 30.018 26.562 29.811 Z M 27.516 29.613 Q 27.516 29.545 27.490 29.502 Q 27.464 29.460 27.415 29.440 Q 27.365 29.420 27.296 29.420 H 27.182 V 29.819 H 27.302 Q 27.368 29.819 27.415 29.798 Q 27.462 29.778 27.489 29.733 Q 27.516 29.687 27.516 29.613 Z M 27.741 29.612 Q 27.741 29.740 27.687 29.821 Q 27.633 29.903 27.535 29.942 Q 27.437 29.980 27.309 29.980 H 27.182 V 30.361 H 26.964 V 29.261 H 27.288 Q 27.502 29.261 27.622 29.348 Q 27.741 29.434 27.741 29.612 Z M 28.174 29.422 V 29.723 H 28.564 V 29.881 H 28.174 V 30.201 H 28.647 V 30.361 H 27.956 V 29.261 H 28.642 L 28.620 29.422 Z M 29.325 30.361 29.001 29.447 Q 29.005 29.477 29.011 29.525 Q 29.017 29.573 29.022 29.633 Q 29.027 29.694 29.030 29.761 Q 29.034 29.829 29.034 29.898 V 30.361 H 28.845 V 29.261 H 29.122 L 29.442 30.173 Q 29.436 30.133 29.428 30.066 Q 29.421 29.999 29.415 29.913 Q 29.409 29.826 29.409 29.728 V 29.261 H 29.599 V 30.361 Z" fill="#6c6d72" fill-rule="nonzero"/>
<circle cx="20.32" cy="42.00" r="5.80" fill="#b4b5ba" fill-opacity="0.9" stroke="#2b2733" stroke-width="0.2" stroke-opacity="0.5"/>
<path d="M14.45,47.87 A8.30,8.30 0 1 1 26.19,47.87" fill="none" stroke="#2b2733" stroke-width="0.16" stroke-opacity="0.14" stroke-linecap="round"/><path d="M15.16,47.16 A7.30,7.30 0 1 1 25.48,47.16" fill="none" stroke="#2b2733" stroke-width="0.22" stroke-opacity="0.28" stroke-linecap="round"/><line x1="16.15" y1="46.17" x2="15.07" y2="47.25" stroke="#2b2733" stroke-width="0.26" stroke-opacity="0.46" stroke-linecap="round"/><line x1="14.04" y1="44.04" x2="13.26" y2="44.29" stroke="#2b2733" stroke-width="0.15" stroke-opacity="0.32" stroke-linecap="round"/><line x1="13.80" y1="40.97" x2="12.99" y2="40.84" stroke="#2b2733" stroke-width="0.15" stroke-opacity="0.32" stroke-linecap="round"/><line x1="14.98" y1="38.12" x2="14.32" y2="37.64" stroke="#2b2733" stroke-width="0.15" stroke-opacity="0.32" stroke-linecap="round"/><line x1="17.32" y1="36.12" x2="16.95" y2="35.39" stroke="#2b2733" stroke-width="0.15" stroke-opacity="0.32" stroke-linecap="round"/><line x1="20.32" y1="36.10" x2="20.32" y2="34.58" stroke="#2b2733" stroke-width="0.26" stroke-opacity="0.46" stroke-linecap="round"/><line x1="23.32" y1="36.12" x2="23.69" y2="35.39" stroke="#2b2733" stroke-width="0.15" stroke-opacity="0.32" stroke-linecap="round"/><line x1="25.66" y1="38.12" x2="26.32" y2="37.64" stroke="#2b2733" stroke-width="0.15" stroke-opacity="0.32" stroke-linecap="round"/><line x1="26.84" y1="40.97" x2="27.65" y2="40.84" stroke="#2b2733" stroke-width="0.15" stroke-opacity="0.32" stroke-linecap="round"/><line x1="26.60" y1="44.04" x2="27.38" y2="44.29" stroke="#2b2733" stroke-width="0.15" stroke-opacity="0.32" stroke-linecap="round"/><line x1="24.49" y1="46.17" x2="25.57" y2="47.25" stroke="#2b2733" stroke-width="0.26" stroke-opacity="0.46" stroke-linecap="round"/><line x1="20.32" y1="36.80" x2="20.32" y2="34.00" stroke="#2b2733" stroke-width="0.3" stroke-opacity="0.6000000000000001" stroke-linecap="round"/>
<path d="M 11.347 47.422 V 47.745 H 11.749 V 47.906 H 11.347 V 48.361 H 11.130 V 47.261 H 11.826 L 11.803 47.422 Z M 12.551 48.109 H 12.189 L 12.121 48.361 H 11.895 L 12.240 47.261 H 12.507 L 12.851 48.361 H 12.619 Z M 12.228 47.946 H 12.510 L 12.370 47.424 Z M 13.736 48.045 Q 13.736 48.146 13.685 48.222 Q 13.633 48.298 13.537 48.342 Q 13.441 48.385 13.304 48.385 Q 13.161 48.385 13.058 48.342 Q 12.956 48.300 12.887 48.233 L 13.001 48.105 Q 13.061 48.158 13.135 48.189 Q 13.209 48.219 13.301 48.219 Q 13.360 48.219 13.407 48.200 Q 13.454 48.182 13.482 48.147 Q 13.509 48.111 13.509 48.060 Q 13.509 48.014 13.490 47.983 Q 13.471 47.952 13.425 47.928 Q 13.378 47.903 13.295 47.878 Q 13.174 47.841 13.095 47.796 Q 13.016 47.751 12.978 47.689 Q 12.940 47.628 12.940 47.543 Q 12.940 47.449 12.992 47.380 Q 13.045 47.311 13.134 47.274 Q 13.224 47.237 13.334 47.237 Q 13.457 47.237 13.550 47.273 Q 13.643 47.308 13.714 47.373 L 13.605 47.497 Q 13.548 47.448 13.483 47.425 Q 13.417 47.402 13.349 47.402 Q 13.296 47.402 13.254 47.416 Q 13.213 47.431 13.189 47.458 Q 13.165 47.486 13.165 47.529 Q 13.165 47.568 13.187 47.596 Q 13.209 47.623 13.262 47.646 Q 13.315 47.670 13.408 47.699 Q 13.506 47.729 13.580 47.770 Q 13.653 47.811 13.695 47.877 Q 13.736 47.943 13.736 48.045 Z M 14.388 47.432 V 48.361 H 14.171 V 47.432 H 13.850 V 47.261 H 14.719 L 14.697 47.432 Z" fill="#6c6d72" fill-rule="nonzero"/>
<path d="M 26.767 48.045 Q 26.767 48.146 26.716 48.222 Q 26.665 48.298 26.568 48.342 Q 26.472 48.385 26.335 48.385 Q 26.192 48.385 26.089 48.342 Q 25.987 48.300 25.918 48.233 L 26.032 48.105 Q 26.092 48.158 26.166 48.189 Q 26.240 48.219 26.332 48.219 Q 26.391 48.219 26.438 48.200 Q 26.486 48.182 26.513 48.147 Q 26.540 48.111 26.540 48.060 Q 26.540 48.014 26.521 47.983 Q 26.502 47.952 26.456 47.928 Q 26.409 47.903 26.327 47.878 Q 26.205 47.841 26.126 47.796 Q 26.047 47.751 26.009 47.689 Q 25.971 47.628 25.971 47.543 Q 25.971 47.449 26.023 47.380 Q 26.076 47.311 26.165 47.274 Q 26.255 47.237 26.365 47.237 Q 26.488 47.237 26.581 47.273 Q 26.674 47.308 26.745 47.373 L 26.636 47.497 Q 26.579 47.448 26.514 47.425 Q 26.448 47.402 26.381 47.402 Q 26.327 47.402 26.286 47.416 Q 26.244 47.431 26.220 47.458 Q 26.196 47.486 26.196 47.529 Q 26.196 47.568 26.218 47.596 Q 26.240 47.623 26.293 47.646 Q 26.346 47.670 26.439 47.699 Q 26.537 47.729 26.611 47.770 Q 26.684 47.811 26.726 47.877 Q 26.767 47.943 26.767 48.045 Z M 27.007 48.361 V 47.261 H 27.225 V 48.185 H 27.710 L 27.687 48.361 Z M 28.695 47.811 Q 28.695 47.983 28.647 48.112 Q 28.599 48.241 28.503 48.313 Q 28.408 48.385 28.267 48.385 Q 28.127 48.385 28.031 48.315 Q 27.936 48.244 27.887 48.116 Q 27.839 47.987 27.839 47.811 Q 27.839 47.640 27.887 47.510 Q 27.936 47.381 28.031 47.309 Q 28.127 47.237 28.267 47.237 Q 28.408 47.237 28.503 47.307 Q 28.599 47.377 28.647 47.506 Q 28.695 47.635 28.695 47.811 Z M 28.471 47.811 Q 28.471 47.602 28.424 47.502 Q 28.376 47.401 28.267 47.401 Q 28.158 47.401 28.111 47.502 Q 28.064 47.603 28.064 47.811 Q 28.064 48.021 28.112 48.120 Q 28.161 48.220 28.267 48.220 Q 28.378 48.220 28.424 48.119 Q 28.471 48.018 28.471 47.811 Z M 29.700 47.261 29.557 48.361 H 29.318 L 29.222 47.559 L 29.120 48.361 H 28.876 L 28.744 47.261 H 28.951 L 29.017 48.163 L 29.122 47.388 H 29.327 L 29.426 48.163 L 29.507 47.261 Z" fill="#6c6d72" fill-rule="nonzero"/>
<circle cx="20.32" cy="60.00" r="5.80" fill="#b4b5ba" fill-opacity="0.9" stroke="#2b2733" stroke-width="0.2" stroke-opacity="0.5"/>
<path d="M14.45,65.87 A8.30,8.30 0 1 1 26.19,65.87" fill="none" stroke="#2b2733" stroke-width="0.16" stroke-opacity="0.14" stroke-linecap="round"/><path d="M15.16,65.16 A7.30,7.30 0 1 1 25.48,65.16" fill="none" stroke="#2b2733" stroke-width="0.22" stroke-opacity="0.28" stroke-linecap="round"/><line x1="16.15" y1="64.17" x2="15.07" y2="65.25" stroke="#2b2733" stroke-width="0.26" stroke-opacity="0.46" stroke-linecap="round"/><line x1="14.04" y1="62.04" x2="13.26" y2="62.29" stroke="#2b2733" stroke-width="0.15" stroke-opacity="0.32" stroke-linecap="round"/><line x1="13.80" y1="58.97" x2="12.99" y2="58.84" stroke="#2b2733" stroke-width="0.15" stroke-opacity="0.32" stroke-linecap="round"/><line x1="14.98" y1="56.12" x2="14.32" y2="55.64" stroke="#2b2733" stroke-width="0.15" stroke-opacity="0.32" stroke-linecap="round"/><line x1="17.32" y1="54.12" x2="16.95" y2="53.39" stroke="#2b2733" stroke-width="0.15" stroke-opacity="0.32" stroke-linecap="round"/><line x1="20.32" y1="54.10" x2="20.32" y2="52.58" stroke="#2b2733" stroke-width="0.26" stroke-opacity="0.46" stroke-linecap="round"/><line x1="23.32" y1="54.12" x2="23.69" y2="53.39" stroke="#2b2733" stroke-width="0.15" stroke-opacity="0.32" stroke-linecap="round"/><line x1="25.66" y1="56.12" x2="26.32" y2="55.64" stroke="#2b2733" stroke-width="0.15" stroke-opacity="0.32" stroke-linecap="round"/><line x1="26.84" y1="58.97" x2="27.65" y2="58.84" stroke="#2b2733" stroke-width="0.15" stroke-opacity="0.32" stroke-linecap="round"/><line x1="26.60" y1="62.04" x2="27.38" y2="62.29" stroke="#2b2733" stroke-width="0.15" stroke-opacity="0.32" stroke-linecap="round"/><line x1="24.49" y1="64.17" x2="25.57" y2="65.25" stroke="#2b2733" stroke-width="0.26" stroke-opacity="0.46" stroke-linecap="round"/><line x1="20.32" y1="54.80" x2="20.32" y2="52.00" stroke="#2b2733" stroke-width="0.3" stroke-opacity="0.6000000000000001" stroke-linecap="round"/>
<path d="M 11.577 66.361 V 65.878 H 11.259 V 66.361 H 11.041 V 65.261 H 11.259 V 65.699 H 11.577 V 65.261 H 11.795 V 66.361 Z M 12.551 66.109 H 12.189 L 12.121 66.361 H 11.895 L 12.240 65.261 H 12.507 L 12.851 66.361 H 12.619 Z M 12.228 65.946 H 12.510 L 12.370 65.424 Z M 13.730 65.586 Q 13.730 65.666 13.698 65.726 Q 13.667 65.785 13.613 65.826 Q 13.559 65.866 13.493 65.889 L 13.794 66.361 H 13.544 L 13.284 65.923 H 13.184 V 66.361 H 12.967 V 65.261 H 13.291 Q 13.508 65.261 13.619 65.341 Q 13.730 65.422 13.730 65.586 Z M 13.504 65.586 Q 13.504 65.497 13.452 65.458 Q 13.400 65.419 13.296 65.419 H 13.184 V 65.769 H 13.303 Q 13.400 65.769 13.452 65.726 Q 13.504 65.683 13.504 65.586 Z M 14.479 65.806 Q 14.479 65.683 14.456 65.608 Q 14.434 65.532 14.395 65.492 Q 14.356 65.452 14.306 65.438 Q 14.257 65.423 14.204 65.423 H 14.123 V 66.200 H 14.205 Q 14.260 66.200 14.310 66.182 Q 14.360 66.165 14.398 66.121 Q 14.436 66.078 14.457 66.001 Q 14.479 65.924 14.479 65.806 Z M 14.706 65.806 Q 14.706 65.941 14.677 66.037 Q 14.648 66.134 14.597 66.197 Q 14.547 66.260 14.480 66.296 Q 14.414 66.332 14.339 66.346 Q 14.263 66.361 14.186 66.361 H 13.905 V 65.261 H 14.167 Q 14.270 65.261 14.366 65.283 Q 14.462 65.305 14.539 65.363 Q 14.616 65.421 14.661 65.528 Q 14.706 65.635 14.706 65.806 Z" fill="#6c6d72" fill-rule="nonzero"/>
<path d="M 26.767 66.045 Q 26.767 66.146 26.716 66.222 Q 26.665 66.298 26.568 66.342 Q 26.472 66.385 26.335 66.385 Q 26.192 66.385 26.089 66.342 Q 25.987 66.300 25.918 66.233 L 26.032 66.105 Q 26.092 66.158 26.166 66.189 Q 26.240 66.219 26.332 66.219 Q 26.391 66.219 26.438 66.200 Q 26.486 66.182 26.513 66.147 Q 26.540 66.111 26.540 66.060 Q 26.540 66.014 26.521 65.983 Q 26.502 65.952 26.456 65.928 Q 26.409 65.903 26.327 65.878 Q 26.205 65.841 26.126 65.796 Q 26.047 65.751 26.009 65.689 Q 25.971 65.628 25.971 65.543 Q 25.971 65.449 26.023 65.380 Q 26.076 65.311 26.165 65.274 Q 26.255 65.237 26.365 65.237 Q 26.488 65.237 26.581 65.273 Q 26.674 65.308 26.745 65.373 L 26.636 65.497 Q 26.579 65.448 26.514 65.425 Q 26.448 65.402 26.381 65.402 Q 26.327 65.402 26.286 65.416 Q 26.244 65.431 26.220 65.458 Q 26.196 65.486 26.196 65.529 Q 26.196 65.568 26.218 65.596 Q 26.240 65.623 26.293 65.646 Q 26.346 65.670 26.439 65.699 Q 26.537 65.729 26.611 65.770 Q 26.684 65.811 26.726 65.877 Q 26.767 65.943 26.767 66.045 Z M 27.741 65.811 Q 27.741 65.983 27.693 66.112 Q 27.644 66.241 27.549 66.313 Q 27.454 66.385 27.313 66.385 Q 27.173 66.385 27.077 66.315 Q 26.981 66.244 26.933 66.116 Q 26.885 65.987 26.885 65.811 Q 26.885 65.640 26.933 65.510 Q 26.981 65.381 27.077 65.309 Q 27.173 65.237 27.313 65.237 Q 27.454 65.237 27.549 65.307 Q 27.644 65.377 27.693 65.506 Q 27.741 65.635 27.741 65.811 Z M 27.516 65.811 Q 27.516 65.602 27.469 65.502 Q 27.422 65.401 27.313 65.401 Q 27.204 65.401 27.157 65.502 Q 27.109 65.603 27.109 65.811 Q 27.109 66.021 27.158 66.120 Q 27.206 66.220 27.313 66.220 Q 27.423 66.220 27.470 66.119 Q 27.516 66.018 27.516 65.811 Z M 28.196 65.422 V 65.745 H 28.598 V 65.906 H 28.196 V 66.361 H 27.979 V 65.261 H 28.675 L 28.652 65.422 Z M 29.328 65.432 V 66.361 H 29.111 V 65.432 H 28.790 V 65.261 H 29.659 L 29.637 65.432 Z" fill="#6c6d72" fill-rule="nonzero"/>
<circle cx="11.82" cy="73.00" r="3.10" fill="#b4b5ba" fill-opacity="0.9" stroke="#2b2733" stroke-width="0.2" stroke-opacity="0.5"/>
<circle cx="28.82" cy="73.00" r="3.10" fill="#b4b5ba" fill-opacity="0.9" stroke="#2b2733" stroke-width="0.2" stroke-opacity="0.5"/>
<circle cx="20.32" cy="82.00" r="1.95" fill="none" fill-opacity="1.0" stroke="#A87400" stroke-width="0.22" stroke-opacity="0.5"/><circle cx="20.32" cy="82.00" r="3.31" fill="none" fill-opacity="1.0" stroke="#A87400" stroke-width="0.22" stroke-opacity="0.3"/><circle cx="20.32" cy="82.00" r="4.50" fill="none" fill-opacity="1.0" stroke="#A87400" stroke-width="0.22" stroke-opacity="0.17"/><circle cx="20.32" cy="82.00" r="1.25" fill="#A87400" fill-opacity="0.85" stroke="none" stroke-width="0.25" stroke-opacity="1.0"/>
<circle cx="11.32" cy="93.00" r="3.65" fill="#b4b5ba" fill-opacity="0.9" stroke="#2b2733" stroke-width="0.2" stroke-opacity="0.5"/>
<circle cx="29.32" cy="93.00" r="3.65" fill="#b4b5ba" fill-opacity="0.9" stroke="#2b2733" stroke-width="0.2" stroke-opacity="0.5"/>
<circle cx="29.32" cy="93.00" r="3.85" fill="none" fill-opacity="1.0" stroke="#A87400" stroke-width="0.22" stroke-opacity="0.4"/>
<circle cx="11.32" cy="105.00" r="3.65" fill="#b4b5ba" fill-opacity="0.9" stroke="#2b2733" stroke-width="0.2" stroke-opacity="0.5"/>
<circle cx="11.32" cy="105.00" r="3.85" fill="none" fill-opacity="1.0" stroke="#0E93A6" stroke-width="0.22" stroke-opacity="0.4"/>
<circle cx="29.32" cy="105.00" r="3.65" fill="#b4b5ba" fill-opacity="0.9" stroke="#2b2733" stroke-width="0.2" stroke-opacity="0.5"/>
<circle cx="20.32" cy="117.00" r="3.65" fill="#b4b5ba" fill-opacity="0.9" stroke="#2b2733" stroke-width="0.2" stroke-opacity="0.5"/>
<circle cx="20.32" cy="117.00" r="3.90" fill="none" fill-opacity="1.0" stroke="#E8500A" stroke-width="0.28" stroke-opacity="0.55"/>
<circle cx="60.96" cy="24.00" r="5.80" fill="#b4b5ba" fill-opacity="0.9" stroke="#2b2733" stroke-width="0.2" stroke-opacity="0.5"/>
<path d="M55.09,29.87 A8.30,8.30 0 1 1 66.83,29.87" fill="none" stroke="#2b2733" stroke-width="0.16" stroke-opacity="0.14" stroke-linecap="round"/><path d="M55.80,29.16 A7.30,7.30 0 1 1 66.12,29.16" fill="none" stroke="#2b2733" stroke-width="0.22" stroke-opacity="0.28" stroke-linecap="round"/><line x1="56.79" y1="28.17" x2="55.71" y2="29.25" stroke="#2b2733" stroke-width="0.26" stroke-opacity="0.46" stroke-linecap="round"/><line x1="54.68" y1="26.04" x2="53.90" y2="26.29" stroke="#2b2733" stroke-width="0.15" stroke-opacity="0.32" stroke-linecap="round"/><line x1="54.44" y1="22.97" x2="53.63" y2="22.84" stroke="#2b2733" stroke-width="0.15" stroke-opacity="0.32" stroke-linecap="round"/><line x1="55.62" y1="20.12" x2="54.96" y2="19.64" stroke="#2b2733" stroke-width="0.15" stroke-opacity="0.32" stroke-linecap="round"/><line x1="57.96" y1="18.12" x2="57.59" y2="17.39" stroke="#2b2733" stroke-width="0.15" stroke-opacity="0.32" stroke-linecap="round"/><line x1="60.96" y1="18.10" x2="60.96" y2="16.58" stroke="#2b2733" stroke-width="0.26" stroke-opacity="0.46" stroke-linecap="round"/><line x1="63.96" y1="18.12" x2="64.33" y2="17.39" stroke="#2b2733" stroke-width="0.15" stroke-opacity="0.32" stroke-linecap="round"/><line x1="66.30" y1="20.12" x2="66.96" y2="19.64" stroke="#2b2733" stroke-width="0.15" stroke-opacity="0.32" stroke-linecap="round"/><line x1="67.48" y1="22.97" x2="68.29" y2="22.84" stroke="#2b2733" stroke-width="0.15" stroke-opacity="0.32" stroke-linecap="round"/><line x1="67.24" y1="26.04" x2="68.02" y2="26.29" stroke="#2b2733" stroke-width="0.15" stroke-opacity="0.32" stroke-linecap="round"/><line x1="65.13" y1="28.17" x2="66.21" y2="29.25" stroke="#2b2733" stroke-width="0.26" stroke-opacity="0.46" stroke-linecap="round"/><line x1="60.96" y1="18.80" x2="60.96" y2="16.00" stroke="#2b2733" stroke-width="0.3" stroke-opacity="0.6000000000000001" stroke-linecap="round"/>
<path d="M 52.467 30.045 Q 52.467 30.146 52.416 30.222 Q 52.364 30.298 52.268 30.342 Q 52.172 30.385 52.035 30.385 Q 51.892 30.385 51.789 30.342 Q 51.687 30.300 51.618 30.233 L 51.732 30.105 Q 51.792 30.158 51.866 30.189 Q 51.940 30.219 52.032 30.219 Q 52.091 30.219 52.138 30.200 Q 52.186 30.182 52.213 30.147 Q 52.240 30.111 52.240 30.060 Q 52.240 30.014 52.221 29.983 Q 52.202 29.952 52.156 29.928 Q 52.109 29.903 52.026 29.878 Q 51.905 29.841 51.826 29.796 Q 51.747 29.751 51.709 29.689 Q 51.671 29.628 51.671 29.543 Q 51.671 29.449 51.723 29.380 Q 51.776 29.311 51.865 29.274 Q 51.955 29.237 52.065 29.237 Q 52.188 29.237 52.281 29.273 Q 52.374 29.308 52.445 29.373 L 52.336 29.497 Q 52.279 29.448 52.214 29.425 Q 52.148 29.402 52.081 29.402 Q 52.027 29.402 51.985 29.416 Q 51.944 29.431 51.920 29.458 Q 51.896 29.486 51.896 29.529 Q 51.896 29.568 51.918 29.596 Q 51.940 29.623 51.993 29.646 Q 52.046 29.670 52.139 29.699 Q 52.237 29.729 52.311 29.770 Q 52.384 29.811 52.426 29.877 Q 52.467 29.943 52.467 30.045 Z M 53.172 30.361 V 29.878 H 52.854 V 30.361 H 52.636 V 29.261 H 52.854 V 29.699 H 53.172 V 29.261 H 53.390 V 30.361 Z M 54.361 29.261 V 29.997 Q 54.361 30.109 54.315 30.197 Q 54.269 30.285 54.182 30.335 Q 54.094 30.385 53.966 30.385 Q 53.838 30.385 53.750 30.336 Q 53.663 30.287 53.618 30.200 Q 53.573 30.112 53.573 29.997 V 29.261 H 53.791 V 29.936 Q 53.791 30.076 53.830 30.147 Q 53.868 30.217 53.966 30.217 Q 54.066 30.217 54.104 30.147 Q 54.142 30.076 54.142 29.936 V 29.261 Z M 55.028 29.432 V 30.361 H 54.811 V 29.432 H 54.490 V 29.261 H 55.359 L 55.337 29.432 Z" fill="#6c6d72" fill-rule="nonzero"/>
<path d="M 67.426 29.811 Q 67.426 29.983 67.378 30.112 Q 67.330 30.241 67.235 30.313 Q 67.139 30.385 66.998 30.385 Q 66.858 30.385 66.762 30.315 Q 66.667 30.244 66.619 30.116 Q 66.570 29.987 66.570 29.811 Q 66.570 29.640 66.619 29.510 Q 66.667 29.381 66.762 29.309 Q 66.858 29.237 66.998 29.237 Q 67.139 29.237 67.235 29.307 Q 67.330 29.377 67.378 29.506 Q 67.426 29.635 67.426 29.811 Z M 67.202 29.811 Q 67.202 29.602 67.155 29.502 Q 67.107 29.401 66.998 29.401 Q 66.889 29.401 66.842 29.502 Q 66.795 29.603 66.795 29.811 Q 66.795 30.021 66.843 30.120 Q 66.892 30.220 66.998 30.220 Q 67.109 30.220 67.155 30.119 Q 67.202 30.018 67.202 29.811 Z M 68.156 29.613 Q 68.156 29.545 68.130 29.502 Q 68.104 29.460 68.055 29.440 Q 68.005 29.420 67.936 29.420 H 67.822 V 29.819 H 67.942 Q 68.008 29.819 68.055 29.798 Q 68.102 29.778 68.129 29.733 Q 68.156 29.687 68.156 29.613 Z M 68.381 29.612 Q 68.381 29.740 68.327 29.821 Q 68.273 29.903 68.175 29.942 Q 68.077 29.980 67.949 29.980 H 67.822 V 30.361 H 67.604 V 29.261 H 67.928 Q 68.142 29.261 68.262 29.348 Q 68.381 29.434 68.381 29.612 Z M 68.814 29.422 V 29.723 H 69.204 V 29.881 H 68.814 V 30.201 H 69.287 V 30.361 H 68.596 V 29.261 H 69.282 L 69.260 29.422 Z M 69.965 30.361 69.641 29.447 Q 69.645 29.477 69.651 29.525 Q 69.657 29.573 69.662 29.633 Q 69.667 29.694 69.670 29.761 Q 69.674 29.829 69.674 29.898 V 30.361 H 69.485 V 29.261 H 69.762 L 70.082 30.173 Q 70.076 30.133 70.068 30.066 Q 70.061 29.999 70.055 29.913 Q 70.049 29.826 70.049 29.728 V 29.261 H 70.239 V 30.361 Z" fill="#6c6d72" fill-rule="nonzero"/>
<circle cx="60.96" cy="42.00" r="5.80" fill="#b4b5ba" fill-opacity="0.9" stroke="#2b2733" stroke-width="0.2" stroke-opacity="0.5"/>
<path d="M55.09,47.87 A8.30,8.30 0 1 1 66.83,47.87" fill="none" stroke="#2b2733" stroke-width="0.16" stroke-opacity="0.14" stroke-linecap="round"/><path d="M55.80,47.16 A7.30,7.30 0 1 1 66.12,47.16" fill="none" stroke="#2b2733" stroke-width="0.22" stroke-opacity="0.28" stroke-linecap="round"/><line x1="56.79" y1="46.17" x2="55.71" y2="47.25" stroke="#2b2733" stroke-width="0.26" stroke-opacity="0.46" stroke-linecap="round"/><line x1="54.68" y1="44.04" x2="53.90" y2="44.29" stroke="#2b2733" stroke-width="0.15" stroke-opacity="0.32" stroke-linecap="round"/><line x1="54.44" y1="40.97" x2="53.63" y2="40.84" stroke="#2b2733" stroke-width="0.15" stroke-opacity="0.32" stroke-linecap="round"/><line x1="55.62" y1="38.12" x2="54.96" y2="37.64" stroke="#2b2733" stroke-width="0.15" stroke-opacity="0.32" stroke-linecap="round"/><line x1="57.96" y1="36.12" x2="57.59" y2="35.39" stroke="#2b2733" stroke-width="0.15" stroke-opacity="0.32" stroke-linecap="round"/><line x1="60.96" y1="36.10" x2="60.96" y2="34.58" stroke="#2b2733" stroke-width="0.26" stroke-opacity="0.46" stroke-linecap="round"/><line x1="63.96" y1="36.12" x2="64.33" y2="35.39" stroke="#2b2733" stroke-width="0.15" stroke-opacity="0.32" stroke-linecap="round"/><line x1="66.30" y1="38.12" x2="66.96" y2="37.64" stroke="#2b2733" stroke-width="0.15" stroke-opacity="0.32" stroke-linecap="round"/><line x1="67.48" y1="40.97" x2="68.29" y2="40.84" stroke="#2b2733" stroke-width="0.15" stroke-opacity="0.32" stroke-linecap="round"/><line x1="67.24" y1="44.04" x2="68.02" y2="44.29" stroke="#2b2733" stroke-width="0.15" stroke-opacity="0.32" stroke-linecap="round"/><line x1="65.13" y1="46.17" x2="66.21" y2="47.25" stroke="#2b2733" stroke-width="0.26" stroke-opacity="0.46" stroke-linecap="round"/><line x1="60.96" y1="36.80" x2="60.96" y2="34.00" stroke="#2b2733" stroke-width="0.3" stroke-opacity="0.6000000000000001" stroke-linecap="round"/>
<path d="M 51.987 47.422 V 47.745 H 52.389 V 47.906 H 51.987 V 48.361 H 51.770 V 47.261 H 52.466 L 52.443 47.422 Z M 53.191 48.109 H 52.829 L 52.761 48.361 H 52.535 L 52.880 47.261 H 53.147 L 53.491 48.361 H 53.259 Z M 52.868 47.946 H 53.150 L 53.010 47.424 Z M 54.376 48.045 Q 54.376 48.146 54.325 48.222 Q 54.273 48.298 54.177 48.342 Q 54.081 48.385 53.944 48.385 Q 53.801 48.385 53.698 48.342 Q 53.596 48.300 53.527 48.233 L 53.641 48.105 Q 53.701 48.158 53.775 48.189 Q 53.849 48.219 53.941 48.219 Q 54.000 48.219 54.047 48.200 Q 54.094 48.182 54.122 48.147 Q 54.149 48.111 54.149 48.060 Q 54.149 48.014 54.130 47.983 Q 54.111 47.952 54.065 47.928 Q 54.018 47.903 53.935 47.878 Q 53.814 47.841 53.735 47.796 Q 53.656 47.751 53.618 47.689 Q 53.580 47.628 53.580 47.543 Q 53.580 47.449 53.632 47.380 Q 53.685 47.311 53.774 47.274 Q 53.864 47.237 53.974 47.237 Q 54.097 47.237 54.190 47.273 Q 54.283 47.308 54.354 47.373 L 54.245 47.497 Q 54.188 47.448 54.123 47.425 Q 54.057 47.402 53.989 47.402 Q 53.936 47.402 53.894 47.416 Q 53.853 47.431 53.829 47.458 Q 53.805 47.486 53.805 47.529 Q 53.805 47.568 53.827 47.596 Q 53.849 47.623 53.902 47.646 Q 53.955 47.670 54.048 47.699 Q 54.146 47.729 54.220 47.770 Q 54.293 47.811 54.335 47.877 Q 54.376 47.943 54.376 48.045 Z M 55.028 47.432 V 48.361 H 54.811 V 47.432 H 54.490 V 47.261 H 55.359 L 55.337 47.432 Z" fill="#6c6d72" fill-rule="nonzero"/>
<path d="M 67.407 48.045 Q 67.407 48.146 67.356 48.222 Q 67.305 48.298 67.208 48.342 Q 67.112 48.385 66.975 48.385 Q 66.832 48.385 66.729 48.342 Q 66.627 48.300 66.558 48.233 L 66.672 48.105 Q 66.732 48.158 66.806 48.189 Q 66.880 48.219 66.972 48.219 Q 67.031 48.219 67.078 48.200 Q 67.126 48.182 67.153 48.147 Q 67.180 48.111 67.180 48.060 Q 67.180 48.014 67.161 47.983 Q 67.142 47.952 67.096 47.928 Q 67.049 47.903 66.967 47.878 Q 66.845 47.841 66.766 47.796 Q 66.687 47.751 66.649 47.689 Q 66.611 47.628 66.611 47.543 Q 66.611 47.449 66.663 47.380 Q 66.716 47.311 66.805 47.274 Q 66.895 47.237 67.005 47.237 Q 67.128 47.237 67.221 47.273 Q 67.314 47.308 67.385 47.373 L 67.276 47.497 Q 67.219 47.448 67.154 47.425 Q 67.088 47.402 67.021 47.402 Q 66.967 47.402 66.926 47.416 Q 66.884 47.431 66.860 47.458 Q 66.836 47.486 66.836 47.529 Q 66.836 47.568 66.858 47.596 Q 66.880 47.623 66.933 47.646 Q 66.986 47.670 67.079 47.699 Q 67.177 47.729 67.251 47.770 Q 67.324 47.811 67.366 47.877 Q 67.407 47.943 67.407 48.045 Z M 67.647 48.361 V 47.261 H 67.865 V 48.185 H 68.350 L 68.327 48.361 Z M 69.335 47.811 Q 69.335 47.983 69.287 48.112 Q 69.239 48.241 69.143 48.313 Q 69.048 48.385 68.907 48.385 Q 68.767 48.385 68.671 48.315 Q 68.576 48.244 68.527 48.116 Q 68.479 47.987 68.479 47.811 Q 68.479 47.640 68.527 47.510 Q 68.576 47.381 68.671 47.309 Q 68.767 47.237 68.907 47.237 Q 69.048 47.237 69.143 47.307 Q 69.239 47.377 69.287 47.506 Q 69.335 47.635 69.335 47.811 Z M 69.111 47.811 Q 69.111 47.602 69.064 47.502 Q 69.016 47.401 68.907 47.401 Q 68.798 47.401 68.751 47.502 Q 68.704 47.603 68.704 47.811 Q 68.704 48.021 68.752 48.120 Q 68.801 48.220 68.907 48.220 Q 69.018 48.220 69.064 48.119 Q 69.111 48.018 69.111 47.811 Z M 70.340 47.261 70.197 48.361 H 69.958 L 69.862 47.559 L 69.760 48.361 H 69.516 L 69.384 47.261 H 69.591 L 69.657 48.163 L 69.762 47.388 H 69.967 L 70.066 48.163 L 70.147 47.261 Z" fill="#6c6d72" fill-rule="nonzero"/>
<circle cx="60.96" cy="60.00" r="5.80" fill="#b4b5ba" fill-opacity="0.9" stroke="#2b2733" stroke-width="0.2" stroke-opacity="0.5"/>
<path d="M55.09,65.87 A8.30,8.30 0 1 1 66.83,65.87" fill="none" stroke="#2b2733" stroke-width="0.16" stroke-opacity="0.14" stroke-linecap="round"/><path d="M55.80,65.16 A7.30,7.30 0 1 1 66.12,65.16" fill="none" stroke="#2b2733" stroke-width="0.22" stroke-opacity="0.28" stroke-linecap="round"/><line x1="56.79" y1="64.17" x2="55.71" y2="65.25" stroke="#2b2733" stroke-width="0.26" stroke-opacity="0.46" stroke-linecap="round"/><line x1="54.68" y1="62.04" x2="53.90" y2="62.29" stroke="#2b2733" stroke-width="0.15" stroke-opacity="0.32" stroke-linecap="round"/><line x1="54.44" y1="58.97" x2="53.63" y2="58.84" stroke="#2b2733" stroke-width="0.15" stroke-opacity="0.32" stroke-linecap="round"/><line x1="55.62" y1="56.12" x2="54.96" y2="55.64" stroke="#2b2733" stroke-width="0.15" stroke-opacity="0.32" stroke-linecap="round"/><line x1="57.96" y1="54.12" x2="57.59" y2="53.39" stroke="#2b2733" stroke-width="0.15" stroke-opacity="0.32" stroke-linecap="round"/><line x1="60.96" y1="54.10" x2="60.96" y2="52.58" stroke="#2b2733" stroke-width="0.26" stroke-opacity="0.46" stroke-linecap="round"/><line x1="63.96" y1="54.12" x2="64.33" y2="53.39" stroke="#2b2733" stroke-width="0.15" stroke-opacity="0.32" stroke-linecap="round"/><line x1="66.30" y1="56.12" x2="66.96" y2="55.64" stroke="#2b2733" stroke-width="0.15" stroke-opacity="0.32" stroke-linecap="round"/><line x1="67.48" y1="58.97" x2="68.29" y2="58.84" stroke="#2b2733" stroke-width="0.15" stroke-opacity="0.32" stroke-linecap="round"/><line x1="67.24" y1="62.04" x2="68.02" y2="62.29" stroke="#2b2733" stroke-width="0.15" stroke-opacity="0.32" stroke-linecap="round"/><line x1="65.13" y1="64.17" x2="66.21" y2="65.25" stroke="#2b2733" stroke-width="0.26" stroke-opacity="0.46" stroke-linecap="round"/><line x1="60.96" y1="54.80" x2="60.96" y2="52.00" stroke="#2b2733" stroke-width="0.3" stroke-opacity="0.6000000000000001" stroke-linecap="round"/>
<path d="M 52.217 66.361 V 65.878 H 51.899 V 66.361 H 51.681 V 65.261 H 51.899 V 65.699 H 52.217 V 65.261 H 52.435 V 66.361 Z M 53.191 66.109 H 52.829 L 52.761 66.361 H 52.535 L 52.880 65.261 H 53.147 L 53.491 66.361 H 53.259 Z M 52.868 65.946 H 53.150 L 53.010 65.424 Z M 54.370 65.586 Q 54.370 65.666 54.338 65.726 Q 54.307 65.785 54.253 65.826 Q 54.199 65.866 54.133 65.889 L 54.434 66.361 H 54.184 L 53.924 65.923 H 53.824 V 66.361 H 53.607 V 65.261 H 53.931 Q 54.148 65.261 54.259 65.341 Q 54.370 65.422 54.370 65.586 Z M 54.144 65.586 Q 54.144 65.497 54.092 65.458 Q 54.040 65.419 53.936 65.419 H 53.824 V 65.769 H 53.943 Q 54.040 65.769 54.092 65.726 Q 54.144 65.683 54.144 65.586 Z M 55.119 65.806 Q 55.119 65.683 55.096 65.608 Q 55.074 65.532 55.035 65.492 Q 54.996 65.452 54.946 65.438 Q 54.897 65.423 54.844 65.423 H 54.763 V 66.200 H 54.845 Q 54.900 66.200 54.950 66.182 Q 55.000 66.165 55.038 66.121 Q 55.076 66.078 55.097 66.001 Q 55.119 65.924 55.119 65.806 Z M 55.346 65.806 Q 55.346 65.941 55.317 66.037 Q 55.288 66.134 55.237 66.197 Q 55.187 66.260 55.120 66.296 Q 55.054 66.332 54.979 66.346 Q 54.903 66.361 54.826 66.361 H 54.545 V 65.261 H 54.807 Q 54.910 65.261 55.006 65.283 Q 55.102 65.305 55.179 65.363 Q 55.256 65.421 55.301 65.528 Q 55.346 65.635 55.346 65.806 Z" fill="#6c6d72" fill-rule="nonzero"/>
<path d="M 67.407 66.045 Q 67.407 66.146 67.356 66.222 Q 67.305 66.298 67.208 66.342 Q 67.112 66.385 66.975 66.385 Q 66.832 66.385 66.729 66.342 Q 66.627 66.300 66.558 66.233 L 66.672 66.105 Q 66.732 66.158 66.806 66.189 Q 66.880 66.219 66.972 66.219 Q 67.031 66.219 67.078 66.200 Q 67.126 66.182 67.153 66.147 Q 67.180 66.111 67.180 66.060 Q 67.180 66.014 67.161 65.983 Q 67.142 65.952 67.096 65.928 Q 67.049 65.903 66.967 65.878 Q 66.845 65.841 66.766 65.796 Q 66.687 65.751 66.649 65.689 Q 66.611 65.628 66.611 65.543 Q 66.611 65.449 66.663 65.380 Q 66.716 65.311 66.805 65.274 Q 66.895 65.237 67.005 65.237 Q 67.128 65.237 67.221 65.273 Q 67.314 65.308 67.385 65.373 L 67.276 65.497 Q 67.219 65.448 67.154 65.425 Q 67.088 65.402 67.021 65.402 Q 66.967 65.402 66.926 65.416 Q 66.884 65.431 66.860 65.458 Q 66.836 65.486 66.836 65.529 Q 66.836 65.568 66.858 65.596 Q 66.880 65.623 66.933 65.646 Q 66.986 65.670 67.079 65.699 Q 67.177 65.729 67.251 65.770 Q 67.324 65.811 67.366 65.877 Q 67.407 65.943 67.407 66.045 Z M 68.381 65.811 Q 68.381 65.983 68.333 66.112 Q 68.284 66.241 68.189 66.313 Q 68.094 66.385 67.953 66.385 Q 67.813 66.385 67.717 66.315 Q 67.621 66.244 67.573 66.116 Q 67.525 65.987 67.525 65.811 Q 67.525 65.640 67.573 65.510 Q 67.621 65.381 67.717 65.309 Q 67.813 65.237 67.953 65.237 Q 68.094 65.237 68.189 65.307 Q 68.284 65.377 68.333 65.506 Q 68.381 65.635 68.381 65.811 Z M 68.156 65.811 Q 68.156 65.602 68.109 65.502 Q 68.062 65.401 67.953 65.401 Q 67.844 65.401 67.797 65.502 Q 67.749 65.603 67.749 65.811 Q 67.749 66.021 67.798 66.120 Q 67.846 66.220 67.953 66.220 Q 68.063 66.220 68.110 66.119 Q 68.156 66.018 68.156 65.811 Z M 68.836 65.422 V 65.745 H 69.238 V 65.906 H 68.836 V 66.361 H 68.619 V 65.261 H 69.315 L 69.292 65.422 Z M 69.968 65.432 V 66.361 H 69.751 V 65.432 H 69.430 V 65.261 H 70.299 L 70.277 65.432 Z" fill="#6c6d72" fill-rule="nonzero"/>
<circle cx="52.46" cy="73.00" r="3.10" fill="#b4b5ba" fill-opacity="0.9" stroke="#2b2733" stroke-width="0.2" stroke-opacity="0.5"/>
<circle cx="69.46" cy="73.00" r="3.10" fill="#b4b5ba" fill-opacity="0.9" stroke="#2b2733" stroke-width="0.2" stroke-opacity="0.5"/>
<circle cx="60.96" cy="82.00" r="1.95" fill="none" fill-opacity="1.0" stroke="#A87400" stroke-width="0.22" stroke-opacity="0.5"/><circle cx="60.96" cy="82.00" r="3.31" fill="none" fill-opacity="1.0" stroke="#A87400" stroke-width="0.22" stroke-opacity="0.3"/><circle cx="60.96" cy="82.00" r="4.50" fill="none" fill-opacity="1.0" stroke="#A87400" stroke-width="0.22" stroke-opacity="0.17"/><circle cx="60.96" cy="82.00" r="1.25" fill="#A87400" fill-opacity="0.85" stroke="none" stroke-width="0.25" stroke-opacity="1.0"/>
<circle cx="51.96" cy="93.00" r="3.65" fill="#b4b5ba" fill-opacity="0.9" stroke="#2b2733" stroke-width="0.2" stroke-opacity="0.5"/>
<circle cx="69.96" cy="93.00" r="3.65" fill="#b4b5ba" fill-opacity="0.9" stroke="#2b2733" stroke-width="0.2" stroke-opacity="0.5"/>
<circle cx="69.96" cy="93.00" r="3.85" fill="none" fill-opacity="1.0" stroke="#A87400" stroke-width="0.22" stroke-opacity="0.4"/>
<circle cx="51.96" cy="105.00" r="3.65" fill="#b4b5ba" fill-opacity="0.9" stroke="#2b2733" stroke-width="0.2" stroke-opacity="0.5"/>
<circle cx="51.96" cy="105.00" r="3.85" fill="none" fill-opacity="1.0" stroke="#0E93A6" stroke-width="0.22" stroke-opacity="0.4"/>
<circle cx="69.96" cy="105.00" r="3.65" fill="#b4b5ba" fill-opacity="0.9" stroke="#2b2733" stroke-width="0.2" stroke-opacity="0.5"/>
<circle cx="60.96" cy="117.00" r="3.65" fill="#b4b5ba" fill-opacity="0.9" stroke="#2b2733" stroke-width="0.2" stroke-opacity="0.5"/>
<circle cx="60.96" cy="117.00" r="3.90" fill="none" fill-opacity="1.0" stroke="#E8500A" stroke-width="0.28" stroke-opacity="0.55"/>
<rect x="39.34" y="114.30" width="2.60" height="5.40" rx="0.80" fill="#b4b5ba" fill-opacity="0.9" stroke="#1C46FF" stroke-width="0.22" stroke-opacity="0.5"/>
<circle cx="37.44" cy="116.00" r="0.26" fill="#1C46FF" fill-opacity="0.7" stroke="none" stroke-width="0.25" stroke-opacity="1.0"/>
<circle cx="36.94" cy="117.80" r="0.26" fill="#1C46FF" fill-opacity="0.5" stroke="none" stroke-width="0.25" stroke-opacity="1.0"/>
<circle cx="44.04" cy="117.40" r="0.26" fill="#1C46FF" fill-opacity="0.6" stroke="none" stroke-width="0.25" stroke-opacity="1.0"/>
<path d="M 18.586 15.249 Q 18.586 15.546 18.503 15.769 Q 18.420 15.993 18.255 16.117 Q 18.090 16.241 17.847 16.241 Q 17.605 16.241 17.440 16.120 Q 17.274 15.998 17.191 15.776 Q 17.108 15.554 17.108 15.251 Q 17.108 14.954 17.191 14.731 Q 17.274 14.507 17.440 14.383 Q 17.605 14.259 17.847 14.259 Q 18.090 14.259 18.255 14.380 Q 18.420 14.501 18.503 14.723 Q 18.586 14.946 18.586 15.249 Z M 18.199 15.249 Q 18.199 14.889 18.117 14.716 Q 18.035 14.542 17.847 14.542 Q 17.659 14.542 17.577 14.716 Q 17.495 14.891 17.495 15.251 Q 17.495 15.612 17.579 15.784 Q 17.663 15.957 17.847 15.957 Q 18.038 15.957 18.118 15.782 Q 18.199 15.608 18.199 15.249 Z M 19.846 14.909 Q 19.846 14.790 19.801 14.717 Q 19.757 14.643 19.672 14.609 Q 19.586 14.575 19.467 14.575 H 19.270 V 15.263 H 19.478 Q 19.590 15.263 19.672 15.228 Q 19.754 15.193 19.800 15.115 Q 19.846 15.036 19.846 14.909 Z M 20.236 14.906 Q 20.236 15.127 20.142 15.268 Q 20.048 15.409 19.879 15.475 Q 19.710 15.542 19.489 15.542 H 19.270 V 16.200 H 18.894 V 14.300 H 19.453 Q 19.823 14.300 20.029 14.450 Q 20.236 14.599 20.236 14.906 Z M 20.984 14.578 V 15.098 H 21.657 V 15.372 H 20.984 V 15.924 H 21.801 V 16.200 H 20.607 V 14.300 H 21.791 L 21.753 14.578 Z M 22.972 16.200 22.412 14.621 Q 22.419 14.674 22.429 14.756 Q 22.438 14.839 22.447 14.943 Q 22.456 15.047 22.463 15.164 Q 22.469 15.281 22.469 15.400 V 16.200 H 22.142 V 14.300 H 22.620 L 23.173 15.876 Q 23.162 15.806 23.149 15.690 Q 23.136 15.575 23.127 15.425 Q 23.117 15.275 23.117 15.106 V 14.300 H 23.444 V 16.200 Z" fill="#17141c" fill-rule="nonzero"/>
<path d="M 17.363 33.241 Q 17.363 33.030 17.324 32.899 Q 17.285 32.768 17.218 32.699 Q 17.150 32.630 17.065 32.605 Q 16.980 32.580 16.888 32.580 H 16.748 V 33.921 H 16.889 Q 16.986 33.921 17.071 33.891 Q 17.157 33.861 17.223 33.786 Q 17.289 33.711 17.326 33.578 Q 17.363 33.446 17.363 33.241 Z M 17.756 33.241 Q 17.756 33.475 17.706 33.641 Q 17.656 33.807 17.568 33.916 Q 17.480 34.026 17.365 34.087 Q 17.251 34.149 17.121 34.175 Q 16.991 34.200 16.858 34.200 H 16.372 V 32.300 H 16.825 Q 17.002 32.300 17.168 32.338 Q 17.335 32.376 17.467 32.476 Q 17.600 32.576 17.678 32.761 Q 17.756 32.946 17.756 33.241 Z M 18.511 32.578 V 33.098 H 19.184 V 33.372 H 18.511 V 33.924 H 19.328 V 34.200 H 18.134 V 32.300 H 19.318 L 19.280 32.578 Z M 20.479 32.259 Q 20.677 32.259 20.815 32.310 Q 20.952 32.362 21.069 32.458 L 20.878 32.685 Q 20.797 32.616 20.700 32.580 Q 20.603 32.545 20.493 32.545 Q 20.361 32.545 20.251 32.615 Q 20.140 32.685 20.073 32.839 Q 20.007 32.994 20.007 33.247 Q 20.007 33.495 20.071 33.649 Q 20.135 33.803 20.245 33.874 Q 20.356 33.944 20.496 33.944 Q 20.644 33.944 20.742 33.892 Q 20.839 33.840 20.918 33.778 L 21.095 34.002 Q 20.995 34.101 20.844 34.171 Q 20.694 34.241 20.479 34.241 Q 20.231 34.241 20.036 34.127 Q 19.841 34.013 19.729 33.792 Q 19.618 33.571 19.618 33.247 Q 19.618 32.928 19.733 32.707 Q 19.847 32.487 20.043 32.373 Q 20.239 32.259 20.479 32.259 Z M 22.276 33.764 H 21.651 L 21.533 34.200 H 21.144 L 21.739 32.300 H 22.201 L 22.794 34.200 H 22.394 Z M 21.719 33.483 H 22.206 L 21.963 32.582 Z M 23.805 33.480 V 34.200 H 23.429 V 33.483 L 22.801 32.300 H 23.213 L 23.624 33.166 L 24.039 32.300 H 24.433 Z" fill="#17141c" fill-rule="nonzero"/>
<path d="M 15.206 50.300 15.314 52.200 H 14.978 L 14.943 51.325 Q 14.939 51.215 14.938 51.121 Q 14.937 51.027 14.939 50.942 Q 14.940 50.858 14.943 50.779 Q 14.947 50.701 14.952 50.626 L 14.701 51.870 H 14.396 L 14.127 50.626 Q 14.132 50.698 14.136 50.778 Q 14.140 50.858 14.142 50.944 Q 14.144 51.031 14.145 51.127 Q 14.146 51.223 14.142 51.328 L 14.116 52.200 H 13.786 L 13.893 50.300 H 14.311 L 14.555 51.554 L 14.789 50.300 Z M 16.506 51.764 H 15.881 L 15.763 52.200 H 15.374 L 15.969 50.300 H 16.431 L 17.024 52.200 H 16.624 Z M 15.948 51.483 H 16.436 L 16.193 50.582 Z M 18.031 50.595 V 52.200 H 17.656 V 50.595 H 17.101 V 50.300 H 18.603 L 18.564 50.595 Z M 19.335 50.578 V 51.098 H 20.008 V 51.372 H 19.335 V 51.924 H 20.152 V 52.200 H 18.958 V 50.300 H 20.143 L 20.104 50.578 Z M 21.839 50.862 Q 21.839 50.999 21.785 51.102 Q 21.731 51.205 21.638 51.275 Q 21.545 51.345 21.430 51.384 L 21.951 52.200 H 21.519 L 21.070 51.443 H 20.897 V 52.200 H 20.522 V 50.300 H 21.081 Q 21.456 50.300 21.648 50.439 Q 21.839 50.578 21.839 50.862 Z M 21.449 50.862 Q 21.449 50.708 21.360 50.640 Q 21.271 50.572 21.091 50.572 H 20.897 V 51.177 H 21.103 Q 21.269 51.177 21.359 51.102 Q 21.449 51.028 21.449 50.862 Z M 23.384 50.300 V 50.582 H 22.981 V 51.918 H 23.384 V 52.200 H 22.202 V 51.918 H 22.605 V 50.582 H 22.202 V 50.300 Z M 24.749 51.764 H 24.124 L 24.006 52.200 H 23.617 L 24.212 50.300 H 24.674 L 25.267 52.200 H 24.867 Z M 24.192 51.483 H 24.679 L 24.436 50.582 Z M 25.563 52.200 V 50.300 H 25.939 V 51.895 H 26.777 L 26.737 52.200 Z" fill="#17141c" fill-rule="nonzero"/>
<path d="M 10.719 68.192 Q 10.719 68.014 10.686 67.904 Q 10.653 67.795 10.596 67.736 Q 10.539 67.678 10.468 67.657 Q 10.396 67.636 10.318 67.636 H 10.200 V 68.765 H 10.319 Q 10.400 68.765 10.473 68.740 Q 10.545 68.714 10.601 68.651 Q 10.656 68.588 10.687 68.477 Q 10.719 68.365 10.719 68.192 Z M 11.049 68.192 Q 11.049 68.389 11.007 68.529 Q 10.965 68.669 10.891 68.761 Q 10.817 68.853 10.720 68.905 Q 10.624 68.957 10.514 68.979 Q 10.405 69.000 10.293 69.000 H 9.883 V 67.400 H 10.265 Q 10.414 67.400 10.554 67.432 Q 10.694 67.464 10.806 67.548 Q 10.918 67.633 10.984 67.788 Q 11.049 67.944 11.049 68.192 Z M 11.685 67.634 V 68.072 H 12.252 V 68.302 H 11.685 V 68.767 H 12.373 V 69.000 H 11.368 V 67.400 H 12.365 L 12.332 67.634 Z M 13.343 67.365 Q 13.509 67.365 13.625 67.409 Q 13.740 67.452 13.839 67.533 L 13.678 67.724 Q 13.610 67.666 13.528 67.636 Q 13.447 67.606 13.354 67.606 Q 13.243 67.606 13.150 67.665 Q 13.057 67.724 13.001 67.854 Q 12.945 67.984 12.945 68.197 Q 12.945 68.407 12.998 68.536 Q 13.052 68.666 13.145 68.725 Q 13.238 68.785 13.356 68.785 Q 13.481 68.785 13.563 68.741 Q 13.646 68.697 13.712 68.645 L 13.861 68.833 Q 13.776 68.917 13.650 68.976 Q 13.523 69.035 13.343 69.035 Q 13.133 69.035 12.969 68.939 Q 12.805 68.843 12.711 68.656 Q 12.617 68.470 12.617 68.197 Q 12.617 67.929 12.714 67.743 Q 12.810 67.557 12.975 67.461 Q 13.140 67.365 13.343 67.365 Z" fill="#0E93A6" fill-rule="nonzero"/>
<path d="M 26.872 67.365 Q 27.038 67.365 27.154 67.409 Q 27.270 67.452 27.368 67.533 L 27.207 67.724 Q 27.139 67.666 27.057 67.636 Q 26.976 67.606 26.883 67.606 Q 26.772 67.606 26.679 67.665 Q 26.586 67.724 26.530 67.854 Q 26.474 67.984 26.474 68.197 Q 26.474 68.407 26.528 68.536 Q 26.581 68.666 26.674 68.725 Q 26.768 68.785 26.886 68.785 Q 27.011 68.785 27.093 68.741 Q 27.175 68.697 27.241 68.645 L 27.390 68.833 Q 27.306 68.917 27.179 68.976 Q 27.052 69.035 26.872 69.035 Q 26.662 69.035 26.498 68.939 Q 26.334 68.843 26.240 68.656 Q 26.146 68.470 26.146 68.197 Q 26.146 67.929 26.243 67.743 Q 26.340 67.557 26.504 67.461 Q 26.669 67.365 26.872 67.365 Z M 28.281 67.649 V 69.000 H 27.965 V 67.649 H 27.498 V 67.400 H 28.762 L 28.730 67.649 Z M 30.100 67.873 Q 30.100 67.989 30.054 68.076 Q 30.008 68.162 29.930 68.221 Q 29.852 68.280 29.755 68.313 L 30.193 69.000 H 29.830 L 29.452 68.363 H 29.306 V 69.000 H 28.990 V 67.400 H 29.461 Q 29.777 67.400 29.938 67.517 Q 30.100 67.634 30.100 67.873 Z M 29.771 67.873 Q 29.771 67.744 29.696 67.686 Q 29.621 67.629 29.469 67.629 H 29.306 V 68.138 H 29.479 Q 29.619 68.138 29.695 68.076 Q 29.771 68.013 29.771 67.873 Z M 30.458 69.000 V 67.400 H 30.775 V 68.743 H 31.481 L 31.447 69.000 Z" fill="#0E93A6" fill-rule="nonzero"/>
<path d="M 11.123 86.850 V 87.087 H 10.784 V 88.213 H 11.123 V 88.450 H 10.128 V 88.213 H 10.467 V 87.087 H 10.128 V 86.850 Z M 12.165 88.450 11.694 87.121 Q 11.699 87.165 11.708 87.234 Q 11.716 87.304 11.723 87.391 Q 11.731 87.479 11.736 87.578 Q 11.741 87.676 11.741 87.777 V 88.450 H 11.466 V 86.850 H 11.868 L 12.335 88.177 Q 12.325 88.118 12.314 88.021 Q 12.303 87.924 12.295 87.798 Q 12.287 87.671 12.287 87.529 V 86.850 H 12.563 V 88.450 Z" fill="#17141c" fill-rule="nonzero"/>
<path d="M 28.163 88.450 V 87.747 H 27.700 V 88.450 H 27.383 V 86.850 H 27.700 V 87.486 H 28.163 V 86.850 H 28.480 V 88.450 Z M 29.817 86.850 V 87.087 H 29.478 V 88.213 H 29.817 V 88.450 H 28.823 V 88.213 H 29.161 V 87.087 H 28.823 V 86.850 Z M 30.863 87.099 V 88.450 H 30.547 V 87.099 H 30.080 V 86.850 H 31.345 L 31.312 87.099 Z" fill="#A87400" fill-rule="nonzero"/>
<path d="M 10.219 99.642 Q 10.219 99.464 10.186 99.354 Q 10.153 99.245 10.096 99.186 Q 10.039 99.128 9.968 99.107 Q 9.896 99.086 9.818 99.086 H 9.700 V 100.215 H 9.819 Q 9.900 100.215 9.973 100.190 Q 10.045 100.164 10.101 100.101 Q 10.156 100.038 10.187 99.927 Q 10.219 99.815 10.219 99.642 Z M 10.549 99.642 Q 10.549 99.839 10.507 99.979 Q 10.465 100.119 10.391 100.211 Q 10.317 100.303 10.220 100.355 Q 10.124 100.407 10.014 100.429 Q 9.905 100.450 9.793 100.450 H 9.383 V 98.850 H 9.765 Q 9.914 98.850 10.054 98.882 Q 10.194 98.914 10.306 98.998 Q 10.418 99.083 10.484 99.238 Q 10.549 99.394 10.549 99.642 Z M 11.185 99.084 V 99.522 H 11.752 V 99.752 H 11.185 V 100.217 H 11.873 V 100.450 H 10.868 V 98.850 H 11.865 L 11.832 99.084 Z M 12.843 98.815 Q 13.009 98.815 13.125 98.859 Q 13.240 98.902 13.339 98.983 L 13.178 99.174 Q 13.110 99.116 13.028 99.086 Q 12.947 99.056 12.854 99.056 Q 12.743 99.056 12.650 99.115 Q 12.557 99.174 12.501 99.304 Q 12.445 99.434 12.445 99.647 Q 12.445 99.857 12.498 99.986 Q 12.552 100.116 12.645 100.175 Q 12.738 100.235 12.856 100.235 Q 12.981 100.235 13.063 100.191 Q 13.146 100.147 13.212 100.095 L 13.361 100.283 Q 13.276 100.367 13.150 100.426 Q 13.023 100.485 12.843 100.485 Q 12.633 100.485 12.469 100.389 Q 12.305 100.293 12.211 100.106 Q 12.117 99.920 12.117 99.647 Q 12.117 99.379 12.214 99.193 Q 12.310 99.007 12.475 98.911 Q 12.640 98.815 12.843 98.815 Z" fill="#0E93A6" fill-rule="nonzero"/>
<path d="M 27.372 98.815 Q 27.538 98.815 27.654 98.859 Q 27.770 98.902 27.868 98.983 L 27.707 99.174 Q 27.639 99.116 27.557 99.086 Q 27.476 99.056 27.383 99.056 Q 27.272 99.056 27.179 99.115 Q 27.086 99.174 27.030 99.304 Q 26.974 99.434 26.974 99.647 Q 26.974 99.857 27.028 99.986 Q 27.081 100.116 27.174 100.175 Q 27.268 100.235 27.386 100.235 Q 27.511 100.235 27.593 100.191 Q 27.675 100.147 27.741 100.095 L 27.890 100.283 Q 27.806 100.367 27.679 100.426 Q 27.552 100.485 27.372 100.485 Q 27.162 100.485 26.998 100.389 Q 26.834 100.293 26.740 100.106 Q 26.646 99.920 26.646 99.647 Q 26.646 99.379 26.743 99.193 Q 26.840 99.007 27.004 98.911 Q 27.169 98.815 27.372 98.815 Z M 28.781 99.099 V 100.450 H 28.465 V 99.099 H 27.998 V 98.850 H 29.262 L 29.230 99.099 Z M 30.600 99.323 Q 30.600 99.439 30.554 99.526 Q 30.508 99.612 30.430 99.671 Q 30.352 99.730 30.255 99.763 L 30.693 100.450 H 30.330 L 29.952 99.813 H 29.806 V 100.450 H 29.490 V 98.850 H 29.961 Q 30.277 98.850 30.438 98.967 Q 30.600 99.084 30.600 99.323 Z M 30.271 99.323 Q 30.271 99.194 30.196 99.136 Q 30.121 99.079 29.969 99.079 H 29.806 V 99.588 H 29.979 Q 30.119 99.588 30.195 99.526 Q 30.271 99.463 30.271 99.323 Z M 30.958 100.450 V 98.850 H 31.275 V 100.193 H 31.981 L 31.947 100.450 Z" fill="#17141c" fill-rule="nonzero"/>
<path d="M 19.554 111.649 Q 19.554 111.899 19.484 112.087 Q 19.414 112.275 19.275 112.380 Q 19.136 112.485 18.932 112.485 Q 18.728 112.485 18.589 112.382 Q 18.449 112.280 18.379 112.093 Q 18.309 111.906 18.309 111.651 Q 18.309 111.401 18.379 111.213 Q 18.449 111.025 18.589 110.920 Q 18.728 110.815 18.932 110.815 Q 19.136 110.815 19.275 110.917 Q 19.414 111.019 19.484 111.206 Q 19.554 111.394 19.554 111.649 Z M 19.228 111.649 Q 19.228 111.346 19.159 111.200 Q 19.090 111.054 18.932 111.054 Q 18.773 111.054 18.704 111.201 Q 18.635 111.347 18.635 111.651 Q 18.635 111.955 18.706 112.100 Q 18.777 112.245 18.932 112.245 Q 19.092 112.245 19.160 112.098 Q 19.228 111.951 19.228 111.649 Z M 20.893 110.850 V 111.920 Q 20.893 112.083 20.826 112.211 Q 20.760 112.339 20.632 112.412 Q 20.505 112.485 20.319 112.485 Q 20.131 112.485 20.004 112.414 Q 19.877 112.342 19.812 112.215 Q 19.747 112.088 19.747 111.920 V 110.850 H 20.064 V 111.831 Q 20.064 112.036 20.120 112.138 Q 20.175 112.241 20.319 112.241 Q 20.463 112.241 20.519 112.138 Q 20.575 112.036 20.575 111.831 V 110.850 Z M 21.863 111.099 V 112.450 H 21.547 V 111.099 H 21.080 V 110.850 H 22.345 L 22.312 111.099 Z" fill="#E8500A" fill-rule="nonzero"/>
<path d="M 59.226 15.249 Q 59.226 15.546 59.143 15.769 Q 59.060 15.993 58.895 16.117 Q 58.730 16.241 58.487 16.241 Q 58.245 16.241 58.080 16.120 Q 57.914 15.998 57.831 15.776 Q 57.748 15.554 57.748 15.251 Q 57.748 14.954 57.831 14.731 Q 57.914 14.507 58.080 14.383 Q 58.245 14.259 58.487 14.259 Q 58.730 14.259 58.895 14.380 Q 59.060 14.501 59.143 14.723 Q 59.226 14.946 59.226 15.249 Z M 58.839 15.249 Q 58.839 14.889 58.757 14.716 Q 58.675 14.542 58.487 14.542 Q 58.299 14.542 58.217 14.716 Q 58.135 14.891 58.135 15.251 Q 58.135 15.612 58.219 15.784 Q 58.303 15.957 58.487 15.957 Q 58.678 15.957 58.758 15.782 Q 58.839 15.608 58.839 15.249 Z M 60.486 14.909 Q 60.486 14.790 60.441 14.717 Q 60.397 14.643 60.312 14.609 Q 60.226 14.575 60.107 14.575 H 59.910 V 15.263 H 60.118 Q 60.230 15.263 60.312 15.228 Q 60.394 15.193 60.440 15.115 Q 60.486 15.036 60.486 14.909 Z M 60.876 14.906 Q 60.876 15.127 60.782 15.268 Q 60.688 15.409 60.519 15.475 Q 60.350 15.542 60.129 15.542 H 59.910 V 16.200 H 59.534 V 14.300 H 60.093 Q 60.463 14.300 60.669 14.450 Q 60.876 14.599 60.876 14.906 Z M 61.624 14.578 V 15.098 H 62.297 V 15.372 H 61.624 V 15.924 H 62.441 V 16.200 H 61.247 V 14.300 H 62.431 L 62.393 14.578 Z M 63.612 16.200 63.052 14.621 Q 63.059 14.674 63.069 14.756 Q 63.078 14.839 63.087 14.943 Q 63.096 15.047 63.103 15.164 Q 63.109 15.281 63.109 15.400 V 16.200 H 62.782 V 14.300 H 63.260 L 63.813 15.876 Q 63.802 15.806 63.789 15.690 Q 63.776 15.575 63.767 15.425 Q 63.757 15.275 63.757 15.106 V 14.300 H 64.084 V 16.200 Z" fill="#17141c" fill-rule="nonzero"/>
<path d="M 58.003 33.241 Q 58.003 33.030 57.964 32.899 Q 57.925 32.768 57.858 32.699 Q 57.790 32.630 57.705 32.605 Q 57.620 32.580 57.528 32.580 H 57.388 V 33.921 H 57.529 Q 57.626 33.921 57.711 33.891 Q 57.797 33.861 57.863 33.786 Q 57.929 33.711 57.966 33.578 Q 58.003 33.446 58.003 33.241 Z M 58.396 33.241 Q 58.396 33.475 58.346 33.641 Q 58.296 33.807 58.208 33.916 Q 58.120 34.026 58.005 34.087 Q 57.891 34.149 57.761 34.175 Q 57.631 34.200 57.498 34.200 H 57.012 V 32.300 H 57.465 Q 57.642 32.300 57.808 32.338 Q 57.975 32.376 58.107 32.476 Q 58.240 32.576 58.318 32.761 Q 58.396 32.946 58.396 33.241 Z M 59.151 32.578 V 33.098 H 59.824 V 33.372 H 59.151 V 33.924 H 59.968 V 34.200 H 58.774 V 32.300 H 59.958 L 59.920 32.578 Z M 61.119 32.259 Q 61.317 32.259 61.455 32.310 Q 61.592 32.362 61.709 32.458 L 61.518 32.685 Q 61.437 32.616 61.340 32.580 Q 61.243 32.545 61.133 32.545 Q 61.001 32.545 60.891 32.615 Q 60.780 32.685 60.713 32.839 Q 60.647 32.994 60.647 33.247 Q 60.647 33.495 60.711 33.649 Q 60.775 33.803 60.885 33.874 Q 60.996 33.944 61.136 33.944 Q 61.284 33.944 61.382 33.892 Q 61.479 33.840 61.558 33.778 L 61.735 34.002 Q 61.635 34.101 61.484 34.171 Q 61.334 34.241 61.119 34.241 Q 60.871 34.241 60.676 34.127 Q 60.481 34.013 60.369 33.792 Q 60.258 33.571 60.258 33.247 Q 60.258 32.928 60.373 32.707 Q 60.487 32.487 60.683 32.373 Q 60.879 32.259 61.119 32.259 Z M 62.916 33.764 H 62.291 L 62.173 34.200 H 61.784 L 62.379 32.300 H 62.841 L 63.434 34.200 H 63.034 Z M 62.359 33.483 H 62.846 L 62.603 32.582 Z M 64.445 33.480 V 34.200 H 64.069 V 33.483 L 63.441 32.300 H 63.853 L 64.264 33.166 L 64.679 32.300 H 65.073 Z" fill="#17141c" fill-rule="nonzero"/>
<path d="M 55.846 50.300 55.954 52.200 H 55.618 L 55.583 51.325 Q 55.579 51.215 55.578 51.121 Q 55.577 51.027 55.579 50.942 Q 55.580 50.858 55.583 50.779 Q 55.587 50.701 55.592 50.626 L 55.341 51.870 H 55.036 L 54.767 50.626 Q 54.772 50.698 54.776 50.778 Q 54.780 50.858 54.782 50.944 Q 54.784 51.031 54.785 51.127 Q 54.786 51.223 54.782 51.328 L 54.756 52.200 H 54.426 L 54.533 50.300 H 54.951 L 55.195 51.554 L 55.429 50.300 Z M 57.146 51.764 H 56.521 L 56.403 52.200 H 56.014 L 56.609 50.300 H 57.071 L 57.664 52.200 H 57.264 Z M 56.588 51.483 H 57.076 L 56.833 50.582 Z M 58.671 50.595 V 52.200 H 58.296 V 50.595 H 57.741 V 50.300 H 59.243 L 59.204 50.595 Z M 59.975 50.578 V 51.098 H 60.648 V 51.372 H 59.975 V 51.924 H 60.792 V 52.200 H 59.598 V 50.300 H 60.783 L 60.744 50.578 Z M 62.479 50.862 Q 62.479 50.999 62.425 51.102 Q 62.371 51.205 62.278 51.275 Q 62.185 51.345 62.070 51.384 L 62.591 52.200 H 62.159 L 61.710 51.443 H 61.537 V 52.200 H 61.162 V 50.300 H 61.721 Q 62.096 50.300 62.288 50.439 Q 62.479 50.578 62.479 50.862 Z M 62.089 50.862 Q 62.089 50.708 62.000 50.640 Q 61.911 50.572 61.731 50.572 H 61.537 V 51.177 H 61.743 Q 61.909 51.177 61.999 51.102 Q 62.089 51.028 62.089 50.862 Z M 64.024 50.300 V 50.582 H 63.621 V 51.918 H 64.024 V 52.200 H 62.842 V 51.918 H 63.245 V 50.582 H 62.842 V 50.300 Z M 65.389 51.764 H 64.764 L 64.646 52.200 H 64.257 L 64.852 50.300 H 65.314 L 65.907 52.200 H 65.507 Z M 64.832 51.483 H 65.319 L 65.076 50.582 Z M 66.203 52.200 V 50.300 H 66.579 V 51.895 H 67.417 L 67.377 52.200 Z" fill="#17141c" fill-rule="nonzero"/>
<path d="M 51.359 68.192 Q 51.359 68.014 51.326 67.904 Q 51.293 67.795 51.236 67.736 Q 51.179 67.678 51.108 67.657 Q 51.036 67.636 50.958 67.636 H 50.840 V 68.765 H 50.959 Q 51.040 68.765 51.113 68.740 Q 51.185 68.714 51.241 68.651 Q 51.296 68.588 51.327 68.477 Q 51.359 68.365 51.359 68.192 Z M 51.689 68.192 Q 51.689 68.389 51.647 68.529 Q 51.605 68.669 51.531 68.761 Q 51.457 68.853 51.360 68.905 Q 51.264 68.957 51.154 68.979 Q 51.045 69.000 50.933 69.000 H 50.523 V 67.400 H 50.905 Q 51.054 67.400 51.194 67.432 Q 51.334 67.464 51.446 67.548 Q 51.558 67.633 51.624 67.788 Q 51.689 67.944 51.689 68.192 Z M 52.325 67.634 V 68.072 H 52.892 V 68.302 H 52.325 V 68.767 H 53.013 V 69.000 H 52.008 V 67.400 H 53.005 L 52.972 67.634 Z M 53.983 67.365 Q 54.149 67.365 54.265 67.409 Q 54.380 67.452 54.479 67.533 L 54.318 67.724 Q 54.250 67.666 54.168 67.636 Q 54.087 67.606 53.994 67.606 Q 53.883 67.606 53.790 67.665 Q 53.697 67.724 53.641 67.854 Q 53.585 67.984 53.585 68.197 Q 53.585 68.407 53.638 68.536 Q 53.692 68.666 53.785 68.725 Q 53.878 68.785 53.996 68.785 Q 54.121 68.785 54.203 68.741 Q 54.286 68.697 54.352 68.645 L 54.501 68.833 Q 54.416 68.917 54.290 68.976 Q 54.163 69.035 53.983 69.035 Q 53.773 69.035 53.609 68.939 Q 53.445 68.843 53.351 68.656 Q 53.257 68.470 53.257 68.197 Q 53.257 67.929 53.354 67.743 Q 53.450 67.557 53.615 67.461 Q 53.780 67.365 53.983 67.365 Z" fill="#0E93A6" fill-rule="nonzero"/>
<path d="M 67.512 67.365 Q 67.678 67.365 67.794 67.409 Q 67.910 67.452 68.008 67.533 L 67.847 67.724 Q 67.779 67.666 67.697 67.636 Q 67.616 67.606 67.523 67.606 Q 67.412 67.606 67.319 67.665 Q 67.226 67.724 67.170 67.854 Q 67.114 67.984 67.114 68.197 Q 67.114 68.407 67.168 68.536 Q 67.221 68.666 67.314 68.725 Q 67.408 68.785 67.526 68.785 Q 67.651 68.785 67.733 68.741 Q 67.815 68.697 67.881 68.645 L 68.030 68.833 Q 67.946 68.917 67.819 68.976 Q 67.692 69.035 67.512 69.035 Q 67.302 69.035 67.138 68.939 Q 66.974 68.843 66.880 68.656 Q 66.786 68.470 66.786 68.197 Q 66.786 67.929 66.883 67.743 Q 66.980 67.557 67.144 67.461 Q 67.309 67.365 67.512 67.365 Z M 68.921 67.649 V 69.000 H 68.605 V 67.649 H 68.138 V 67.400 H 69.402 L 69.370 67.649 Z M 70.740 67.873 Q 70.740 67.989 70.694 68.076 Q 70.648 68.162 70.570 68.221 Q 70.492 68.280 70.395 68.313 L 70.833 69.000 H 70.470 L 70.092 68.363 H 69.946 V 69.000 H 69.630 V 67.400 H 70.101 Q 70.417 67.400 70.578 67.517 Q 70.740 67.634 70.740 67.873 Z M 70.411 67.873 Q 70.411 67.744 70.336 67.686 Q 70.261 67.629 70.109 67.629 H 69.946 V 68.138 H 70.119 Q 70.259 68.138 70.335 68.076 Q 70.411 68.013 70.411 67.873 Z M 71.098 69.000 V 67.400 H 71.415 V 68.743 H 72.121 L 72.087 69.000 Z" fill="#0E93A6" fill-rule="nonzero"/>
<path d="M 51.763 86.850 V 87.087 H 51.424 V 88.213 H 51.763 V 88.450 H 50.768 V 88.213 H 51.107 V 87.087 H 50.768 V 86.850 Z M 52.805 88.450 52.334 87.121 Q 52.339 87.165 52.348 87.234 Q 52.356 87.304 52.363 87.391 Q 52.371 87.479 52.376 87.578 Q 52.381 87.676 52.381 87.777 V 88.450 H 52.106 V 86.850 H 52.508 L 52.975 88.177 Q 52.965 88.118 52.954 88.021 Q 52.943 87.924 52.935 87.798 Q 52.927 87.671 52.927 87.529 V 86.850 H 53.203 V 88.450 Z" fill="#17141c" fill-rule="nonzero"/>
<path d="M 68.803 88.450 V 87.747 H 68.340 V 88.450 H 68.023 V 86.850 H 68.340 V 87.486 H 68.803 V 86.850 H 69.120 V 88.450 Z M 70.457 86.850 V 87.087 H 70.118 V 88.213 H 70.457 V 88.450 H 69.463 V 88.213 H 69.801 V 87.087 H 69.463 V 86.850 Z M 71.503 87.099 V 88.450 H 71.187 V 87.099 H 70.720 V 86.850 H 71.985 L 71.952 87.099 Z" fill="#A87400" fill-rule="nonzero"/>
<path d="M 50.859 99.642 Q 50.859 99.464 50.826 99.354 Q 50.793 99.245 50.736 99.186 Q 50.679 99.128 50.608 99.107 Q 50.536 99.086 50.458 99.086 H 50.340 V 100.215 H 50.459 Q 50.540 100.215 50.613 100.190 Q 50.685 100.164 50.741 100.101 Q 50.796 100.038 50.827 99.927 Q 50.859 99.815 50.859 99.642 Z M 51.189 99.642 Q 51.189 99.839 51.147 99.979 Q 51.105 100.119 51.031 100.211 Q 50.957 100.303 50.860 100.355 Q 50.764 100.407 50.654 100.429 Q 50.545 100.450 50.433 100.450 H 50.023 V 98.850 H 50.405 Q 50.554 98.850 50.694 98.882 Q 50.834 98.914 50.946 98.998 Q 51.058 99.083 51.124 99.238 Q 51.189 99.394 51.189 99.642 Z M 51.825 99.084 V 99.522 H 52.392 V 99.752 H 51.825 V 100.217 H 52.513 V 100.450 H 51.508 V 98.850 H 52.505 L 52.472 99.084 Z M 53.483 98.815 Q 53.649 98.815 53.765 98.859 Q 53.880 98.902 53.979 98.983 L 53.818 99.174 Q 53.750 99.116 53.668 99.086 Q 53.587 99.056 53.494 99.056 Q 53.383 99.056 53.290 99.115 Q 53.197 99.174 53.141 99.304 Q 53.085 99.434 53.085 99.647 Q 53.085 99.857 53.138 99.986 Q 53.192 100.116 53.285 100.175 Q 53.378 100.235 53.496 100.235 Q 53.621 100.235 53.703 100.191 Q 53.786 100.147 53.852 100.095 L 54.001 100.283 Q 53.916 100.367 53.790 100.426 Q 53.663 100.485 53.483 100.485 Q 53.273 100.485 53.109 100.389 Q 52.945 100.293 52.851 100.106 Q 52.757 99.920 52.757 99.647 Q 52.757 99.379 52.854 99.193 Q 52.950 99.007 53.115 98.911 Q 53.280 98.815 53.483 98.815 Z" fill="#0E93A6" fill-rule="nonzero"/>
<path d="M 68.012 98.815 Q 68.178 98.815 68.294 98.859 Q 68.410 98.902 68.508 98.983 L 68.347 99.174 Q 68.279 99.116 68.197 99.086 Q 68.116 99.056 68.023 99.056 Q 67.912 99.056 67.819 99.115 Q 67.726 99.174 67.670 99.304 Q 67.614 99.434 67.614 99.647 Q 67.614 99.857 67.668 99.986 Q 67.721 100.116 67.814 100.175 Q 67.908 100.235 68.026 100.235 Q 68.151 100.235 68.233 100.191 Q 68.315 100.147 68.381 100.095 L 68.530 100.283 Q 68.446 100.367 68.319 100.426 Q 68.192 100.485 68.012 100.485 Q 67.802 100.485 67.638 100.389 Q 67.474 100.293 67.380 100.106 Q 67.286 99.920 67.286 99.647 Q 67.286 99.379 67.383 99.193 Q 67.480 99.007 67.644 98.911 Q 67.809 98.815 68.012 98.815 Z M 69.421 99.099 V 100.450 H 69.105 V 99.099 H 68.638 V 98.850 H 69.902 L 69.870 99.099 Z M 71.240 99.323 Q 71.240 99.439 71.194 99.526 Q 71.148 99.612 71.070 99.671 Q 70.992 99.730 70.895 99.763 L 71.333 100.450 H 70.970 L 70.592 99.813 H 70.446 V 100.450 H 70.130 V 98.850 H 70.601 Q 70.917 98.850 71.078 98.967 Q 71.240 99.084 71.240 99.323 Z M 70.911 99.323 Q 70.911 99.194 70.836 99.136 Q 70.761 99.079 70.609 99.079 H 70.446 V 99.588 H 70.619 Q 70.759 99.588 70.835 99.526 Q 70.911 99.463 70.911 99.323 Z M 71.598 100.450 V 98.850 H 71.915 V 100.193 H 72.621 L 72.587 100.450 Z" fill="#17141c" fill-rule="nonzero"/>
<path d="M 60.194 111.649 Q 60.194 111.899 60.124 112.087 Q 60.054 112.275 59.915 112.380 Q 59.776 112.485 59.572 112.485 Q 59.368 112.485 59.229 112.382 Q 59.089 112.280 59.019 112.093 Q 58.949 111.906 58.949 111.651 Q 58.949 111.401 59.019 111.213 Q 59.089 111.025 59.229 110.920 Q 59.368 110.815 59.572 110.815 Q 59.776 110.815 59.915 110.917 Q 60.054 111.019 60.124 111.206 Q 60.194 111.394 60.194 111.649 Z M 59.868 111.649 Q 59.868 111.346 59.799 111.200 Q 59.730 111.054 59.572 111.054 Q 59.413 111.054 59.344 111.201 Q 59.275 111.347 59.275 111.651 Q 59.275 111.955 59.346 112.100 Q 59.417 112.245 59.572 112.245 Q 59.732 112.245 59.800 112.098 Q 59.868 111.951 59.868 111.649 Z M 61.533 110.850 V 111.920 Q 61.533 112.083 61.466 112.211 Q 61.400 112.339 61.272 112.412 Q 61.145 112.485 60.959 112.485 Q 60.771 112.485 60.644 112.414 Q 60.517 112.342 60.452 112.215 Q 60.387 112.088 60.387 111.920 V 110.850 H 60.704 V 111.831 Q 60.704 112.036 60.760 112.138 Q 60.815 112.241 60.959 112.241 Q 61.103 112.241 61.159 112.138 Q 61.215 112.036 61.215 111.831 V 110.850 Z M 62.503 111.099 V 112.450 H 62.187 V 111.099 H 61.720 V 110.850 H 62.985 L 62.952 111.099 Z" fill="#E8500A" fill-rule="nonzero"/>
<path d="M 10.148 12.965 Q 10.315 12.965 10.431 13.009 Q 10.546 13.052 10.645 13.133 L 10.484 13.324 Q 10.416 13.266 10.334 13.236 Q 10.252 13.206 10.160 13.206 Q 10.049 13.206 9.956 13.265 Q 9.863 13.324 9.806 13.454 Q 9.750 13.584 9.750 13.797 Q 9.750 14.007 9.804 14.136 Q 9.858 14.266 9.951 14.325 Q 10.044 14.385 10.162 14.385 Q 10.287 14.385 10.369 14.341 Q 10.451 14.297 10.517 14.245 L 10.667 14.433 Q 10.582 14.517 10.456 14.576 Q 10.329 14.635 10.148 14.635 Q 9.939 14.635 9.775 14.539 Q 9.610 14.443 9.517 14.256 Q 9.423 14.070 9.423 13.797 Q 9.423 13.529 9.520 13.343 Q 9.616 13.157 9.781 13.061 Q 9.946 12.965 10.148 12.965 Z M 11.634 14.600 V 13.897 H 11.171 V 14.600 H 10.854 V 13.000 H 11.171 V 13.636 H 11.634 V 13.000 H 11.951 V 14.600 Z M 14.438 14.233 H 13.912 L 13.812 14.600 H 13.485 L 13.986 13.000 H 14.375 L 14.874 14.600 H 14.538 Z M 13.969 13.996 H 14.379 L 14.174 13.237 Z" fill="#6c6d72" fill-rule="nonzero"/>
<path d="M 67.235 12.965 Q 67.402 12.965 67.517 13.009 Q 67.633 13.052 67.731 13.133 L 67.571 13.324 Q 67.502 13.266 67.421 13.236 Q 67.339 13.206 67.247 13.206 Q 67.136 13.206 67.042 13.265 Q 66.949 13.324 66.893 13.454 Q 66.837 13.584 66.837 13.797 Q 66.837 14.007 66.891 14.136 Q 66.945 14.266 67.038 14.325 Q 67.131 14.385 67.249 14.385 Q 67.374 14.385 67.456 14.341 Q 67.538 14.297 67.604 14.245 L 67.753 14.433 Q 67.669 14.517 67.542 14.576 Q 67.416 14.635 67.235 14.635 Q 67.026 14.635 66.861 14.539 Q 66.697 14.443 66.603 14.256 Q 66.510 14.070 66.510 13.797 Q 66.510 13.529 66.606 13.343 Q 66.703 13.157 66.868 13.061 Q 67.033 12.965 67.235 12.965 Z M 68.721 14.600 V 13.897 H 68.258 V 14.600 H 67.941 V 13.000 H 68.258 V 13.636 H 68.721 V 13.000 H 69.038 V 14.600 Z M 71.539 14.128 Q 71.539 14.031 71.501 13.976 Q 71.464 13.922 71.398 13.899 Q 71.332 13.877 71.247 13.877 H 71.051 V 14.363 H 71.233 Q 71.290 14.363 71.344 14.354 Q 71.399 14.344 71.443 14.319 Q 71.488 14.295 71.513 14.248 Q 71.539 14.202 71.539 14.128 Z M 71.478 13.435 Q 71.478 13.326 71.410 13.279 Q 71.342 13.231 71.210 13.231 H 71.051 V 13.654 H 71.224 Q 71.354 13.654 71.416 13.602 Q 71.478 13.551 71.478 13.435 Z M 71.867 14.136 Q 71.867 14.271 71.815 14.362 Q 71.762 14.452 71.672 14.504 Q 71.582 14.556 71.468 14.578 Q 71.354 14.600 71.230 14.600 H 70.734 V 13.000 H 71.201 Q 71.319 13.000 71.425 13.020 Q 71.532 13.039 71.616 13.086 Q 71.700 13.133 71.749 13.212 Q 71.798 13.290 71.798 13.407 Q 71.798 13.506 71.757 13.576 Q 71.716 13.647 71.648 13.690 Q 71.581 13.733 71.503 13.753 Q 71.590 13.767 71.674 13.807 Q 71.758 13.847 71.812 13.926 Q 71.867 14.005 71.867 14.136 Z" fill="#6c6d72" fill-rule="nonzero"/>
<path d="M 37.667 108.400 V 108.637 H 37.328 V 109.763 H 37.667 V 110.000 H 36.672 V 109.763 H 37.011 V 108.637 H 36.672 V 108.400 Z M 39.111 108.400 39.201 110.000 H 38.918 L 38.888 109.263 Q 38.885 109.170 38.884 109.091 Q 38.884 109.012 38.885 108.941 Q 38.886 108.870 38.889 108.804 Q 38.892 108.738 38.896 108.674 L 38.685 109.722 H 38.428 L 38.201 108.674 Q 38.206 108.736 38.209 108.803 Q 38.213 108.870 38.214 108.943 Q 38.216 109.015 38.217 109.096 Q 38.217 109.177 38.214 109.265 L 38.192 110.000 H 37.914 L 38.005 108.400 H 38.356 L 38.562 109.456 L 38.759 108.400 Z M 40.241 108.913 Q 40.241 108.813 40.203 108.751 Q 40.166 108.689 40.094 108.660 Q 40.022 108.631 39.922 108.631 H 39.756 V 109.211 H 39.931 Q 40.026 109.211 40.094 109.181 Q 40.163 109.152 40.202 109.086 Q 40.241 109.020 40.241 108.913 Z M 40.569 108.910 Q 40.569 109.096 40.490 109.215 Q 40.411 109.334 40.269 109.390 Q 40.126 109.446 39.940 109.446 H 39.756 V 110.000 H 39.439 V 108.400 H 39.910 Q 40.221 108.400 40.395 108.526 Q 40.569 108.652 40.569 108.910 Z M 41.199 108.634 V 109.072 H 41.766 V 109.302 H 41.199 V 109.767 H 41.887 V 110.000 H 40.882 V 108.400 H 41.879 L 41.847 108.634 Z M 43.308 108.873 Q 43.308 108.989 43.262 109.076 Q 43.216 109.162 43.138 109.221 Q 43.060 109.280 42.963 109.313 L 43.402 110.000 H 43.038 L 42.660 109.363 H 42.514 V 110.000 H 42.198 V 108.400 H 42.669 Q 42.985 108.400 43.146 108.517 Q 43.308 108.634 43.308 108.873 Z M 42.979 108.873 Q 42.979 108.744 42.904 108.686 Q 42.829 108.629 42.677 108.629 H 42.514 V 109.138 H 42.688 Q 42.828 109.138 42.904 109.076 Q 42.979 109.013 42.979 108.873 Z M 44.008 108.634 V 109.105 H 44.592 V 109.338 H 44.008 V 110.000 H 43.691 V 108.400 H 44.704 L 44.671 108.634 Z" fill="#1C46FF" fill-rule="nonzero"/>
<line x1="7.00" y1="122.30" x2="74.28" y2="122.30" stroke="#2b2733" stroke-width="0.25" stroke-opacity="0.34" stroke-linecap="round"/>
<path d="M 12.668 124.084 Q 12.668 124.216 12.600 124.317 Q 12.533 124.417 12.406 124.474 Q 12.279 124.531 12.099 124.531 Q 11.910 124.531 11.775 124.475 Q 11.639 124.419 11.548 124.331 L 11.699 124.162 Q 11.778 124.233 11.875 124.272 Q 11.973 124.312 12.094 124.312 Q 12.172 124.312 12.234 124.288 Q 12.297 124.264 12.333 124.217 Q 12.369 124.171 12.369 124.103 Q 12.369 124.043 12.344 124.002 Q 12.319 123.961 12.258 123.929 Q 12.196 123.896 12.087 123.864 Q 11.927 123.814 11.823 123.755 Q 11.719 123.696 11.669 123.615 Q 11.618 123.533 11.618 123.422 Q 11.618 123.297 11.688 123.207 Q 11.757 123.116 11.875 123.067 Q 11.993 123.019 12.139 123.019 Q 12.300 123.019 12.423 123.065 Q 12.545 123.112 12.639 123.198 L 12.495 123.360 Q 12.421 123.296 12.334 123.266 Q 12.248 123.236 12.158 123.236 Q 12.088 123.236 12.033 123.254 Q 11.978 123.273 11.947 123.310 Q 11.915 123.347 11.915 123.403 Q 11.915 123.455 11.944 123.491 Q 11.973 123.527 12.043 123.558 Q 12.113 123.589 12.236 123.628 Q 12.365 123.666 12.462 123.721 Q 12.559 123.776 12.613 123.862 Q 12.668 123.949 12.668 124.084 Z M 12.945 123.954 V 123.734 H 13.830 V 123.954 Z M 16.123 123.050 V 124.287 H 16.405 V 124.500 H 15.500 V 124.287 H 15.851 V 123.329 L 15.542 123.521 L 15.423 123.329 L 15.878 123.050 Z M 17.256 123.019 Q 17.348 123.019 17.424 123.042 Q 17.500 123.066 17.561 123.109 L 17.455 123.281 Q 17.411 123.250 17.361 123.236 Q 17.311 123.221 17.259 123.221 Q 17.165 123.221 17.094 123.283 Q 17.023 123.345 16.985 123.460 Q 16.951 123.558 16.945 123.691 Q 17.006 123.618 17.080 123.582 Q 17.169 123.538 17.266 123.538 Q 17.378 123.538 17.470 123.592 Q 17.562 123.646 17.617 123.750 Q 17.672 123.855 17.672 124.009 Q 17.672 124.160 17.610 124.278 Q 17.549 124.396 17.437 124.464 Q 17.325 124.531 17.179 124.531 Q 17.038 124.531 16.939 124.479 Q 16.841 124.426 16.779 124.331 Q 16.717 124.236 16.688 124.108 Q 16.660 123.981 16.660 123.834 Q 16.660 123.591 16.731 123.407 Q 16.802 123.223 16.936 123.121 Q 17.069 123.019 17.256 123.019 Z M 16.946 123.879 Q 16.950 124.095 16.997 124.205 Q 17.048 124.328 17.181 124.328 Q 17.290 124.328 17.342 124.242 Q 17.394 124.156 17.394 124.024 Q 17.394 123.917 17.370 123.855 Q 17.346 123.792 17.303 123.765 Q 17.260 123.737 17.199 123.737 Q 17.118 123.737 17.046 123.784 Q 16.990 123.822 16.946 123.879 Z M 18.630 124.500 V 123.863 H 18.210 V 124.500 H 17.923 V 123.050 H 18.210 V 123.627 H 18.630 V 123.050 H 18.917 V 124.500 Z M 19.945 123.514 Q 19.945 123.424 19.911 123.368 Q 19.877 123.312 19.812 123.286 Q 19.747 123.260 19.656 123.260 H 19.506 V 123.785 H 19.664 Q 19.750 123.785 19.813 123.758 Q 19.875 123.731 19.910 123.672 Q 19.945 123.612 19.945 123.514 Z M 20.243 123.512 Q 20.243 123.681 20.171 123.789 Q 20.100 123.896 19.971 123.947 Q 19.842 123.998 19.673 123.998 H 19.506 V 124.500 H 19.219 V 123.050 H 19.646 Q 19.928 123.050 20.085 123.164 Q 20.243 123.279 20.243 123.512 Z" fill="#6c6d72" fill-rule="nonzero"/>
<path d="M 37.794 124.532 Q 37.609 124.532 37.468 124.466 Q 37.326 124.399 37.246 124.276 Q 37.166 124.153 37.166 123.979 V 123.915 H 37.463 V 123.979 Q 37.463 124.123 37.552 124.195 Q 37.641 124.267 37.794 124.267 Q 37.950 124.267 38.026 124.205 Q 38.103 124.143 38.103 124.047 Q 38.103 123.981 38.065 123.940 Q 38.028 123.899 37.956 123.873 Q 37.884 123.846 37.781 123.823 L 37.728 123.812 Q 37.564 123.775 37.446 123.719 Q 37.328 123.663 37.265 123.572 Q 37.202 123.481 37.202 123.334 Q 37.202 123.188 37.272 123.084 Q 37.342 122.980 37.469 122.924 Q 37.596 122.868 37.767 122.868 Q 37.938 122.868 38.072 122.926 Q 38.206 122.985 38.282 123.100 Q 38.359 123.215 38.359 123.389 V 123.458 H 38.062 V 123.389 Q 38.062 123.298 38.026 123.242 Q 37.991 123.186 37.925 123.159 Q 37.858 123.133 37.767 123.133 Q 37.630 123.133 37.565 123.185 Q 37.500 123.236 37.500 123.325 Q 37.500 123.385 37.530 123.426 Q 37.561 123.467 37.623 123.494 Q 37.685 123.522 37.781 123.542 L 37.833 123.554 Q 38.005 123.590 38.132 123.647 Q 38.258 123.705 38.329 123.798 Q 38.400 123.892 38.400 124.038 Q 38.400 124.185 38.326 124.295 Q 38.252 124.406 38.116 124.469 Q 37.980 124.532 37.794 124.532 Z M 38.514 124.500 38.935 122.900 H 39.461 L 39.881 124.500 H 39.570 L 39.483 124.148 H 38.912 L 38.825 124.500 Z M 38.983 123.869 H 39.413 L 39.218 123.090 H 39.177 Z M 40.073 124.500 V 122.900 H 40.633 L 40.910 124.294 H 40.951 L 41.227 122.900 H 41.787 V 124.500 H 41.495 V 123.122 H 41.454 L 41.179 124.500 H 40.681 L 40.407 123.122 H 40.366 V 124.500 Z M 42.094 124.047 V 123.787 H 42.770 V 124.047 Z M 43.077 124.500 V 122.900 H 44.105 V 123.174 H 43.378 V 123.556 H 44.041 V 123.830 H 43.378 V 124.226 H 44.119 V 124.500 Z" fill="#17141c" fill-rule="nonzero"/>
<circle cx="51.99" cy="123.95" r="0.85" fill="#E8500A" fill-opacity="0.95" stroke="none" stroke-width="0.25" stroke-opacity="1.0"/>
<path d="M 55.116 124.098 Q 55.116 124.226 55.050 124.323 Q 54.985 124.420 54.862 124.475 Q 54.740 124.530 54.566 124.530 Q 54.384 124.530 54.253 124.476 Q 54.122 124.422 54.034 124.337 L 54.180 124.174 Q 54.256 124.242 54.350 124.280 Q 54.444 124.319 54.562 124.319 Q 54.637 124.319 54.697 124.296 Q 54.757 124.272 54.792 124.227 Q 54.827 124.182 54.827 124.116 Q 54.827 124.059 54.803 124.019 Q 54.778 123.980 54.719 123.948 Q 54.660 123.917 54.555 123.886 Q 54.400 123.838 54.300 123.781 Q 54.199 123.724 54.151 123.645 Q 54.102 123.567 54.102 123.459 Q 54.102 123.339 54.169 123.251 Q 54.236 123.164 54.350 123.117 Q 54.464 123.070 54.604 123.070 Q 54.760 123.070 54.879 123.115 Q 54.997 123.160 55.087 123.243 L 54.949 123.400 Q 54.877 123.338 54.793 123.309 Q 54.710 123.279 54.624 123.279 Q 54.556 123.279 54.503 123.297 Q 54.449 123.316 54.419 123.351 Q 54.389 123.386 54.389 123.441 Q 54.389 123.491 54.417 123.526 Q 54.444 123.561 54.512 123.590 Q 54.580 123.620 54.698 123.658 Q 54.823 123.695 54.917 123.748 Q 55.010 123.801 55.063 123.884 Q 55.116 123.968 55.116 124.098 Z M 56.245 123.100 V 123.308 H 55.949 V 124.292 H 56.245 V 124.500 H 55.375 V 124.292 H 55.671 V 123.308 H 55.375 V 123.100 Z M 57.068 124.530 Q 56.881 124.530 56.749 124.447 Q 56.618 124.364 56.549 124.201 Q 56.479 124.038 56.479 123.797 Q 56.479 123.618 56.529 123.482 Q 56.578 123.346 56.665 123.254 Q 56.751 123.163 56.865 123.116 Q 56.979 123.070 57.107 123.070 Q 57.255 123.070 57.355 123.114 Q 57.455 123.159 57.537 123.236 L 57.386 123.391 Q 57.322 123.333 57.260 123.305 Q 57.197 123.278 57.118 123.278 Q 57.045 123.278 56.982 123.307 Q 56.919 123.335 56.870 123.397 Q 56.822 123.458 56.795 123.558 Q 56.768 123.657 56.768 123.799 Q 56.768 123.989 56.802 124.104 Q 56.835 124.219 56.904 124.270 Q 56.972 124.321 57.075 124.321 Q 57.133 124.321 57.184 124.307 Q 57.235 124.293 57.282 124.270 V 123.913 H 57.071 L 57.043 123.710 H 57.546 V 124.396 Q 57.445 124.455 57.329 124.493 Q 57.213 124.530 57.068 124.530 Z M 58.371 124.500 57.959 123.337 Q 57.964 123.375 57.971 123.436 Q 57.978 123.497 57.985 123.574 Q 57.992 123.651 57.996 123.737 Q 58.001 123.823 58.001 123.911 V 124.500 H 57.760 V 123.100 H 58.112 L 58.520 124.261 Q 58.512 124.209 58.502 124.124 Q 58.493 124.039 58.486 123.929 Q 58.478 123.819 58.478 123.694 V 123.100 H 58.719 V 124.500 Z M 59.681 124.179 H 59.221 L 59.133 124.500 H 58.847 L 59.285 123.100 H 59.625 L 60.063 124.500 H 59.768 Z M 59.270 123.972 H 59.629 L 59.450 123.308 Z M 60.280 124.500 V 123.100 H 60.558 V 124.275 H 61.175 L 61.146 124.500 Z M 63.619 124.098 Q 63.619 124.226 63.554 124.323 Q 63.488 124.420 63.366 124.475 Q 63.243 124.530 63.069 124.530 Q 62.887 124.530 62.757 124.476 Q 62.626 124.422 62.538 124.337 L 62.684 124.174 Q 62.760 124.242 62.854 124.280 Q 62.948 124.319 63.065 124.319 Q 63.140 124.319 63.200 124.296 Q 63.261 124.272 63.296 124.227 Q 63.331 124.182 63.331 124.116 Q 63.331 124.059 63.306 124.019 Q 63.282 123.980 63.223 123.948 Q 63.163 123.917 63.058 123.886 Q 62.903 123.838 62.803 123.781 Q 62.703 123.724 62.654 123.645 Q 62.606 123.567 62.606 123.459 Q 62.606 123.339 62.673 123.251 Q 62.739 123.164 62.853 123.117 Q 62.967 123.070 63.108 123.070 Q 63.264 123.070 63.382 123.115 Q 63.501 123.160 63.591 123.243 L 63.452 123.400 Q 63.380 123.338 63.297 123.309 Q 63.213 123.279 63.127 123.279 Q 63.059 123.279 63.006 123.297 Q 62.953 123.316 62.923 123.351 Q 62.892 123.386 62.892 123.441 Q 62.892 123.491 62.920 123.526 Q 62.948 123.561 63.016 123.590 Q 63.084 123.620 63.202 123.658 Q 63.326 123.695 63.420 123.748 Q 63.514 123.801 63.566 123.884 Q 63.619 123.968 63.619 124.098 Z M 64.449 123.318 V 124.500 H 64.173 V 123.318 H 63.764 V 123.100 H 64.870 L 64.842 123.318 Z M 65.755 124.179 H 65.294 L 65.207 124.500 H 64.921 L 65.359 123.100 H 65.699 L 66.137 124.500 H 65.842 Z M 65.344 123.972 H 65.703 L 65.524 123.308 Z M 66.982 124.087 Q 66.982 124.002 66.949 123.954 Q 66.916 123.907 66.858 123.887 Q 66.801 123.867 66.727 123.867 H 66.555 V 124.292 H 66.715 Q 66.764 124.292 66.812 124.284 Q 66.859 124.276 66.898 124.255 Q 66.937 124.233 66.960 124.192 Q 66.982 124.152 66.982 124.087 Z M 66.928 123.481 Q 66.928 123.385 66.869 123.344 Q 66.810 123.302 66.694 123.302 H 66.555 V 123.672 H 66.707 Q 66.820 123.672 66.874 123.627 Q 66.928 123.582 66.928 123.481 Z M 67.269 124.094 Q 67.269 124.213 67.223 124.291 Q 67.177 124.370 67.098 124.416 Q 67.019 124.462 66.920 124.481 Q 66.820 124.500 66.712 124.500 H 66.277 V 123.100 H 66.686 Q 66.790 123.100 66.883 123.117 Q 66.976 123.134 67.049 123.175 Q 67.123 123.216 67.166 123.285 Q 67.209 123.354 67.209 123.456 Q 67.209 123.542 67.173 123.604 Q 67.137 123.666 67.078 123.704 Q 67.018 123.742 66.951 123.759 Q 67.026 123.771 67.100 123.806 Q 67.173 123.841 67.221 123.910 Q 67.269 123.980 67.269 124.094 Z M 67.569 124.500 V 123.100 H 67.846 V 124.275 H 68.464 L 68.435 124.500 Z M 69.054 123.304 V 123.688 H 69.550 V 123.890 H 69.054 V 124.297 H 69.656 V 124.500 H 68.777 V 123.100 H 69.649 L 69.621 123.304 Z" fill="#6c6d72" fill-rule="nonzero"/>
</svg>
