<?xml version="1.0" encoding="UTF-8"?>
<!-- Generated by tools/panelgen (Sam-e system v0.4). Edit the spec, not this file. -->
<svg xmlns="http://www.w3.org/2000/svg" version="1.1" width="81.28mm" height="128.5mm" viewBox="0 0 81.28 128.5">
<defs><linearGradient id="bg" x1="0" y1="0" x2="0" y2="128.5" gradientUnits="userSpaceOnUse"><stop offset="0" stop-color="#100b12"/><stop offset="0.5" stop-color="#0b070b"/><stop offset="1" stop-color="#08060a"/></linearGradient></defs>
<rect x="0" y="0" width="81.28" height="128.5" fill="url(#bg)"/>
<rect x="0.50" y="0.50" width="80.28" height="127.50" rx="1.60" fill="none" fill-opacity="1.0" stroke="#F5F5F1" stroke-width="0.3" stroke-opacity="0.5"/>
<rect x="1.40" y="1.40" width="78.48" height="125.70" rx="1.20" fill="none" fill-opacity="1.0" stroke="#F5F5F1" stroke-width="0.18" stroke-opacity="0.14"/>
<line x1="2.50" y1="4.00" x2="5.50" y2="4.00" stroke="#F5F5F1" stroke-width="0.22" stroke-opacity="0.42" stroke-linecap="round"/>
<line x1="4.00" y1="2.50" x2="4.00" y2="5.50" stroke="#F5F5F1" stroke-width="0.22" stroke-opacity="0.42" stroke-linecap="round"/>
<line x1="75.78" y1="4.00" x2="78.78" y2="4.00" stroke="#F5F5F1" stroke-width="0.22" stroke-opacity="0.42" stroke-linecap="round"/>
<line x1="77.28" y1="2.50" x2="77.28" y2="5.50" stroke="#F5F5F1" stroke-width="0.22" stroke-opacity="0.42" stroke-linecap="round"/>
<line x1="2.50" y1="124.50" x2="5.50" y2="124.50" stroke="#F5F5F1" stroke-width="0.22" stroke-opacity="0.42" stroke-linecap="round"/>
<line x1="4.00" y1="123.00" x2="4.00" y2="126.00" stroke="#F5F5F1" stroke-width="0.22" stroke-opacity="0.42" stroke-linecap="round"/>
<line x1="75.78" y1="124.50" x2="78.78" y2="124.50" stroke="#F5F5F1" stroke-width="0.22" stroke-opacity="0.42" stroke-linecap="round"/>
<line x1="77.28" y1="123.00" x2="77.28" y2="126.00" stroke="#F5F5F1" stroke-width="0.22" stroke-opacity="0.42" stroke-linecap="round"/>
<line x1="40.64" y1="15.50" x2="40.64" y2="102.00" stroke="#F5F5F1" stroke-width="0.18" stroke-opacity="0.16" stroke-linecap="round"/>
<line x1="39.94" y1="20.00" x2="41.34" y2="20.00" stroke="#F5F5F1" stroke-width="0.18" stroke-opacity="0.16" stroke-linecap="round"/>
<line x1="39.94" y1="30.00" x2="41.34" y2="30.00" stroke="#F5F5F1" stroke-width="0.18" stroke-opacity="0.16" stroke-linecap="round"/>
<line x1="39.94" y1="40.00" x2="41.34" y2="40.00" stroke="#F5F5F1" stroke-width="0.18" stroke-opacity="0.16" stroke-linecap="round"/>
<line x1="39.94" y1="50.00" x2="41.34" y2="50.00" stroke="#F5F5F1" stroke-width="0.18" stroke-opacity="0.16" stroke-linecap="round"/>
<line x1="39.94" y1="60.00" x2="41.34" y2="60.00" stroke="#F5F5F1" stroke-width="0.18" stroke-opacity="0.16" stroke-linecap="round"/>
<line x1="39.94" y1="70.00" x2="41.34" y2="70.00" stroke="#F5F5F1" stroke-width="0.18" stroke-opacity="0.16" stroke-linecap="round"/>
<line x1="39.94" y1="80.00" x2="41.34" y2="80.00" stroke="#F5F5F1" stroke-width="0.18" stroke-opacity="0.16" stroke-linecap="round"/>
<line x1="39.94" y1="90.00" x2="41.34" y2="90.00" stroke="#F5F5F1" stroke-width="0.18" stroke-opacity="0.16" stroke-linecap="round"/>
<line x1="39.94" y1="100.00" x2="41.34" y2="100.00" stroke="#F5F5F1" stroke-width="0.18" stroke-opacity="0.16" stroke-linecap="round"/>
<path d="M40.64,56.90 L41.74,58.00 L40.64,59.10 L39.54,58.00 Z" fill="none" stroke="#F5F5F1" stroke-width="0.18" stroke-opacity="0.22"/>
<line x1="9.32" y1="15.50" x2="11.72" y2="15.50" stroke="#F5F5F1" stroke-width="0.22" stroke-opacity="0.3" stroke-linecap="round"/><line x1="9.32" y1="15.50" x2="9.32" y2="17.90" stroke="#F5F5F1" stroke-width="0.22" stroke-opacity="0.3" stroke-linecap="round"/><line x1="31.32" y1="15.50" x2="28.92" y2="15.50" stroke="#F5F5F1" stroke-width="0.22" stroke-opacity="0.3" stroke-linecap="round"/><line x1="31.32" y1="15.50" x2="31.32" y2="17.90" stroke="#F5F5F1" stroke-width="0.22" stroke-opacity="0.3" stroke-linecap="round"/><line x1="9.32" y1="121.00" x2="11.72" y2="121.00" stroke="#F5F5F1" stroke-width="0.22" stroke-opacity="0.3" stroke-linecap="round"/><line x1="9.32" y1="121.00" x2="9.32" y2="118.60" stroke="#F5F5F1" stroke-width="0.22" stroke-opacity="0.3" stroke-linecap="round"/><line x1="31.32" y1="121.00" x2="28.92" y2="121.00" stroke="#F5F5F1" stroke-width="0.22" stroke-opacity="0.3" stroke-linecap="round"/><line x1="31.32" y1="121.00" x2="31.32" y2="118.60" stroke="#F5F5F1" stroke-width="0.22" stroke-opacity="0.3" stroke-linecap="round"/>
<line x1="49.96" y1="15.50" x2="52.36" y2="15.50" stroke="#F5F5F1" stroke-width="0.22" stroke-opacity="0.3" stroke-linecap="round"/><line x1="49.96" y1="15.50" x2="49.96" y2="17.90" stroke="#F5F5F1" stroke-width="0.22" stroke-opacity="0.3" stroke-linecap="round"/><line x1="71.96" y1="15.50" x2="69.56" y2="15.50" stroke="#F5F5F1" stroke-width="0.22" stroke-opacity="0.3" stroke-linecap="round"/><line x1="71.96" y1="15.50" x2="71.96" y2="17.90" stroke="#F5F5F1" stroke-width="0.22" stroke-opacity="0.3" stroke-linecap="round"/><line x1="49.96" y1="121.00" x2="52.36" y2="121.00" stroke="#F5F5F1" stroke-width="0.22" stroke-opacity="0.3" stroke-linecap="round"/><line x1="49.96" y1="121.00" x2="49.96" y2="118.60" stroke="#F5F5F1" stroke-width="0.22" stroke-opacity="0.3" stroke-linecap="round"/><line x1="71.96" y1="121.00" x2="69.56" y2="121.00" stroke="#F5F5F1" stroke-width="0.22" stroke-opacity="0.3" stroke-linecap="round"/><line x1="71.96" y1="121.00" x2="71.96" y2="118.60" stroke="#F5F5F1" stroke-width="0.22" stroke-opacity="0.3" stroke-linecap="round"/>
<path d="M8.40,3.65 L7.88,3.30 L7.35,3.44 L7.17,3.86 L7.49,4.25 L8.02,4.42 L8.26,4.77 L8.09,5.26 L7.53,5.40 L7.00,5.05 M9.03,4.35 L10.01,4.35" fill="none" stroke="#FF5A00" stroke-width="0.36" stroke-linecap="round" stroke-linejoin="round"/>
<path d="M11.04,3.30 L11.04,5.40 M11.04,3.30 L12.02,3.37 L12.23,3.79 L11.95,4.28 L11.04,4.28 M11.04,4.28 L12.09,4.39 L12.27,4.84 L11.99,5.33 L11.04,5.40 M12.93,5.40 L13.63,3.30 L14.33,5.40 M13.21,4.67 L14.05,4.67 M14.82,5.40 L14.82,3.30 L16.22,5.40 L16.22,3.30 M16.71,3.30 L16.71,5.40 M16.71,4.49 L18.11,3.30 M17.20,4.14 L18.11,5.40" fill="none" stroke="#ECE7DD" stroke-width="0.31" stroke-linecap="round" stroke-linejoin="round"/>
<path d="M9.40,7.60 L8.50,7.00 L7.60,7.24 L7.30,7.96 L7.84,8.62 L8.74,8.92 L9.16,9.52 L8.86,10.36 L7.90,10.60 L7.00,10.00 M10.12,7.00 L12.52,7.00 M11.32,7.00 L11.32,10.60 M13.24,10.60 L13.24,7.00 L15.04,7.12 L15.40,7.84 L15.04,8.62 L13.24,8.74 M14.20,8.74 L15.64,10.60 M17.14,7.00 L18.22,7.00 M17.68,7.00 L17.68,10.60 M17.14,10.60 L18.22,10.60 M19.12,7.00 L19.12,10.60 M19.12,9.04 L21.52,7.00 M19.96,8.44 L21.52,10.60 M24.76,7.00 L22.36,7.00 L22.36,10.60 L24.76,10.60 M22.36,8.80 L24.16,8.80" fill="none" stroke="#ECE7DD" stroke-width="0.45" stroke-linecap="round" stroke-linejoin="round"/>
<path d="M59.63,4.20 L59.93,3.90 L59.93,5.40 M59.68,5.40 L60.18,5.40 M61.33,4.05 L60.98,3.90 L60.68,4.15 L60.51,4.70 L60.51,5.05 L60.73,5.35 L61.13,5.40 L61.43,5.15 L61.38,4.78 L60.98,4.65 L60.61,4.80 M61.83,3.90 L61.83,5.40 M62.83,3.90 L62.83,5.40 M61.83,4.65 L62.83,4.65 M63.18,5.40 L63.18,3.90 L63.93,3.95 L64.08,4.25 L63.93,4.58 L63.18,4.62 M65.43,5.40 L66.33,3.90 M68.58,4.15 L68.21,3.90 L67.83,4.00 L67.71,4.30 L67.93,4.58 L68.31,4.70 L68.48,4.95 L68.36,5.30 L67.96,5.40 L67.58,5.15 M69.03,4.65 L69.73,4.65 M70.68,3.90 L70.33,4.05 L70.18,4.40 L70.18,4.90 L70.33,5.25 L70.68,5.40 L71.03,5.25 L71.18,4.90 L71.18,4.40 L71.03,4.05 L70.68,3.90 M70.33,5.25 L71.03,4.05 M72.08,3.90 L71.73,4.05 L71.58,4.40 L71.58,4.90 L71.73,5.25 L72.08,5.40 L72.43,5.25 L72.58,4.90 L72.58,4.40 L72.43,4.05 L72.08,3.90 M71.73,5.25 L72.43,4.05 M73.06,4.20 L73.48,3.90 L73.88,4.15 L73.83,4.55 L72.98,5.40 L73.98,5.40" fill="none" stroke="#A6A6A6" stroke-width="0.25" stroke-linecap="round" stroke-linejoin="round"/>
<path d="M52.63,6.60 L52.63,8.00 M52.63,6.60 L53.19,6.67 L53.51,7.07 L53.51,7.53 L53.19,7.93 L52.63,8.00 M53.89,6.60 L53.89,7.63 L54.12,7.93 L54.35,8.00 L54.59,7.93 L54.82,7.63 L54.82,6.60 M55.15,8.00 L55.61,6.60 L56.08,8.00 M55.33,7.51 L55.89,7.51 M56.41,6.60 L56.41,8.00 L57.34,8.00 M58.41,6.60 L58.41,8.00 L59.35,8.00 M60.05,6.60 L59.72,6.74 L59.58,7.07 L59.58,7.53 L59.72,7.86 L60.05,8.00 L60.37,7.86 L60.51,7.53 L60.51,7.07 L60.37,6.74 L60.05,6.60 M60.89,6.60 L61.14,8.00 L61.47,7.21 L61.80,8.00 L62.05,6.60 M62.47,7.30 L63.13,7.30 M63.55,8.00 L63.55,6.60 L64.25,6.65 L64.39,6.93 L64.25,7.23 L63.55,7.28 M64.76,8.00 L65.23,6.60 L65.69,8.00 M64.95,7.51 L65.51,7.51 M66.95,6.83 L66.60,6.60 L66.25,6.69 L66.14,6.97 L66.35,7.23 L66.70,7.35 L66.86,7.58 L66.74,7.91 L66.37,8.00 L66.02,7.77 M68.17,6.83 L67.82,6.60 L67.47,6.69 L67.35,6.97 L67.56,7.23 L67.91,7.35 L68.07,7.58 L67.96,7.91 L67.58,8.00 L67.23,7.77 M70.22,6.86 L69.87,6.60 L69.52,6.69 L69.29,7.07 L69.29,7.53 L69.52,7.91 L69.87,8.00 L70.22,7.91 L70.22,7.44 L69.85,7.44 M70.59,8.00 L71.06,6.60 L71.53,8.00 M70.78,7.51 L71.34,7.51 M71.85,6.60 L72.79,6.60 M72.32,6.60 L72.32,8.00 M74.00,6.60 L73.07,6.60 L73.07,8.00 L74.00,8.00 M73.07,7.30 L73.77,7.30" fill="none" stroke="#A6A6A6" stroke-width="0.22" stroke-linecap="round" stroke-linejoin="round"/>
<path d="M62.33,9.00 L63.27,9.00 L62.33,10.40 L63.27,10.40 M64.48,9.00 L63.55,9.00 L63.55,10.40 L64.48,10.40 M63.55,9.70 L64.25,9.70 M64.76,10.40 L64.76,9.00 L65.46,9.05 L65.60,9.33 L65.46,9.63 L64.76,9.68 M65.13,9.68 L65.69,10.40 M66.49,9.00 L66.16,9.14 L66.02,9.47 L66.02,9.93 L66.16,10.26 L66.49,10.40 L66.81,10.26 L66.95,9.93 L66.95,9.47 L66.81,9.14 L66.49,9.00 M68.17,9.00 L68.17,10.40 M68.17,9.00 L68.82,9.05 L68.96,9.33 L68.77,9.65 L68.17,9.65 M68.17,9.65 L68.87,9.72 L68.98,10.03 L68.80,10.35 L68.17,10.40 M69.43,9.00 L69.43,10.40 L70.36,10.40 M71.53,9.00 L70.59,9.00 L70.59,10.40 L71.53,10.40 M70.59,9.70 L71.29,9.70 M72.74,9.00 L71.81,9.00 L71.81,10.40 L72.74,10.40 M71.81,9.70 L72.51,9.70 M73.02,9.00 L73.02,10.40 M73.02,9.00 L73.58,9.07 L73.91,9.47 L73.91,9.93 L73.58,10.33 L73.02,10.40" fill="none" stroke="#A6A6A6" stroke-width="0.22" stroke-linecap="round" stroke-linejoin="round"/>
<line x1="7.00" y1="12.20" x2="74.28" y2="12.20" stroke="#F5F5F1" stroke-width="0.25" stroke-opacity="0.34" stroke-linecap="round"/>
<line x1="11.82" y1="73.00" x2="28.82" y2="73.00" stroke="#19D2E5" stroke-width="0.18" stroke-opacity="0.32" stroke-linecap="round"/>
<path d="M19.99,68.26 L19.64,68.00 L19.29,68.09 L19.06,68.47 L19.06,68.93 L19.29,69.31 L19.64,69.40 L19.99,69.14 M20.32,68.00 L20.79,69.40 L21.25,68.00" fill="none" stroke="#19D2E5" stroke-width="0.22" stroke-linecap="round" stroke-linejoin="round"/>
<line x1="52.46" y1="73.00" x2="69.46" y2="73.00" stroke="#19D2E5" stroke-width="0.18" stroke-opacity="0.32" stroke-linecap="round"/>
<path d="M60.63,68.26 L60.28,68.00 L59.93,68.09 L59.70,68.47 L59.70,68.93 L59.93,69.31 L60.28,69.40 L60.63,69.14 M60.96,68.00 L61.43,69.40 L61.89,68.00" fill="none" stroke="#19D2E5" stroke-width="0.22" stroke-linecap="round" stroke-linejoin="round"/>
<circle cx="20.32" cy="24.00" r="5.80" fill="#14101a" fill-opacity="0.9" stroke="#F5F5F1" stroke-width="0.2" stroke-opacity="0.16"/>
<path d="M14.45,29.87 A8.30,8.30 0 1 1 26.19,29.87" fill="none" stroke="#F5F5F1" stroke-width="0.16" stroke-opacity="0.14" stroke-linecap="round"/><path d="M15.16,29.16 A7.30,7.30 0 1 1 25.48,29.16" fill="none" stroke="#F5F5F1" stroke-width="0.22" stroke-opacity="0.28" stroke-linecap="round"/><line x1="16.15" y1="28.17" x2="15.07" y2="29.25" stroke="#F5F5F1" stroke-width="0.26" stroke-opacity="0.46" stroke-linecap="round"/><line x1="14.04" y1="26.04" x2="13.26" y2="26.29" stroke="#F5F5F1" stroke-width="0.15" stroke-opacity="0.32" stroke-linecap="round"/><line x1="13.80" y1="22.97" x2="12.99" y2="22.84" stroke="#F5F5F1" stroke-width="0.15" stroke-opacity="0.32" stroke-linecap="round"/><line x1="14.98" y1="20.12" x2="14.32" y2="19.64" stroke="#F5F5F1" stroke-width="0.15" stroke-opacity="0.32" stroke-linecap="round"/><line x1="17.32" y1="18.12" x2="16.95" y2="17.39" stroke="#F5F5F1" stroke-width="0.15" stroke-opacity="0.32" stroke-linecap="round"/><line x1="20.32" y1="18.10" x2="20.32" y2="16.58" stroke="#F5F5F1" stroke-width="0.26" stroke-opacity="0.46" stroke-linecap="round"/><line x1="23.32" y1="18.12" x2="23.69" y2="17.39" stroke="#F5F5F1" stroke-width="0.15" stroke-opacity="0.32" stroke-linecap="round"/><line x1="25.66" y1="20.12" x2="26.32" y2="19.64" stroke="#F5F5F1" stroke-width="0.15" stroke-opacity="0.32" stroke-linecap="round"/><line x1="26.84" y1="22.97" x2="27.65" y2="22.84" stroke="#F5F5F1" stroke-width="0.15" stroke-opacity="0.32" stroke-linecap="round"/><line x1="26.60" y1="26.04" x2="27.38" y2="26.29" stroke="#F5F5F1" stroke-width="0.15" stroke-opacity="0.32" stroke-linecap="round"/><line x1="24.49" y1="28.17" x2="25.57" y2="29.25" stroke="#F5F5F1" stroke-width="0.26" stroke-opacity="0.46" stroke-linecap="round"/><line x1="20.32" y1="18.80" x2="20.32" y2="16.00" stroke="#F5F5F1" stroke-width="0.3" stroke-opacity="0.6000000000000001" stroke-linecap="round"/>
<path d="M11.61,29.44 L11.33,29.26 L11.06,29.33 L10.96,29.55 L11.13,29.76 L11.40,29.85 L11.53,30.03 L11.44,30.29 L11.15,30.36 L10.87,30.18 M11.83,29.26 L11.83,30.36 M12.56,29.26 L12.56,30.36 M11.83,29.81 L12.56,29.81 M12.82,29.26 L12.82,30.07 L13.00,30.31 L13.18,30.36 L13.37,30.31 L13.55,30.07 L13.55,29.26 M13.81,29.26 L14.54,29.26 M14.17,29.26 L14.17,30.36" fill="none" stroke="#A6A6A6" stroke-width="0.21" stroke-linecap="round" stroke-linejoin="round"/>
<path d="M26.25,29.26 L25.99,29.37 L25.88,29.63 L25.88,29.99 L25.99,30.25 L26.25,30.36 L26.50,30.25 L26.61,29.99 L26.61,29.63 L26.50,29.37 L26.25,29.26 M26.91,30.36 L26.91,29.26 L27.46,29.30 L27.57,29.52 L27.46,29.76 L26.91,29.79 M28.59,29.26 L27.86,29.26 L27.86,30.36 L28.59,30.36 M27.86,29.81 L28.41,29.81 M28.81,30.36 L28.81,29.26 L29.55,30.36 L29.55,29.26" fill="none" stroke="#A6A6A6" stroke-width="0.21" stroke-linecap="round" stroke-linejoin="round"/>
<circle cx="20.32" cy="42.00" r="5.80" fill="#14101a" fill-opacity="0.9" stroke="#F5F5F1" stroke-width="0.2" stroke-opacity="0.16"/>
<path d="M14.45,47.87 A8.30,8.30 0 1 1 26.19,47.87" fill="none" stroke="#F5F5F1" stroke-width="0.16" stroke-opacity="0.14" stroke-linecap="round"/><path d="M15.16,47.16 A7.30,7.30 0 1 1 25.48,47.16" fill="none" stroke="#F5F5F1" stroke-width="0.22" stroke-opacity="0.28" stroke-linecap="round"/><line x1="16.15" y1="46.17" x2="15.07" y2="47.25" stroke="#F5F5F1" stroke-width="0.26" stroke-opacity="0.46" stroke-linecap="round"/><line x1="14.04" y1="44.04" x2="13.26" y2="44.29" stroke="#F5F5F1" stroke-width="0.15" stroke-opacity="0.32" stroke-linecap="round"/><line x1="13.80" y1="40.97" x2="12.99" y2="40.84" stroke="#F5F5F1" stroke-width="0.15" stroke-opacity="0.32" stroke-linecap="round"/><line x1="14.98" y1="38.12" x2="14.32" y2="37.64" stroke="#F5F5F1" stroke-width="0.15" stroke-opacity="0.32" stroke-linecap="round"/><line x1="17.32" y1="36.12" x2="16.95" y2="35.39" stroke="#F5F5F1" stroke-width="0.15" stroke-opacity="0.32" stroke-linecap="round"/><line x1="20.32" y1="36.10" x2="20.32" y2="34.58" stroke="#F5F5F1" stroke-width="0.26" stroke-opacity="0.46" stroke-linecap="round"/><line x1="23.32" y1="36.12" x2="23.69" y2="35.39" stroke="#F5F5F1" stroke-width="0.15" stroke-opacity="0.32" stroke-linecap="round"/><line x1="25.66" y1="38.12" x2="26.32" y2="37.64" stroke="#F5F5F1" stroke-width="0.15" stroke-opacity="0.32" stroke-linecap="round"/><line x1="26.84" y1="40.97" x2="27.65" y2="40.84" stroke="#F5F5F1" stroke-width="0.15" stroke-opacity="0.32" stroke-linecap="round"/><line x1="26.60" y1="44.04" x2="27.38" y2="44.29" stroke="#F5F5F1" stroke-width="0.15" stroke-opacity="0.32" stroke-linecap="round"/><line x1="24.49" y1="46.17" x2="25.57" y2="47.25" stroke="#F5F5F1" stroke-width="0.26" stroke-opacity="0.46" stroke-linecap="round"/><line x1="20.32" y1="36.80" x2="20.32" y2="34.00" stroke="#F5F5F1" stroke-width="0.3" stroke-opacity="0.6000000000000001" stroke-linecap="round"/>
<path d="M11.68,47.26 L10.95,47.26 L10.95,48.36 M10.95,47.81 L11.50,47.81 M11.86,48.36 L12.23,47.26 L12.60,48.36 M12.01,47.98 L12.45,47.98 M13.59,47.44 L13.31,47.26 L13.04,47.33 L12.94,47.55 L13.11,47.76 L13.38,47.85 L13.51,48.03 L13.42,48.29 L13.13,48.36 L12.85,48.18 M13.81,47.26 L14.54,47.26 M14.17,47.26 L14.17,48.36" fill="none" stroke="#A6A6A6" stroke-width="0.21" stroke-linecap="round" stroke-linejoin="round"/>
<path d="M26.61,47.44 L26.34,47.26 L26.06,47.33 L25.97,47.55 L26.14,47.76 L26.41,47.85 L26.54,48.03 L26.45,48.29 L26.16,48.36 L25.88,48.18 M26.83,47.26 L26.83,48.36 L27.57,48.36 M28.12,47.26 L27.86,47.37 L27.75,47.63 L27.75,47.99 L27.86,48.25 L28.12,48.36 L28.37,48.25 L28.48,47.99 L28.48,47.63 L28.37,47.37 L28.12,47.26 M28.78,47.26 L28.98,48.36 L29.24,47.74 L29.49,48.36 L29.69,47.26" fill="none" stroke="#A6A6A6" stroke-width="0.21" stroke-linecap="round" stroke-linejoin="round"/>
<circle cx="20.32" cy="60.00" r="5.80" fill="#14101a" fill-opacity="0.9" stroke="#F5F5F1" stroke-width="0.2" stroke-opacity="0.16"/>
<path d="M14.45,65.87 A8.30,8.30 0 1 1 26.19,65.87" fill="none" stroke="#F5F5F1" stroke-width="0.16" stroke-opacity="0.14" stroke-linecap="round"/><path d="M15.16,65.16 A7.30,7.30 0 1 1 25.48,65.16" fill="none" stroke="#F5F5F1" stroke-width="0.22" stroke-opacity="0.28" stroke-linecap="round"/><line x1="16.15" y1="64.17" x2="15.07" y2="65.25" stroke="#F5F5F1" stroke-width="0.26" stroke-opacity="0.46" stroke-linecap="round"/><line x1="14.04" y1="62.04" x2="13.26" y2="62.29" stroke="#F5F5F1" stroke-width="0.15" stroke-opacity="0.32" stroke-linecap="round"/><line x1="13.80" y1="58.97" x2="12.99" y2="58.84" stroke="#F5F5F1" stroke-width="0.15" stroke-opacity="0.32" stroke-linecap="round"/><line x1="14.98" y1="56.12" x2="14.32" y2="55.64" stroke="#F5F5F1" stroke-width="0.15" stroke-opacity="0.32" stroke-linecap="round"/><line x1="17.32" y1="54.12" x2="16.95" y2="53.39" stroke="#F5F5F1" stroke-width="0.15" stroke-opacity="0.32" stroke-linecap="round"/><line x1="20.32" y1="54.10" x2="20.32" y2="52.58" stroke="#F5F5F1" stroke-width="0.26" stroke-opacity="0.46" stroke-linecap="round"/><line x1="23.32" y1="54.12" x2="23.69" y2="53.39" stroke="#F5F5F1" stroke-width="0.15" stroke-opacity="0.32" stroke-linecap="round"/><line x1="25.66" y1="56.12" x2="26.32" y2="55.64" stroke="#F5F5F1" stroke-width="0.15" stroke-opacity="0.32" stroke-linecap="round"/><line x1="26.84" y1="58.97" x2="27.65" y2="58.84" stroke="#F5F5F1" stroke-width="0.15" stroke-opacity="0.32" stroke-linecap="round"/><line x1="26.60" y1="62.04" x2="27.38" y2="62.29" stroke="#F5F5F1" stroke-width="0.15" stroke-opacity="0.32" stroke-linecap="round"/><line x1="24.49" y1="64.17" x2="25.57" y2="65.25" stroke="#F5F5F1" stroke-width="0.26" stroke-opacity="0.46" stroke-linecap="round"/><line x1="20.32" y1="54.80" x2="20.32" y2="52.00" stroke="#F5F5F1" stroke-width="0.3" stroke-opacity="0.6000000000000001" stroke-linecap="round"/>
<path d="M10.80,65.26 L10.80,66.36 M11.53,65.26 L11.53,66.36 M10.80,65.81 L11.53,65.81 M11.79,66.36 L12.16,65.26 L12.52,66.36 M11.94,65.98 L12.38,65.98 M12.78,66.36 L12.78,65.26 L13.33,65.30 L13.44,65.52 L13.33,65.76 L12.78,65.79 M13.07,65.79 L13.51,66.36 M13.77,65.26 L13.77,66.36 M13.77,65.26 L14.21,65.32 L14.47,65.63 L14.47,65.99 L14.21,66.31 L13.77,66.36" fill="none" stroke="#A6A6A6" stroke-width="0.21" stroke-linecap="round" stroke-linejoin="round"/>
<path d="M26.61,65.44 L26.34,65.26 L26.06,65.33 L25.97,65.55 L26.14,65.76 L26.41,65.85 L26.54,66.03 L26.45,66.29 L26.16,66.36 L25.88,66.18 M27.20,65.26 L26.94,65.37 L26.83,65.63 L26.83,65.99 L26.94,66.25 L27.20,66.36 L27.46,66.25 L27.57,65.99 L27.57,65.63 L27.46,65.37 L27.20,65.26 M28.59,65.26 L27.86,65.26 L27.86,66.36 M27.86,65.81 L28.41,65.81 M28.78,65.26 L29.51,65.26 M29.14,65.26 L29.14,66.36" fill="none" stroke="#A6A6A6" stroke-width="0.21" stroke-linecap="round" stroke-linejoin="round"/>
<circle cx="11.82" cy="73.00" r="3.10" fill="#14101a" fill-opacity="0.9" stroke="#F5F5F1" stroke-width="0.2" stroke-opacity="0.16"/>
<circle cx="28.82" cy="73.00" r="3.10" fill="#14101a" fill-opacity="0.9" stroke="#F5F5F1" stroke-width="0.2" stroke-opacity="0.16"/>
<circle cx="20.32" cy="82.00" r="1.95" fill="none" fill-opacity="1.0" stroke="#FFC400" stroke-width="0.22" stroke-opacity="0.5"/><circle cx="20.32" cy="82.00" r="3.31" fill="none" fill-opacity="1.0" stroke="#FFC400" stroke-width="0.22" stroke-opacity="0.3"/><circle cx="20.32" cy="82.00" r="4.50" fill="none" fill-opacity="1.0" stroke="#FFC400" stroke-width="0.22" stroke-opacity="0.17"/><circle cx="20.32" cy="82.00" r="1.25" fill="#FFC400" fill-opacity="0.85" stroke="none" stroke-width="0.25" stroke-opacity="1.0"/>
<circle cx="11.32" cy="93.00" r="3.65" fill="#14101a" fill-opacity="0.9" stroke="#F5F5F1" stroke-width="0.2" stroke-opacity="0.16"/>
<circle cx="29.32" cy="93.00" r="3.65" fill="#14101a" fill-opacity="0.9" stroke="#F5F5F1" stroke-width="0.2" stroke-opacity="0.16"/>
<circle cx="29.32" cy="93.00" r="3.85" fill="none" fill-opacity="1.0" stroke="#FFC400" stroke-width="0.22" stroke-opacity="0.4"/>
<circle cx="11.32" cy="105.00" r="3.65" fill="#14101a" fill-opacity="0.9" stroke="#F5F5F1" stroke-width="0.2" stroke-opacity="0.16"/>
<circle cx="11.32" cy="105.00" r="3.85" fill="none" fill-opacity="1.0" stroke="#19D2E5" stroke-width="0.22" stroke-opacity="0.4"/>
<circle cx="29.32" cy="105.00" r="3.65" fill="#14101a" fill-opacity="0.9" stroke="#F5F5F1" stroke-width="0.2" stroke-opacity="0.16"/>
<circle cx="29.32" cy="105.00" r="3.85" fill="none" fill-opacity="1.0" stroke="#19D2E5" stroke-width="0.22" stroke-opacity="0.4"/>
<circle cx="20.32" cy="117.00" r="3.65" fill="#14101a" fill-opacity="0.9" stroke="#F5F5F1" stroke-width="0.2" stroke-opacity="0.16"/>
<circle cx="20.32" cy="117.00" r="3.90" fill="none" fill-opacity="1.0" stroke="#FF5A00" stroke-width="0.28" stroke-opacity="0.55"/>
<circle cx="60.96" cy="24.00" r="5.80" fill="#14101a" fill-opacity="0.9" stroke="#F5F5F1" stroke-width="0.2" stroke-opacity="0.16"/>
<path d="M55.09,29.87 A8.30,8.30 0 1 1 66.83,29.87" fill="none" stroke="#F5F5F1" stroke-width="0.16" stroke-opacity="0.14" stroke-linecap="round"/><path d="M55.80,29.16 A7.30,7.30 0 1 1 66.12,29.16" fill="none" stroke="#F5F5F1" stroke-width="0.22" stroke-opacity="0.28" stroke-linecap="round"/><line x1="56.79" y1="28.17" x2="55.71" y2="29.25" stroke="#F5F5F1" stroke-width="0.26" stroke-opacity="0.46" stroke-linecap="round"/><line x1="54.68" y1="26.04" x2="53.90" y2="26.29" stroke="#F5F5F1" stroke-width="0.15" stroke-opacity="0.32" stroke-linecap="round"/><line x1="54.44" y1="22.97" x2="53.63" y2="22.84" stroke="#F5F5F1" stroke-width="0.15" stroke-opacity="0.32" stroke-linecap="round"/><line x1="55.62" y1="20.12" x2="54.96" y2="19.64" stroke="#F5F5F1" stroke-width="0.15" stroke-opacity="0.32" stroke-linecap="round"/><line x1="57.96" y1="18.12" x2="57.59" y2="17.39" stroke="#F5F5F1" stroke-width="0.15" stroke-opacity="0.32" stroke-linecap="round"/><line x1="60.96" y1="18.10" x2="60.96" y2="16.58" stroke="#F5F5F1" stroke-width="0.26" stroke-opacity="0.46" stroke-linecap="round"/><line x1="63.96" y1="18.12" x2="64.33" y2="17.39" stroke="#F5F5F1" stroke-width="0.15" stroke-opacity="0.32" stroke-linecap="round"/><line x1="66.30" y1="20.12" x2="66.96" y2="19.64" stroke="#F5F5F1" stroke-width="0.15" stroke-opacity="0.32" stroke-linecap="round"/><line x1="67.48" y1="22.97" x2="68.29" y2="22.84" stroke="#F5F5F1" stroke-width="0.15" stroke-opacity="0.32" stroke-linecap="round"/><line x1="67.24" y1="26.04" x2="68.02" y2="26.29" stroke="#F5F5F1" stroke-width="0.15" stroke-opacity="0.32" stroke-linecap="round"/><line x1="65.13" y1="28.17" x2="66.21" y2="29.25" stroke="#F5F5F1" stroke-width="0.26" stroke-opacity="0.46" stroke-linecap="round"/><line x1="60.96" y1="18.80" x2="60.96" y2="16.00" stroke="#F5F5F1" stroke-width="0.3" stroke-opacity="0.6000000000000001" stroke-linecap="round"/>
<path d="M52.25,29.44 L51.97,29.26 L51.70,29.33 L51.60,29.55 L51.77,29.76 L52.04,29.85 L52.17,30.03 L52.08,30.29 L51.79,30.36 L51.51,30.18 M52.47,29.26 L52.47,30.36 M53.20,29.26 L53.20,30.36 M52.47,29.81 L53.20,29.81 M53.46,29.26 L53.46,30.07 L53.64,30.31 L53.82,30.36 L54.01,30.31 L54.19,30.07 L54.19,29.26 M54.45,29.26 L55.18,29.26 M54.81,29.26 L54.81,30.36" fill="none" stroke="#A6A6A6" stroke-width="0.21" stroke-linecap="round" stroke-linejoin="round"/>
<path d="M66.89,29.26 L66.63,29.37 L66.52,29.63 L66.52,29.99 L66.63,30.25 L66.89,30.36 L67.14,30.25 L67.25,29.99 L67.25,29.63 L67.14,29.37 L66.89,29.26 M67.55,30.36 L67.55,29.26 L68.10,29.30 L68.21,29.52 L68.10,29.76 L67.55,29.79 M69.23,29.26 L68.50,29.26 L68.50,30.36 L69.23,30.36 M68.50,29.81 L69.05,29.81 M69.45,30.36 L69.45,29.26 L70.19,30.36 L70.19,29.26" fill="none" stroke="#A6A6A6" stroke-width="0.21" stroke-linecap="round" stroke-linejoin="round"/>
<circle cx="60.96" cy="42.00" r="5.80" fill="#14101a" fill-opacity="0.9" stroke="#F5F5F1" stroke-width="0.2" stroke-opacity="0.16"/>
<path d="M55.09,47.87 A8.30,8.30 0 1 1 66.83,47.87" fill="none" stroke="#F5F5F1" stroke-width="0.16" stroke-opacity="0.14" stroke-linecap="round"/><path d="M55.80,47.16 A7.30,7.30 0 1 1 66.12,47.16" fill="none" stroke="#F5F5F1" stroke-width="0.22" stroke-opacity="0.28" stroke-linecap="round"/><line x1="56.79" y1="46.17" x2="55.71" y2="47.25" stroke="#F5F5F1" stroke-width="0.26" stroke-opacity="0.46" stroke-linecap="round"/><line x1="54.68" y1="44.04" x2="53.90" y2="44.29" stroke="#F5F5F1" stroke-width="0.15" stroke-opacity="0.32" stroke-linecap="round"/><line x1="54.44" y1="40.97" x2="53.63" y2="40.84" stroke="#F5F5F1" stroke-width="0.15" stroke-opacity="0.32" stroke-linecap="round"/><line x1="55.62" y1="38.12" x2="54.96" y2="37.64" stroke="#F5F5F1" stroke-width="0.15" stroke-opacity="0.32" stroke-linecap="round"/><line x1="57.96" y1="36.12" x2="57.59" y2="35.39" stroke="#F5F5F1" stroke-width="0.15" stroke-opacity="0.32" stroke-linecap="round"/><line x1="60.96" y1="36.10" x2="60.96" y2="34.58" stroke="#F5F5F1" stroke-width="0.26" stroke-opacity="0.46" stroke-linecap="round"/><line x1="63.96" y1="36.12" x2="64.33" y2="35.39" stroke="#F5F5F1" stroke-width="0.15" stroke-opacity="0.32" stroke-linecap="round"/><line x1="66.30" y1="38.12" x2="66.96" y2="37.64" stroke="#F5F5F1" stroke-width="0.15" stroke-opacity="0.32" stroke-linecap="round"/><line x1="67.48" y1="40.97" x2="68.29" y2="40.84" stroke="#F5F5F1" stroke-width="0.15" stroke-opacity="0.32" stroke-linecap="round"/><line x1="67.24" y1="44.04" x2="68.02" y2="44.29" stroke="#F5F5F1" stroke-width="0.15" stroke-opacity="0.32" stroke-linecap="round"/><line x1="65.13" y1="46.17" x2="66.21" y2="47.25" stroke="#F5F5F1" stroke-width="0.26" stroke-opacity="0.46" stroke-linecap="round"/><line x1="60.96" y1="36.80" x2="60.96" y2="34.00" stroke="#F5F5F1" stroke-width="0.3" stroke-opacity="0.6000000000000001" stroke-linecap="round"/>
<path d="M52.32,47.26 L51.59,47.26 L51.59,48.36 M51.59,47.81 L52.14,47.81 M52.50,48.36 L52.87,47.26 L53.24,48.36 M52.65,47.98 L53.09,47.98 M54.23,47.44 L53.95,47.26 L53.68,47.33 L53.58,47.55 L53.75,47.76 L54.02,47.85 L54.15,48.03 L54.06,48.29 L53.77,48.36 L53.49,48.18 M54.45,47.26 L55.18,47.26 M54.81,47.26 L54.81,48.36" fill="none" stroke="#A6A6A6" stroke-width="0.21" stroke-linecap="round" stroke-linejoin="round"/>
<path d="M67.25,47.44 L66.98,47.26 L66.70,47.33 L66.61,47.55 L66.78,47.76 L67.05,47.85 L67.18,48.03 L67.09,48.29 L66.80,48.36 L66.52,48.18 M67.47,47.26 L67.47,48.36 L68.21,48.36 M68.76,47.26 L68.50,47.37 L68.39,47.63 L68.39,47.99 L68.50,48.25 L68.76,48.36 L69.01,48.25 L69.12,47.99 L69.12,47.63 L69.01,47.37 L68.76,47.26 M69.42,47.26 L69.62,48.36 L69.88,47.74 L70.13,48.36 L70.33,47.26" fill="none" stroke="#A6A6A6" stroke-width="0.21" stroke-linecap="round" stroke-linejoin="round"/>
<circle cx="60.96" cy="60.00" r="5.80" fill="#14101a" fill-opacity="0.9" stroke="#F5F5F1" stroke-width="0.2" stroke-opacity="0.16"/>
<path d="M55.09,65.87 A8.30,8.30 0 1 1 66.83,65.87" fill="none" stroke="#F5F5F1" stroke-width="0.16" stroke-opacity="0.14" stroke-linecap="round"/><path d="M55.80,65.16 A7.30,7.30 0 1 1 66.12,65.16" fill="none" stroke="#F5F5F1" stroke-width="0.22" stroke-opacity="0.28" stroke-linecap="round"/><line x1="56.79" y1="64.17" x2="55.71" y2="65.25" stroke="#F5F5F1" stroke-width="0.26" stroke-opacity="0.46" stroke-linecap="round"/><line x1="54.68" y1="62.04" x2="53.90" y2="62.29" stroke="#F5F5F1" stroke-width="0.15" stroke-opacity="0.32" stroke-linecap="round"/><line x1="54.44" y1="58.97" x2="53.63" y2="58.84" stroke="#F5F5F1" stroke-width="0.15" stroke-opacity="0.32" stroke-linecap="round"/><line x1="55.62" y1="56.12" x2="54.96" y2="55.64" stroke="#F5F5F1" stroke-width="0.15" stroke-opacity="0.32" stroke-linecap="round"/><line x1="57.96" y1="54.12" x2="57.59" y2="53.39" stroke="#F5F5F1" stroke-width="0.15" stroke-opacity="0.32" stroke-linecap="round"/><line x1="60.96" y1="54.10" x2="60.96" y2="52.58" stroke="#F5F5F1" stroke-width="0.26" stroke-opacity="0.46" stroke-linecap="round"/><line x1="63.96" y1="54.12" x2="64.33" y2="53.39" stroke="#F5F5F1" stroke-width="0.15" stroke-opacity="0.32" stroke-linecap="round"/><line x1="66.30" y1="56.12" x2="66.96" y2="55.64" stroke="#F5F5F1" stroke-width="0.15" stroke-opacity="0.32" stroke-linecap="round"/><line x1="67.48" y1="58.97" x2="68.29" y2="58.84" stroke="#F5F5F1" stroke-width="0.15" stroke-opacity="0.32" stroke-linecap="round"/><line x1="67.24" y1="62.04" x2="68.02" y2="62.29" stroke="#F5F5F1" stroke-width="0.15" stroke-opacity="0.32" stroke-linecap="round"/><line x1="65.13" y1="64.17" x2="66.21" y2="65.25" stroke="#F5F5F1" stroke-width="0.26" stroke-opacity="0.46" stroke-linecap="round"/><line x1="60.96" y1="54.80" x2="60.96" y2="52.00" stroke="#F5F5F1" stroke-width="0.3" stroke-opacity="0.6000000000000001" stroke-linecap="round"/>
<path d="M51.44,65.26 L51.44,66.36 M52.17,65.26 L52.17,66.36 M51.44,65.81 L52.17,65.81 M52.43,66.36 L52.80,65.26 L53.16,66.36 M52.58,65.98 L53.02,65.98 M53.42,66.36 L53.42,65.26 L53.97,65.30 L54.08,65.52 L53.97,65.76 L53.42,65.79 M53.71,65.79 L54.15,66.36 M54.41,65.26 L54.41,66.36 M54.41,65.26 L54.85,65.32 L55.11,65.63 L55.11,65.99 L54.85,66.31 L54.41,66.36" fill="none" stroke="#A6A6A6" stroke-width="0.21" stroke-linecap="round" stroke-linejoin="round"/>
<path d="M67.25,65.44 L66.98,65.26 L66.70,65.33 L66.61,65.55 L66.78,65.76 L67.05,65.85 L67.18,66.03 L67.09,66.29 L66.80,66.36 L66.52,66.18 M67.84,65.26 L67.58,65.37 L67.47,65.63 L67.47,65.99 L67.58,66.25 L67.84,66.36 L68.10,66.25 L68.21,65.99 L68.21,65.63 L68.10,65.37 L67.84,65.26 M69.23,65.26 L68.50,65.26 L68.50,66.36 M68.50,65.81 L69.05,65.81 M69.42,65.26 L70.15,65.26 M69.78,65.26 L69.78,66.36" fill="none" stroke="#A6A6A6" stroke-width="0.21" stroke-linecap="round" stroke-linejoin="round"/>
<circle cx="52.46" cy="73.00" r="3.10" fill="#14101a" fill-opacity="0.9" stroke="#F5F5F1" stroke-width="0.2" stroke-opacity="0.16"/>
<circle cx="69.46" cy="73.00" r="3.10" fill="#14101a" fill-opacity="0.9" stroke="#F5F5F1" stroke-width="0.2" stroke-opacity="0.16"/>
<circle cx="60.96" cy="82.00" r="1.95" fill="none" fill-opacity="1.0" stroke="#FFC400" stroke-width="0.22" stroke-opacity="0.5"/><circle cx="60.96" cy="82.00" r="3.31" fill="none" fill-opacity="1.0" stroke="#FFC400" stroke-width="0.22" stroke-opacity="0.3"/><circle cx="60.96" cy="82.00" r="4.50" fill="none" fill-opacity="1.0" stroke="#FFC400" stroke-width="0.22" stroke-opacity="0.17"/><circle cx="60.96" cy="82.00" r="1.25" fill="#FFC400" fill-opacity="0.85" stroke="none" stroke-width="0.25" stroke-opacity="1.0"/>
<circle cx="51.96" cy="93.00" r="3.65" fill="#14101a" fill-opacity="0.9" stroke="#F5F5F1" stroke-width="0.2" stroke-opacity="0.16"/>
<circle cx="69.96" cy="93.00" r="3.65" fill="#14101a" fill-opacity="0.9" stroke="#F5F5F1" stroke-width="0.2" stroke-opacity="0.16"/>
<circle cx="69.96" cy="93.00" r="3.85" fill="none" fill-opacity="1.0" stroke="#FFC400" stroke-width="0.22" stroke-opacity="0.4"/>
<circle cx="51.96" cy="105.00" r="3.65" fill="#14101a" fill-opacity="0.9" stroke="#F5F5F1" stroke-width="0.2" stroke-opacity="0.16"/>
<circle cx="51.96" cy="105.00" r="3.85" fill="none" fill-opacity="1.0" stroke="#19D2E5" stroke-width="0.22" stroke-opacity="0.4"/>
<circle cx="69.96" cy="105.00" r="3.65" fill="#14101a" fill-opacity="0.9" stroke="#F5F5F1" stroke-width="0.2" stroke-opacity="0.16"/>
<circle cx="69.96" cy="105.00" r="3.85" fill="none" fill-opacity="1.0" stroke="#19D2E5" stroke-width="0.22" stroke-opacity="0.4"/>
<circle cx="60.96" cy="117.00" r="3.65" fill="#14101a" fill-opacity="0.9" stroke="#F5F5F1" stroke-width="0.2" stroke-opacity="0.16"/>
<circle cx="60.96" cy="117.00" r="3.90" fill="none" fill-opacity="1.0" stroke="#FF5A00" stroke-width="0.28" stroke-opacity="0.55"/>
<rect x="39.34" y="114.30" width="2.60" height="5.40" rx="0.80" fill="#14101a" fill-opacity="0.9" stroke="#1C46FF" stroke-width="0.22" stroke-opacity="0.5"/>
<circle cx="37.44" cy="116.00" r="0.26" fill="#1C46FF" fill-opacity="0.7" stroke="none" stroke-width="0.25" stroke-opacity="1.0"/>
<circle cx="36.94" cy="117.80" r="0.26" fill="#1C46FF" fill-opacity="0.5" stroke="none" stroke-width="0.25" stroke-opacity="1.0"/>
<circle cx="44.04" cy="117.40" r="0.26" fill="#1C46FF" fill-opacity="0.6" stroke="none" stroke-width="0.25" stroke-opacity="1.0"/>
<path d="M17.57,14.30 L17.12,14.49 L16.93,14.93 L16.93,15.57 L17.12,16.01 L17.57,16.20 L18.01,16.01 L18.20,15.57 L18.20,14.93 L18.01,14.49 L17.57,14.30 M18.71,16.20 L18.71,14.30 L19.66,14.36 L19.85,14.74 L19.66,15.16 L18.71,15.22 M21.62,14.30 L20.35,14.30 L20.35,16.20 L21.62,16.20 M20.35,15.25 L21.30,15.25 M22.00,16.20 L22.00,14.30 L23.26,16.20 L23.26,14.30" fill="none" stroke="#ECE7DD" stroke-width="0.25" stroke-linecap="round" stroke-linejoin="round"/>
<path d="M16.08,32.30 L16.08,34.20 M16.08,32.30 L16.84,32.40 L17.28,32.93 L17.28,33.57 L16.84,34.11 L16.08,34.20 M19.05,32.30 L17.79,32.30 L17.79,34.20 L19.05,34.20 M17.79,33.25 L18.74,33.25 M20.70,32.65 L20.23,32.30 L19.75,32.43 L19.43,32.93 L19.43,33.57 L19.75,34.07 L20.23,34.20 L20.70,33.85 M21.14,34.20 L21.78,32.30 L22.41,34.20 M21.40,33.54 L22.16,33.54 M22.85,32.30 L23.49,33.31 L24.12,32.30 M23.49,33.31 L23.49,34.20" fill="none" stroke="#ECE7DD" stroke-width="0.25" stroke-linecap="round" stroke-linejoin="round"/>
<path d="M13.70,52.20 L13.70,50.30 L14.49,51.31 L15.29,50.30 L15.29,52.20 M15.54,52.20 L16.17,50.30 L16.80,52.20 M15.79,51.54 L16.55,51.54 M17.25,50.30 L18.52,50.30 M17.88,50.30 L17.88,52.20 M20.16,50.30 L18.89,50.30 L18.89,52.20 L20.16,52.20 M18.89,51.25 L19.84,51.25 M20.54,52.20 L20.54,50.30 L21.49,50.36 L21.68,50.74 L21.49,51.16 L20.54,51.22 M21.05,51.22 L21.81,52.20 M22.60,50.30 L23.17,50.30 M22.88,50.30 L22.88,52.20 M22.60,52.20 L23.17,52.20 M23.64,52.20 L24.28,50.30 L24.91,52.20 M23.90,51.54 L24.66,51.54 M25.36,50.30 L25.36,52.20 L26.62,52.20" fill="none" stroke="#ECE7DD" stroke-width="0.25" stroke-linecap="round" stroke-linejoin="round"/>
<path d="M9.69,67.40 L9.69,69.00 M9.69,67.40 L10.33,67.48 L10.70,67.93 L10.70,68.47 L10.33,68.92 L9.69,69.00 M12.19,67.40 L11.13,67.40 L11.13,69.00 L12.19,69.00 M11.13,68.20 L11.93,68.20 M13.58,67.69 L13.18,67.40 L12.78,67.51 L12.51,67.93 L12.51,68.47 L12.78,68.89 L13.18,69.00 L13.58,68.71" fill="none" stroke="#19D2E5" stroke-width="0.25" stroke-linecap="round" stroke-linejoin="round"/>
<path d="M27.81,67.69 L27.41,67.40 L27.01,67.51 L26.74,67.93 L26.74,68.47 L27.01,68.89 L27.41,69.00 L27.81,68.71 M28.18,67.40 L29.25,67.40 M28.71,67.40 L28.71,69.00 M29.57,67.40 L29.57,69.00 L30.63,69.00" fill="none" stroke="#19D2E5" stroke-width="0.25" stroke-linecap="round" stroke-linejoin="round"/>
<path d="M10.31,86.85 L10.79,86.85 M10.55,86.85 L10.55,88.45 M10.31,88.45 L10.79,88.45 M11.19,88.45 L11.19,86.85 L12.25,88.45 L12.25,86.85" fill="none" stroke="#ECE7DD" stroke-width="0.25" stroke-linecap="round" stroke-linejoin="round"/>
<path d="M27.32,86.85 L27.32,88.45 M28.39,86.85 L28.39,88.45 M27.32,87.65 L28.39,87.65 M29.05,86.85 L29.53,86.85 M29.29,86.85 L29.29,88.45 M29.05,88.45 L29.53,88.45 M29.93,86.85 L31.00,86.85 M30.47,86.85 L30.47,88.45" fill="none" stroke="#FFC400" stroke-width="0.25" stroke-linecap="round" stroke-linejoin="round"/>
<path d="M9.19,98.85 L9.19,100.45 M9.19,98.85 L9.83,98.93 L10.20,99.38 L10.20,99.92 L9.83,100.37 L9.19,100.45 M11.69,98.85 L10.63,98.85 L10.63,100.45 L11.69,100.45 M10.63,99.65 L11.43,99.65 M13.08,99.14 L12.68,98.85 L12.28,98.96 L12.01,99.38 L12.01,99.92 L12.28,100.34 L12.68,100.45 L13.08,100.16" fill="none" stroke="#19D2E5" stroke-width="0.25" stroke-linecap="round" stroke-linejoin="round"/>
<path d="M28.31,99.14 L27.91,98.85 L27.51,98.96 L27.24,99.38 L27.24,99.92 L27.51,100.34 L27.91,100.45 L28.31,100.16 M28.68,98.85 L29.75,98.85 M29.21,98.85 L29.21,100.45 M30.07,98.85 L30.07,100.45 L31.13,100.45" fill="none" stroke="#19D2E5" stroke-width="0.25" stroke-linecap="round" stroke-linejoin="round"/>
<path d="M18.69,110.85 L18.32,111.01 L18.16,111.38 L18.16,111.92 L18.32,112.29 L18.69,112.45 L19.07,112.29 L19.23,111.92 L19.23,111.38 L19.07,111.01 L18.69,110.85 M19.65,110.85 L19.65,112.02 L19.92,112.37 L20.19,112.45 L20.45,112.37 L20.72,112.02 L20.72,110.85 M21.09,110.85 L22.16,110.85 M21.63,110.85 L21.63,112.45" fill="none" stroke="#FF5A00" stroke-width="0.25" stroke-linecap="round" stroke-linejoin="round"/>
<path d="M58.20,14.30 L57.76,14.49 L57.57,14.93 L57.57,15.57 L57.76,16.01 L58.20,16.20 L58.65,16.01 L58.84,15.57 L58.84,14.93 L58.65,14.49 L58.20,14.30 M59.34,16.20 L59.34,14.30 L60.30,14.36 L60.48,14.74 L60.30,15.16 L59.34,15.22 M62.26,14.30 L60.99,14.30 L60.99,16.20 L62.26,16.20 M60.99,15.25 L61.94,15.25 M62.64,16.20 L62.64,14.30 L63.91,16.20 L63.91,14.30" fill="none" stroke="#ECE7DD" stroke-width="0.25" stroke-linecap="round" stroke-linejoin="round"/>
<path d="M56.72,32.30 L56.72,34.20 M56.72,32.30 L57.48,32.40 L57.92,32.93 L57.92,33.57 L57.48,34.11 L56.72,34.20 M59.69,32.30 L58.43,32.30 L58.43,34.20 L59.69,34.20 M58.43,33.25 L59.38,33.25 M61.34,32.65 L60.87,32.30 L60.39,32.43 L60.07,32.93 L60.07,33.57 L60.39,34.07 L60.87,34.20 L61.34,33.85 M61.78,34.20 L62.42,32.30 L63.05,34.20 M62.04,33.54 L62.80,33.54 M63.49,32.30 L64.13,33.31 L64.76,32.30 M64.13,33.31 L64.13,34.20" fill="none" stroke="#ECE7DD" stroke-width="0.25" stroke-linecap="round" stroke-linejoin="round"/>
<path d="M54.34,52.20 L54.34,50.30 L55.13,51.31 L55.93,50.30 L55.93,52.20 M56.18,52.20 L56.81,50.30 L57.45,52.20 M56.43,51.54 L57.19,51.54 M57.89,50.30 L59.16,50.30 M58.52,50.30 L58.52,52.20 M60.80,50.30 L59.54,50.30 L59.54,52.20 L60.80,52.20 M59.54,51.25 L60.49,51.25 M61.18,52.20 L61.18,50.30 L62.13,50.36 L62.32,50.74 L62.13,51.16 L61.18,51.22 M61.69,51.22 L62.45,52.20 M63.24,50.30 L63.81,50.30 M63.53,50.30 L63.53,52.20 M63.24,52.20 L63.81,52.20 M64.29,52.20 L64.92,50.30 L65.55,52.20 M64.54,51.54 L65.30,51.54 M66.00,50.30 L66.00,52.20 L67.26,52.20" fill="none" stroke="#ECE7DD" stroke-width="0.25" stroke-linecap="round" stroke-linejoin="round"/>
<path d="M50.33,67.40 L50.33,69.00 M50.33,67.40 L50.97,67.48 L51.34,67.93 L51.34,68.47 L50.97,68.92 L50.33,69.00 M52.83,67.40 L51.77,67.40 L51.77,69.00 L52.83,69.00 M51.77,68.20 L52.57,68.20 M54.22,67.69 L53.82,67.40 L53.42,67.51 L53.15,67.93 L53.15,68.47 L53.42,68.89 L53.82,69.00 L54.22,68.71" fill="none" stroke="#19D2E5" stroke-width="0.25" stroke-linecap="round" stroke-linejoin="round"/>
<path d="M68.45,67.69 L68.05,67.40 L67.65,67.51 L67.38,67.93 L67.38,68.47 L67.65,68.89 L68.05,69.00 L68.45,68.71 M68.82,67.40 L69.89,67.40 M69.35,67.40 L69.35,69.00 M70.21,67.40 L70.21,69.00 L71.27,69.00" fill="none" stroke="#19D2E5" stroke-width="0.25" stroke-linecap="round" stroke-linejoin="round"/>
<path d="M50.95,86.85 L51.43,86.85 M51.19,86.85 L51.19,88.45 M50.95,88.45 L51.43,88.45 M51.83,88.45 L51.83,86.85 L52.89,88.45 L52.89,86.85" fill="none" stroke="#ECE7DD" stroke-width="0.25" stroke-linecap="round" stroke-linejoin="round"/>
<path d="M67.96,86.85 L67.96,88.45 M69.03,86.85 L69.03,88.45 M67.96,87.65 L69.03,87.65 M69.69,86.85 L70.17,86.85 M69.93,86.85 L69.93,88.45 M69.69,88.45 L70.17,88.45 M70.57,86.85 L71.64,86.85 M71.11,86.85 L71.11,88.45" fill="none" stroke="#FFC400" stroke-width="0.25" stroke-linecap="round" stroke-linejoin="round"/>
<path d="M49.83,98.85 L49.83,100.45 M49.83,98.85 L50.47,98.93 L50.84,99.38 L50.84,99.92 L50.47,100.37 L49.83,100.45 M52.33,98.85 L51.27,98.85 L51.27,100.45 L52.33,100.45 M51.27,99.65 L52.07,99.65 M53.72,99.14 L53.32,98.85 L52.92,98.96 L52.65,99.38 L52.65,99.92 L52.92,100.34 L53.32,100.45 L53.72,100.16" fill="none" stroke="#19D2E5" stroke-width="0.25" stroke-linecap="round" stroke-linejoin="round"/>
<path d="M68.95,99.14 L68.55,98.85 L68.15,98.96 L67.88,99.38 L67.88,99.92 L68.15,100.34 L68.55,100.45 L68.95,100.16 M69.32,98.85 L70.39,98.85 M69.85,98.85 L69.85,100.45 M70.71,98.85 L70.71,100.45 L71.77,100.45" fill="none" stroke="#19D2E5" stroke-width="0.25" stroke-linecap="round" stroke-linejoin="round"/>
<path d="M59.33,110.85 L58.96,111.01 L58.80,111.38 L58.80,111.92 L58.96,112.29 L59.33,112.45 L59.71,112.29 L59.87,111.92 L59.87,111.38 L59.71,111.01 L59.33,110.85 M60.29,110.85 L60.29,112.02 L60.56,112.37 L60.83,112.45 L61.09,112.37 L61.36,112.02 L61.36,110.85 M61.73,110.85 L62.80,110.85 M62.27,110.85 L62.27,112.45" fill="none" stroke="#FF5A00" stroke-width="0.25" stroke-linecap="round" stroke-linejoin="round"/>
<path d="M10.39,13.29 L9.99,13.00 L9.59,13.11 L9.32,13.53 L9.32,14.07 L9.59,14.49 L9.99,14.60 L10.39,14.31 M10.76,13.00 L10.76,14.60 M11.83,13.00 L11.83,14.60 M10.76,13.80 L11.83,13.80 M13.16,14.60 L13.69,13.00 L14.23,14.60 M13.37,14.04 L14.01,14.04" fill="none" stroke="#A6A6A6" stroke-width="0.22" stroke-linecap="round" stroke-linejoin="round"/>
<path d="M67.75,13.29 L67.35,13.00 L66.95,13.11 L66.68,13.53 L66.68,14.07 L66.95,14.49 L67.35,14.60 L67.75,14.31 M68.12,13.00 L68.12,14.60 M69.19,13.00 L69.19,14.60 M68.12,13.80 L69.19,13.80 M70.52,13.00 L70.52,14.60 M70.52,13.00 L71.27,13.05 L71.43,13.37 L71.21,13.75 L70.52,13.75 M70.52,13.75 L71.32,13.83 L71.45,14.17 L71.24,14.55 L70.52,14.60" fill="none" stroke="#A6A6A6" stroke-width="0.22" stroke-linecap="round" stroke-linejoin="round"/>
<path d="M36.80,108.40 L37.28,108.40 M37.04,108.40 L37.04,110.00 M36.80,110.00 L37.28,110.00 M37.68,110.00 L37.68,108.40 L38.35,109.25 L39.01,108.40 L39.01,110.00 M39.23,110.00 L39.23,108.40 L40.03,108.45 L40.19,108.77 L40.03,109.12 L39.23,109.17 M41.68,108.40 L40.61,108.40 L40.61,110.00 L41.68,110.00 M40.61,109.20 L41.41,109.20 M42.00,110.00 L42.00,108.40 L42.80,108.45 L42.96,108.77 L42.80,109.12 L42.00,109.17 M42.43,109.17 L43.07,110.00 M44.51,108.40 L43.44,108.40 L43.44,110.00 M43.44,109.20 L44.24,109.20" fill="none" stroke="#1C46FF" stroke-width="0.22" stroke-linecap="round" stroke-linejoin="round"/>
<line x1="7.00" y1="122.30" x2="74.28" y2="122.30" stroke="#F5F5F1" stroke-width="0.25" stroke-opacity="0.34" stroke-linecap="round"/>
<path d="M7.97,123.29 L7.60,123.05 L7.24,123.15 L7.12,123.44 L7.34,123.70 L7.70,123.82 L7.87,124.06 L7.75,124.40 L7.36,124.50 L7.00,124.26 M8.40,123.77 L9.08,123.77 M10.58,123.34 L10.87,123.05 L10.87,124.50 M10.62,124.50 L11.11,124.50 M12.22,123.19 L11.88,123.05 L11.59,123.29 L11.42,123.82 L11.42,124.16 L11.64,124.45 L12.03,124.50 L12.32,124.26 L12.27,123.90 L11.88,123.77 L11.52,123.92 M12.70,123.05 L12.70,124.50 M13.67,123.05 L13.67,124.50 M12.70,123.77 L13.67,123.77 M14.01,124.50 L14.01,123.05 L14.73,123.10 L14.88,123.39 L14.73,123.70 L14.01,123.75" fill="none" stroke="#A6A6A6" stroke-width="0.22" stroke-linecap="round" stroke-linejoin="round"/>
<path d="M38.13,123.17 L37.73,122.90 L37.33,123.01 L37.20,123.33 L37.44,123.62 L37.84,123.75 L38.03,124.02 L37.89,124.39 L37.47,124.50 L37.07,124.23 M38.45,124.50 L38.99,122.90 L39.52,124.50 M38.67,123.94 L39.31,123.94 M39.89,124.50 L39.89,122.90 L40.56,123.75 L41.23,122.90 L41.23,124.50 M41.60,123.70 L42.35,123.70 M43.89,122.90 L42.83,122.90 L42.83,124.50 L43.89,124.50 M42.83,123.70 L43.63,123.70" fill="none" stroke="#ECE7DD" stroke-width="0.28" stroke-linecap="round" stroke-linejoin="round"/>
<circle cx="56.88" cy="123.95" r="0.85" fill="#FF5A00" fill-opacity="0.95" stroke="none" stroke-width="0.25" stroke-opacity="1.0"/>
<path d="M59.81,123.33 L59.46,123.10 L59.11,123.19 L59.00,123.47 L59.21,123.73 L59.56,123.85 L59.72,124.08 L59.60,124.41 L59.23,124.50 L58.88,124.27 M60.35,123.10 L60.77,123.10 M60.56,123.10 L60.56,124.50 M60.35,124.50 L60.77,124.50 M62.05,123.36 L61.70,123.10 L61.35,123.19 L61.12,123.57 L61.12,124.03 L61.35,124.41 L61.70,124.50 L62.05,124.41 L62.05,123.94 L61.68,123.94 M62.43,124.50 L62.43,123.10 L63.36,124.50 L63.36,123.10 M63.69,124.50 L64.15,123.10 L64.62,124.50 M63.87,124.01 L64.43,124.01 M64.95,123.10 L64.95,124.50 L65.88,124.50 M67.89,123.33 L67.54,123.10 L67.19,123.19 L67.07,123.47 L67.28,123.73 L67.63,123.85 L67.79,124.08 L67.68,124.41 L67.30,124.50 L66.95,124.27 M68.17,123.10 L69.10,123.10 M68.63,123.10 L68.63,124.50 M69.38,124.50 L69.85,123.10 L70.31,124.50 M69.57,124.01 L70.13,124.01 M70.64,123.10 L70.64,124.50 M70.64,123.10 L71.29,123.15 L71.43,123.43 L71.25,123.75 L70.64,123.75 M70.64,123.75 L71.34,123.82 L71.46,124.13 L71.27,124.45 L70.64,124.50 M71.90,123.10 L71.90,124.50 L72.83,124.50 M74.00,123.10 L73.07,123.10 L73.07,124.50 L74.00,124.50 M73.07,123.80 L73.77,123.80" fill="none" stroke="#A6A6A6" stroke-width="0.22" stroke-linecap="round" stroke-linejoin="round"/>
</svg>
