<?xml version="1.0" encoding="UTF-8"?>
<!-- Generated by tools/panelgen (Sam-e system v0.4). Edit the spec, not this file. -->
<svg xmlns="http://www.w3.org/2000/svg" version="1.1" width="30.48mm" height="128.5mm" viewBox="0 0 30.48 128.5">
<defs><linearGradient id="bg" x1="0" y1="0" x2="0" y2="128.5" gradientUnits="userSpaceOnUse"><stop offset="0" stop-color="#e2e3e6"/><stop offset="0.5" stop-color="#d2d3d7"/><stop offset="1" stop-color="#bfc0c5"/></linearGradient></defs>
<rect x="0" y="0" width="30.48" height="128.5" fill="url(#bg)"/>
<line x1="4.24" y1="15.50" x2="6.64" y2="15.50" stroke="#2b2733" stroke-width="0.22" stroke-opacity="0.3" stroke-linecap="round"/><line x1="4.24" y1="15.50" x2="4.24" y2="17.90" stroke="#2b2733" stroke-width="0.22" stroke-opacity="0.3" stroke-linecap="round"/><line x1="26.24" y1="15.50" x2="23.84" y2="15.50" stroke="#2b2733" stroke-width="0.22" stroke-opacity="0.3" stroke-linecap="round"/><line x1="26.24" y1="15.50" x2="26.24" y2="17.90" stroke="#2b2733" stroke-width="0.22" stroke-opacity="0.3" stroke-linecap="round"/><line x1="4.24" y1="121.00" x2="6.64" y2="121.00" stroke="#2b2733" stroke-width="0.22" stroke-opacity="0.3" stroke-linecap="round"/><line x1="4.24" y1="121.00" x2="4.24" y2="118.60" stroke="#2b2733" stroke-width="0.22" stroke-opacity="0.3" stroke-linecap="round"/><line x1="26.24" y1="121.00" x2="23.84" y2="121.00" stroke="#2b2733" stroke-width="0.22" stroke-opacity="0.3" stroke-linecap="round"/><line x1="26.24" y1="121.00" x2="26.24" y2="118.60" stroke="#2b2733" stroke-width="0.22" stroke-opacity="0.3" stroke-linecap="round"/>
<path d="M 12.339 5.438 Q 12.119 5.438 11.951 5.359 Q 11.782 5.281 11.687 5.134 Q 11.592 4.987 11.592 4.781 V 4.705 H 11.945 V 4.781 Q 11.945 4.952 12.051 5.038 Q 12.157 5.123 12.339 5.123 Q 12.523 5.123 12.614 5.050 Q 12.705 4.977 12.705 4.863 Q 12.705 4.784 12.660 4.735 Q 12.616 4.686 12.530 4.655 Q 12.445 4.624 12.322 4.597 L 12.260 4.583 Q 12.065 4.540 11.925 4.473 Q 11.785 4.407 11.710 4.298 Q 11.636 4.189 11.636 4.016 Q 11.636 3.842 11.719 3.719 Q 11.801 3.595 11.952 3.529 Q 12.103 3.462 12.306 3.462 Q 12.510 3.462 12.668 3.531 Q 12.827 3.600 12.918 3.738 Q 13.009 3.875 13.009 4.081 V 4.162 H 12.656 V 4.081 Q 12.656 3.972 12.614 3.906 Q 12.572 3.839 12.493 3.808 Q 12.415 3.777 12.306 3.777 Q 12.143 3.777 12.066 3.838 Q 11.989 3.899 11.989 4.005 Q 11.989 4.075 12.025 4.124 Q 12.062 4.173 12.135 4.206 Q 12.208 4.238 12.322 4.263 L 12.385 4.276 Q 12.588 4.320 12.739 4.388 Q 12.890 4.455 12.974 4.567 Q 13.058 4.678 13.058 4.852 Q 13.058 5.025 12.970 5.157 Q 12.882 5.289 12.720 5.363 Q 12.559 5.438 12.339 5.438 Z M 13.329 4.863 V 4.553 H 14.133 V 4.863 Z" fill="#E8500A" fill-rule="nonzero"/>
<path d="M 15.042 5.400 V 5.085 H 15.292 V 3.815 H 15.042 V 3.500 H 16.019 Q 16.193 3.500 16.322 3.558 Q 16.451 3.617 16.523 3.724 Q 16.595 3.831 16.595 3.980 V 4.008 Q 16.595 4.138 16.546 4.221 Q 16.497 4.303 16.431 4.348 Q 16.364 4.393 16.304 4.412 V 4.461 Q 16.364 4.477 16.435 4.522 Q 16.505 4.567 16.555 4.651 Q 16.606 4.735 16.606 4.871 V 4.898 Q 16.606 5.055 16.532 5.168 Q 16.459 5.281 16.330 5.340 Q 16.201 5.400 16.030 5.400 Z M 15.650 5.074 H 15.987 Q 16.103 5.074 16.175 5.017 Q 16.247 4.960 16.247 4.854 V 4.827 Q 16.247 4.721 16.177 4.664 Q 16.106 4.607 15.987 4.607 H 15.650 Z M 15.650 4.282 H 15.981 Q 16.093 4.282 16.165 4.225 Q 16.236 4.168 16.236 4.067 V 4.040 Q 16.236 3.937 16.166 3.881 Q 16.095 3.826 15.981 3.826 H 15.650 Z M 16.769 5.400 17.268 3.500 H 17.892 L 18.392 5.400 H 18.023 L 17.919 4.982 H 17.241 L 17.138 5.400 Z M 17.325 4.651 H 17.835 L 17.605 3.725 H 17.556 Z M 18.620 5.400 V 3.500 H 19.301 L 19.678 5.156 H 19.727 V 3.500 H 20.080 V 5.400 H 19.399 L 19.021 3.744 H 18.972 V 5.400 Z M 20.438 5.400 V 3.500 H 20.796 V 4.255 H 20.845 L 21.461 3.500 H 21.920 L 21.128 4.436 L 21.947 5.400 H 21.475 L 20.845 4.629 H 20.796 V 5.400 Z" fill="#17141c" fill-rule="nonzero"/>
<path d="M 11.821 10.600 V 7.200 H 12.462 V 10.017 H 14.016 V 10.600 Z M 14.453 10.600 V 7.200 H 15.852 Q 16.173 7.200 16.418 7.329 Q 16.663 7.457 16.802 7.691 Q 16.940 7.924 16.940 8.244 V 8.312 Q 16.940 8.628 16.797 8.864 Q 16.653 9.099 16.408 9.228 Q 16.163 9.357 15.852 9.357 H 15.094 V 10.600 Z M 15.094 8.774 H 15.789 Q 16.017 8.774 16.158 8.647 Q 16.299 8.521 16.299 8.303 V 8.254 Q 16.299 8.035 16.158 7.909 Q 16.017 7.783 15.789 7.783 H 15.094 Z M 18.562 10.668 Q 18.213 10.668 17.929 10.510 Q 17.644 10.352 17.477 10.049 Q 17.309 9.745 17.309 9.308 V 8.492 Q 17.309 7.836 17.678 7.484 Q 18.048 7.132 18.679 7.132 Q 19.306 7.132 19.648 7.465 Q 19.990 7.797 19.990 8.366 V 8.385 H 19.359 V 8.346 Q 19.359 8.167 19.284 8.021 Q 19.208 7.875 19.058 7.790 Q 18.907 7.705 18.679 7.705 Q 18.339 7.705 18.145 7.914 Q 17.950 8.123 17.950 8.482 V 9.318 Q 17.950 9.672 18.145 9.888 Q 18.339 10.105 18.689 10.105 Q 19.038 10.105 19.199 9.920 Q 19.359 9.735 19.359 9.454 V 9.405 H 18.553 V 8.861 H 19.990 V 10.600 H 19.398 V 10.275 H 19.310 Q 19.276 10.357 19.201 10.449 Q 19.126 10.542 18.975 10.605 Q 18.825 10.668 18.562 10.668 Z" fill="#17141c" fill-rule="nonzero"/>
<path d="M 16.034 3.970 Q 16.123 3.970 16.197 3.992 Q 16.270 4.015 16.329 4.057 L 16.226 4.223 Q 16.184 4.193 16.135 4.179 Q 16.087 4.165 16.037 4.165 Q 15.946 4.165 15.878 4.225 Q 15.809 4.284 15.772 4.396 Q 15.740 4.491 15.733 4.619 Q 15.792 4.549 15.864 4.513 Q 15.950 4.471 16.043 4.471 Q 16.152 4.471 16.241 4.523 Q 16.330 4.575 16.383 4.676 Q 16.436 4.777 16.436 4.926 Q 16.436 5.072 16.376 5.186 Q 16.317 5.300 16.209 5.365 Q 16.101 5.430 15.959 5.430 Q 15.824 5.430 15.728 5.379 Q 15.633 5.328 15.574 5.237 Q 15.514 5.145 15.486 5.022 Q 15.458 4.899 15.458 4.757 Q 15.458 4.522 15.527 4.345 Q 15.596 4.167 15.725 4.068 Q 15.854 3.970 16.034 3.970 Z M 15.735 4.801 Q 15.739 5.009 15.784 5.116 Q 15.834 5.234 15.961 5.234 Q 16.067 5.234 16.117 5.151 Q 16.168 5.068 16.168 4.940 Q 16.168 4.837 16.144 4.777 Q 16.121 4.717 16.080 4.690 Q 16.038 4.663 15.979 4.663 Q 15.901 4.663 15.832 4.709 Q 15.777 4.745 15.735 4.801 Z M 17.360 5.400 V 4.785 H 16.955 V 5.400 H 16.678 V 4.000 H 16.955 V 4.557 H 17.360 V 4.000 H 17.638 V 5.400 Z M 18.631 4.448 Q 18.631 4.361 18.598 4.307 Q 18.565 4.253 18.502 4.228 Q 18.439 4.202 18.351 4.202 H 18.207 V 4.710 H 18.359 Q 18.442 4.710 18.503 4.684 Q 18.563 4.658 18.597 4.600 Q 18.631 4.543 18.631 4.448 Z M 18.918 4.446 Q 18.918 4.609 18.849 4.713 Q 18.780 4.817 18.655 4.866 Q 18.531 4.915 18.368 4.915 H 18.207 V 5.400 H 17.929 V 4.000 H 18.341 Q 18.614 4.000 18.766 4.110 Q 18.918 4.221 18.918 4.446 Z" fill="#6c6d72" fill-rule="nonzero"/>
<path d="M 14.387 10.227 Q 14.387 10.345 14.326 10.436 Q 14.266 10.526 14.152 10.577 Q 14.038 10.628 13.877 10.628 Q 13.707 10.628 13.586 10.578 Q 13.465 10.528 13.383 10.449 L 13.519 10.297 Q 13.589 10.360 13.676 10.396 Q 13.764 10.432 13.873 10.432 Q 13.942 10.432 13.998 10.410 Q 14.054 10.389 14.087 10.347 Q 14.119 10.305 14.119 10.244 Q 14.119 10.190 14.097 10.154 Q 14.074 10.117 14.019 10.088 Q 13.964 10.059 13.866 10.029 Q 13.723 9.985 13.629 9.932 Q 13.536 9.879 13.491 9.806 Q 13.446 9.733 13.446 9.634 Q 13.446 9.522 13.508 9.441 Q 13.570 9.359 13.676 9.316 Q 13.782 9.272 13.912 9.272 Q 14.057 9.272 14.167 9.314 Q 14.277 9.355 14.361 9.433 L 14.232 9.578 Q 14.165 9.521 14.088 9.494 Q 14.010 9.466 13.930 9.466 Q 13.867 9.466 13.818 9.483 Q 13.769 9.500 13.740 9.533 Q 13.712 9.566 13.712 9.617 Q 13.712 9.663 13.738 9.695 Q 13.764 9.728 13.827 9.755 Q 13.890 9.783 14.000 9.818 Q 14.115 9.853 14.202 9.902 Q 14.289 9.950 14.338 10.028 Q 14.387 10.106 14.387 10.227 Z M 14.635 10.110 V 9.913 H 15.429 V 10.110 Z M 16.160 9.272 Q 16.385 9.272 16.499 9.449 Q 16.614 9.626 16.614 9.948 Q 16.614 10.270 16.499 10.449 Q 16.385 10.628 16.160 10.628 Q 15.934 10.628 15.820 10.449 Q 15.706 10.270 15.706 9.948 Q 15.706 9.626 15.820 9.449 Q 15.934 9.272 16.160 9.272 Z M 16.160 9.456 Q 16.054 9.456 16.000 9.569 Q 15.946 9.683 15.946 9.948 Q 15.946 10.094 15.957 10.190 Q 15.960 10.216 15.964 10.238 L 16.309 9.526 Q 16.299 9.511 16.287 9.498 Q 16.240 9.456 16.160 9.456 Z M 16.026 10.393 Q 16.041 10.410 16.059 10.420 Q 16.100 10.444 16.160 10.444 Q 16.231 10.444 16.279 10.396 Q 16.326 10.347 16.350 10.238 Q 16.373 10.128 16.373 9.948 Q 16.373 9.801 16.361 9.704 Z M 17.288 9.272 Q 17.513 9.272 17.627 9.449 Q 17.742 9.626 17.742 9.948 Q 17.742 10.270 17.627 10.449 Q 17.513 10.628 17.288 10.628 Q 17.062 10.628 16.948 10.449 Q 16.834 10.270 16.834 9.948 Q 16.834 9.626 16.948 9.449 Q 17.062 9.272 17.288 9.272 Z M 17.288 9.456 Q 17.182 9.456 17.128 9.569 Q 17.074 9.683 17.074 9.948 Q 17.074 10.094 17.085 10.190 Q 17.088 10.216 17.092 10.238 L 17.437 9.526 Q 17.427 9.511 17.415 9.498 Q 17.368 9.456 17.288 9.456 Z M 17.154 10.393 Q 17.169 10.410 17.187 10.420 Q 17.228 10.444 17.288 10.444 Q 17.359 10.444 17.407 10.396 Q 17.454 10.347 17.478 10.238 Q 17.501 10.128 17.501 9.948 Q 17.501 9.801 17.489 9.704 Z M 18.612 9.300 V 10.409 H 18.865 V 10.600 H 18.054 V 10.409 H 18.369 V 9.550 L 18.092 9.722 L 17.985 9.550 L 18.393 9.300 Z" fill="#6c6d72" fill-rule="nonzero"/>
<line x1="5.00" y1="12.20" x2="25.48" y2="12.20" stroke="#2b2733" stroke-width="0.25" stroke-opacity="0.34" stroke-linecap="round"/>
<line x1="5.00" y1="82.00" x2="25.48" y2="82.00" stroke="#2b2733" stroke-width="0.22" stroke-opacity="0.2" stroke-linecap="round"/>
<circle cx="15.24" cy="20.00" r="5.80" fill="#b4b5ba" fill-opacity="0.9" stroke="#2b2733" stroke-width="0.2" stroke-opacity="0.5"/>
<path d="M9.37,25.87 A8.30,8.30 0 1 1 21.11,25.87" fill="none" stroke="#2b2733" stroke-width="0.16" stroke-opacity="0.14" stroke-linecap="round"/><path d="M10.08,25.16 A7.30,7.30 0 1 1 20.40,25.16" fill="none" stroke="#2b2733" stroke-width="0.22" stroke-opacity="0.28" stroke-linecap="round"/><line x1="11.07" y1="24.17" x2="9.99" y2="25.25" stroke="#2b2733" stroke-width="0.26" stroke-opacity="0.46" stroke-linecap="round"/><line x1="8.96" y1="22.04" x2="8.18" y2="22.29" stroke="#2b2733" stroke-width="0.15" stroke-opacity="0.32" stroke-linecap="round"/><line x1="8.72" y1="18.97" x2="7.91" y2="18.84" stroke="#2b2733" stroke-width="0.15" stroke-opacity="0.32" stroke-linecap="round"/><line x1="9.90" y1="16.12" x2="9.24" y2="15.64" stroke="#2b2733" stroke-width="0.15" stroke-opacity="0.32" stroke-linecap="round"/><line x1="12.24" y1="14.12" x2="11.87" y2="13.39" stroke="#2b2733" stroke-width="0.15" stroke-opacity="0.32" stroke-linecap="round"/><line x1="15.24" y1="14.10" x2="15.24" y2="12.58" stroke="#2b2733" stroke-width="0.26" stroke-opacity="0.46" stroke-linecap="round"/><line x1="18.24" y1="14.12" x2="18.61" y2="13.39" stroke="#2b2733" stroke-width="0.15" stroke-opacity="0.32" stroke-linecap="round"/><line x1="20.58" y1="16.12" x2="21.24" y2="15.64" stroke="#2b2733" stroke-width="0.15" stroke-opacity="0.32" stroke-linecap="round"/><line x1="21.76" y1="18.97" x2="22.57" y2="18.84" stroke="#2b2733" stroke-width="0.15" stroke-opacity="0.32" stroke-linecap="round"/><line x1="21.52" y1="22.04" x2="22.30" y2="22.29" stroke="#2b2733" stroke-width="0.15" stroke-opacity="0.32" stroke-linecap="round"/><line x1="19.41" y1="24.17" x2="20.49" y2="25.25" stroke="#2b2733" stroke-width="0.26" stroke-opacity="0.46" stroke-linecap="round"/><line x1="15.24" y1="14.80" x2="15.24" y2="12.00" stroke="#2b2733" stroke-width="0.3" stroke-opacity="0.6000000000000001" stroke-linecap="round"/><circle cx="10.08" cy="25.16" r="0.45" fill="#2b2733" fill-opacity="0.53" stroke="none" stroke-width="0.25" stroke-opacity="1.0"/><circle cx="20.40" cy="25.16" r="0.45" fill="#2b2733" fill-opacity="0.53" stroke="none" stroke-width="0.25" stroke-opacity="1.0"/>
<circle cx="15.24" cy="40.00" r="5.80" fill="#b4b5ba" fill-opacity="0.9" stroke="#2b2733" stroke-width="0.2" stroke-opacity="0.5"/>
<path d="M9.37,45.87 A8.30,8.30 0 1 1 21.11,45.87" fill="none" stroke="#2b2733" stroke-width="0.16" stroke-opacity="0.14" stroke-linecap="round"/><path d="M10.08,45.16 A7.30,7.30 0 1 1 20.40,45.16" fill="none" stroke="#2b2733" stroke-width="0.22" stroke-opacity="0.28" stroke-linecap="round"/><line x1="11.07" y1="44.17" x2="9.99" y2="45.25" stroke="#2b2733" stroke-width="0.26" stroke-opacity="0.46" stroke-linecap="round"/><line x1="8.96" y1="42.04" x2="8.18" y2="42.29" stroke="#2b2733" stroke-width="0.15" stroke-opacity="0.32" stroke-linecap="round"/><line x1="8.72" y1="38.97" x2="7.91" y2="38.84" stroke="#2b2733" stroke-width="0.15" stroke-opacity="0.32" stroke-linecap="round"/><line x1="9.90" y1="36.12" x2="9.24" y2="35.64" stroke="#2b2733" stroke-width="0.15" stroke-opacity="0.32" stroke-linecap="round"/><line x1="12.24" y1="34.12" x2="11.87" y2="33.39" stroke="#2b2733" stroke-width="0.15" stroke-opacity="0.32" stroke-linecap="round"/><line x1="15.24" y1="34.10" x2="15.24" y2="32.58" stroke="#2b2733" stroke-width="0.26" stroke-opacity="0.46" stroke-linecap="round"/><line x1="18.24" y1="34.12" x2="18.61" y2="33.39" stroke="#2b2733" stroke-width="0.15" stroke-opacity="0.32" stroke-linecap="round"/><line x1="20.58" y1="36.12" x2="21.24" y2="35.64" stroke="#2b2733" stroke-width="0.15" stroke-opacity="0.32" stroke-linecap="round"/><line x1="21.76" y1="38.97" x2="22.57" y2="38.84" stroke="#2b2733" stroke-width="0.15" stroke-opacity="0.32" stroke-linecap="round"/><line x1="21.52" y1="42.04" x2="22.30" y2="42.29" stroke="#2b2733" stroke-width="0.15" stroke-opacity="0.32" stroke-linecap="round"/><line x1="19.41" y1="44.17" x2="20.49" y2="45.25" stroke="#2b2733" stroke-width="0.26" stroke-opacity="0.46" stroke-linecap="round"/><line x1="15.24" y1="34.80" x2="15.24" y2="32.00" stroke="#2b2733" stroke-width="0.3" stroke-opacity="0.6000000000000001" stroke-linecap="round"/><circle cx="10.08" cy="45.16" r="0.45" fill="#2b2733" fill-opacity="0.53" stroke="none" stroke-width="0.25" stroke-opacity="1.0"/><circle cx="20.40" cy="45.16" r="0.45" fill="#2b2733" fill-opacity="0.53" stroke="none" stroke-width="0.25" stroke-opacity="1.0"/>
<rect x="13.94" y="54.30" width="2.60" height="5.40" rx="0.80" fill="#b4b5ba" fill-opacity="0.9" stroke="#1C46FF" stroke-width="0.22" stroke-opacity="0.5"/>
<circle cx="12.04" cy="56.00" r="0.26" fill="#1C46FF" fill-opacity="0.7" stroke="none" stroke-width="0.25" stroke-opacity="1.0"/>
<circle cx="11.54" cy="57.80" r="0.26" fill="#1C46FF" fill-opacity="0.5" stroke="none" stroke-width="0.25" stroke-opacity="1.0"/>
<circle cx="18.64" cy="57.40" r="0.26" fill="#1C46FF" fill-opacity="0.6" stroke="none" stroke-width="0.25" stroke-opacity="1.0"/>
<rect x="13.94" y="68.30" width="2.60" height="5.40" rx="0.80" fill="#b4b5ba" fill-opacity="0.9" stroke="#1C46FF" stroke-width="0.22" stroke-opacity="0.5"/>
<circle cx="12.04" cy="70.00" r="0.26" fill="#1C46FF" fill-opacity="0.7" stroke="none" stroke-width="0.25" stroke-opacity="1.0"/>
<circle cx="11.54" cy="71.80" r="0.26" fill="#1C46FF" fill-opacity="0.5" stroke="none" stroke-width="0.25" stroke-opacity="1.0"/>
<circle cx="18.64" cy="71.40" r="0.26" fill="#1C46FF" fill-opacity="0.6" stroke="none" stroke-width="0.25" stroke-opacity="1.0"/>
<circle cx="15.24" cy="92.00" r="3.65" fill="#b4b5ba" fill-opacity="0.9" stroke="#2b2733" stroke-width="0.2" stroke-opacity="0.5"/>
<circle cx="15.24" cy="104.00" r="3.65" fill="#b4b5ba" fill-opacity="0.9" stroke="#2b2733" stroke-width="0.2" stroke-opacity="0.5"/>
<circle cx="15.24" cy="104.00" r="3.85" fill="none" fill-opacity="1.0" stroke="#0E93A6" stroke-width="0.22" stroke-opacity="0.4"/>
<circle cx="15.24" cy="117.00" r="3.65" fill="#b4b5ba" fill-opacity="0.9" stroke="#2b2733" stroke-width="0.2" stroke-opacity="0.5"/>
<circle cx="15.24" cy="117.00" r="3.90" fill="none" fill-opacity="1.0" stroke="#E8500A" stroke-width="0.28" stroke-opacity="0.55"/>
<path d="M 13.462 27.662 Q 13.462 27.799 13.408 27.902 Q 13.354 28.005 13.261 28.075 Q 13.168 28.145 13.053 28.184 L 13.573 29.000 H 13.142 L 12.693 28.243 H 12.520 V 29.000 H 12.145 V 27.100 H 12.704 Q 13.079 27.100 13.271 27.239 Q 13.462 27.378 13.462 27.662 Z M 13.072 27.662 Q 13.072 27.508 12.983 27.440 Q 12.893 27.372 12.713 27.372 H 12.520 V 27.977 H 12.726 Q 12.892 27.977 12.982 27.902 Q 13.072 27.828 13.072 27.662 Z M 14.255 27.378 V 27.898 H 14.928 V 28.172 H 14.255 V 28.724 H 15.072 V 29.000 H 13.878 V 27.100 H 15.063 L 15.024 27.378 Z M 16.770 28.455 Q 16.770 28.628 16.682 28.760 Q 16.593 28.891 16.427 28.966 Q 16.261 29.041 16.024 29.041 Q 15.777 29.041 15.600 28.968 Q 15.423 28.894 15.303 28.779 L 15.501 28.558 Q 15.604 28.650 15.732 28.702 Q 15.860 28.754 16.019 28.754 Q 16.121 28.754 16.202 28.722 Q 16.284 28.691 16.332 28.630 Q 16.379 28.569 16.379 28.479 Q 16.379 28.401 16.346 28.347 Q 16.313 28.294 16.233 28.251 Q 16.152 28.209 16.009 28.166 Q 15.799 28.102 15.663 28.024 Q 15.527 27.946 15.461 27.840 Q 15.395 27.733 15.395 27.588 Q 15.395 27.424 15.486 27.305 Q 15.577 27.187 15.731 27.123 Q 15.886 27.059 16.077 27.059 Q 16.288 27.059 16.449 27.120 Q 16.610 27.181 16.732 27.294 L 16.544 27.507 Q 16.446 27.423 16.333 27.383 Q 16.220 27.343 16.103 27.343 Q 16.011 27.343 15.939 27.368 Q 15.866 27.393 15.825 27.441 Q 15.784 27.489 15.784 27.563 Q 15.784 27.630 15.822 27.678 Q 15.860 27.725 15.952 27.766 Q 16.044 27.806 16.204 27.857 Q 16.373 27.908 16.500 27.979 Q 16.628 28.051 16.699 28.164 Q 16.770 28.277 16.770 28.455 Z M 18.452 28.049 Q 18.452 28.346 18.369 28.569 Q 18.286 28.793 18.121 28.917 Q 17.956 29.041 17.713 29.041 Q 17.471 29.041 17.306 28.920 Q 17.140 28.798 17.057 28.576 Q 16.974 28.354 16.974 28.051 Q 16.974 27.754 17.057 27.531 Q 17.140 27.307 17.306 27.183 Q 17.471 27.059 17.713 27.059 Q 17.956 27.059 18.121 27.180 Q 18.286 27.301 18.369 27.523 Q 18.452 27.746 18.452 28.049 Z M 18.065 28.049 Q 18.065 27.689 17.983 27.516 Q 17.901 27.342 17.713 27.342 Q 17.525 27.342 17.443 27.516 Q 17.361 27.691 17.361 28.051 Q 17.361 28.412 17.445 28.584 Q 17.529 28.757 17.713 28.757 Q 17.904 28.757 17.984 28.582 Q 18.065 28.408 18.065 28.049 Z" fill="#17141c" fill-rule="nonzero"/>
<path d="M 12.283 31.241 Q 12.283 31.030 12.244 30.899 Q 12.205 30.768 12.138 30.699 Q 12.070 30.630 11.985 30.605 Q 11.900 30.580 11.808 30.580 H 11.668 V 31.921 H 11.809 Q 11.906 31.921 11.991 31.891 Q 12.077 31.861 12.143 31.786 Q 12.209 31.711 12.246 31.578 Q 12.283 31.446 12.283 31.241 Z M 12.676 31.241 Q 12.676 31.475 12.626 31.641 Q 12.576 31.807 12.488 31.916 Q 12.400 32.026 12.285 32.087 Q 12.171 32.149 12.041 32.175 Q 11.911 32.200 11.778 32.200 H 11.292 V 30.300 H 11.745 Q 11.922 30.300 12.088 30.338 Q 12.255 30.376 12.387 30.476 Q 12.520 30.576 12.598 30.761 Q 12.676 30.946 12.676 31.241 Z M 14.287 30.862 Q 14.287 30.999 14.232 31.102 Q 14.178 31.205 14.085 31.275 Q 13.993 31.345 13.877 31.384 L 14.398 32.200 H 13.966 L 13.517 31.443 H 13.344 V 32.200 H 12.969 V 30.300 H 13.528 Q 13.903 30.300 14.095 30.439 Q 14.287 30.578 14.287 30.862 Z M 13.896 30.862 Q 13.896 30.708 13.807 30.640 Q 13.718 30.572 13.538 30.572 H 13.344 V 31.177 H 13.550 Q 13.716 31.177 13.806 31.102 Q 13.896 31.028 13.896 30.862 Z M 15.831 30.300 V 30.582 H 15.428 V 31.918 H 15.831 V 32.200 H 14.649 V 31.918 H 15.052 V 30.582 H 14.649 V 30.300 Z M 16.895 31.877 17.308 30.300 H 17.692 L 17.113 32.200 H 16.665 L 16.088 30.300 H 16.487 Z M 18.377 30.578 V 31.098 H 19.050 V 31.372 H 18.377 V 31.924 H 19.194 V 32.200 H 18.000 V 30.300 H 19.184 L 19.146 30.578 Z" fill="#17141c" fill-rule="nonzero"/>
<path d="M 15.043 85.850 V 86.087 H 14.704 V 87.213 H 15.043 V 87.450 H 14.048 V 87.213 H 14.387 V 86.087 H 14.048 V 85.850 Z M 16.085 87.450 15.614 86.121 Q 15.619 86.165 15.628 86.234 Q 15.636 86.304 15.643 86.391 Q 15.651 86.479 15.656 86.578 Q 15.661 86.676 15.661 86.777 V 87.450 H 15.386 V 85.850 H 15.788 L 16.255 87.177 Q 16.245 87.118 16.234 87.021 Q 16.223 86.924 16.215 86.798 Q 16.207 86.671 16.207 86.529 V 85.850 H 16.483 V 87.450 Z" fill="#17141c" fill-rule="nonzero"/>
<path d="M 14.680 97.815 Q 14.847 97.815 14.962 97.859 Q 15.078 97.902 15.176 97.983 L 15.016 98.174 Q 14.947 98.116 14.866 98.086 Q 14.784 98.056 14.692 98.056 Q 14.581 98.056 14.487 98.115 Q 14.394 98.174 14.338 98.304 Q 14.282 98.434 14.282 98.647 Q 14.282 98.857 14.336 98.986 Q 14.390 99.116 14.483 99.175 Q 14.576 99.235 14.694 99.235 Q 14.819 99.235 14.901 99.191 Q 14.983 99.147 15.049 99.095 L 15.198 99.283 Q 15.114 99.367 14.987 99.426 Q 14.861 99.485 14.680 99.485 Q 14.471 99.485 14.306 99.389 Q 14.142 99.293 14.048 99.106 Q 13.955 98.920 13.955 98.647 Q 13.955 98.379 14.051 98.193 Q 14.148 98.007 14.313 97.911 Q 14.478 97.815 14.680 97.815 Z M 15.940 99.178 16.287 97.850 H 16.611 L 16.123 99.450 H 15.746 L 15.260 97.850 H 15.596 Z" fill="#0E93A6" fill-rule="nonzero"/>
<path d="M 14.474 111.649 Q 14.474 111.899 14.404 112.087 Q 14.334 112.275 14.195 112.380 Q 14.056 112.485 13.852 112.485 Q 13.648 112.485 13.509 112.382 Q 13.369 112.280 13.299 112.093 Q 13.229 111.906 13.229 111.651 Q 13.229 111.401 13.299 111.213 Q 13.369 111.025 13.509 110.920 Q 13.648 110.815 13.852 110.815 Q 14.056 110.815 14.195 110.917 Q 14.334 111.019 14.404 111.206 Q 14.474 111.394 14.474 111.649 Z M 14.148 111.649 Q 14.148 111.346 14.079 111.200 Q 14.010 111.054 13.852 111.054 Q 13.693 111.054 13.624 111.201 Q 13.555 111.347 13.555 111.651 Q 13.555 111.955 13.626 112.100 Q 13.697 112.245 13.852 112.245 Q 14.012 112.245 14.080 112.098 Q 14.148 111.951 14.148 111.649 Z M 15.813 110.850 V 111.920 Q 15.813 112.083 15.746 112.211 Q 15.680 112.339 15.552 112.412 Q 15.425 112.485 15.239 112.485 Q 15.051 112.485 14.924 112.414 Q 14.797 112.342 14.732 112.215 Q 14.667 112.088 14.667 111.920 V 110.850 H 14.984 V 111.831 Q 14.984 112.036 15.040 112.138 Q 15.095 112.241 15.239 112.241 Q 15.383 112.241 15.439 112.138 Q 15.495 112.036 15.495 111.831 V 110.850 Z M 16.783 111.099 V 112.450 H 16.467 V 111.099 H 16.000 V 110.850 H 17.265 L 17.232 111.099 Z" fill="#E8500A" fill-rule="nonzero"/>
<path d="M 13.711 48.900 13.801 50.500 H 13.518 L 13.488 49.763 Q 13.485 49.670 13.484 49.591 Q 13.484 49.512 13.485 49.441 Q 13.486 49.370 13.489 49.304 Q 13.492 49.238 13.496 49.174 L 13.285 50.222 H 13.028 L 12.801 49.174 Q 12.806 49.236 12.809 49.303 Q 12.813 49.370 12.814 49.443 Q 12.816 49.515 12.817 49.596 Q 12.817 49.677 12.814 49.765 L 12.792 50.500 H 12.514 L 12.605 48.900 H 12.956 L 13.162 49.956 L 13.359 48.900 Z M 15.168 49.699 Q 15.168 49.949 15.098 50.137 Q 15.028 50.325 14.889 50.430 Q 14.751 50.535 14.546 50.535 Q 14.342 50.535 14.203 50.432 Q 14.063 50.330 13.993 50.143 Q 13.923 49.956 13.923 49.701 Q 13.923 49.451 13.993 49.263 Q 14.063 49.075 14.203 48.970 Q 14.342 48.865 14.546 48.865 Q 14.751 48.865 14.889 48.967 Q 15.028 49.069 15.098 49.256 Q 15.168 49.444 15.168 49.699 Z M 14.842 49.699 Q 14.842 49.396 14.773 49.250 Q 14.704 49.104 14.546 49.104 Q 14.387 49.104 14.318 49.251 Q 14.250 49.397 14.250 49.701 Q 14.250 50.005 14.320 50.150 Q 14.391 50.295 14.546 50.295 Q 14.707 50.295 14.774 50.148 Q 14.842 50.001 14.842 49.699 Z M 16.221 49.692 Q 16.221 49.514 16.188 49.404 Q 16.155 49.295 16.098 49.236 Q 16.042 49.178 15.970 49.157 Q 15.898 49.136 15.821 49.136 H 15.703 V 50.265 H 15.822 Q 15.903 50.265 15.975 50.240 Q 16.048 50.214 16.103 50.151 Q 16.159 50.088 16.190 49.977 Q 16.221 49.865 16.221 49.692 Z M 16.552 49.692 Q 16.552 49.889 16.510 50.029 Q 16.467 50.169 16.393 50.261 Q 16.319 50.353 16.223 50.405 Q 16.126 50.457 16.017 50.479 Q 15.908 50.500 15.795 50.500 H 15.386 V 48.900 H 15.768 Q 15.917 48.900 16.057 48.932 Q 16.197 48.964 16.308 49.048 Q 16.420 49.133 16.486 49.288 Q 16.552 49.444 16.552 49.692 Z M 17.187 49.134 V 49.572 H 17.754 V 49.802 H 17.187 V 50.267 H 17.875 V 50.500 H 16.870 V 48.900 H 17.867 L 17.835 49.134 Z" fill="#6c6d72" fill-rule="nonzero"/>
<path d="M 15.168 63.699 Q 15.168 63.949 15.098 64.137 Q 15.028 64.325 14.889 64.430 Q 14.751 64.535 14.546 64.535 Q 14.342 64.535 14.203 64.432 Q 14.063 64.330 13.993 64.143 Q 13.923 63.956 13.923 63.701 Q 13.923 63.451 13.993 63.263 Q 14.063 63.075 14.203 62.970 Q 14.342 62.865 14.546 62.865 Q 14.751 62.865 14.889 62.967 Q 15.028 63.069 15.098 63.256 Q 15.168 63.444 15.168 63.699 Z M 14.842 63.699 Q 14.842 63.396 14.773 63.250 Q 14.704 63.104 14.546 63.104 Q 14.387 63.104 14.318 63.251 Q 14.250 63.397 14.250 63.701 Q 14.250 64.005 14.320 64.150 Q 14.391 64.295 14.546 64.295 Q 14.707 64.295 14.774 64.148 Q 14.842 64.001 14.842 63.699 Z M 16.529 64.041 Q 16.529 64.186 16.454 64.298 Q 16.380 64.409 16.240 64.472 Q 16.100 64.535 15.901 64.535 Q 15.692 64.535 15.543 64.473 Q 15.394 64.411 15.293 64.314 L 15.460 64.127 Q 15.547 64.205 15.654 64.249 Q 15.762 64.293 15.896 64.293 Q 15.982 64.293 16.050 64.266 Q 16.119 64.240 16.159 64.188 Q 16.199 64.137 16.199 64.062 Q 16.199 63.996 16.171 63.950 Q 16.144 63.905 16.076 63.869 Q 16.008 63.834 15.888 63.798 Q 15.711 63.743 15.596 63.678 Q 15.482 63.613 15.426 63.523 Q 15.371 63.433 15.371 63.311 Q 15.371 63.173 15.447 63.073 Q 15.523 62.973 15.654 62.919 Q 15.784 62.865 15.945 62.865 Q 16.123 62.865 16.258 62.917 Q 16.393 62.968 16.496 63.063 L 16.338 63.242 Q 16.256 63.172 16.160 63.138 Q 16.065 63.105 15.967 63.105 Q 15.889 63.105 15.828 63.126 Q 15.768 63.146 15.733 63.187 Q 15.698 63.227 15.698 63.290 Q 15.698 63.347 15.730 63.386 Q 15.762 63.426 15.839 63.461 Q 15.917 63.495 16.052 63.537 Q 16.194 63.580 16.301 63.640 Q 16.408 63.701 16.469 63.796 Q 16.529 63.891 16.529 64.041 Z" fill="#6c6d72" fill-rule="nonzero"/>
<line x1="5.00" y1="122.30" x2="25.48" y2="122.30" stroke="#2b2733" stroke-width="0.25" stroke-opacity="0.34" stroke-linecap="round"/>
<circle cx="10.09" cy="123.95" r="0.80" fill="#E8500A" fill-opacity="0.95" stroke="none" stroke-width="0.25" stroke-opacity="1.0"/>
<path d="M 12.394 124.532 Q 12.209 124.532 12.068 124.466 Q 11.926 124.399 11.846 124.276 Q 11.766 124.153 11.766 123.979 V 123.915 H 12.063 V 123.979 Q 12.063 124.123 12.152 124.195 Q 12.241 124.267 12.394 124.267 Q 12.550 124.267 12.626 124.205 Q 12.703 124.143 12.703 124.047 Q 12.703 123.981 12.665 123.940 Q 12.628 123.899 12.556 123.873 Q 12.484 123.846 12.381 123.823 L 12.328 123.812 Q 12.164 123.775 12.046 123.719 Q 11.928 123.663 11.865 123.572 Q 11.802 123.481 11.802 123.334 Q 11.802 123.188 11.872 123.084 Q 11.942 122.980 12.069 122.924 Q 12.196 122.868 12.367 122.868 Q 12.538 122.868 12.672 122.926 Q 12.806 122.985 12.882 123.100 Q 12.959 123.215 12.959 123.389 V 123.458 H 12.662 V 123.389 Q 12.662 123.298 12.626 123.242 Q 12.591 123.186 12.525 123.159 Q 12.458 123.133 12.367 123.133 Q 12.230 123.133 12.165 123.185 Q 12.100 123.236 12.100 123.325 Q 12.100 123.385 12.130 123.426 Q 12.161 123.467 12.223 123.494 Q 12.285 123.522 12.381 123.542 L 12.433 123.554 Q 12.605 123.590 12.732 123.647 Q 12.858 123.705 12.929 123.798 Q 13.000 123.892 13.000 124.038 Q 13.000 124.185 12.926 124.295 Q 12.852 124.406 12.716 124.469 Q 12.580 124.532 12.394 124.532 Z M 13.114 124.500 13.535 122.900 H 14.061 L 14.481 124.500 H 14.170 L 14.083 124.148 H 13.512 L 13.425 124.500 Z M 13.583 123.869 H 14.013 L 13.818 123.090 H 13.777 Z M 14.673 124.500 V 122.900 H 15.233 L 15.510 124.294 H 15.551 L 15.827 122.900 H 16.387 V 124.500 H 16.095 V 123.122 H 16.054 L 15.779 124.500 H 15.281 L 15.007 123.122 H 14.966 V 124.500 Z M 16.694 124.047 V 123.787 H 17.370 V 124.047 Z M 17.677 124.500 V 122.900 H 18.705 V 123.174 H 17.978 V 123.556 H 18.641 V 123.830 H 17.978 V 124.226 H 18.719 V 124.500 Z" fill="#17141c" fill-rule="nonzero"/>
</svg>
