<?xml version="1.0" encoding="UTF-8"?>
<!-- Generated by tools/panelgen (Sam-e system v0.4). Edit the spec, not this file. -->
<svg xmlns="http://www.w3.org/2000/svg" version="1.1" width="30.48mm" height="128.5mm" viewBox="0 0 30.48 128.5">
<defs><linearGradient id="bg" x1="0" y1="0" x2="0" y2="128.5" gradientUnits="userSpaceOnUse"><stop offset="0" stop-color="#100b12"/><stop offset="0.5" stop-color="#0b070b"/><stop offset="1" stop-color="#08060a"/></linearGradient></defs>
<rect x="0" y="0" width="30.48" height="128.5" fill="url(#bg)"/>
<line x1="4.24" y1="15.50" x2="6.64" y2="15.50" stroke="#F5F5F1" stroke-width="0.22" stroke-opacity="0.3" stroke-linecap="round"/><line x1="4.24" y1="15.50" x2="4.24" y2="17.90" stroke="#F5F5F1" stroke-width="0.22" stroke-opacity="0.3" stroke-linecap="round"/><line x1="26.24" y1="15.50" x2="23.84" y2="15.50" stroke="#F5F5F1" stroke-width="0.22" stroke-opacity="0.3" stroke-linecap="round"/><line x1="26.24" y1="15.50" x2="26.24" y2="17.90" stroke="#F5F5F1" stroke-width="0.22" stroke-opacity="0.3" stroke-linecap="round"/><line x1="4.24" y1="121.00" x2="6.64" y2="121.00" stroke="#F5F5F1" stroke-width="0.22" stroke-opacity="0.3" stroke-linecap="round"/><line x1="4.24" y1="121.00" x2="4.24" y2="118.60" stroke="#F5F5F1" stroke-width="0.22" stroke-opacity="0.3" stroke-linecap="round"/><line x1="26.24" y1="121.00" x2="23.84" y2="121.00" stroke="#F5F5F1" stroke-width="0.22" stroke-opacity="0.3" stroke-linecap="round"/><line x1="26.24" y1="121.00" x2="26.24" y2="118.60" stroke="#F5F5F1" stroke-width="0.22" stroke-opacity="0.3" stroke-linecap="round"/>
<path d="M 5.839 5.438 Q 5.619 5.438 5.451 5.359 Q 5.282 5.281 5.187 5.134 Q 5.092 4.987 5.092 4.781 V 4.705 H 5.445 V 4.781 Q 5.445 4.952 5.551 5.038 Q 5.657 5.123 5.839 5.123 Q 6.023 5.123 6.114 5.050 Q 6.205 4.977 6.205 4.863 Q 6.205 4.784 6.160 4.735 Q 6.116 4.686 6.030 4.655 Q 5.945 4.624 5.822 4.597 L 5.760 4.583 Q 5.565 4.540 5.425 4.473 Q 5.285 4.407 5.210 4.298 Q 5.136 4.189 5.136 4.016 Q 5.136 3.842 5.218 3.719 Q 5.301 3.595 5.452 3.529 Q 5.603 3.462 5.806 3.462 Q 6.010 3.462 6.168 3.531 Q 6.327 3.600 6.418 3.738 Q 6.509 3.875 6.509 4.081 V 4.162 H 6.156 V 4.081 Q 6.156 3.972 6.114 3.906 Q 6.072 3.839 5.993 3.808 Q 5.915 3.777 5.806 3.777 Q 5.643 3.777 5.566 3.838 Q 5.489 3.899 5.489 4.005 Q 5.489 4.075 5.525 4.124 Q 5.562 4.173 5.635 4.206 Q 5.708 4.238 5.822 4.263 L 5.885 4.276 Q 6.088 4.320 6.239 4.388 Q 6.390 4.455 6.474 4.567 Q 6.558 4.678 6.558 4.852 Q 6.558 5.025 6.470 5.157 Q 6.382 5.289 6.220 5.363 Q 6.059 5.438 5.839 5.438 Z M 6.829 4.863 V 4.553 H 7.633 V 4.863 Z" fill="#FF5A00" fill-rule="nonzero"/>
<path d="M 8.542 5.400 V 5.085 H 8.792 V 3.815 H 8.542 V 3.500 H 9.519 Q 9.693 3.500 9.822 3.558 Q 9.951 3.617 10.023 3.724 Q 10.095 3.831 10.095 3.980 V 4.008 Q 10.095 4.138 10.046 4.221 Q 9.997 4.303 9.931 4.348 Q 9.864 4.393 9.804 4.412 V 4.461 Q 9.864 4.477 9.935 4.522 Q 10.005 4.567 10.055 4.651 Q 10.106 4.735 10.106 4.871 V 4.898 Q 10.106 5.055 10.032 5.168 Q 9.959 5.281 9.830 5.340 Q 9.701 5.400 9.530 5.400 Z M 9.150 5.074 H 9.487 Q 9.603 5.074 9.675 5.017 Q 9.747 4.960 9.747 4.854 V 4.827 Q 9.747 4.721 9.677 4.664 Q 9.606 4.607 9.487 4.607 H 9.150 Z M 9.150 4.282 H 9.481 Q 9.593 4.282 9.665 4.225 Q 9.736 4.168 9.736 4.067 V 4.040 Q 9.736 3.937 9.666 3.881 Q 9.595 3.826 9.481 3.826 H 9.150 Z M 10.269 5.400 10.768 3.500 H 11.392 L 11.892 5.400 H 11.523 L 11.419 4.982 H 10.741 L 10.638 5.400 Z M 10.825 4.651 H 11.335 L 11.105 3.725 H 11.056 Z M 12.120 5.400 V 3.500 H 12.801 L 13.178 5.156 H 13.227 V 3.500 H 13.580 V 5.400 H 12.899 L 12.521 3.744 H 12.472 V 5.400 Z M 13.938 5.400 V 3.500 H 14.296 V 4.255 H 14.345 L 14.961 3.500 H 15.420 L 14.628 4.436 L 15.447 5.400 H 14.975 L 14.345 4.629 H 14.296 V 5.400 Z" fill="#ECE7DD" fill-rule="nonzero"/>
<path d="M 5.321 10.600 V 7.200 H 5.962 V 10.017 H 7.516 V 10.600 Z M 7.953 10.600 V 7.200 H 9.352 Q 9.673 7.200 9.918 7.329 Q 10.163 7.457 10.302 7.691 Q 10.440 7.924 10.440 8.244 V 8.312 Q 10.440 8.628 10.297 8.864 Q 10.153 9.099 9.908 9.228 Q 9.663 9.357 9.352 9.357 H 8.594 V 10.600 Z M 8.594 8.774 H 9.289 Q 9.517 8.774 9.658 8.647 Q 9.799 8.521 9.799 8.303 V 8.254 Q 9.799 8.035 9.658 7.909 Q 9.517 7.783 9.289 7.783 H 8.594 Z M 12.062 10.668 Q 11.713 10.668 11.429 10.510 Q 11.144 10.352 10.977 10.049 Q 10.809 9.745 10.809 9.308 V 8.492 Q 10.809 7.836 11.178 7.484 Q 11.548 7.132 12.179 7.132 Q 12.806 7.132 13.148 7.465 Q 13.490 7.797 13.490 8.366 V 8.385 H 12.859 V 8.346 Q 12.859 8.167 12.784 8.021 Q 12.708 7.875 12.558 7.790 Q 12.407 7.705 12.179 7.705 Q 11.839 7.705 11.645 7.914 Q 11.450 8.123 11.450 8.482 V 9.318 Q 11.450 9.672 11.645 9.888 Q 11.839 10.105 12.189 10.105 Q 12.538 10.105 12.699 9.920 Q 12.859 9.735 12.859 9.454 V 9.405 H 12.053 V 8.861 H 13.490 V 10.600 H 12.898 V 10.275 H 12.810 Q 12.776 10.357 12.701 10.449 Q 12.626 10.542 12.475 10.605 Q 12.325 10.668 12.062 10.668 Z" fill="#ECE7DD" fill-rule="nonzero"/>
<path d="M 22.534 3.970 Q 22.623 3.970 22.697 3.992 Q 22.770 4.015 22.829 4.057 L 22.726 4.223 Q 22.684 4.193 22.635 4.179 Q 22.587 4.165 22.537 4.165 Q 22.446 4.165 22.378 4.225 Q 22.309 4.284 22.272 4.396 Q 22.240 4.491 22.233 4.619 Q 22.292 4.549 22.364 4.513 Q 22.450 4.471 22.543 4.471 Q 22.652 4.471 22.741 4.523 Q 22.830 4.575 22.883 4.676 Q 22.936 4.777 22.936 4.926 Q 22.936 5.072 22.876 5.186 Q 22.817 5.300 22.709 5.365 Q 22.601 5.430 22.459 5.430 Q 22.324 5.430 22.228 5.379 Q 22.133 5.328 22.074 5.237 Q 22.014 5.145 21.986 5.022 Q 21.958 4.899 21.958 4.757 Q 21.958 4.522 22.027 4.345 Q 22.096 4.167 22.225 4.068 Q 22.354 3.970 22.534 3.970 Z M 22.235 4.801 Q 22.239 5.009 22.284 5.116 Q 22.334 5.234 22.461 5.234 Q 22.567 5.234 22.617 5.151 Q 22.668 5.068 22.668 4.940 Q 22.668 4.837 22.644 4.777 Q 22.621 4.717 22.580 4.690 Q 22.538 4.663 22.479 4.663 Q 22.401 4.663 22.332 4.709 Q 22.277 4.745 22.235 4.801 Z M 23.860 5.400 V 4.785 H 23.455 V 5.400 H 23.178 V 4.000 H 23.455 V 4.557 H 23.860 V 4.000 H 24.138 V 5.400 Z M 25.131 4.448 Q 25.131 4.361 25.098 4.307 Q 25.065 4.253 25.002 4.228 Q 24.939 4.202 24.851 4.202 H 24.707 V 4.710 H 24.859 Q 24.942 4.710 25.003 4.684 Q 25.063 4.658 25.097 4.600 Q 25.131 4.543 25.131 4.448 Z M 25.418 4.446 Q 25.418 4.609 25.349 4.713 Q 25.280 4.817 25.155 4.866 Q 25.031 4.915 24.868 4.915 H 24.707 V 5.400 H 24.429 V 4.000 H 24.841 Q 25.114 4.000 25.266 4.110 Q 25.418 4.221 25.418 4.446 Z" fill="#A6A6A6" fill-rule="nonzero"/>
<path d="M 20.887 10.227 Q 20.887 10.345 20.826 10.436 Q 20.766 10.526 20.652 10.577 Q 20.538 10.628 20.377 10.628 Q 20.207 10.628 20.086 10.578 Q 19.965 10.528 19.883 10.449 L 20.019 10.297 Q 20.089 10.360 20.176 10.396 Q 20.264 10.432 20.373 10.432 Q 20.442 10.432 20.498 10.410 Q 20.554 10.389 20.587 10.347 Q 20.619 10.305 20.619 10.244 Q 20.619 10.190 20.597 10.154 Q 20.574 10.117 20.519 10.088 Q 20.464 10.059 20.366 10.029 Q 20.223 9.985 20.129 9.932 Q 20.036 9.879 19.991 9.806 Q 19.946 9.733 19.946 9.634 Q 19.946 9.522 20.008 9.441 Q 20.070 9.359 20.176 9.316 Q 20.282 9.272 20.412 9.272 Q 20.557 9.272 20.667 9.314 Q 20.777 9.355 20.861 9.433 L 20.732 9.578 Q 20.665 9.521 20.588 9.494 Q 20.510 9.466 20.430 9.466 Q 20.367 9.466 20.318 9.483 Q 20.269 9.500 20.240 9.533 Q 20.212 9.566 20.212 9.617 Q 20.212 9.663 20.238 9.695 Q 20.264 9.728 20.327 9.755 Q 20.390 9.783 20.500 9.818 Q 20.615 9.853 20.702 9.902 Q 20.789 9.950 20.838 10.028 Q 20.887 10.106 20.887 10.227 Z M 21.135 10.110 V 9.913 H 21.929 V 10.110 Z M 22.660 9.272 Q 22.885 9.272 22.999 9.449 Q 23.114 9.626 23.114 9.948 Q 23.114 10.270 22.999 10.449 Q 22.885 10.628 22.660 10.628 Q 22.434 10.628 22.320 10.449 Q 22.206 10.270 22.206 9.948 Q 22.206 9.626 22.320 9.449 Q 22.434 9.272 22.660 9.272 Z M 22.660 9.456 Q 22.554 9.456 22.500 9.569 Q 22.446 9.683 22.446 9.948 Q 22.446 10.094 22.457 10.190 Q 22.460 10.216 22.464 10.238 L 22.809 9.526 Q 22.799 9.511 22.787 9.498 Q 22.740 9.456 22.660 9.456 Z M 22.526 10.393 Q 22.541 10.410 22.559 10.420 Q 22.600 10.444 22.660 10.444 Q 22.731 10.444 22.779 10.396 Q 22.826 10.347 22.850 10.238 Q 22.873 10.128 22.873 9.948 Q 22.873 9.801 22.861 9.704 Z M 23.788 9.272 Q 24.013 9.272 24.127 9.449 Q 24.242 9.626 24.242 9.948 Q 24.242 10.270 24.127 10.449 Q 24.013 10.628 23.788 10.628 Q 23.562 10.628 23.448 10.449 Q 23.334 10.270 23.334 9.948 Q 23.334 9.626 23.448 9.449 Q 23.562 9.272 23.788 9.272 Z M 23.788 9.456 Q 23.682 9.456 23.628 9.569 Q 23.574 9.683 23.574 9.948 Q 23.574 10.094 23.585 10.190 Q 23.588 10.216 23.592 10.238 L 23.937 9.526 Q 23.927 9.511 23.915 9.498 Q 23.868 9.456 23.788 9.456 Z M 23.654 10.393 Q 23.669 10.410 23.687 10.420 Q 23.728 10.444 23.788 10.444 Q 23.859 10.444 23.907 10.396 Q 23.954 10.347 23.978 10.238 Q 24.001 10.128 24.001 9.948 Q 24.001 9.801 23.989 9.704 Z M 25.112 9.300 V 10.409 H 25.365 V 10.600 H 24.554 V 10.409 H 24.869 V 9.550 L 24.592 9.722 L 24.485 9.550 L 24.893 9.300 Z" fill="#A6A6A6" fill-rule="nonzero"/>
<line x1="5.00" y1="12.20" x2="25.48" y2="12.20" stroke="#F5F5F1" stroke-width="0.25" stroke-opacity="0.34" stroke-linecap="round"/>
<line x1="5.00" y1="82.00" x2="25.48" y2="82.00" stroke="#F5F5F1" stroke-width="0.22" stroke-opacity="0.2" stroke-linecap="round"/>
<circle cx="15.24" cy="20.00" r="5.80" fill="#14101a" fill-opacity="0.9" stroke="#F5F5F1" stroke-width="0.2" stroke-opacity="0.16"/>
<path d="M9.37,25.87 A8.30,8.30 0 1 1 21.11,25.87" fill="none" stroke="#F5F5F1" stroke-width="0.16" stroke-opacity="0.14" stroke-linecap="round"/><path d="M10.08,25.16 A7.30,7.30 0 1 1 20.40,25.16" fill="none" stroke="#F5F5F1" stroke-width="0.22" stroke-opacity="0.28" stroke-linecap="round"/><line x1="11.07" y1="24.17" x2="9.99" y2="25.25" stroke="#F5F5F1" stroke-width="0.26" stroke-opacity="0.46" stroke-linecap="round"/><line x1="8.96" y1="22.04" x2="8.18" y2="22.29" stroke="#F5F5F1" stroke-width="0.15" stroke-opacity="0.32" stroke-linecap="round"/><line x1="8.72" y1="18.97" x2="7.91" y2="18.84" stroke="#F5F5F1" stroke-width="0.15" stroke-opacity="0.32" stroke-linecap="round"/><line x1="9.90" y1="16.12" x2="9.24" y2="15.64" stroke="#F5F5F1" stroke-width="0.15" stroke-opacity="0.32" stroke-linecap="round"/><line x1="12.24" y1="14.12" x2="11.87" y2="13.39" stroke="#F5F5F1" stroke-width="0.15" stroke-opacity="0.32" stroke-linecap="round"/><line x1="15.24" y1="14.10" x2="15.24" y2="12.58" stroke="#F5F5F1" stroke-width="0.26" stroke-opacity="0.46" stroke-linecap="round"/><line x1="18.24" y1="14.12" x2="18.61" y2="13.39" stroke="#F5F5F1" stroke-width="0.15" stroke-opacity="0.32" stroke-linecap="round"/><line x1="20.58" y1="16.12" x2="21.24" y2="15.64" stroke="#F5F5F1" stroke-width="0.15" stroke-opacity="0.32" stroke-linecap="round"/><line x1="21.76" y1="18.97" x2="22.57" y2="18.84" stroke="#F5F5F1" stroke-width="0.15" stroke-opacity="0.32" stroke-linecap="round"/><line x1="21.52" y1="22.04" x2="22.30" y2="22.29" stroke="#F5F5F1" stroke-width="0.15" stroke-opacity="0.32" stroke-linecap="round"/><line x1="19.41" y1="24.17" x2="20.49" y2="25.25" stroke="#F5F5F1" stroke-width="0.26" stroke-opacity="0.46" stroke-linecap="round"/><line x1="15.24" y1="14.80" x2="15.24" y2="12.00" stroke="#F5F5F1" stroke-width="0.3" stroke-opacity="0.6000000000000001" stroke-linecap="round"/><circle cx="10.08" cy="25.16" r="0.45" fill="#F5F5F1" fill-opacity="0.53" stroke="none" stroke-width="0.25" stroke-opacity="1.0"/><circle cx="20.40" cy="25.16" r="0.45" fill="#F5F5F1" fill-opacity="0.53" stroke="none" stroke-width="0.25" stroke-opacity="1.0"/>
<circle cx="15.24" cy="40.00" r="5.80" fill="#14101a" fill-opacity="0.9" stroke="#F5F5F1" stroke-width="0.2" stroke-opacity="0.16"/>
<path d="M9.37,45.87 A8.30,8.30 0 1 1 21.11,45.87" fill="none" stroke="#F5F5F1" stroke-width="0.16" stroke-opacity="0.14" stroke-linecap="round"/><path d="M10.08,45.16 A7.30,7.30 0 1 1 20.40,45.16" fill="none" stroke="#F5F5F1" stroke-width="0.22" stroke-opacity="0.28" stroke-linecap="round"/><line x1="11.07" y1="44.17" x2="9.99" y2="45.25" stroke="#F5F5F1" stroke-width="0.26" stroke-opacity="0.46" stroke-linecap="round"/><line x1="8.96" y1="42.04" x2="8.18" y2="42.29" stroke="#F5F5F1" stroke-width="0.15" stroke-opacity="0.32" stroke-linecap="round"/><line x1="8.72" y1="38.97" x2="7.91" y2="38.84" stroke="#F5F5F1" stroke-width="0.15" stroke-opacity="0.32" stroke-linecap="round"/><line x1="9.90" y1="36.12" x2="9.24" y2="35.64" stroke="#F5F5F1" stroke-width="0.15" stroke-opacity="0.32" stroke-linecap="round"/><line x1="12.24" y1="34.12" x2="11.87" y2="33.39" stroke="#F5F5F1" stroke-width="0.15" stroke-opacity="0.32" stroke-linecap="round"/><line x1="15.24" y1="34.10" x2="15.24" y2="32.58" stroke="#F5F5F1" stroke-width="0.26" stroke-opacity="0.46" stroke-linecap="round"/><line x1="18.24" y1="34.12" x2="18.61" y2="33.39" stroke="#F5F5F1" stroke-width="0.15" stroke-opacity="0.32" stroke-linecap="round"/><line x1="20.58" y1="36.12" x2="21.24" y2="35.64" stroke="#F5F5F1" stroke-width="0.15" stroke-opacity="0.32" stroke-linecap="round"/><line x1="21.76" y1="38.97" x2="22.57" y2="38.84" stroke="#F5F5F1" stroke-width="0.15" stroke-opacity="0.32" stroke-linecap="round"/><line x1="21.52" y1="42.04" x2="22.30" y2="42.29" stroke="#F5F5F1" stroke-width="0.15" stroke-opacity="0.32" stroke-linecap="round"/><line x1="19.41" y1="44.17" x2="20.49" y2="45.25" stroke="#F5F5F1" stroke-width="0.26" stroke-opacity="0.46" stroke-linecap="round"/><line x1="15.24" y1="34.80" x2="15.24" y2="32.00" stroke="#F5F5F1" stroke-width="0.3" stroke-opacity="0.6000000000000001" stroke-linecap="round"/><circle cx="10.08" cy="45.16" r="0.45" fill="#F5F5F1" fill-opacity="0.53" stroke="none" stroke-width="0.25" stroke-opacity="1.0"/><circle cx="20.40" cy="45.16" r="0.45" fill="#F5F5F1" fill-opacity="0.53" stroke="none" stroke-width="0.25" stroke-opacity="1.0"/>
<rect x="13.94" y="54.30" width="2.60" height="5.40" rx="0.80" fill="#14101a" fill-opacity="0.9" stroke="#1C46FF" stroke-width="0.22" stroke-opacity="0.5"/>
<circle cx="12.04" cy="56.00" r="0.26" fill="#1C46FF" fill-opacity="0.7" stroke="none" stroke-width="0.25" stroke-opacity="1.0"/>
<circle cx="11.54" cy="57.80" r="0.26" fill="#1C46FF" fill-opacity="0.5" stroke="none" stroke-width="0.25" stroke-opacity="1.0"/>
<circle cx="18.64" cy="57.40" r="0.26" fill="#1C46FF" fill-opacity="0.6" stroke="none" stroke-width="0.25" stroke-opacity="1.0"/>
<rect x="13.94" y="68.30" width="2.60" height="5.40" rx="0.80" fill="#14101a" fill-opacity="0.9" stroke="#1C46FF" stroke-width="0.22" stroke-opacity="0.5"/>
<circle cx="12.04" cy="70.00" r="0.26" fill="#1C46FF" fill-opacity="0.7" stroke="none" stroke-width="0.25" stroke-opacity="1.0"/>
<circle cx="11.54" cy="71.80" r="0.26" fill="#1C46FF" fill-opacity="0.5" stroke="none" stroke-width="0.25" stroke-opacity="1.0"/>
<circle cx="18.64" cy="71.40" r="0.26" fill="#1C46FF" fill-opacity="0.6" stroke="none" stroke-width="0.25" stroke-opacity="1.0"/>
<circle cx="15.24" cy="92.00" r="3.65" fill="#14101a" fill-opacity="0.9" stroke="#F5F5F1" stroke-width="0.2" stroke-opacity="0.16"/>
<circle cx="15.24" cy="104.00" r="3.65" fill="#14101a" fill-opacity="0.9" stroke="#F5F5F1" stroke-width="0.2" stroke-opacity="0.16"/>
<circle cx="15.24" cy="104.00" r="3.85" fill="none" fill-opacity="1.0" stroke="#19D2E5" stroke-width="0.22" stroke-opacity="0.4"/>
<circle cx="15.24" cy="117.00" r="3.65" fill="#14101a" fill-opacity="0.9" stroke="#F5F5F1" stroke-width="0.2" stroke-opacity="0.16"/>
<circle cx="15.24" cy="117.00" r="3.90" fill="none" fill-opacity="1.0" stroke="#FF5A00" stroke-width="0.28" stroke-opacity="0.55"/>
<path d="M 13.462 27.662 Q 13.462 27.799 13.408 27.902 Q 13.354 28.005 13.261 28.075 Q 13.168 28.145 13.053 28.184 L 13.573 29.000 H 13.142 L 12.693 28.243 H 12.520 V 29.000 H 12.145 V 27.100 H 12.704 Q 13.079 27.100 13.271 27.239 Q 13.462 27.378 13.462 27.662 Z M 13.072 27.662 Q 13.072 27.508 12.983 27.440 Q 12.893 27.372 12.713 27.372 H 12.520 V 27.977 H 12.726 Q 12.892 27.977 12.982 27.902 Q 13.072 27.828 13.072 27.662 Z M 14.255 27.378 V 27.898 H 14.928 V 28.172 H 14.255 V 28.724 H 15.072 V 29.000 H 13.878 V 27.100 H 15.063 L 15.024 27.378 Z M 16.770 28.455 Q 16.770 28.628 16.682 28.760 Q 16.593 28.891 16.427 28.966 Q 16.261 29.041 16.024 29.041 Q 15.777 29.041 15.600 28.968 Q 15.423 28.894 15.303 28.779 L 15.501 28.558 Q 15.604 28.650 15.732 28.702 Q 15.860 28.754 16.019 28.754 Q 16.121 28.754 16.202 28.722 Q 16.284 28.691 16.332 28.630 Q 16.379 28.569 16.379 28.479 Q 16.379 28.401 16.346 28.347 Q 16.313 28.294 16.233 28.251 Q 16.152 28.209 16.009 28.166 Q 15.799 28.102 15.663 28.024 Q 15.527 27.946 15.461 27.840 Q 15.395 27.733 15.395 27.588 Q 15.395 27.424 15.486 27.305 Q 15.577 27.187 15.731 27.123 Q 15.886 27.059 16.077 27.059 Q 16.288 27.059 16.449 27.120 Q 16.610 27.181 16.732 27.294 L 16.544 27.507 Q 16.446 27.423 16.333 27.383 Q 16.220 27.343 16.103 27.343 Q 16.011 27.343 15.939 27.368 Q 15.866 27.393 15.825 27.441 Q 15.784 27.489 15.784 27.563 Q 15.784 27.630 15.822 27.678 Q 15.860 27.725 15.952 27.766 Q 16.044 27.806 16.204 27.857 Q 16.373 27.908 16.500 27.979 Q 16.628 28.051 16.699 28.164 Q 16.770 28.277 16.770 28.455 Z M 18.452 28.049 Q 18.452 28.346 18.369 28.569 Q 18.286 28.793 18.121 28.917 Q 17.956 29.041 17.713 29.041 Q 17.471 29.041 17.306 28.920 Q 17.140 28.798 17.057 28.576 Q 16.974 28.354 16.974 28.051 Q 16.974 27.754 17.057 27.531 Q 17.140 27.307 17.306 27.183 Q 17.471 27.059 17.713 27.059 Q 17.956 27.059 18.121 27.180 Q 18.286 27.301 18.369 27.523 Q 18.452 27.746 18.452 28.049 Z M 18.065 28.049 Q 18.065 27.689 17.983 27.516 Q 17.901 27.342 17.713 27.342 Q 17.525 27.342 17.443 27.516 Q 17.361 27.691 17.361 28.051 Q 17.361 28.412 17.445 28.584 Q 17.529 28.757 17.713 28.757 Q 17.904 28.757 17.984 28.582 Q 18.065 28.408 18.065 28.049 Z" fill="#ECE7DD" fill-rule="nonzero"/>
<path d="M 12.283 31.241 Q 12.283 31.030 12.244 30.899 Q 12.205 30.768 12.138 30.699 Q 12.070 30.630 11.985 30.605 Q 11.900 30.580 11.808 30.580 H 11.668 V 31.921 H 11.809 Q 11.906 31.921 11.991 31.891 Q 12.077 31.861 12.143 31.786 Q 12.209 31.711 12.246 31.578 Q 12.283 31.446 12.283 31.241 Z M 12.676 31.241 Q 12.676 31.475 12.626 31.641 Q 12.576 31.807 12.488 31.916 Q 12.400 32.026 12.285 32.087 Q 12.171 32.149 12.041 32.175 Q 11.911 32.200 11.778 32.200 H 11.292 V 30.300 H 11.745 Q 11.922 30.300 12.088 30.338 Q 12.255 30.376 12.387 30.476 Q 12.520 30.576 12.598 30.761 Q 12.676 30.946 12.676 31.241 Z M 14.287 30.862 Q 14.287 30.999 14.232 31.102 Q 14.178 31.205 14.085 31.275 Q 13.993 31.345 13.877 31.384 L 14.398 32.200 H 13.966 L 13.517 31.443 H 13.344 V 32.200 H 12.969 V 30.300 H 13.528 Q 13.903 30.300 14.095 30.439 Q 14.287 30.578 14.287 30.862 Z M 13.896 30.862 Q 13.896 30.708 13.807 30.640 Q 13.718 30.572 13.538 30.572 H 13.344 V 31.177 H 13.550 Q 13.716 31.177 13.806 31.102 Q 13.896 31.028 13.896 30.862 Z M 15.831 30.300 V 30.582 H 15.428 V 31.918 H 15.831 V 32.200 H 14.649 V 31.918 H 15.052 V 30.582 H 14.649 V 30.300 Z M 16.895 31.877 17.308 30.300 H 17.692 L 17.113 32.200 H 16.665 L 16.088 30.300 H 16.487 Z M 18.377 30.578 V 31.098 H 19.050 V 31.372 H 18.377 V 31.924 H 19.194 V 32.200 H 18.000 V 30.300 H 19.184 L 19.146 30.578 Z" fill="#ECE7DD" fill-rule="nonzero"/>
<path d="M 15.043 85.850 V 86.087 H 14.704 V 87.213 H 15.043 V 87.450 H 14.048 V 87.213 H 14.387 V 86.087 H 14.048 V 85.850 Z M 16.085 87.450 15.614 86.121 Q 15.619 86.165 15.628 86.234 Q 15.636 86.304 15.643 86.391 Q 15.651 86.479 15.656 86.578 Q 15.661 86.676 15.661 86.777 V 87.450 H 15.386 V 85.850 H 15.788 L 16.255 87.177 Q 16.245 87.118 16.234 87.021 Q 16.223 86.924 16.215 86.798 Q 16.207 86.671 16.207 86.529 V 85.850 H 16.483 V 87.450 Z" fill="#ECE7DD" fill-rule="nonzero"/>
<path d="M 14.680 97.815 Q 14.847 97.815 14.962 97.859 Q 15.078 97.902 15.176 97.983 L 15.016 98.174 Q 14.947 98.116 14.866 98.086 Q 14.784 98.056 14.692 98.056 Q 14.581 98.056 14.487 98.115 Q 14.394 98.174 14.338 98.304 Q 14.282 98.434 14.282 98.647 Q 14.282 98.857 14.336 98.986 Q 14.390 99.116 14.483 99.175 Q 14.576 99.235 14.694 99.235 Q 14.819 99.235 14.901 99.191 Q 14.983 99.147 15.049 99.095 L 15.198 99.283 Q 15.114 99.367 14.987 99.426 Q 14.861 99.485 14.680 99.485 Q 14.471 99.485 14.306 99.389 Q 14.142 99.293 14.048 99.106 Q 13.955 98.920 13.955 98.647 Q 13.955 98.379 14.051 98.193 Q 14.148 98.007 14.313 97.911 Q 14.478 97.815 14.680 97.815 Z M 15.940 99.178 16.287 97.850 H 16.611 L 16.123 99.450 H 15.746 L 15.260 97.850 H 15.596 Z" fill="#19D2E5" fill-rule="nonzero"/>
<path d="M 14.474 111.649 Q 14.474 111.899 14.404 112.087 Q 14.334 112.275 14.195 112.380 Q 14.056 112.485 13.852 112.485 Q 13.648 112.485 13.509 112.382 Q 13.369 112.280 13.299 112.093 Q 13.229 111.906 13.229 111.651 Q 13.229 111.401 13.299 111.213 Q 13.369 111.025 13.509 110.920 Q 13.648 110.815 13.852 110.815 Q 14.056 110.815 14.195 110.917 Q 14.334 111.019 14.404 111.206 Q 14.474 111.394 14.474 111.649 Z M 14.148 111.649 Q 14.148 111.346 14.079 111.200 Q 14.010 111.054 13.852 111.054 Q 13.693 111.054 13.624 111.201 Q 13.555 111.347 13.555 111.651 Q 13.555 111.955 13.626 112.100 Q 13.697 112.245 13.852 112.245 Q 14.012 112.245 14.080 112.098 Q 14.148 111.951 14.148 111.649 Z M 15.813 110.850 V 111.920 Q 15.813 112.083 15.746 112.211 Q 15.680 112.339 15.552 112.412 Q 15.425 112.485 15.239 112.485 Q 15.051 112.485 14.924 112.414 Q 14.797 112.342 14.732 112.215 Q 14.667 112.088 14.667 111.920 V 110.850 H 14.984 V 111.831 Q 14.984 112.036 15.040 112.138 Q 15.095 112.241 15.239 112.241 Q 15.383 112.241 15.439 112.138 Q 15.495 112.036 15.495 111.831 V 110.850 Z M 16.783 111.099 V 112.450 H 16.467 V 111.099 H 16.000 V 110.850 H 17.265 L 17.232 111.099 Z" fill="#FF5A00" fill-rule="nonzero"/>
<path d="M 13.711 48.900 13.801 50.500 H 13.518 L 13.488 49.763 Q 13.485 49.670 13.484 49.591 Q 13.484 49.512 13.485 49.441 Q 13.486 49.370 13.489 49.304 Q 13.492 49.238 13.496 49.174 L 13.285 50.222 H 13.028 L 12.801 49.174 Q 12.806 49.236 12.809 49.303 Q 12.813 49.370 12.814 49.443 Q 12.816 49.515 12.817 49.596 Q 12.817 49.677 12.814 49.765 L 12.792 50.500 H 12.514 L 12.605 48.900 H 12.956 L 13.162 49.956 L 13.359 48.900 Z M 15.168 49.699 Q 15.168 49.949 15.098 50.137 Q 15.028 50.325 14.889 50.430 Q 14.751 50.535 14.546 50.535 Q 14.342 50.535 14.203 50.432 Q 14.063 50.330 13.993 50.143 Q 13.923 49.956 13.923 49.701 Q 13.923 49.451 13.993 49.263 Q 14.063 49.075 14.203 48.970 Q 14.342 48.865 14.546 48.865 Q 14.751 48.865 14.889 48.967 Q 15.028 49.069 15.098 49.256 Q 15.168 49.444 15.168 49.699 Z M 14.842 49.699 Q 14.842 49.396 14.773 49.250 Q 14.704 49.104 14.546 49.104 Q 14.387 49.104 14.318 49.251 Q 14.250 49.397 14.250 49.701 Q 14.250 50.005 14.320 50.150 Q 14.391 50.295 14.546 50.295 Q 14.707 50.295 14.774 50.148 Q 14.842 50.001 14.842 49.699 Z M 16.221 49.692 Q 16.221 49.514 16.188 49.404 Q 16.155 49.295 16.098 49.236 Q 16.042 49.178 15.970 49.157 Q 15.898 49.136 15.821 49.136 H 15.703 V 50.265 H 15.822 Q 15.903 50.265 15.975 50.240 Q 16.048 50.214 16.103 50.151 Q 16.159 50.088 16.190 49.977 Q 16.221 49.865 16.221 49.692 Z M 16.552 49.692 Q 16.552 49.889 16.510 50.029 Q 16.467 50.169 16.393 50.261 Q 16.319 50.353 16.223 50.405 Q 16.126 50.457 16.017 50.479 Q 15.908 50.500 15.795 50.500 H 15.386 V 48.900 H 15.768 Q 15.917 48.900 16.057 48.932 Q 16.197 48.964 16.308 49.048 Q 16.420 49.133 16.486 49.288 Q 16.552 49.444 16.552 49.692 Z M 17.187 49.134 V 49.572 H 17.754 V 49.802 H 17.187 V 50.267 H 17.875 V 50.500 H 16.870 V 48.900 H 17.867 L 17.835 49.134 Z" fill="#A6A6A6" fill-rule="nonzero"/>
<path d="M 15.168 63.699 Q 15.168 63.949 15.098 64.137 Q 15.028 64.325 14.889 64.430 Q 14.751 64.535 14.546 64.535 Q 14.342 64.535 14.203 64.432 Q 14.063 64.330 13.993 64.143 Q 13.923 63.956 13.923 63.701 Q 13.923 63.451 13.993 63.263 Q 14.063 63.075 14.203 62.970 Q 14.342 62.865 14.546 62.865 Q 14.751 62.865 14.889 62.967 Q 15.028 63.069 15.098 63.256 Q 15.168 63.444 15.168 63.699 Z M 14.842 63.699 Q 14.842 63.396 14.773 63.250 Q 14.704 63.104 14.546 63.104 Q 14.387 63.104 14.318 63.251 Q 14.250 63.397 14.250 63.701 Q 14.250 64.005 14.320 64.150 Q 14.391 64.295 14.546 64.295 Q 14.707 64.295 14.774 64.148 Q 14.842 64.001 14.842 63.699 Z M 16.529 64.041 Q 16.529 64.186 16.454 64.298 Q 16.380 64.409 16.240 64.472 Q 16.100 64.535 15.901 64.535 Q 15.692 64.535 15.543 64.473 Q 15.394 64.411 15.293 64.314 L 15.460 64.127 Q 15.547 64.205 15.654 64.249 Q 15.762 64.293 15.896 64.293 Q 15.982 64.293 16.050 64.266 Q 16.119 64.240 16.159 64.188 Q 16.199 64.137 16.199 64.062 Q 16.199 63.996 16.171 63.950 Q 16.144 63.905 16.076 63.869 Q 16.008 63.834 15.888 63.798 Q 15.711 63.743 15.596 63.678 Q 15.482 63.613 15.426 63.523 Q 15.371 63.433 15.371 63.311 Q 15.371 63.173 15.447 63.073 Q 15.523 62.973 15.654 62.919 Q 15.784 62.865 15.945 62.865 Q 16.123 62.865 16.258 62.917 Q 16.393 62.968 16.496 63.063 L 16.338 63.242 Q 16.256 63.172 16.160 63.138 Q 16.065 63.105 15.967 63.105 Q 15.889 63.105 15.828 63.126 Q 15.768 63.146 15.733 63.187 Q 15.698 63.227 15.698 63.290 Q 15.698 63.347 15.730 63.386 Q 15.762 63.426 15.839 63.461 Q 15.917 63.495 16.052 63.537 Q 16.194 63.580 16.301 63.640 Q 16.408 63.701 16.469 63.796 Q 16.529 63.891 16.529 64.041 Z" fill="#A6A6A6" fill-rule="nonzero"/>
<line x1="5.00" y1="122.30" x2="25.48" y2="122.30" stroke="#F5F5F1" stroke-width="0.25" stroke-opacity="0.34" stroke-linecap="round"/>
<circle cx="10.09" cy="123.95" r="0.80" fill="#FF5A00" fill-opacity="0.95" stroke="none" stroke-width="0.25" stroke-opacity="1.0"/>
<path d="M 12.394 124.532 Q 12.209 124.532 12.068 124.466 Q 11.926 124.399 11.846 124.276 Q 11.766 124.153 11.766 123.979 V 123.915 H 12.063 V 123.979 Q 12.063 124.123 12.152 124.195 Q 12.241 124.267 12.394 124.267 Q 12.550 124.267 12.626 124.205 Q 12.703 124.143 12.703 124.047 Q 12.703 123.981 12.665 123.940 Q 12.628 123.899 12.556 123.873 Q 12.484 123.846 12.381 123.823 L 12.328 123.812 Q 12.164 123.775 12.046 123.719 Q 11.928 123.663 11.865 123.572 Q 11.802 123.481 11.802 123.334 Q 11.802 123.188 11.872 123.084 Q 11.942 122.980 12.069 122.924 Q 12.196 122.868 12.367 122.868 Q 12.538 122.868 12.672 122.926 Q 12.806 122.985 12.882 123.100 Q 12.959 123.215 12.959 123.389 V 123.458 H 12.662 V 123.389 Q 12.662 123.298 12.626 123.242 Q 12.591 123.186 12.525 123.159 Q 12.458 123.133 12.367 123.133 Q 12.230 123.133 12.165 123.185 Q 12.100 123.236 12.100 123.325 Q 12.100 123.385 12.130 123.426 Q 12.161 123.467 12.223 123.494 Q 12.285 123.522 12.381 123.542 L 12.433 123.554 Q 12.605 123.590 12.732 123.647 Q 12.858 123.705 12.929 123.798 Q 13.000 123.892 13.000 124.038 Q 13.000 124.185 12.926 124.295 Q 12.852 124.406 12.716 124.469 Q 12.580 124.532 12.394 124.532 Z M 13.114 124.500 13.535 122.900 H 14.061 L 14.481 124.500 H 14.170 L 14.083 124.148 H 13.512 L 13.425 124.500 Z M 13.583 123.869 H 14.013 L 13.818 123.090 H 13.777 Z M 14.673 124.500 V 122.900 H 15.233 L 15.510 124.294 H 15.551 L 15.827 122.900 H 16.387 V 124.500 H 16.095 V 123.122 H 16.054 L 15.779 124.500 H 15.281 L 15.007 123.122 H 14.966 V 124.500 Z M 16.694 124.047 V 123.787 H 17.370 V 124.047 Z M 17.677 124.500 V 122.900 H 18.705 V 123.174 H 17.978 V 123.556 H 18.641 V 123.830 H 17.978 V 124.226 H 18.719 V 124.500 Z" fill="#ECE7DD" fill-rule="nonzero"/>
</svg>
