<?xml version="1.0" encoding="UTF-8"?>
<!-- Generated by tools/panelgen from the Sam-e panel system. Do not edit by hand; edit the spec and regenerate. -->
<svg xmlns="http://www.w3.org/2000/svg" version="1.1" width="30.48mm" height="128.5mm" viewBox="0 0 30.48 128.5">
<defs><linearGradient id="bg" x1="0" y1="0" x2="0" y2="128.5" gradientUnits="userSpaceOnUse"><stop offset="0" stop-color="#211d3a"/><stop offset="1" stop-color="#15131f"/></linearGradient><style>text{font-family:Fira Code, 'IBM Plex Mono', monospace;fill:#c8c2f0;}.disp{font-family:Space Grotesk, Helvetica, Arial, sans-serif;}.lbl{font-size:1.9px;letter-spacing:.1px;}.sm{font-size:1.6px;fill:#9b93d6;letter-spacing:.08px;}.tag{font-size:2.4px;letter-spacing:.14px;}</style></defs>
<rect x="0" y="0" width="30.48" height="128.5" fill="url(#bg)"/>
<rect x="0.4" y="0.4" width="29.68" height="127.7" fill="none" stroke="#3a3560" stroke-width="0.3" rx="1.2"/>
<path d="M2.60,4.0 h2.8 M4.00,2.6 v2.8" stroke="#3a3560" stroke-width="0.25"/>
<path d="M25.08,4.0 h2.8 M26.48,2.6 v2.8" stroke="#3a3560" stroke-width="0.25"/>
<text x="7" y="7" class="disp tag" font-weight="700" fill="#e8e4ff">S<tspan fill="#FF5A00">-</tspan>BANK</text>
<text x="23.48" y="7" class="disp tag" font-weight="700" text-anchor="end" fill="#e8e4ff">LPG</text>
<line x1="7" y1="9" x2="23.48" y2="9" stroke="#3a3560" stroke-width="0.25"/>
<text x="7" y="125.5" class="sm">SER 001</text>
<circle cx="22.48" cy="125.0" r="0.9" fill="#FF5A00"/>
<text x="23.98" y="125.5" class="sm">SIGNAL STABLE</text>
<text x="15.24" y="125.5" class="disp sm" text-anchor="middle" font-weight="600">SAM-e</text>
<line x1="7" y1="82.0" x2="23.48" y2="82.0" stroke="#2c2748" stroke-width="0.25"/>
<text x="15.24" y="51.50" class="sm" text-anchor="middle">MODE</text>
<text x="15.24" y="65.50" class="sm" text-anchor="middle">OS</text>
<text x="15.24" y="12.00" class="lbl" text-anchor="middle">RESO</text>
<text x="15.24" y="32.00" class="lbl" text-anchor="middle">DRIVE</text>
<text x="15.24" y="85.50" class="sm" text-anchor="middle">IN</text>
<text x="15.24" y="97.50" class="sm" text-anchor="middle">CV</text>
<text x="15.24" y="110.50" class="sm" fill="#FF5A00" text-anchor="middle">OUT</text>
</svg>
