<?xml version="1.0" encoding="UTF-8"?>
<!-- Generated by tools/panelgen (Sam-e system v0.4). Edit the spec, not this file. -->
<svg xmlns="http://www.w3.org/2000/svg" version="1.1" width="30.48mm" height="128.5mm" viewBox="0 0 30.48 128.5">
<defs><linearGradient id="bg" x1="0" y1="0" x2="0" y2="128.5" gradientUnits="userSpaceOnUse"><stop offset="0" stop-color="#e2e3e6"/><stop offset="0.5" stop-color="#d2d3d7"/><stop offset="1" stop-color="#bfc0c5"/></linearGradient></defs>
<rect x="0" y="0" width="30.48" height="128.5" fill="url(#bg)"/>
<line x1="4.24" y1="15.50" x2="6.64" y2="15.50" stroke="#2b2733" stroke-width="0.22" stroke-opacity="0.3" stroke-linecap="round"/><line x1="4.24" y1="15.50" x2="4.24" y2="17.90" stroke="#2b2733" stroke-width="0.22" stroke-opacity="0.3" stroke-linecap="round"/><line x1="26.24" y1="15.50" x2="23.84" y2="15.50" stroke="#2b2733" stroke-width="0.22" stroke-opacity="0.3" stroke-linecap="round"/><line x1="26.24" y1="15.50" x2="26.24" y2="17.90" stroke="#2b2733" stroke-width="0.22" stroke-opacity="0.3" stroke-linecap="round"/><line x1="4.24" y1="121.00" x2="6.64" y2="121.00" stroke="#2b2733" stroke-width="0.22" stroke-opacity="0.3" stroke-linecap="round"/><line x1="4.24" y1="121.00" x2="4.24" y2="118.60" stroke="#2b2733" stroke-width="0.22" stroke-opacity="0.3" stroke-linecap="round"/><line x1="26.24" y1="121.00" x2="23.84" y2="121.00" stroke="#2b2733" stroke-width="0.22" stroke-opacity="0.3" stroke-linecap="round"/><line x1="26.24" y1="121.00" x2="26.24" y2="118.60" stroke="#2b2733" stroke-width="0.22" stroke-opacity="0.3" stroke-linecap="round"/>
<path d="M 12.339 5.438 Q 12.119 5.438 11.951 5.359 Q 11.782 5.281 11.687 5.134 Q 11.592 4.987 11.592 4.781 V 4.705 H 11.945 V 4.781 Q 11.945 4.952 12.051 5.038 Q 12.157 5.123 12.339 5.123 Q 12.523 5.123 12.614 5.050 Q 12.705 4.977 12.705 4.863 Q 12.705 4.784 12.660 4.735 Q 12.616 4.686 12.530 4.655 Q 12.445 4.624 12.322 4.597 L 12.260 4.583 Q 12.065 4.540 11.925 4.473 Q 11.785 4.407 11.710 4.298 Q 11.636 4.189 11.636 4.016 Q 11.636 3.842 11.719 3.719 Q 11.801 3.595 11.952 3.529 Q 12.103 3.462 12.306 3.462 Q 12.510 3.462 12.668 3.531 Q 12.827 3.600 12.918 3.738 Q 13.009 3.875 13.009 4.081 V 4.162 H 12.656 V 4.081 Q 12.656 3.972 12.614 3.906 Q 12.572 3.839 12.493 3.808 Q 12.415 3.777 12.306 3.777 Q 12.143 3.777 12.066 3.838 Q 11.989 3.899 11.989 4.005 Q 11.989 4.075 12.025 4.124 Q 12.062 4.173 12.135 4.206 Q 12.208 4.238 12.322 4.263 L 12.385 4.276 Q 12.588 4.320 12.739 4.388 Q 12.890 4.455 12.974 4.567 Q 13.058 4.678 13.058 4.852 Q 13.058 5.025 12.970 5.157 Q 12.882 5.289 12.720 5.363 Q 12.559 5.438 12.339 5.438 Z M 13.329 4.863 V 4.553 H 14.133 V 4.863 Z" fill="#E8500A" fill-rule="nonzero"/>
<path d="M 15.042 5.400 V 5.085 H 15.292 V 3.815 H 15.042 V 3.500 H 16.019 Q 16.193 3.500 16.322 3.558 Q 16.451 3.617 16.523 3.724 Q 16.595 3.831 16.595 3.980 V 4.008 Q 16.595 4.138 16.546 4.221 Q 16.497 4.303 16.431 4.348 Q 16.364 4.393 16.304 4.412 V 4.461 Q 16.364 4.477 16.435 4.522 Q 16.505 4.567 16.555 4.651 Q 16.606 4.735 16.606 4.871 V 4.898 Q 16.606 5.055 16.532 5.168 Q 16.459 5.281 16.330 5.340 Q 16.201 5.400 16.030 5.400 Z M 15.650 5.074 H 15.987 Q 16.103 5.074 16.175 5.017 Q 16.247 4.960 16.247 4.854 V 4.827 Q 16.247 4.721 16.177 4.664 Q 16.106 4.607 15.987 4.607 H 15.650 Z M 15.650 4.282 H 15.981 Q 16.093 4.282 16.165 4.225 Q 16.236 4.168 16.236 4.067 V 4.040 Q 16.236 3.937 16.166 3.881 Q 16.095 3.826 15.981 3.826 H 15.650 Z M 16.769 5.400 17.268 3.500 H 17.892 L 18.392 5.400 H 18.023 L 17.919 4.982 H 17.241 L 17.138 5.400 Z M 17.325 4.651 H 17.835 L 17.605 3.725 H 17.556 Z M 18.620 5.400 V 3.500 H 19.301 L 19.678 5.156 H 19.727 V 3.500 H 20.080 V 5.400 H 19.399 L 19.021 3.744 H 18.972 V 5.400 Z M 20.438 5.400 V 3.500 H 20.796 V 4.255 H 20.845 L 21.461 3.500 H 21.920 L 21.128 4.436 L 21.947 5.400 H 21.475 L 20.845 4.629 H 20.796 V 5.400 Z" fill="#17141c" fill-rule="nonzero"/>
<path d="M 11.821 10.600 V 7.200 H 12.462 V 10.017 H 14.016 V 10.600 Z M 14.453 10.600 V 7.200 H 15.852 Q 16.173 7.200 16.418 7.329 Q 16.663 7.457 16.802 7.691 Q 16.940 7.924 16.940 8.244 V 8.312 Q 16.940 8.628 16.797 8.864 Q 16.653 9.099 16.408 9.228 Q 16.163 9.357 15.852 9.357 H 15.094 V 10.600 Z M 15.094 8.774 H 15.789 Q 16.017 8.774 16.158 8.647 Q 16.299 8.521 16.299 8.303 V 8.254 Q 16.299 8.035 16.158 7.909 Q 16.017 7.783 15.789 7.783 H 15.094 Z M 18.562 10.668 Q 18.213 10.668 17.929 10.510 Q 17.644 10.352 17.477 10.049 Q 17.309 9.745 17.309 9.308 V 8.492 Q 17.309 7.836 17.678 7.484 Q 18.048 7.132 18.679 7.132 Q 19.306 7.132 19.648 7.465 Q 19.990 7.797 19.990 8.366 V 8.385 H 19.359 V 8.346 Q 19.359 8.167 19.284 8.021 Q 19.208 7.875 19.058 7.790 Q 18.907 7.705 18.679 7.705 Q 18.339 7.705 18.145 7.914 Q 17.950 8.123 17.950 8.482 V 9.318 Q 17.950 9.672 18.145 9.888 Q 18.339 10.105 18.689 10.105 Q 19.038 10.105 19.199 9.920 Q 19.359 9.735 19.359 9.454 V 9.405 H 18.553 V 8.861 H 19.990 V 10.600 H 19.398 V 10.275 H 19.310 Q 19.276 10.357 19.201 10.449 Q 19.126 10.542 18.975 10.605 Q 18.825 10.668 18.562 10.668 Z" fill="#17141c" fill-rule="nonzero"/>
<path d="M 16.034 3.970 Q 16.123 3.970 16.197 3.992 Q 16.270 4.015 16.329 4.057 L 16.226 4.223 Q 16.184 4.193 16.135 4.179 Q 16.087 4.165 16.037 4.165 Q 15.946 4.165 15.878 4.225 Q 15.809 4.284 15.772 4.396 Q 15.740 4.491 15.733 4.619 Q 15.792 4.549 15.864 4.513 Q 15.950 4.471 16.043 4.471 Q 16.152 4.471 16.241 4.523 Q 16.330 4.575 16.383 4.676 Q 16.436 4.777 16.436 4.926 Q 16.436 5.072 16.376 5.186 Q 16.317 5.300 16.209 5.365 Q 16.101 5.430 15.959 5.430 Q 15.824 5.430 15.728 5.379 Q 15.633 5.328 15.574 5.237 Q 15.514 5.145 15.486 5.022 Q 15.458 4.899 15.458 4.757 Q 15.458 4.522 15.527 4.345 Q 15.596 4.167 15.725 4.068 Q 15.854 3.970 16.034 3.970 Z M 15.735 4.801 Q 15.739 5.009 15.784 5.116 Q 15.834 5.234 15.961 5.234 Q 16.067 5.234 16.117 5.151 Q 16.168 5.068 16.168 4.940 Q 16.168 4.837 16.144 4.777 Q 16.121 4.717 16.080 4.690 Q 16.038 4.663 15.979 4.663 Q 15.901 4.663 15.832 4.709 Q 15.777 4.745 15.735 4.801 Z M 17.360 5.400 V 4.785 H 16.955 V 5.400 H 16.678 V 4.000 H 16.955 V 4.557 H 17.360 V 4.000 H 17.638 V 5.400 Z M 18.631 4.448 Q 18.631 4.361 18.598 4.307 Q 18.565 4.253 18.502 4.228 Q 18.439 4.202 18.351 4.202 H 18.207 V 4.710 H 18.359 Q 18.442 4.710 18.503 4.684 Q 18.563 4.658 18.597 4.600 Q 18.631 4.543 18.631 4.448 Z M 18.918 4.446 Q 18.918 4.609 18.849 4.713 Q 18.780 4.817 18.655 4.866 Q 18.531 4.915 18.368 4.915 H 18.207 V 5.400 H 17.929 V 4.000 H 18.341 Q 18.614 4.000 18.766 4.110 Q 18.918 4.221 18.918 4.446 Z" fill="#6c6d72" fill-rule="nonzero"/>
<path d="M 14.387 10.227 Q 14.387 10.345 14.326 10.436 Q 14.266 10.526 14.152 10.577 Q 14.038 10.628 13.877 10.628 Q 13.707 10.628 13.586 10.578 Q 13.465 10.528 13.383 10.449 L 13.519 10.297 Q 13.589 10.360 13.676 10.396 Q 13.764 10.432 13.873 10.432 Q 13.942 10.432 13.998 10.410 Q 14.054 10.389 14.087 10.347 Q 14.119 10.305 14.119 10.244 Q 14.119 10.190 14.097 10.154 Q 14.074 10.117 14.019 10.088 Q 13.964 10.059 13.866 10.029 Q 13.723 9.985 13.629 9.932 Q 13.536 9.879 13.491 9.806 Q 13.446 9.733 13.446 9.634 Q 13.446 9.522 13.508 9.441 Q 13.570 9.359 13.676 9.316 Q 13.782 9.272 13.912 9.272 Q 14.057 9.272 14.167 9.314 Q 14.277 9.355 14.361 9.433 L 14.232 9.578 Q 14.165 9.521 14.088 9.494 Q 14.010 9.466 13.930 9.466 Q 13.867 9.466 13.818 9.483 Q 13.769 9.500 13.740 9.533 Q 13.712 9.566 13.712 9.617 Q 13.712 9.663 13.738 9.695 Q 13.764 9.728 13.827 9.755 Q 13.890 9.783 14.000 9.818 Q 14.115 9.853 14.202 9.902 Q 14.289 9.950 14.338 10.028 Q 14.387 10.106 14.387 10.227 Z M 14.635 10.110 V 9.913 H 15.429 V 10.110 Z M 16.160 9.272 Q 16.385 9.272 16.499 9.449 Q 16.614 9.626 16.614 9.948 Q 16.614 10.270 16.499 10.449 Q 16.385 10.628 16.160 10.628 Q 15.934 10.628 15.820 10.449 Q 15.706 10.270 15.706 9.948 Q 15.706 9.626 15.820 9.449 Q 15.934 9.272 16.160 9.272 Z M 16.160 9.456 Q 16.054 9.456 16.000 9.569 Q 15.946 9.683 15.946 9.948 Q 15.946 10.094 15.957 10.190 Q 15.960 10.216 15.964 10.238 L 16.309 9.526 Q 16.299 9.511 16.287 9.498 Q 16.240 9.456 16.160 9.456 Z M 16.026 10.393 Q 16.041 10.410 16.059 10.420 Q 16.100 10.444 16.160 10.444 Q 16.231 10.444 16.279 10.396 Q 16.326 10.347 16.350 10.238 Q 16.373 10.128 16.373 9.948 Q 16.373 9.801 16.361 9.704 Z M 17.288 9.272 Q 17.513 9.272 17.627 9.449 Q 17.742 9.626 17.742 9.948 Q 17.742 10.270 17.627 10.449 Q 17.513 10.628 17.288 10.628 Q 17.062 10.628 16.948 10.449 Q 16.834 10.270 16.834 9.948 Q 16.834 9.626 16.948 9.449 Q 17.062 9.272 17.288 9.272 Z M 17.288 9.456 Q 17.182 9.456 17.128 9.569 Q 17.074 9.683 17.074 9.948 Q 17.074 10.094 17.085 10.190 Q 17.088 10.216 17.092 10.238 L 17.437 9.526 Q 17.427 9.511 17.415 9.498 Q 17.368 9.456 17.288 9.456 Z M 17.154 10.393 Q 17.169 10.410 17.187 10.420 Q 17.228 10.444 17.288 10.444 Q 17.359 10.444 17.407 10.396 Q 17.454 10.347 17.478 10.238 Q 17.501 10.128 17.501 9.948 Q 17.501 9.801 17.489 9.704 Z M 18.612 9.300 V 10.409 H 18.865 V 10.600 H 18.054 V 10.409 H 18.369 V 9.550 L 18.092 9.722 L 17.985 9.550 L 18.393 9.300 Z" fill="#6c6d72" fill-rule="nonzero"/>
<line x1="5.00" y1="12.20" x2="25.48" y2="12.20" stroke="#2b2733" stroke-width="0.25" stroke-opacity="0.34" stroke-linecap="round"/>
<line x1="5.00" y1="84.00" x2="25.48" y2="84.00" stroke="#2b2733" stroke-width="0.22" stroke-opacity="0.2" stroke-linecap="round"/>
<circle cx="15.24" cy="24.00" r="5.80" fill="#b4b5ba" fill-opacity="0.9" stroke="#2b2733" stroke-width="0.2" stroke-opacity="0.5"/>
<path d="M10.08,29.16 A7.30,7.30 0 1 1 20.40,29.16" fill="none" stroke="#2b2733" stroke-width="0.18" stroke-opacity="0.28" stroke-linecap="round"/><line x1="10.93" y1="28.31" x2="10.01" y2="29.23" stroke="#2b2733" stroke-width="0.2" stroke-opacity="0.38" stroke-linecap="round"/><line x1="9.05" y1="21.44" x2="8.40" y2="21.17" stroke="#2b2733" stroke-width="0.12" stroke-opacity="0.28" stroke-linecap="round"/><line x1="15.24" y1="17.90" x2="15.24" y2="16.60" stroke="#2b2733" stroke-width="0.2" stroke-opacity="0.38" stroke-linecap="round"/><line x1="21.43" y1="21.44" x2="22.08" y2="21.17" stroke="#2b2733" stroke-width="0.12" stroke-opacity="0.28" stroke-linecap="round"/><line x1="19.55" y1="28.31" x2="20.47" y2="29.23" stroke="#2b2733" stroke-width="0.2" stroke-opacity="0.38" stroke-linecap="round"/><line x1="15.24" y1="18.60" x2="15.24" y2="16.10" stroke="#2b2733" stroke-width="0.28" stroke-opacity="0.5800000000000001" stroke-linecap="round"/><circle cx="10.08" cy="29.16" r="0.40" fill="#2b2733" fill-opacity="0.48000000000000004" stroke="none" stroke-width="0.25" stroke-opacity="1.0"/><circle cx="20.40" cy="29.16" r="0.40" fill="#2b2733" fill-opacity="0.48000000000000004" stroke="none" stroke-width="0.25" stroke-opacity="1.0"/>
<circle cx="15.24" cy="44.00" r="5.80" fill="#b4b5ba" fill-opacity="0.9" stroke="#2b2733" stroke-width="0.2" stroke-opacity="0.5"/>
<path d="M10.08,49.16 A7.30,7.30 0 1 1 20.40,49.16" fill="none" stroke="#2b2733" stroke-width="0.18" stroke-opacity="0.28" stroke-linecap="round"/><line x1="10.93" y1="48.31" x2="10.01" y2="49.23" stroke="#2b2733" stroke-width="0.2" stroke-opacity="0.38" stroke-linecap="round"/><line x1="9.05" y1="41.44" x2="8.40" y2="41.17" stroke="#2b2733" stroke-width="0.12" stroke-opacity="0.28" stroke-linecap="round"/><line x1="15.24" y1="37.90" x2="15.24" y2="36.60" stroke="#2b2733" stroke-width="0.2" stroke-opacity="0.38" stroke-linecap="round"/><line x1="21.43" y1="41.44" x2="22.08" y2="41.17" stroke="#2b2733" stroke-width="0.12" stroke-opacity="0.28" stroke-linecap="round"/><line x1="19.55" y1="48.31" x2="20.47" y2="49.23" stroke="#2b2733" stroke-width="0.2" stroke-opacity="0.38" stroke-linecap="round"/><line x1="15.24" y1="38.60" x2="15.24" y2="36.10" stroke="#2b2733" stroke-width="0.28" stroke-opacity="0.5800000000000001" stroke-linecap="round"/><circle cx="10.08" cy="49.16" r="0.40" fill="#2b2733" fill-opacity="0.48000000000000004" stroke="none" stroke-width="0.25" stroke-opacity="1.0"/><circle cx="20.40" cy="49.16" r="0.40" fill="#2b2733" fill-opacity="0.48000000000000004" stroke="none" stroke-width="0.25" stroke-opacity="1.0"/>
<rect x="13.94" y="59.30" width="2.60" height="5.40" rx="0.80" fill="#b4b5ba" fill-opacity="0.9" stroke="#17141c" stroke-width="0.22" stroke-opacity="0.5"/>
<circle cx="12.04" cy="61.00" r="0.26" fill="#17141c" fill-opacity="0.7" stroke="none" stroke-width="0.25" stroke-opacity="1.0"/>
<circle cx="11.54" cy="62.80" r="0.26" fill="#17141c" fill-opacity="0.5" stroke="none" stroke-width="0.25" stroke-opacity="1.0"/>
<circle cx="18.64" cy="62.40" r="0.26" fill="#17141c" fill-opacity="0.6" stroke="none" stroke-width="0.25" stroke-opacity="1.0"/>
<rect x="13.94" y="73.30" width="2.60" height="5.40" rx="0.80" fill="#b4b5ba" fill-opacity="0.9" stroke="#17141c" stroke-width="0.22" stroke-opacity="0.5"/>
<circle cx="12.04" cy="75.00" r="0.26" fill="#17141c" fill-opacity="0.7" stroke="none" stroke-width="0.25" stroke-opacity="1.0"/>
<circle cx="11.54" cy="76.80" r="0.26" fill="#17141c" fill-opacity="0.5" stroke="none" stroke-width="0.25" stroke-opacity="1.0"/>
<circle cx="18.64" cy="76.40" r="0.26" fill="#17141c" fill-opacity="0.6" stroke="none" stroke-width="0.25" stroke-opacity="1.0"/>
<circle cx="15.24" cy="93.00" r="3.65" fill="#b4b5ba" fill-opacity="0.9" stroke="#2b2733" stroke-width="0.2" stroke-opacity="0.5"/>
<circle cx="15.24" cy="105.00" r="3.65" fill="#b4b5ba" fill-opacity="0.9" stroke="#2b2733" stroke-width="0.2" stroke-opacity="0.5"/>
<circle cx="15.24" cy="105.00" r="3.85" fill="none" fill-opacity="1.0" stroke="#0E93A6" stroke-width="0.22" stroke-opacity="0.4"/>
<circle cx="15.24" cy="117.00" r="3.65" fill="#b4b5ba" fill-opacity="0.9" stroke="#2b2733" stroke-width="0.2" stroke-opacity="0.5"/>
<circle cx="15.24" cy="117.00" r="3.90" fill="none" fill-opacity="1.0" stroke="#E8500A" stroke-width="0.28" stroke-opacity="0.55"/>
<path d="M 13.462 13.962 Q 13.462 14.099 13.408 14.202 Q 13.354 14.305 13.261 14.375 Q 13.168 14.445 13.053 14.484 L 13.573 15.300 H 13.142 L 12.693 14.543 H 12.520 V 15.300 H 12.145 V 13.400 H 12.704 Q 13.079 13.400 13.271 13.539 Q 13.462 13.678 13.462 13.962 Z M 13.072 13.962 Q 13.072 13.808 12.983 13.740 Q 12.893 13.672 12.713 13.672 H 12.520 V 14.277 H 12.726 Q 12.892 14.277 12.982 14.202 Q 13.072 14.128 13.072 13.962 Z M 14.255 13.678 V 14.198 H 14.928 V 14.472 H 14.255 V 15.024 H 15.072 V 15.300 H 13.878 V 13.400 H 15.063 L 15.024 13.678 Z M 16.770 14.755 Q 16.770 14.928 16.682 15.060 Q 16.593 15.191 16.427 15.266 Q 16.261 15.341 16.024 15.341 Q 15.777 15.341 15.600 15.268 Q 15.423 15.194 15.303 15.079 L 15.501 14.858 Q 15.604 14.950 15.732 15.002 Q 15.860 15.054 16.019 15.054 Q 16.121 15.054 16.202 15.022 Q 16.284 14.991 16.332 14.930 Q 16.379 14.869 16.379 14.779 Q 16.379 14.701 16.346 14.647 Q 16.313 14.594 16.233 14.551 Q 16.152 14.509 16.009 14.466 Q 15.799 14.402 15.663 14.324 Q 15.527 14.246 15.461 14.140 Q 15.395 14.033 15.395 13.888 Q 15.395 13.724 15.486 13.605 Q 15.577 13.487 15.731 13.423 Q 15.886 13.359 16.077 13.359 Q 16.288 13.359 16.449 13.420 Q 16.610 13.481 16.732 13.594 L 16.544 13.807 Q 16.446 13.723 16.333 13.683 Q 16.220 13.643 16.103 13.643 Q 16.011 13.643 15.939 13.668 Q 15.866 13.693 15.825 13.741 Q 15.784 13.789 15.784 13.863 Q 15.784 13.930 15.822 13.978 Q 15.860 14.025 15.952 14.066 Q 16.044 14.106 16.204 14.157 Q 16.373 14.208 16.500 14.279 Q 16.628 14.351 16.699 14.464 Q 16.770 14.577 16.770 14.755 Z M 18.452 14.349 Q 18.452 14.646 18.369 14.869 Q 18.286 15.093 18.121 15.217 Q 17.956 15.341 17.713 15.341 Q 17.471 15.341 17.306 15.220 Q 17.140 15.098 17.057 14.876 Q 16.974 14.654 16.974 14.351 Q 16.974 14.054 17.057 13.831 Q 17.140 13.607 17.306 13.483 Q 17.471 13.359 17.713 13.359 Q 17.956 13.359 18.121 13.480 Q 18.286 13.601 18.369 13.823 Q 18.452 14.046 18.452 14.349 Z M 18.065 14.349 Q 18.065 13.989 17.983 13.816 Q 17.901 13.642 17.713 13.642 Q 17.525 13.642 17.443 13.816 Q 17.361 13.991 17.361 14.351 Q 17.361 14.712 17.445 14.884 Q 17.529 15.057 17.713 15.057 Q 17.904 15.057 17.984 14.882 Q 18.065 14.708 18.065 14.349 Z" fill="#17141c" fill-rule="nonzero"/>
<path d="M 12.283 34.341 Q 12.283 34.130 12.244 33.999 Q 12.205 33.868 12.138 33.799 Q 12.070 33.730 11.985 33.705 Q 11.900 33.680 11.808 33.680 H 11.668 V 35.021 H 11.809 Q 11.906 35.021 11.991 34.991 Q 12.077 34.961 12.143 34.886 Q 12.209 34.811 12.246 34.678 Q 12.283 34.546 12.283 34.341 Z M 12.676 34.341 Q 12.676 34.575 12.626 34.741 Q 12.576 34.907 12.488 35.016 Q 12.400 35.126 12.285 35.187 Q 12.171 35.249 12.041 35.275 Q 11.911 35.300 11.778 35.300 H 11.292 V 33.400 H 11.745 Q 11.922 33.400 12.088 33.438 Q 12.255 33.476 12.387 33.576 Q 12.520 33.676 12.598 33.861 Q 12.676 34.046 12.676 34.341 Z M 14.287 33.962 Q 14.287 34.099 14.232 34.202 Q 14.178 34.305 14.085 34.375 Q 13.993 34.445 13.877 34.484 L 14.398 35.300 H 13.966 L 13.517 34.543 H 13.344 V 35.300 H 12.969 V 33.400 H 13.528 Q 13.903 33.400 14.095 33.539 Q 14.287 33.678 14.287 33.962 Z M 13.896 33.962 Q 13.896 33.808 13.807 33.740 Q 13.718 33.672 13.538 33.672 H 13.344 V 34.277 H 13.550 Q 13.716 34.277 13.806 34.202 Q 13.896 34.128 13.896 33.962 Z M 15.831 33.400 V 33.682 H 15.428 V 35.018 H 15.831 V 35.300 H 14.649 V 35.018 H 15.052 V 33.682 H 14.649 V 33.400 Z M 16.895 34.977 17.308 33.400 H 17.692 L 17.113 35.300 H 16.665 L 16.088 33.400 H 16.487 Z M 18.377 33.678 V 34.198 H 19.050 V 34.472 H 18.377 V 35.024 H 19.194 V 35.300 H 18.000 V 33.400 H 19.184 L 19.146 33.678 Z" fill="#17141c" fill-rule="nonzero"/>
<path d="M 15.043 86.850 V 87.087 H 14.704 V 88.213 H 15.043 V 88.450 H 14.048 V 88.213 H 14.387 V 87.087 H 14.048 V 86.850 Z M 16.085 88.450 15.614 87.121 Q 15.619 87.165 15.628 87.234 Q 15.636 87.304 15.643 87.391 Q 15.651 87.479 15.656 87.578 Q 15.661 87.676 15.661 87.777 V 88.450 H 15.386 V 86.850 H 15.788 L 16.255 88.177 Q 16.245 88.118 16.234 88.021 Q 16.223 87.924 16.215 87.798 Q 16.207 87.671 16.207 87.529 V 86.850 H 16.483 V 88.450 Z" fill="#17141c" fill-rule="nonzero"/>
<path d="M 14.680 98.815 Q 14.847 98.815 14.962 98.859 Q 15.078 98.902 15.176 98.983 L 15.016 99.174 Q 14.947 99.116 14.866 99.086 Q 14.784 99.056 14.692 99.056 Q 14.581 99.056 14.487 99.115 Q 14.394 99.174 14.338 99.304 Q 14.282 99.434 14.282 99.647 Q 14.282 99.857 14.336 99.986 Q 14.390 100.116 14.483 100.175 Q 14.576 100.235 14.694 100.235 Q 14.819 100.235 14.901 100.191 Q 14.983 100.147 15.049 100.095 L 15.198 100.283 Q 15.114 100.367 14.987 100.426 Q 14.861 100.485 14.680 100.485 Q 14.471 100.485 14.306 100.389 Q 14.142 100.293 14.048 100.106 Q 13.955 99.920 13.955 99.647 Q 13.955 99.379 14.051 99.193 Q 14.148 99.007 14.313 98.911 Q 14.478 98.815 14.680 98.815 Z M 15.940 100.178 16.287 98.850 H 16.611 L 16.123 100.450 H 15.746 L 15.260 98.850 H 15.596 Z" fill="#0E93A6" fill-rule="nonzero"/>
<path d="M 14.474 111.649 Q 14.474 111.899 14.404 112.087 Q 14.334 112.275 14.195 112.380 Q 14.056 112.485 13.852 112.485 Q 13.648 112.485 13.509 112.382 Q 13.369 112.280 13.299 112.093 Q 13.229 111.906 13.229 111.651 Q 13.229 111.401 13.299 111.213 Q 13.369 111.025 13.509 110.920 Q 13.648 110.815 13.852 110.815 Q 14.056 110.815 14.195 110.917 Q 14.334 111.019 14.404 111.206 Q 14.474 111.394 14.474 111.649 Z M 14.148 111.649 Q 14.148 111.346 14.079 111.200 Q 14.010 111.054 13.852 111.054 Q 13.693 111.054 13.624 111.201 Q 13.555 111.347 13.555 111.651 Q 13.555 111.955 13.626 112.100 Q 13.697 112.245 13.852 112.245 Q 14.012 112.245 14.080 112.098 Q 14.148 111.951 14.148 111.649 Z M 15.813 110.850 V 111.920 Q 15.813 112.083 15.746 112.211 Q 15.680 112.339 15.552 112.412 Q 15.425 112.485 15.239 112.485 Q 15.051 112.485 14.924 112.414 Q 14.797 112.342 14.732 112.215 Q 14.667 112.088 14.667 111.920 V 110.850 H 14.984 V 111.831 Q 14.984 112.036 15.040 112.138 Q 15.095 112.241 15.239 112.241 Q 15.383 112.241 15.439 112.138 Q 15.495 112.036 15.495 111.831 V 110.850 Z M 16.783 111.099 V 112.450 H 16.467 V 111.099 H 16.000 V 110.850 H 17.265 L 17.232 111.099 Z" fill="#E8500A" fill-rule="nonzero"/>
<path d="M 13.711 54.900 13.801 56.500 H 13.518 L 13.488 55.763 Q 13.485 55.670 13.484 55.591 Q 13.484 55.512 13.485 55.441 Q 13.486 55.370 13.489 55.304 Q 13.492 55.238 13.496 55.174 L 13.285 56.222 H 13.028 L 12.801 55.174 Q 12.806 55.236 12.809 55.303 Q 12.813 55.370 12.814 55.443 Q 12.816 55.515 12.817 55.596 Q 12.817 55.677 12.814 55.765 L 12.792 56.500 H 12.514 L 12.605 54.900 H 12.956 L 13.162 55.956 L 13.359 54.900 Z M 15.168 55.699 Q 15.168 55.949 15.098 56.137 Q 15.028 56.325 14.889 56.430 Q 14.751 56.535 14.546 56.535 Q 14.342 56.535 14.203 56.432 Q 14.063 56.330 13.993 56.143 Q 13.923 55.956 13.923 55.701 Q 13.923 55.451 13.993 55.263 Q 14.063 55.075 14.203 54.970 Q 14.342 54.865 14.546 54.865 Q 14.751 54.865 14.889 54.967 Q 15.028 55.069 15.098 55.256 Q 15.168 55.444 15.168 55.699 Z M 14.842 55.699 Q 14.842 55.396 14.773 55.250 Q 14.704 55.104 14.546 55.104 Q 14.387 55.104 14.318 55.251 Q 14.250 55.397 14.250 55.701 Q 14.250 56.005 14.320 56.150 Q 14.391 56.295 14.546 56.295 Q 14.707 56.295 14.774 56.148 Q 14.842 56.001 14.842 55.699 Z M 16.221 55.692 Q 16.221 55.514 16.188 55.404 Q 16.155 55.295 16.098 55.236 Q 16.042 55.178 15.970 55.157 Q 15.898 55.136 15.821 55.136 H 15.703 V 56.265 H 15.822 Q 15.903 56.265 15.975 56.240 Q 16.048 56.214 16.103 56.151 Q 16.159 56.088 16.190 55.977 Q 16.221 55.865 16.221 55.692 Z M 16.552 55.692 Q 16.552 55.889 16.510 56.029 Q 16.467 56.169 16.393 56.261 Q 16.319 56.353 16.223 56.405 Q 16.126 56.457 16.017 56.479 Q 15.908 56.500 15.795 56.500 H 15.386 V 54.900 H 15.768 Q 15.917 54.900 16.057 54.932 Q 16.197 54.964 16.308 55.048 Q 16.420 55.133 16.486 55.288 Q 16.552 55.444 16.552 55.692 Z M 17.187 55.134 V 55.572 H 17.754 V 55.802 H 17.187 V 56.267 H 17.875 V 56.500 H 16.870 V 54.900 H 17.867 L 17.835 55.134 Z" fill="#6c6d72" fill-rule="nonzero"/>
<path d="M 15.168 69.699 Q 15.168 69.949 15.098 70.137 Q 15.028 70.325 14.889 70.430 Q 14.751 70.535 14.546 70.535 Q 14.342 70.535 14.203 70.432 Q 14.063 70.330 13.993 70.143 Q 13.923 69.956 13.923 69.701 Q 13.923 69.451 13.993 69.263 Q 14.063 69.075 14.203 68.970 Q 14.342 68.865 14.546 68.865 Q 14.751 68.865 14.889 68.967 Q 15.028 69.069 15.098 69.256 Q 15.168 69.444 15.168 69.699 Z M 14.842 69.699 Q 14.842 69.396 14.773 69.250 Q 14.704 69.104 14.546 69.104 Q 14.387 69.104 14.318 69.251 Q 14.250 69.397 14.250 69.701 Q 14.250 70.005 14.320 70.150 Q 14.391 70.295 14.546 70.295 Q 14.707 70.295 14.774 70.148 Q 14.842 70.001 14.842 69.699 Z M 16.529 70.041 Q 16.529 70.186 16.454 70.298 Q 16.380 70.409 16.240 70.472 Q 16.100 70.535 15.901 70.535 Q 15.692 70.535 15.543 70.473 Q 15.394 70.411 15.293 70.314 L 15.460 70.127 Q 15.547 70.205 15.654 70.249 Q 15.762 70.293 15.896 70.293 Q 15.982 70.293 16.050 70.266 Q 16.119 70.240 16.159 70.188 Q 16.199 70.137 16.199 70.062 Q 16.199 69.996 16.171 69.950 Q 16.144 69.905 16.076 69.869 Q 16.008 69.834 15.888 69.798 Q 15.711 69.743 15.596 69.678 Q 15.482 69.613 15.426 69.523 Q 15.371 69.433 15.371 69.311 Q 15.371 69.173 15.447 69.073 Q 15.523 68.973 15.654 68.919 Q 15.784 68.865 15.945 68.865 Q 16.123 68.865 16.258 68.917 Q 16.393 68.968 16.496 69.063 L 16.338 69.242 Q 16.256 69.172 16.160 69.138 Q 16.065 69.105 15.967 69.105 Q 15.889 69.105 15.828 69.126 Q 15.768 69.146 15.733 69.187 Q 15.698 69.227 15.698 69.290 Q 15.698 69.347 15.730 69.386 Q 15.762 69.426 15.839 69.461 Q 15.917 69.495 16.052 69.537 Q 16.194 69.580 16.301 69.640 Q 16.408 69.701 16.469 69.796 Q 16.529 69.891 16.529 70.041 Z" fill="#6c6d72" fill-rule="nonzero"/>
<line x1="5.00" y1="122.30" x2="25.48" y2="122.30" stroke="#2b2733" stroke-width="0.25" stroke-opacity="0.34" stroke-linecap="round"/>
<circle cx="10.09" cy="123.95" r="0.80" fill="#E8500A" fill-opacity="0.95" stroke="none" stroke-width="0.25" stroke-opacity="1.0"/>
<path d="M 12.394 124.532 Q 12.209 124.532 12.068 124.466 Q 11.926 124.399 11.846 124.276 Q 11.766 124.153 11.766 123.979 V 123.915 H 12.063 V 123.979 Q 12.063 124.123 12.152 124.195 Q 12.241 124.267 12.394 124.267 Q 12.550 124.267 12.626 124.205 Q 12.703 124.143 12.703 124.047 Q 12.703 123.981 12.665 123.940 Q 12.628 123.899 12.556 123.873 Q 12.484 123.846 12.381 123.823 L 12.328 123.812 Q 12.164 123.775 12.046 123.719 Q 11.928 123.663 11.865 123.572 Q 11.802 123.481 11.802 123.334 Q 11.802 123.188 11.872 123.084 Q 11.942 122.980 12.069 122.924 Q 12.196 122.868 12.367 122.868 Q 12.538 122.868 12.672 122.926 Q 12.806 122.985 12.882 123.100 Q 12.959 123.215 12.959 123.389 V 123.458 H 12.662 V 123.389 Q 12.662 123.298 12.626 123.242 Q 12.591 123.186 12.525 123.159 Q 12.458 123.133 12.367 123.133 Q 12.230 123.133 12.165 123.185 Q 12.100 123.236 12.100 123.325 Q 12.100 123.385 12.130 123.426 Q 12.161 123.467 12.223 123.494 Q 12.285 123.522 12.381 123.542 L 12.433 123.554 Q 12.605 123.590 12.732 123.647 Q 12.858 123.705 12.929 123.798 Q 13.000 123.892 13.000 124.038 Q 13.000 124.185 12.926 124.295 Q 12.852 124.406 12.716 124.469 Q 12.580 124.532 12.394 124.532 Z M 13.114 124.500 13.535 122.900 H 14.061 L 14.481 124.500 H 14.170 L 14.083 124.148 H 13.512 L 13.425 124.500 Z M 13.583 123.869 H 14.013 L 13.818 123.090 H 13.777 Z M 14.673 124.500 V 122.900 H 15.233 L 15.510 124.294 H 15.551 L 15.827 122.900 H 16.387 V 124.500 H 16.095 V 123.122 H 16.054 L 15.779 124.500 H 15.281 L 15.007 123.122 H 14.966 V 124.500 Z M 16.694 124.047 V 123.787 H 17.370 V 124.047 Z M 17.677 124.500 V 122.900 H 18.705 V 123.174 H 17.978 V 123.556 H 18.641 V 123.830 H 17.978 V 124.226 H 18.719 V 124.500 Z" fill="#17141c" fill-rule="nonzero"/>
</svg>
