<?xml version="1.0" encoding="UTF-8"?>
<!-- Generated by tools/panelgen (Sam-e system v0.4). Edit the spec, not this file. -->
<svg xmlns="http://www.w3.org/2000/svg" version="1.1" width="30.48mm" height="128.5mm" viewBox="0 0 30.48 128.5">
<defs><linearGradient id="bg" x1="0" y1="0" x2="0" y2="128.5" gradientUnits="userSpaceOnUse"><stop offset="0" stop-color="#100b12"/><stop offset="0.5" stop-color="#0b070b"/><stop offset="1" stop-color="#08060a"/></linearGradient></defs>
<rect x="0" y="0" width="30.48" height="128.5" fill="url(#bg)"/>
<rect x="0.50" y="0.50" width="29.48" height="127.50" rx="1.60" fill="none" fill-opacity="1.0" stroke="#F5F5F1" stroke-width="0.3" stroke-opacity="0.5"/>
<rect x="1.40" y="1.40" width="27.68" height="125.70" rx="1.20" fill="none" fill-opacity="1.0" stroke="#F5F5F1" stroke-width="0.18" stroke-opacity="0.14"/>
<line x1="2.50" y1="4.00" x2="5.50" y2="4.00" stroke="#F5F5F1" stroke-width="0.22" stroke-opacity="0.42" stroke-linecap="round"/>
<line x1="4.00" y1="2.50" x2="4.00" y2="5.50" stroke="#F5F5F1" stroke-width="0.22" stroke-opacity="0.42" stroke-linecap="round"/>
<line x1="24.98" y1="4.00" x2="27.98" y2="4.00" stroke="#F5F5F1" stroke-width="0.22" stroke-opacity="0.42" stroke-linecap="round"/>
<line x1="26.48" y1="2.50" x2="26.48" y2="5.50" stroke="#F5F5F1" stroke-width="0.22" stroke-opacity="0.42" stroke-linecap="round"/>
<line x1="2.50" y1="124.50" x2="5.50" y2="124.50" stroke="#F5F5F1" stroke-width="0.22" stroke-opacity="0.42" stroke-linecap="round"/>
<line x1="4.00" y1="123.00" x2="4.00" y2="126.00" stroke="#F5F5F1" stroke-width="0.22" stroke-opacity="0.42" stroke-linecap="round"/>
<line x1="24.98" y1="124.50" x2="27.98" y2="124.50" stroke="#F5F5F1" stroke-width="0.22" stroke-opacity="0.42" stroke-linecap="round"/>
<line x1="26.48" y1="123.00" x2="26.48" y2="126.00" stroke="#F5F5F1" stroke-width="0.22" stroke-opacity="0.42" stroke-linecap="round"/>
<line x1="4.24" y1="15.50" x2="6.64" y2="15.50" stroke="#F5F5F1" stroke-width="0.22" stroke-opacity="0.3" stroke-linecap="round"/><line x1="4.24" y1="15.50" x2="4.24" y2="17.90" stroke="#F5F5F1" stroke-width="0.22" stroke-opacity="0.3" stroke-linecap="round"/><line x1="26.24" y1="15.50" x2="23.84" y2="15.50" stroke="#F5F5F1" stroke-width="0.22" stroke-opacity="0.3" stroke-linecap="round"/><line x1="26.24" y1="15.50" x2="26.24" y2="17.90" stroke="#F5F5F1" stroke-width="0.22" stroke-opacity="0.3" stroke-linecap="round"/><line x1="4.24" y1="121.00" x2="6.64" y2="121.00" stroke="#F5F5F1" stroke-width="0.22" stroke-opacity="0.3" stroke-linecap="round"/><line x1="4.24" y1="121.00" x2="4.24" y2="118.60" stroke="#F5F5F1" stroke-width="0.22" stroke-opacity="0.3" stroke-linecap="round"/><line x1="26.24" y1="121.00" x2="23.84" y2="121.00" stroke="#F5F5F1" stroke-width="0.22" stroke-opacity="0.3" stroke-linecap="round"/><line x1="26.24" y1="121.00" x2="26.24" y2="118.60" stroke="#F5F5F1" stroke-width="0.22" stroke-opacity="0.3" stroke-linecap="round"/>
<path d="M6.27,3.82 L5.79,3.50 L5.32,3.63 L5.16,4.01 L5.44,4.36 L5.92,4.51 L6.14,4.83 L5.98,5.27 L5.47,5.40 L5.00,5.08 M6.84,4.45 L7.72,4.45" fill="none" stroke="#FF5A00" stroke-width="0.36" stroke-linecap="round" stroke-linejoin="round"/>
<path d="M8.69,3.50 L8.69,5.40 M8.69,3.50 L9.58,3.56 L9.77,3.94 L9.52,4.39 L8.69,4.39 M8.69,4.39 L9.64,4.48 L9.80,4.89 L9.55,5.34 L8.69,5.40 M10.40,5.40 L11.04,3.50 L11.67,5.40 M10.66,4.74 L11.42,4.74 M12.11,5.40 L12.11,3.50 L13.38,5.40 L13.38,3.50 M13.82,3.50 L13.82,5.40 M13.82,4.58 L15.09,3.50 M14.27,4.26 L15.09,5.40" fill="none" stroke="#ECE7DD" stroke-width="0.31" stroke-linecap="round" stroke-linejoin="round"/>
<path d="M5.00,7.20 L5.00,10.60 L7.27,10.60 M7.83,10.60 L7.83,7.20 L9.53,7.31 L9.87,7.99 L9.53,8.73 L7.83,8.84 M13.05,7.82 L12.20,7.20 L11.35,7.43 L10.78,8.33 L10.78,9.47 L11.35,10.37 L12.20,10.60 L13.05,10.37 L13.05,9.24 L12.14,9.24" fill="none" stroke="#ECE7DD" stroke-width="0.45" stroke-linecap="round" stroke-linejoin="round"/>
<path d="M22.54,4.14 L22.21,4.00 L21.93,4.23 L21.77,4.75 L21.77,5.07 L21.98,5.35 L22.35,5.40 L22.63,5.17 L22.59,4.82 L22.21,4.70 L21.86,4.84 M23.01,4.00 L23.01,5.40 M23.94,4.00 L23.94,5.40 M23.01,4.70 L23.94,4.70 M24.27,5.40 L24.27,4.00 L24.97,4.05 L25.11,4.33 L24.97,4.63 L24.27,4.68" fill="none" stroke="#A6A6A6" stroke-width="0.25" stroke-linecap="round" stroke-linejoin="round"/>
<path d="M20.76,9.52 L20.43,9.30 L20.11,9.39 L20.00,9.65 L20.19,9.88 L20.52,9.99 L20.67,10.21 L20.56,10.51 L20.21,10.60 L19.89,10.38 M21.15,9.95 L21.75,9.95 M22.58,9.30 L22.27,9.43 L22.14,9.73 L22.14,10.17 L22.27,10.47 L22.58,10.60 L22.88,10.47 L23.01,10.17 L23.01,9.73 L22.88,9.43 L22.58,9.30 M22.27,10.47 L22.88,9.43 M23.79,9.30 L23.49,9.43 L23.36,9.73 L23.36,10.17 L23.49,10.47 L23.79,10.60 L24.09,10.47 L24.22,10.17 L24.22,9.73 L24.09,9.43 L23.79,9.30 M23.49,10.47 L24.09,9.43 M24.74,9.56 L25.00,9.30 L25.00,10.60 M24.79,10.60 L25.22,10.60" fill="none" stroke="#A6A6A6" stroke-width="0.22" stroke-linecap="round" stroke-linejoin="round"/>
<line x1="5.00" y1="12.20" x2="25.48" y2="12.20" stroke="#F5F5F1" stroke-width="0.25" stroke-opacity="0.34" stroke-linecap="round"/>
<line x1="5.00" y1="82.00" x2="25.48" y2="82.00" stroke="#F5F5F1" stroke-width="0.22" stroke-opacity="0.2" stroke-linecap="round"/>
<circle cx="15.24" cy="20.00" r="5.80" fill="#14101a" fill-opacity="0.9" stroke="#F5F5F1" stroke-width="0.2" stroke-opacity="0.16"/>
<path d="M9.37,25.87 A8.30,8.30 0 1 1 21.11,25.87" fill="none" stroke="#F5F5F1" stroke-width="0.16" stroke-opacity="0.14" stroke-linecap="round"/><path d="M10.08,25.16 A7.30,7.30 0 1 1 20.40,25.16" fill="none" stroke="#F5F5F1" stroke-width="0.22" stroke-opacity="0.28" stroke-linecap="round"/><line x1="11.07" y1="24.17" x2="9.99" y2="25.25" stroke="#F5F5F1" stroke-width="0.26" stroke-opacity="0.46" stroke-linecap="round"/><line x1="8.96" y1="22.04" x2="8.18" y2="22.29" stroke="#F5F5F1" stroke-width="0.15" stroke-opacity="0.32" stroke-linecap="round"/><line x1="8.72" y1="18.97" x2="7.91" y2="18.84" stroke="#F5F5F1" stroke-width="0.15" stroke-opacity="0.32" stroke-linecap="round"/><line x1="9.90" y1="16.12" x2="9.24" y2="15.64" stroke="#F5F5F1" stroke-width="0.15" stroke-opacity="0.32" stroke-linecap="round"/><line x1="12.24" y1="14.12" x2="11.87" y2="13.39" stroke="#F5F5F1" stroke-width="0.15" stroke-opacity="0.32" stroke-linecap="round"/><line x1="15.24" y1="14.10" x2="15.24" y2="12.58" stroke="#F5F5F1" stroke-width="0.26" stroke-opacity="0.46" stroke-linecap="round"/><line x1="18.24" y1="14.12" x2="18.61" y2="13.39" stroke="#F5F5F1" stroke-width="0.15" stroke-opacity="0.32" stroke-linecap="round"/><line x1="20.58" y1="16.12" x2="21.24" y2="15.64" stroke="#F5F5F1" stroke-width="0.15" stroke-opacity="0.32" stroke-linecap="round"/><line x1="21.76" y1="18.97" x2="22.57" y2="18.84" stroke="#F5F5F1" stroke-width="0.15" stroke-opacity="0.32" stroke-linecap="round"/><line x1="21.52" y1="22.04" x2="22.30" y2="22.29" stroke="#F5F5F1" stroke-width="0.15" stroke-opacity="0.32" stroke-linecap="round"/><line x1="19.41" y1="24.17" x2="20.49" y2="25.25" stroke="#F5F5F1" stroke-width="0.26" stroke-opacity="0.46" stroke-linecap="round"/><line x1="15.24" y1="14.80" x2="15.24" y2="12.00" stroke="#F5F5F1" stroke-width="0.3" stroke-opacity="0.6000000000000001" stroke-linecap="round"/><circle cx="10.08" cy="25.16" r="0.45" fill="#F5F5F1" fill-opacity="0.53" stroke="none" stroke-width="0.25" stroke-opacity="1.0"/><circle cx="20.40" cy="25.16" r="0.45" fill="#F5F5F1" fill-opacity="0.53" stroke="none" stroke-width="0.25" stroke-opacity="1.0"/>
<circle cx="15.24" cy="40.00" r="5.80" fill="#14101a" fill-opacity="0.9" stroke="#F5F5F1" stroke-width="0.2" stroke-opacity="0.16"/>
<path d="M9.37,45.87 A8.30,8.30 0 1 1 21.11,45.87" fill="none" stroke="#F5F5F1" stroke-width="0.16" stroke-opacity="0.14" stroke-linecap="round"/><path d="M10.08,45.16 A7.30,7.30 0 1 1 20.40,45.16" fill="none" stroke="#F5F5F1" stroke-width="0.22" stroke-opacity="0.28" stroke-linecap="round"/><line x1="11.07" y1="44.17" x2="9.99" y2="45.25" stroke="#F5F5F1" stroke-width="0.26" stroke-opacity="0.46" stroke-linecap="round"/><line x1="8.96" y1="42.04" x2="8.18" y2="42.29" stroke="#F5F5F1" stroke-width="0.15" stroke-opacity="0.32" stroke-linecap="round"/><line x1="8.72" y1="38.97" x2="7.91" y2="38.84" stroke="#F5F5F1" stroke-width="0.15" stroke-opacity="0.32" stroke-linecap="round"/><line x1="9.90" y1="36.12" x2="9.24" y2="35.64" stroke="#F5F5F1" stroke-width="0.15" stroke-opacity="0.32" stroke-linecap="round"/><line x1="12.24" y1="34.12" x2="11.87" y2="33.39" stroke="#F5F5F1" stroke-width="0.15" stroke-opacity="0.32" stroke-linecap="round"/><line x1="15.24" y1="34.10" x2="15.24" y2="32.58" stroke="#F5F5F1" stroke-width="0.26" stroke-opacity="0.46" stroke-linecap="round"/><line x1="18.24" y1="34.12" x2="18.61" y2="33.39" stroke="#F5F5F1" stroke-width="0.15" stroke-opacity="0.32" stroke-linecap="round"/><line x1="20.58" y1="36.12" x2="21.24" y2="35.64" stroke="#F5F5F1" stroke-width="0.15" stroke-opacity="0.32" stroke-linecap="round"/><line x1="21.76" y1="38.97" x2="22.57" y2="38.84" stroke="#F5F5F1" stroke-width="0.15" stroke-opacity="0.32" stroke-linecap="round"/><line x1="21.52" y1="42.04" x2="22.30" y2="42.29" stroke="#F5F5F1" stroke-width="0.15" stroke-opacity="0.32" stroke-linecap="round"/><line x1="19.41" y1="44.17" x2="20.49" y2="45.25" stroke="#F5F5F1" stroke-width="0.26" stroke-opacity="0.46" stroke-linecap="round"/><line x1="15.24" y1="34.80" x2="15.24" y2="32.00" stroke="#F5F5F1" stroke-width="0.3" stroke-opacity="0.6000000000000001" stroke-linecap="round"/><circle cx="10.08" cy="45.16" r="0.45" fill="#F5F5F1" fill-opacity="0.53" stroke="none" stroke-width="0.25" stroke-opacity="1.0"/><circle cx="20.40" cy="45.16" r="0.45" fill="#F5F5F1" fill-opacity="0.53" stroke="none" stroke-width="0.25" stroke-opacity="1.0"/>
<rect x="13.94" y="54.30" width="2.60" height="5.40" rx="0.80" fill="#14101a" fill-opacity="0.9" stroke="#1C46FF" stroke-width="0.22" stroke-opacity="0.5"/>
<circle cx="12.04" cy="56.00" r="0.26" fill="#1C46FF" fill-opacity="0.7" stroke="none" stroke-width="0.25" stroke-opacity="1.0"/>
<circle cx="11.54" cy="57.80" r="0.26" fill="#1C46FF" fill-opacity="0.5" stroke="none" stroke-width="0.25" stroke-opacity="1.0"/>
<circle cx="18.64" cy="57.40" r="0.26" fill="#1C46FF" fill-opacity="0.6" stroke="none" stroke-width="0.25" stroke-opacity="1.0"/>
<rect x="13.94" y="68.30" width="2.60" height="5.40" rx="0.80" fill="#14101a" fill-opacity="0.9" stroke="#1C46FF" stroke-width="0.22" stroke-opacity="0.5"/>
<circle cx="12.04" cy="70.00" r="0.26" fill="#1C46FF" fill-opacity="0.7" stroke="none" stroke-width="0.25" stroke-opacity="1.0"/>
<circle cx="11.54" cy="71.80" r="0.26" fill="#1C46FF" fill-opacity="0.5" stroke="none" stroke-width="0.25" stroke-opacity="1.0"/>
<circle cx="18.64" cy="71.40" r="0.26" fill="#1C46FF" fill-opacity="0.6" stroke="none" stroke-width="0.25" stroke-opacity="1.0"/>
<circle cx="15.24" cy="92.00" r="3.65" fill="#14101a" fill-opacity="0.9" stroke="#F5F5F1" stroke-width="0.2" stroke-opacity="0.16"/>
<circle cx="15.24" cy="104.00" r="3.65" fill="#14101a" fill-opacity="0.9" stroke="#F5F5F1" stroke-width="0.2" stroke-opacity="0.16"/>
<circle cx="15.24" cy="104.00" r="3.85" fill="none" fill-opacity="1.0" stroke="#19D2E5" stroke-width="0.22" stroke-opacity="0.4"/>
<circle cx="15.24" cy="117.00" r="3.65" fill="#14101a" fill-opacity="0.9" stroke="#F5F5F1" stroke-width="0.2" stroke-opacity="0.16"/>
<circle cx="15.24" cy="117.00" r="3.90" fill="none" fill-opacity="1.0" stroke="#FF5A00" stroke-width="0.28" stroke-opacity="0.55"/>
<path d="M11.85,29.00 L11.85,27.10 L12.80,27.16 L12.99,27.54 L12.80,27.96 L11.85,28.02 M12.36,28.02 L13.12,29.00 M14.83,27.10 L13.56,27.10 L13.56,29.00 L14.83,29.00 M13.56,28.05 L14.51,28.05 M16.47,27.42 L16.00,27.10 L15.52,27.23 L15.37,27.61 L15.65,27.96 L16.13,28.11 L16.35,28.43 L16.19,28.87 L15.68,29.00 L15.21,28.68 M17.49,27.10 L17.04,27.29 L16.85,27.73 L16.85,28.37 L17.04,28.81 L17.49,29.00 L17.93,28.81 L18.12,28.37 L18.12,27.73 L17.93,27.29 L17.49,27.10" fill="none" stroke="#ECE7DD" stroke-width="0.25" stroke-linecap="round" stroke-linejoin="round"/>
<path d="M11.16,30.30 L11.16,32.20 M11.16,30.30 L11.92,30.40 L12.36,30.93 L12.36,31.57 L11.92,32.11 L11.16,32.20 M12.87,32.20 L12.87,30.30 L13.81,30.36 L14.01,30.74 L13.81,31.16 L12.87,31.22 M13.37,31.22 L14.13,32.20 M14.92,30.30 L15.49,30.30 M15.21,30.30 L15.21,32.20 M14.92,32.20 L15.49,32.20 M15.97,30.30 L16.60,32.20 L17.23,30.30 M18.94,30.30 L17.68,30.30 L17.68,32.20 L18.94,32.20 M17.68,31.25 L18.63,31.25" fill="none" stroke="#ECE7DD" stroke-width="0.25" stroke-linecap="round" stroke-linejoin="round"/>
<path d="M14.23,85.85 L14.71,85.85 M14.47,85.85 L14.47,87.45 M14.23,87.45 L14.71,87.45 M15.11,87.45 L15.11,85.85 L16.17,87.45 L16.17,85.85" fill="none" stroke="#ECE7DD" stroke-width="0.25" stroke-linecap="round" stroke-linejoin="round"/>
<path d="M14.87,98.14 L14.47,97.85 L14.07,97.96 L13.80,98.38 L13.80,98.92 L14.07,99.34 L14.47,99.45 L14.87,99.16 M15.24,97.85 L15.77,99.45 L16.31,97.85" fill="none" stroke="#19D2E5" stroke-width="0.25" stroke-linecap="round" stroke-linejoin="round"/>
<path d="M13.61,110.85 L13.24,111.01 L13.08,111.38 L13.08,111.92 L13.24,112.29 L13.61,112.45 L13.99,112.29 L14.15,111.92 L14.15,111.38 L13.99,111.01 L13.61,110.85 M14.57,110.85 L14.57,112.02 L14.84,112.37 L15.11,112.45 L15.37,112.37 L15.64,112.02 L15.64,110.85 M16.01,110.85 L17.08,110.85 M16.55,110.85 L16.55,112.45" fill="none" stroke="#FF5A00" stroke-width="0.25" stroke-linecap="round" stroke-linejoin="round"/>
<path d="M12.31,50.50 L12.31,48.90 L12.97,49.75 L13.64,48.90 L13.64,50.50 M14.39,48.90 L14.01,49.06 L13.85,49.43 L13.85,49.97 L14.01,50.34 L14.39,50.50 L14.76,50.34 L14.92,49.97 L14.92,49.43 L14.76,49.06 L14.39,48.90 M15.35,48.90 L15.35,50.50 M15.35,48.90 L15.99,48.98 L16.36,49.43 L16.36,49.97 L15.99,50.42 L15.35,50.50 M17.85,48.90 L16.79,48.90 L16.79,50.50 L17.85,50.50 M16.79,49.70 L17.59,49.70" fill="none" stroke="#A6A6A6" stroke-width="0.22" stroke-linecap="round" stroke-linejoin="round"/>
<path d="M14.33,62.90 L13.96,63.06 L13.80,63.43 L13.80,63.97 L13.96,64.34 L14.33,64.50 L14.71,64.34 L14.87,63.97 L14.87,63.43 L14.71,63.06 L14.33,62.90 M16.36,63.17 L15.96,62.90 L15.56,63.01 L15.43,63.33 L15.67,63.62 L16.07,63.75 L16.25,64.02 L16.12,64.39 L15.69,64.50 L15.29,64.23" fill="none" stroke="#A6A6A6" stroke-width="0.22" stroke-linecap="round" stroke-linejoin="round"/>
<line x1="5.00" y1="122.30" x2="25.48" y2="122.30" stroke="#F5F5F1" stroke-width="0.25" stroke-opacity="0.34" stroke-linecap="round"/>
<circle cx="10.07" cy="123.95" r="0.80" fill="#FF5A00" fill-opacity="0.95" stroke="none" stroke-width="0.25" stroke-opacity="1.0"/>
<path d="M12.73,123.17 L12.33,122.90 L11.93,123.01 L11.80,123.33 L12.04,123.62 L12.44,123.75 L12.63,124.02 L12.49,124.39 L12.07,124.50 L11.67,124.23 M13.05,124.50 L13.59,122.90 L14.12,124.50 M13.27,123.94 L13.91,123.94 M14.49,124.50 L14.49,122.90 L15.16,123.75 L15.83,122.90 L15.83,124.50 M16.20,123.70 L16.95,123.70 M18.49,122.90 L17.43,122.90 L17.43,124.50 L18.49,124.50 M17.43,123.70 L18.23,123.70" fill="none" stroke="#ECE7DD" stroke-width="0.28" stroke-linecap="round" stroke-linejoin="round"/>
</svg>
