<?xml version="1.0" encoding="UTF-8"?>
<!-- Generated by tools/panelgen (Sam-e system v0.4). Edit the spec, not this file. -->
<svg xmlns="http://www.w3.org/2000/svg" version="1.1" width="30.48mm" height="128.5mm" viewBox="0 0 30.48 128.5">
<defs><linearGradient id="bg" x1="0" y1="0" x2="0" y2="128.5" gradientUnits="userSpaceOnUse"><stop offset="0" stop-color="#100b12"/><stop offset="0.5" stop-color="#0b070b"/><stop offset="1" stop-color="#08060a"/></linearGradient></defs>
<rect x="0" y="0" width="30.48" height="128.5" fill="url(#bg)"/>
<line x1="4.24" y1="15.50" x2="6.64" y2="15.50" stroke="#F5F5F1" stroke-width="0.22" stroke-opacity="0.3" stroke-linecap="round"/><line x1="4.24" y1="15.50" x2="4.24" y2="17.90" stroke="#F5F5F1" stroke-width="0.22" stroke-opacity="0.3" stroke-linecap="round"/><line x1="26.24" y1="15.50" x2="23.84" y2="15.50" stroke="#F5F5F1" stroke-width="0.22" stroke-opacity="0.3" stroke-linecap="round"/><line x1="26.24" y1="15.50" x2="26.24" y2="17.90" stroke="#F5F5F1" stroke-width="0.22" stroke-opacity="0.3" stroke-linecap="round"/><line x1="4.24" y1="121.00" x2="6.64" y2="121.00" stroke="#F5F5F1" stroke-width="0.22" stroke-opacity="0.3" stroke-linecap="round"/><line x1="4.24" y1="121.00" x2="4.24" y2="118.60" stroke="#F5F5F1" stroke-width="0.22" stroke-opacity="0.3" stroke-linecap="round"/><line x1="26.24" y1="121.00" x2="23.84" y2="121.00" stroke="#F5F5F1" stroke-width="0.22" stroke-opacity="0.3" stroke-linecap="round"/><line x1="26.24" y1="121.00" x2="26.24" y2="118.60" stroke="#F5F5F1" stroke-width="0.22" stroke-opacity="0.3" stroke-linecap="round"/>
<path d="M 5.839 8.038 Q 5.619 8.038 5.451 7.959 Q 5.282 7.881 5.187 7.734 Q 5.092 7.587 5.092 7.381 V 7.305 H 5.445 V 7.381 Q 5.445 7.552 5.551 7.638 Q 5.657 7.723 5.839 7.723 Q 6.023 7.723 6.114 7.650 Q 6.205 7.577 6.205 7.463 Q 6.205 7.384 6.160 7.335 Q 6.116 7.286 6.030 7.255 Q 5.945 7.224 5.822 7.197 L 5.760 7.183 Q 5.565 7.140 5.425 7.073 Q 5.285 7.007 5.210 6.898 Q 5.136 6.789 5.136 6.616 Q 5.136 6.442 5.218 6.319 Q 5.301 6.195 5.452 6.128 Q 5.603 6.062 5.806 6.062 Q 6.010 6.062 6.168 6.131 Q 6.327 6.200 6.418 6.338 Q 6.509 6.475 6.509 6.681 V 6.762 H 6.156 V 6.681 Q 6.156 6.572 6.114 6.506 Q 6.072 6.439 5.993 6.408 Q 5.915 6.377 5.806 6.377 Q 5.643 6.377 5.566 6.438 Q 5.489 6.499 5.489 6.605 Q 5.489 6.675 5.525 6.724 Q 5.562 6.773 5.635 6.806 Q 5.708 6.838 5.822 6.863 L 5.885 6.876 Q 6.088 6.920 6.239 6.988 Q 6.390 7.055 6.474 7.167 Q 6.558 7.278 6.558 7.452 Q 6.558 7.625 6.470 7.757 Q 6.382 7.889 6.220 7.963 Q 6.059 8.038 5.839 8.038 Z M 6.829 7.463 V 7.153 H 7.633 V 7.463 Z" fill="#FF5A00" fill-rule="nonzero"/>
<path d="M 8.542 8.000 V 7.685 H 8.792 V 6.415 H 8.542 V 6.100 H 9.519 Q 9.693 6.100 9.822 6.158 Q 9.951 6.217 10.023 6.324 Q 10.095 6.431 10.095 6.580 V 6.608 Q 10.095 6.738 10.046 6.821 Q 9.997 6.903 9.931 6.948 Q 9.864 6.993 9.804 7.012 V 7.061 Q 9.864 7.077 9.935 7.122 Q 10.005 7.167 10.055 7.251 Q 10.106 7.335 10.106 7.471 V 7.498 Q 10.106 7.655 10.032 7.768 Q 9.959 7.881 9.830 7.940 Q 9.701 8.000 9.530 8.000 Z M 9.150 7.674 H 9.487 Q 9.603 7.674 9.675 7.617 Q 9.747 7.560 9.747 7.454 V 7.427 Q 9.747 7.321 9.677 7.264 Q 9.606 7.207 9.487 7.207 H 9.150 Z M 9.150 6.882 H 9.481 Q 9.593 6.882 9.665 6.825 Q 9.736 6.768 9.736 6.667 V 6.640 Q 9.736 6.537 9.666 6.481 Q 9.595 6.426 9.481 6.426 H 9.150 Z M 10.269 8.000 10.768 6.100 H 11.392 L 11.892 8.000 H 11.523 L 11.419 7.582 H 10.741 L 10.638 8.000 Z M 10.825 7.251 H 11.335 L 11.105 6.325 H 11.056 Z M 12.120 8.000 V 6.100 H 12.801 L 13.178 7.756 H 13.227 V 6.100 H 13.580 V 8.000 H 12.899 L 12.521 6.344 H 12.472 V 8.000 Z M 13.938 8.000 V 6.100 H 14.296 V 6.855 H 14.345 L 14.961 6.100 H 15.420 L 14.628 7.036 L 15.447 8.000 H 14.975 L 14.345 7.229 H 14.296 V 8.000 Z" fill="#ECE7DD" fill-rule="nonzero"/>
<path d="M 5.321 11.900 V 8.500 H 5.962 V 11.317 H 7.516 V 11.900 Z M 7.953 11.900 V 8.500 H 9.352 Q 9.673 8.500 9.918 8.629 Q 10.163 8.757 10.302 8.991 Q 10.440 9.224 10.440 9.544 V 9.612 Q 10.440 9.928 10.297 10.164 Q 10.153 10.399 9.908 10.528 Q 9.663 10.657 9.352 10.657 H 8.594 V 11.900 Z M 8.594 10.074 H 9.289 Q 9.517 10.074 9.658 9.947 Q 9.799 9.821 9.799 9.603 V 9.554 Q 9.799 9.335 9.658 9.209 Q 9.517 9.083 9.289 9.083 H 8.594 Z M 12.062 11.968 Q 11.713 11.968 11.429 11.810 Q 11.144 11.652 10.977 11.349 Q 10.809 11.045 10.809 10.608 V 9.792 Q 10.809 9.136 11.178 8.784 Q 11.548 8.432 12.179 8.432 Q 12.806 8.432 13.148 8.765 Q 13.490 9.097 13.490 9.666 V 9.685 H 12.859 V 9.646 Q 12.859 9.467 12.784 9.321 Q 12.708 9.175 12.558 9.090 Q 12.407 9.005 12.179 9.005 Q 11.839 9.005 11.645 9.214 Q 11.450 9.423 11.450 9.782 V 10.618 Q 11.450 10.972 11.645 11.188 Q 11.839 11.405 12.189 11.405 Q 12.538 11.405 12.699 11.220 Q 12.859 11.035 12.859 10.754 V 10.705 H 12.053 V 10.161 H 13.490 V 11.900 H 12.898 V 11.575 H 12.810 Q 12.776 11.657 12.701 11.749 Q 12.626 11.842 12.475 11.905 Q 12.325 11.968 12.062 11.968 Z" fill="#ECE7DD" fill-rule="nonzero"/>
<line x1="5.00" y1="12.80" x2="25.48" y2="12.80" stroke="#F5F5F1" stroke-width="0.25" stroke-opacity="0.34" stroke-linecap="round"/>
<line x1="5.00" y1="84.00" x2="25.48" y2="84.00" stroke="#F5F5F1" stroke-width="0.22" stroke-opacity="0.2" stroke-linecap="round"/>
<circle cx="15.24" cy="24.00" r="5.80" fill="#14101a" fill-opacity="0.9" stroke="#F5F5F1" stroke-width="0.2" stroke-opacity="0.16"/>
<path d="M10.08,29.16 A7.30,7.30 0 1 1 20.40,29.16" fill="none" stroke="#F5F5F1" stroke-width="0.18" stroke-opacity="0.28" stroke-linecap="round"/><line x1="10.93" y1="28.31" x2="10.01" y2="29.23" stroke="#F5F5F1" stroke-width="0.2" stroke-opacity="0.38" stroke-linecap="round"/><line x1="9.05" y1="21.44" x2="8.40" y2="21.17" stroke="#F5F5F1" stroke-width="0.12" stroke-opacity="0.28" stroke-linecap="round"/><line x1="15.24" y1="17.90" x2="15.24" y2="16.60" stroke="#F5F5F1" stroke-width="0.2" stroke-opacity="0.38" stroke-linecap="round"/><line x1="21.43" y1="21.44" x2="22.08" y2="21.17" stroke="#F5F5F1" stroke-width="0.12" stroke-opacity="0.28" stroke-linecap="round"/><line x1="19.55" y1="28.31" x2="20.47" y2="29.23" stroke="#F5F5F1" stroke-width="0.2" stroke-opacity="0.38" stroke-linecap="round"/><line x1="15.24" y1="18.60" x2="15.24" y2="16.10" stroke="#F5F5F1" stroke-width="0.28" stroke-opacity="0.5800000000000001" stroke-linecap="round"/><circle cx="10.08" cy="29.16" r="0.40" fill="#F5F5F1" fill-opacity="0.48000000000000004" stroke="none" stroke-width="0.25" stroke-opacity="1.0"/><circle cx="20.40" cy="29.16" r="0.40" fill="#F5F5F1" fill-opacity="0.48000000000000004" stroke="none" stroke-width="0.25" stroke-opacity="1.0"/>
<circle cx="15.24" cy="44.00" r="5.80" fill="#14101a" fill-opacity="0.9" stroke="#F5F5F1" stroke-width="0.2" stroke-opacity="0.16"/>
<path d="M10.08,49.16 A7.30,7.30 0 1 1 20.40,49.16" fill="none" stroke="#F5F5F1" stroke-width="0.18" stroke-opacity="0.28" stroke-linecap="round"/><line x1="10.93" y1="48.31" x2="10.01" y2="49.23" stroke="#F5F5F1" stroke-width="0.2" stroke-opacity="0.38" stroke-linecap="round"/><line x1="9.05" y1="41.44" x2="8.40" y2="41.17" stroke="#F5F5F1" stroke-width="0.12" stroke-opacity="0.28" stroke-linecap="round"/><line x1="15.24" y1="37.90" x2="15.24" y2="36.60" stroke="#F5F5F1" stroke-width="0.2" stroke-opacity="0.38" stroke-linecap="round"/><line x1="21.43" y1="41.44" x2="22.08" y2="41.17" stroke="#F5F5F1" stroke-width="0.12" stroke-opacity="0.28" stroke-linecap="round"/><line x1="19.55" y1="48.31" x2="20.47" y2="49.23" stroke="#F5F5F1" stroke-width="0.2" stroke-opacity="0.38" stroke-linecap="round"/><line x1="15.24" y1="38.60" x2="15.24" y2="36.10" stroke="#F5F5F1" stroke-width="0.28" stroke-opacity="0.5800000000000001" stroke-linecap="round"/><circle cx="10.08" cy="49.16" r="0.40" fill="#F5F5F1" fill-opacity="0.48000000000000004" stroke="none" stroke-width="0.25" stroke-opacity="1.0"/><circle cx="20.40" cy="49.16" r="0.40" fill="#F5F5F1" fill-opacity="0.48000000000000004" stroke="none" stroke-width="0.25" stroke-opacity="1.0"/>
<rect x="13.94" y="59.30" width="2.60" height="5.40" rx="0.80" fill="#14101a" fill-opacity="0.9" stroke="#ECE7DD" stroke-width="0.22" stroke-opacity="0.5"/>
<circle cx="12.04" cy="61.00" r="0.26" fill="#ECE7DD" fill-opacity="0.7" stroke="none" stroke-width="0.25" stroke-opacity="1.0"/>
<circle cx="11.54" cy="62.80" r="0.26" fill="#ECE7DD" fill-opacity="0.5" stroke="none" stroke-width="0.25" stroke-opacity="1.0"/>
<circle cx="18.64" cy="62.40" r="0.26" fill="#ECE7DD" fill-opacity="0.6" stroke="none" stroke-width="0.25" stroke-opacity="1.0"/>
<rect x="13.94" y="73.30" width="2.60" height="5.40" rx="0.80" fill="#14101a" fill-opacity="0.9" stroke="#ECE7DD" stroke-width="0.22" stroke-opacity="0.5"/>
<circle cx="12.04" cy="75.00" r="0.26" fill="#ECE7DD" fill-opacity="0.7" stroke="none" stroke-width="0.25" stroke-opacity="1.0"/>
<circle cx="11.54" cy="76.80" r="0.26" fill="#ECE7DD" fill-opacity="0.5" stroke="none" stroke-width="0.25" stroke-opacity="1.0"/>
<circle cx="18.64" cy="76.40" r="0.26" fill="#ECE7DD" fill-opacity="0.6" stroke="none" stroke-width="0.25" stroke-opacity="1.0"/>
<circle cx="15.24" cy="93.00" r="3.65" fill="#14101a" fill-opacity="0.9" stroke="#F5F5F1" stroke-width="0.2" stroke-opacity="0.16"/>
<circle cx="15.24" cy="105.00" r="3.65" fill="#14101a" fill-opacity="0.9" stroke="#F5F5F1" stroke-width="0.2" stroke-opacity="0.16"/>
<circle cx="15.24" cy="105.00" r="3.85" fill="none" fill-opacity="1.0" stroke="#19D2E5" stroke-width="0.22" stroke-opacity="0.4"/>
<circle cx="15.24" cy="117.00" r="3.65" fill="#14101a" fill-opacity="0.9" stroke="#F5F5F1" stroke-width="0.2" stroke-opacity="0.16"/>
<circle cx="15.24" cy="117.00" r="3.90" fill="none" fill-opacity="1.0" stroke="#FF5A00" stroke-width="0.28" stroke-opacity="0.55"/>
<path d="M 13.462 13.962 Q 13.462 14.099 13.408 14.202 Q 13.354 14.305 13.261 14.375 Q 13.168 14.445 13.053 14.484 L 13.573 15.300 H 13.142 L 12.693 14.543 H 12.520 V 15.300 H 12.145 V 13.400 H 12.704 Q 13.079 13.400 13.271 13.539 Q 13.462 13.678 13.462 13.962 Z M 13.072 13.962 Q 13.072 13.808 12.983 13.740 Q 12.893 13.672 12.713 13.672 H 12.520 V 14.277 H 12.726 Q 12.892 14.277 12.982 14.202 Q 13.072 14.128 13.072 13.962 Z M 14.255 13.678 V 14.198 H 14.928 V 14.472 H 14.255 V 15.024 H 15.072 V 15.300 H 13.878 V 13.400 H 15.063 L 15.024 13.678 Z M 16.770 14.755 Q 16.770 14.928 16.682 15.060 Q 16.593 15.191 16.427 15.266 Q 16.261 15.341 16.024 15.341 Q 15.777 15.341 15.600 15.268 Q 15.423 15.194 15.303 15.079 L 15.501 14.858 Q 15.604 14.950 15.732 15.002 Q 15.860 15.054 16.019 15.054 Q 16.121 15.054 16.202 15.022 Q 16.284 14.991 16.332 14.930 Q 16.379 14.869 16.379 14.779 Q 16.379 14.701 16.346 14.647 Q 16.313 14.594 16.233 14.551 Q 16.152 14.509 16.009 14.466 Q 15.799 14.402 15.663 14.324 Q 15.527 14.246 15.461 14.140 Q 15.395 14.033 15.395 13.888 Q 15.395 13.724 15.486 13.605 Q 15.577 13.487 15.731 13.423 Q 15.886 13.359 16.077 13.359 Q 16.288 13.359 16.449 13.420 Q 16.610 13.481 16.732 13.594 L 16.544 13.807 Q 16.446 13.723 16.333 13.683 Q 16.220 13.643 16.103 13.643 Q 16.011 13.643 15.939 13.668 Q 15.866 13.693 15.825 13.741 Q 15.784 13.789 15.784 13.863 Q 15.784 13.930 15.822 13.978 Q 15.860 14.025 15.952 14.066 Q 16.044 14.106 16.204 14.157 Q 16.373 14.208 16.500 14.279 Q 16.628 14.351 16.699 14.464 Q 16.770 14.577 16.770 14.755 Z M 18.452 14.349 Q 18.452 14.646 18.369 14.869 Q 18.286 15.093 18.121 15.217 Q 17.956 15.341 17.713 15.341 Q 17.471 15.341 17.306 15.220 Q 17.140 15.098 17.057 14.876 Q 16.974 14.654 16.974 14.351 Q 16.974 14.054 17.057 13.831 Q 17.140 13.607 17.306 13.483 Q 17.471 13.359 17.713 13.359 Q 17.956 13.359 18.121 13.480 Q 18.286 13.601 18.369 13.823 Q 18.452 14.046 18.452 14.349 Z M 18.065 14.349 Q 18.065 13.989 17.983 13.816 Q 17.901 13.642 17.713 13.642 Q 17.525 13.642 17.443 13.816 Q 17.361 13.991 17.361 14.351 Q 17.361 14.712 17.445 14.884 Q 17.529 15.057 17.713 15.057 Q 17.904 15.057 17.984 14.882 Q 18.065 14.708 18.065 14.349 Z" fill="#ECE7DD" fill-rule="nonzero"/>
<path d="M 12.283 34.341 Q 12.283 34.130 12.244 33.999 Q 12.205 33.868 12.138 33.799 Q 12.070 33.730 11.985 33.705 Q 11.900 33.680 11.808 33.680 H 11.668 V 35.021 H 11.809 Q 11.906 35.021 11.991 34.991 Q 12.077 34.961 12.143 34.886 Q 12.209 34.811 12.246 34.678 Q 12.283 34.546 12.283 34.341 Z M 12.676 34.341 Q 12.676 34.575 12.626 34.741 Q 12.576 34.907 12.488 35.016 Q 12.400 35.126 12.285 35.187 Q 12.171 35.249 12.041 35.275 Q 11.911 35.300 11.778 35.300 H 11.292 V 33.400 H 11.745 Q 11.922 33.400 12.088 33.438 Q 12.255 33.476 12.387 33.576 Q 12.520 33.676 12.598 33.861 Q 12.676 34.046 12.676 34.341 Z M 14.287 33.962 Q 14.287 34.099 14.232 34.202 Q 14.178 34.305 14.085 34.375 Q 13.993 34.445 13.877 34.484 L 14.398 35.300 H 13.966 L 13.517 34.543 H 13.344 V 35.300 H 12.969 V 33.400 H 13.528 Q 13.903 33.400 14.095 33.539 Q 14.287 33.678 14.287 33.962 Z M 13.896 33.962 Q 13.896 33.808 13.807 33.740 Q 13.718 33.672 13.538 33.672 H 13.344 V 34.277 H 13.550 Q 13.716 34.277 13.806 34.202 Q 13.896 34.128 13.896 33.962 Z M 15.831 33.400 V 33.682 H 15.428 V 35.018 H 15.831 V 35.300 H 14.649 V 35.018 H 15.052 V 33.682 H 14.649 V 33.400 Z M 16.895 34.977 17.308 33.400 H 17.692 L 17.113 35.300 H 16.665 L 16.088 33.400 H 16.487 Z M 18.377 33.678 V 34.198 H 19.050 V 34.472 H 18.377 V 35.024 H 19.194 V 35.300 H 18.000 V 33.400 H 19.184 L 19.146 33.678 Z" fill="#ECE7DD" fill-rule="nonzero"/>
<path d="M 15.043 86.850 V 87.087 H 14.704 V 88.213 H 15.043 V 88.450 H 14.048 V 88.213 H 14.387 V 87.087 H 14.048 V 86.850 Z M 16.085 88.450 15.614 87.121 Q 15.619 87.165 15.628 87.234 Q 15.636 87.304 15.643 87.391 Q 15.651 87.479 15.656 87.578 Q 15.661 87.676 15.661 87.777 V 88.450 H 15.386 V 86.850 H 15.788 L 16.255 88.177 Q 16.245 88.118 16.234 88.021 Q 16.223 87.924 16.215 87.798 Q 16.207 87.671 16.207 87.529 V 86.850 H 16.483 V 88.450 Z" fill="#ECE7DD" fill-rule="nonzero"/>
<path d="M 14.680 98.815 Q 14.847 98.815 14.962 98.859 Q 15.078 98.902 15.176 98.983 L 15.016 99.174 Q 14.947 99.116 14.866 99.086 Q 14.784 99.056 14.692 99.056 Q 14.581 99.056 14.487 99.115 Q 14.394 99.174 14.338 99.304 Q 14.282 99.434 14.282 99.647 Q 14.282 99.857 14.336 99.986 Q 14.390 100.116 14.483 100.175 Q 14.576 100.235 14.694 100.235 Q 14.819 100.235 14.901 100.191 Q 14.983 100.147 15.049 100.095 L 15.198 100.283 Q 15.114 100.367 14.987 100.426 Q 14.861 100.485 14.680 100.485 Q 14.471 100.485 14.306 100.389 Q 14.142 100.293 14.048 100.106 Q 13.955 99.920 13.955 99.647 Q 13.955 99.379 14.051 99.193 Q 14.148 99.007 14.313 98.911 Q 14.478 98.815 14.680 98.815 Z M 15.940 100.178 16.287 98.850 H 16.611 L 16.123 100.450 H 15.746 L 15.260 98.850 H 15.596 Z" fill="#19D2E5" fill-rule="nonzero"/>
<path d="M 14.474 111.649 Q 14.474 111.899 14.404 112.087 Q 14.334 112.275 14.195 112.380 Q 14.056 112.485 13.852 112.485 Q 13.648 112.485 13.509 112.382 Q 13.369 112.280 13.299 112.093 Q 13.229 111.906 13.229 111.651 Q 13.229 111.401 13.299 111.213 Q 13.369 111.025 13.509 110.920 Q 13.648 110.815 13.852 110.815 Q 14.056 110.815 14.195 110.917 Q 14.334 111.019 14.404 111.206 Q 14.474 111.394 14.474 111.649 Z M 14.148 111.649 Q 14.148 111.346 14.079 111.200 Q 14.010 111.054 13.852 111.054 Q 13.693 111.054 13.624 111.201 Q 13.555 111.347 13.555 111.651 Q 13.555 111.955 13.626 112.100 Q 13.697 112.245 13.852 112.245 Q 14.012 112.245 14.080 112.098 Q 14.148 111.951 14.148 111.649 Z M 15.813 110.850 V 111.920 Q 15.813 112.083 15.746 112.211 Q 15.680 112.339 15.552 112.412 Q 15.425 112.485 15.239 112.485 Q 15.051 112.485 14.924 112.414 Q 14.797 112.342 14.732 112.215 Q 14.667 112.088 14.667 111.920 V 110.850 H 14.984 V 111.831 Q 14.984 112.036 15.040 112.138 Q 15.095 112.241 15.239 112.241 Q 15.383 112.241 15.439 112.138 Q 15.495 112.036 15.495 111.831 V 110.850 Z M 16.783 111.099 V 112.450 H 16.467 V 111.099 H 16.000 V 110.850 H 17.265 L 17.232 111.099 Z" fill="#FF5A00" fill-rule="nonzero"/>
<path d="M 13.711 54.900 13.801 56.500 H 13.518 L 13.488 55.763 Q 13.485 55.670 13.484 55.591 Q 13.484 55.512 13.485 55.441 Q 13.486 55.370 13.489 55.304 Q 13.492 55.238 13.496 55.174 L 13.285 56.222 H 13.028 L 12.801 55.174 Q 12.806 55.236 12.809 55.303 Q 12.813 55.370 12.814 55.443 Q 12.816 55.515 12.817 55.596 Q 12.817 55.677 12.814 55.765 L 12.792 56.500 H 12.514 L 12.605 54.900 H 12.956 L 13.162 55.956 L 13.359 54.900 Z M 15.168 55.699 Q 15.168 55.949 15.098 56.137 Q 15.028 56.325 14.889 56.430 Q 14.751 56.535 14.546 56.535 Q 14.342 56.535 14.203 56.432 Q 14.063 56.330 13.993 56.143 Q 13.923 55.956 13.923 55.701 Q 13.923 55.451 13.993 55.263 Q 14.063 55.075 14.203 54.970 Q 14.342 54.865 14.546 54.865 Q 14.751 54.865 14.889 54.967 Q 15.028 55.069 15.098 55.256 Q 15.168 55.444 15.168 55.699 Z M 14.842 55.699 Q 14.842 55.396 14.773 55.250 Q 14.704 55.104 14.546 55.104 Q 14.387 55.104 14.318 55.251 Q 14.250 55.397 14.250 55.701 Q 14.250 56.005 14.320 56.150 Q 14.391 56.295 14.546 56.295 Q 14.707 56.295 14.774 56.148 Q 14.842 56.001 14.842 55.699 Z M 16.221 55.692 Q 16.221 55.514 16.188 55.404 Q 16.155 55.295 16.098 55.236 Q 16.042 55.178 15.970 55.157 Q 15.898 55.136 15.821 55.136 H 15.703 V 56.265 H 15.822 Q 15.903 56.265 15.975 56.240 Q 16.048 56.214 16.103 56.151 Q 16.159 56.088 16.190 55.977 Q 16.221 55.865 16.221 55.692 Z M 16.552 55.692 Q 16.552 55.889 16.510 56.029 Q 16.467 56.169 16.393 56.261 Q 16.319 56.353 16.223 56.405 Q 16.126 56.457 16.017 56.479 Q 15.908 56.500 15.795 56.500 H 15.386 V 54.900 H 15.768 Q 15.917 54.900 16.057 54.932 Q 16.197 54.964 16.308 55.048 Q 16.420 55.133 16.486 55.288 Q 16.552 55.444 16.552 55.692 Z M 17.187 55.134 V 55.572 H 17.754 V 55.802 H 17.187 V 56.267 H 17.875 V 56.500 H 16.870 V 54.900 H 17.867 L 17.835 55.134 Z" fill="#BDBDBD" fill-rule="nonzero"/>
<path d="M 15.168 69.699 Q 15.168 69.949 15.098 70.137 Q 15.028 70.325 14.889 70.430 Q 14.751 70.535 14.546 70.535 Q 14.342 70.535 14.203 70.432 Q 14.063 70.330 13.993 70.143 Q 13.923 69.956 13.923 69.701 Q 13.923 69.451 13.993 69.263 Q 14.063 69.075 14.203 68.970 Q 14.342 68.865 14.546 68.865 Q 14.751 68.865 14.889 68.967 Q 15.028 69.069 15.098 69.256 Q 15.168 69.444 15.168 69.699 Z M 14.842 69.699 Q 14.842 69.396 14.773 69.250 Q 14.704 69.104 14.546 69.104 Q 14.387 69.104 14.318 69.251 Q 14.250 69.397 14.250 69.701 Q 14.250 70.005 14.320 70.150 Q 14.391 70.295 14.546 70.295 Q 14.707 70.295 14.774 70.148 Q 14.842 70.001 14.842 69.699 Z M 16.529 70.041 Q 16.529 70.186 16.454 70.298 Q 16.380 70.409 16.240 70.472 Q 16.100 70.535 15.901 70.535 Q 15.692 70.535 15.543 70.473 Q 15.394 70.411 15.293 70.314 L 15.460 70.127 Q 15.547 70.205 15.654 70.249 Q 15.762 70.293 15.896 70.293 Q 15.982 70.293 16.050 70.266 Q 16.119 70.240 16.159 70.188 Q 16.199 70.137 16.199 70.062 Q 16.199 69.996 16.171 69.950 Q 16.144 69.905 16.076 69.869 Q 16.008 69.834 15.888 69.798 Q 15.711 69.743 15.596 69.678 Q 15.482 69.613 15.426 69.523 Q 15.371 69.433 15.371 69.311 Q 15.371 69.173 15.447 69.073 Q 15.523 68.973 15.654 68.919 Q 15.784 68.865 15.945 68.865 Q 16.123 68.865 16.258 68.917 Q 16.393 68.968 16.496 69.063 L 16.338 69.242 Q 16.256 69.172 16.160 69.138 Q 16.065 69.105 15.967 69.105 Q 15.889 69.105 15.828 69.126 Q 15.768 69.146 15.733 69.187 Q 15.698 69.227 15.698 69.290 Q 15.698 69.347 15.730 69.386 Q 15.762 69.426 15.839 69.461 Q 15.917 69.495 16.052 69.537 Q 16.194 69.580 16.301 69.640 Q 16.408 69.701 16.469 69.796 Q 16.529 69.891 16.529 70.041 Z" fill="#BDBDBD" fill-rule="nonzero"/>
<line x1="5.00" y1="122.30" x2="25.48" y2="122.30" stroke="#F5F5F1" stroke-width="0.25" stroke-opacity="0.34" stroke-linecap="round"/>
<circle cx="10.09" cy="123.95" r="0.80" fill="#FF5A00" fill-opacity="0.95" stroke="none" stroke-width="0.25" stroke-opacity="1.0"/>
<path d="M 12.394 124.532 Q 12.209 124.532 12.068 124.466 Q 11.926 124.399 11.846 124.276 Q 11.766 124.153 11.766 123.979 V 123.915 H 12.063 V 123.979 Q 12.063 124.123 12.152 124.195 Q 12.241 124.267 12.394 124.267 Q 12.550 124.267 12.626 124.205 Q 12.703 124.143 12.703 124.047 Q 12.703 123.981 12.665 123.940 Q 12.628 123.899 12.556 123.873 Q 12.484 123.846 12.381 123.823 L 12.328 123.812 Q 12.164 123.775 12.046 123.719 Q 11.928 123.663 11.865 123.572 Q 11.802 123.481 11.802 123.334 Q 11.802 123.188 11.872 123.084 Q 11.942 122.980 12.069 122.924 Q 12.196 122.868 12.367 122.868 Q 12.538 122.868 12.672 122.926 Q 12.806 122.985 12.882 123.100 Q 12.959 123.215 12.959 123.389 V 123.458 H 12.662 V 123.389 Q 12.662 123.298 12.626 123.242 Q 12.591 123.186 12.525 123.159 Q 12.458 123.133 12.367 123.133 Q 12.230 123.133 12.165 123.185 Q 12.100 123.236 12.100 123.325 Q 12.100 123.385 12.130 123.426 Q 12.161 123.467 12.223 123.494 Q 12.285 123.522 12.381 123.542 L 12.433 123.554 Q 12.605 123.590 12.732 123.647 Q 12.858 123.705 12.929 123.798 Q 13.000 123.892 13.000 124.038 Q 13.000 124.185 12.926 124.295 Q 12.852 124.406 12.716 124.469 Q 12.580 124.532 12.394 124.532 Z M 13.114 124.500 13.535 122.900 H 14.061 L 14.481 124.500 H 14.170 L 14.083 124.148 H 13.512 L 13.425 124.500 Z M 13.583 123.869 H 14.013 L 13.818 123.090 H 13.777 Z M 14.673 124.500 V 122.900 H 15.233 L 15.510 124.294 H 15.551 L 15.827 122.900 H 16.387 V 124.500 H 16.095 V 123.122 H 16.054 L 15.779 124.500 H 15.281 L 15.007 123.122 H 14.966 V 124.500 Z M 16.694 124.047 V 123.787 H 17.370 V 124.047 Z M 17.677 124.500 V 122.900 H 18.705 V 123.174 H 17.978 V 123.556 H 18.641 V 123.830 H 17.978 V 124.226 H 18.719 V 124.500 Z" fill="#ECE7DD" fill-rule="nonzero"/>
</svg>
