<?xml version="1.0" encoding="UTF-8"?>
<!-- Generated by tools/panelgen from the Sam-e panel system. Do not edit by hand; edit the spec and regenerate. -->
<svg xmlns="http://www.w3.org/2000/svg" version="1.1" width="30.48mm" height="128.5mm" viewBox="0 0 30.48 128.5">
<defs><linearGradient id="bg" x1="0" y1="0" x2="0" y2="128.5" gradientUnits="userSpaceOnUse"><stop offset="0" stop-color="#211d3a"/><stop offset="1" stop-color="#15131f"/></linearGradient><style>text{font-family:Fira Code, 'IBM Plex Mono', monospace;fill:#c8c2f0;}.disp{font-family:Space Grotesk, Helvetica, Arial, sans-serif;}.lbl{font-size:1.9px;letter-spacing:.1px;}.sm{font-size:1.6px;fill:#9b93d6;letter-spacing:.08px;}.tag{font-size:2.4px;letter-spacing:.14px;}</style></defs>
<rect x="0" y="0" width="30.48" height="128.5" fill="url(#bg)"/>
<rect x="0.4" y="0.4" width="29.68" height="127.7" fill="none" stroke="#3a3560" stroke-width="0.3" rx="1.2"/>
<path d="M2.60,4.0 h2.8 M4.00,2.6 v2.8" stroke="#3a3560" stroke-width="0.25"/>
<path d="M25.08,4.0 h2.8 M26.48,2.6 v2.8" stroke="#3a3560" stroke-width="0.25"/>
<path d="M8.60,5.00 L8.00,4.60 L7.40,4.76 L7.20,5.24 L7.56,5.68 L8.16,5.88 L8.44,6.28 L8.24,6.84 L7.60,7.00 L7.00,6.60 M9.32,5.80 L10.44,5.80 M11.16,4.60 L11.16,7.00 M11.16,4.60 L12.28,4.68 L12.52,5.16 L12.20,5.72 L11.16,5.72 M11.16,5.72 L12.36,5.84 L12.56,6.36 L12.24,6.92 L11.16,7.00 M13.32,7.00 L14.12,4.60 L14.92,7.00 M13.64,6.16 L14.60,6.16 M15.48,7.00 L15.48,4.60 L17.08,7.00 L17.08,4.60 M17.64,4.60 L17.64,7.00 M17.64,5.96 L19.24,4.60 M18.20,5.56 L19.24,7.00" fill="none" stroke="#e8e4ff" stroke-width="0.22" stroke-linecap="round" stroke-linejoin="round"/>
<path d="M17.16,4.60 L17.16,7.00 L18.76,7.00 M19.16,7.00 L19.16,4.60 L20.36,4.68 L20.60,5.16 L20.36,5.68 L19.16,5.76 M22.84,5.04 L22.24,4.60 L21.64,4.76 L21.24,5.40 L21.24,6.20 L21.64,6.84 L22.24,7.00 L22.84,6.84 L22.84,6.04 L22.20,6.04" fill="none" stroke="#e8e4ff" stroke-width="0.22" stroke-linecap="round" stroke-linejoin="round"/>
<line x1="7" y1="9" x2="23.48" y2="9" stroke="#3a3560" stroke-width="0.25"/>
<path d="M8.00,124.25 L7.62,124.00 L7.25,124.10 L7.12,124.40 L7.35,124.67 L7.72,124.80 L7.90,125.05 L7.78,125.40 L7.38,125.50 L7.00,125.25 M9.30,124.00 L8.30,124.00 L8.30,125.50 L9.30,125.50 M8.30,124.75 L9.05,124.75 M9.60,125.50 L9.60,124.00 L10.35,124.05 L10.50,124.35 L10.35,124.67 L9.60,124.72 M10.00,124.72 L10.60,125.50 M12.35,124.00 L12.00,124.15 L11.85,124.50 L11.85,125.00 L12.00,125.35 L12.35,125.50 L12.70,125.35 L12.85,125.00 L12.85,124.50 L12.70,124.15 L12.35,124.00 M12.00,125.35 L12.70,124.15 M13.75,124.00 L13.40,124.15 L13.25,124.50 L13.25,125.00 L13.40,125.35 L13.75,125.50 L14.10,125.35 L14.25,125.00 L14.25,124.50 L14.10,124.15 L13.75,124.00 M13.40,125.35 L14.10,124.15 M14.85,124.30 L15.15,124.00 L15.15,125.50 M14.90,125.50 L15.40,125.50" fill="none" stroke="#9b93d6" stroke-width="0.18" stroke-linecap="round" stroke-linejoin="round"/>
<circle cx="22.48" cy="124.8" r="0.9" fill="#FF5A00"/>
<path d="M24.98,124.25 L24.61,124.00 L24.23,124.10 L24.11,124.40 L24.33,124.67 L24.71,124.80 L24.88,125.05 L24.75,125.40 L24.36,125.50 L23.98,125.25 M25.53,124.00 L26.03,124.00 M25.78,124.00 L25.78,125.50 M25.53,125.50 L26.03,125.50 M27.03,124.28 L26.66,124.00 L26.28,124.10 L26.03,124.50 L26.03,125.00 L26.28,125.40 L26.66,125.50 L27.03,125.40 L27.03,124.90 L26.63,124.90 M27.43,125.50 L27.43,124.00 L28.43,125.50 L28.43,124.00 M28.78,125.50 L29.28,124.00 L29.78,125.50 M28.98,124.97 L29.58,124.97 M30.13,124.00 L30.13,125.50 L31.13,125.50 M33.28,124.25 L32.91,124.00 L32.53,124.10 L32.41,124.40 L32.63,124.67 L33.01,124.80 L33.18,125.05 L33.05,125.40 L32.66,125.50 L32.28,125.25 M33.58,124.00 L34.58,124.00 M34.08,124.00 L34.08,125.50 M34.88,125.50 L35.38,124.00 L35.88,125.50 M35.08,124.97 L35.68,124.97 M36.23,124.00 L36.23,125.50 M36.23,124.00 L36.93,124.05 L37.08,124.35 L36.88,124.70 L36.23,124.70 M36.23,124.70 L36.98,124.78 L37.10,125.10 L36.90,125.45 L36.23,125.50 M37.58,124.00 L37.58,125.50 L38.58,125.50 M39.83,124.00 L38.83,124.00 L38.83,125.50 L39.83,125.50 M38.83,124.75 L39.58,124.75" fill="none" stroke="#9b93d6" stroke-width="0.18" stroke-linecap="round" stroke-linejoin="round"/>
<path d="M12.89,124.25 L12.52,124.00 L12.14,124.10 L12.02,124.40 L12.24,124.67 L12.62,124.80 L12.79,125.05 L12.67,125.40 L12.27,125.50 L11.89,125.25 M13.19,125.50 L13.69,124.00 L14.19,125.50 M13.39,124.97 L13.99,124.97 M14.54,125.50 L14.54,124.00 L15.17,124.80 L15.79,124.00 L15.79,125.50 M16.14,124.75 L16.84,124.75 M18.29,124.00 L17.29,124.00 L17.29,125.50 L18.29,125.50 M17.29,124.75 L18.04,124.75" fill="none" stroke="#9b93d6" stroke-width="0.18" stroke-linecap="round" stroke-linejoin="round"/>
<line x1="7" y1="82.0" x2="23.48" y2="82.0" stroke="#2c2748" stroke-width="0.25"/>
<path d="M12.31,51.50 L12.31,49.90 L12.97,50.75 L13.64,49.90 L13.64,51.50 M14.39,49.90 L14.01,50.06 L13.85,50.43 L13.85,50.97 L14.01,51.34 L14.39,51.50 L14.76,51.34 L14.92,50.97 L14.92,50.43 L14.76,50.06 L14.39,49.90 M15.35,49.90 L15.35,51.50 M15.35,49.90 L15.99,49.98 L16.36,50.43 L16.36,50.97 L15.99,51.42 L15.35,51.50 M17.85,49.90 L16.79,49.90 L16.79,51.50 L17.85,51.50 M16.79,50.70 L17.59,50.70" fill="none" stroke="#9b93d6" stroke-width="0.18" stroke-linecap="round" stroke-linejoin="round"/>
<path d="M14.33,63.90 L13.96,64.06 L13.80,64.43 L13.80,64.97 L13.96,65.34 L14.33,65.50 L14.71,65.34 L14.87,64.97 L14.87,64.43 L14.71,64.06 L14.33,63.90 M16.36,64.17 L15.96,63.90 L15.56,64.01 L15.43,64.33 L15.67,64.62 L16.07,64.75 L16.25,65.02 L16.12,65.39 L15.69,65.50 L15.29,65.23" fill="none" stroke="#9b93d6" stroke-width="0.18" stroke-linecap="round" stroke-linejoin="round"/>
<path d="M11.85,12.00 L11.85,10.10 L12.80,10.16 L12.99,10.54 L12.80,10.96 L11.85,11.02 M12.36,11.02 L13.12,12.00 M14.83,10.10 L13.56,10.10 L13.56,12.00 L14.83,12.00 M13.56,11.05 L14.51,11.05 M16.47,10.42 L16.00,10.10 L15.52,10.23 L15.37,10.61 L15.65,10.96 L16.13,11.11 L16.35,11.43 L16.19,11.87 L15.68,12.00 L15.21,11.68 M17.49,10.10 L17.04,10.29 L16.85,10.73 L16.85,11.37 L17.04,11.81 L17.49,12.00 L17.93,11.81 L18.12,11.37 L18.12,10.73 L17.93,10.29 L17.49,10.10" fill="none" stroke="#c8c2f0" stroke-width="0.18" stroke-linecap="round" stroke-linejoin="round"/>
<path d="M11.38,30.10 L11.38,32.00 M11.38,30.10 L12.14,30.20 L12.58,30.73 L12.58,31.37 L12.14,31.91 L11.38,32.00 M13.09,32.00 L13.09,30.10 L14.04,30.16 L14.23,30.54 L14.04,30.96 L13.09,31.02 M13.59,31.02 L14.35,32.00 M15.11,30.10 L15.75,30.10 M15.43,30.10 L15.43,32.00 M15.11,32.00 L15.75,32.00 M15.75,30.10 L16.38,32.00 L17.01,30.10 M18.72,30.10 L17.46,30.10 L17.46,32.00 L18.72,32.00 M17.46,31.05 L18.41,31.05" fill="none" stroke="#c8c2f0" stroke-width="0.18" stroke-linecap="round" stroke-linejoin="round"/>
<path d="M14.39,83.90 L14.92,83.90 M14.65,83.90 L14.65,85.50 M14.39,85.50 L14.92,85.50 M14.92,85.50 L14.92,83.90 L15.99,85.50 L15.99,83.90" fill="none" stroke="#c8c2f0" stroke-width="0.18" stroke-linecap="round" stroke-linejoin="round"/>
<path d="M14.87,96.19 L14.47,95.90 L14.07,96.01 L13.80,96.43 L13.80,96.97 L14.07,97.39 L14.47,97.50 L14.87,97.21 M15.24,95.90 L15.77,97.50 L16.31,95.90" fill="none" stroke="#c8c2f0" stroke-width="0.18" stroke-linecap="round" stroke-linejoin="round"/>
<path d="M13.61,108.90 L13.24,109.06 L13.08,109.43 L13.08,109.97 L13.24,110.34 L13.61,110.50 L13.99,110.34 L14.15,109.97 L14.15,109.43 L13.99,109.06 L13.61,108.90 M14.57,108.90 L14.57,110.07 L14.84,110.42 L15.11,110.50 L15.37,110.42 L15.64,110.07 L15.64,108.90 M16.01,108.90 L17.08,108.90 M16.55,108.90 L16.55,110.50" fill="none" stroke="#FF5A00" stroke-width="0.18" stroke-linecap="round" stroke-linejoin="round"/>
</svg>
